<svg width="50" height="50" viewBox="0 0 50 50" fill="none" xmlns="http://www.w3.org/2000/svg">
<g clip-path="url(#clip0_36_1342)">
<g filter="url(#filter0_f_36_1342)">
<path fill-rule="evenodd" clip-rule="evenodd" d="M44.7504 10.75L39.6254 5.625L25.3754 20L11.1254 5.625L6.00037 10.75L20.3754 25L6.00037 39.25L11.1254 44.375L25.3754 30L39.6254 44.375L44.7504 39.25L30.3754 25L44.7504 10.75Z" fill="url(#paint0_linear_36_1342)"/>
</g>
<g filter="url(#filter1_d_36_1342)">
<path fill-rule="evenodd" clip-rule="evenodd" d="M44.375 10.75L39.25 5.625L25 20L10.75 5.625L5.625 10.75L20 25L5.625 39.25L10.75 44.375L25 30L39.25 44.375L44.375 39.25L30 25L44.375 10.75Z" fill="#FF0000"/>
</g>
</g>
<defs>
<filter id="filter0_f_36_1342" x="1.31287" y="0.9375" width="48.125" height="48.125" filterUnits="userSpaceOnUse" color-interpolation-filters="sRGB">
<feFlood flood-opacity="0" result="BackgroundImageFix"/>
<feBlend mode="normal" in="SourceGraphic" in2="BackgroundImageFix" result="shape"/>
<feGaussianBlur stdDeviation="2.34375" result="effect1_foregroundBlur_36_1342"/>
</filter>
<filter id="filter1_d_36_1342" x="2.5" y="5.625" width="45" height="45" filterUnits="userSpaceOnUse" color-interpolation-filters="sRGB">
<feFlood flood-opacity="0" result="BackgroundImageFix"/>
<feColorMatrix in="SourceAlpha" type="matrix" values="0 0 0 0 0 0 0 0 0 0 0 0 0 0 0 0 0 0 127 0" result="hardAlpha"/>
<feOffset dy="3.125"/>
<feGaussianBlur stdDeviation="1.5625"/>
<feComposite in2="hardAlpha" operator="out"/>
<feColorMatrix type="matrix" values="0 0 0 0 0 0 0 0 0 0 0 0 0 0 0 0 0 0 0.75 0"/>
<feBlend mode="normal" in2="BackgroundImageFix" result="effect1_dropShadow_36_1342"/>
<feBlend mode="normal" in="SourceGraphic" in2="effect1_dropShadow_36_1342" result="shape"/>
</filter>
<linearGradient id="paint0_linear_36_1342" x1="25.3754" y1="5.625" x2="25.3754" y2="44.375" gradientUnits="userSpaceOnUse">
<stop offset="0" stop-color="#FD0000"/>
<stop offset="1" stop-color="#AB0000"/>
</linearGradient>
<clipPath id="clip0_36_1342">
<rect width="50" height="50" fill="white"/>
</clipPath>
</defs>
</svg>
