<svg width="50" height="50" viewBox="0 0 50 50" fill="none" xmlns="http://www.w3.org/2000/svg">
<g clip-path="url(#clip0_36_1329)">
<g filter="url(#filter0_f_36_1329)">
<path d="M10.406 25.2026H2.00024L12.4985 35.7008L22.9967 25.2026H14.5909C14.5909 22.711 15.3298 20.2753 16.7141 18.2036C18.0983 16.1319 20.0658 14.5172 22.3678 13.5637C24.6698 12.6102 27.2028 12.3607 29.6465 12.8468C32.0903 13.3329 34.335 14.5327 36.0968 16.2946C37.8587 18.0564 39.0585 20.3012 39.5446 22.7449C40.0307 25.1886 39.7812 27.7216 38.8277 30.0236C37.8742 32.3256 36.2595 34.2931 34.1878 35.6773C32.1161 37.0616 29.6804 37.8005 27.1888 37.8005V41.9997C30.5116 42.0026 33.7605 41.0199 36.5247 39.1759C39.2888 37.3319 41.444 34.7095 42.7175 31.6405C43.991 28.5715 44.3257 25.1937 43.6792 21.9344C43.0327 18.6752 41.4341 15.6809 39.0855 13.3303C36.737 10.9798 33.744 9.37857 30.4853 8.72928C27.2266 8.08 23.8485 8.4118 20.7784 9.68272C17.7083 10.9536 15.0841 13.1066 13.2378 15.8691C11.3915 18.6317 10.406 21.8798 10.406 25.2026V25.2026Z" fill="#AAAAAA"/>
</g>
<g filter="url(#filter1_d_36_1329)">
<path d="M10.406 25.2026H2.00024L12.4985 35.7008L22.9967 25.2026H14.5909C14.5909 22.711 15.3298 20.2753 16.7141 18.2036C18.0983 16.1319 20.0658 14.5172 22.3678 13.5637C24.6698 12.6102 27.2028 12.3607 29.6465 12.8468C32.0903 13.3329 34.335 14.5327 36.0968 16.2946C37.8587 18.0564 39.0585 20.3012 39.5446 22.7449C40.0307 25.1886 39.7812 27.7216 38.8277 30.0236C37.8742 32.3256 36.2595 34.2931 34.1878 35.6773C32.1161 37.0616 29.6804 37.8005 27.1888 37.8005V41.9997C30.5116 42.0026 33.7605 41.0199 36.5247 39.1759C39.2888 37.3319 41.444 34.7095 42.7175 31.6405C43.991 28.5715 44.3257 25.1937 43.6792 21.9344C43.0327 18.6752 41.4341 15.6809 39.0855 13.3303C36.737 10.9798 33.744 9.37857 30.4853 8.72928C27.2266 8.08 23.8485 8.4118 20.7784 9.68272C17.7083 10.9536 15.0841 13.1066 13.2378 15.8691C11.3915 18.6317 10.406 21.8798 10.406 25.2026V25.2026Z" fill="#AAAAAA"/>
</g>
</g>
<defs>
<filter id="filter0_f_36_1329" x="-0.999756" y="5.40552" width="48" height="39.5942" filterUnits="userSpaceOnUse" color-interpolation-filters="sRGB">
<feFlood flood-opacity="0" result="BackgroundImageFix"/>
<feBlend mode="normal" in="SourceGraphic" in2="BackgroundImageFix" result="shape"/>
<feGaussianBlur stdDeviation="1.5" result="effect1_foregroundBlur_36_1329"/>
</filter>
<filter id="filter1_d_36_1329" x="0.000244141" y="8.40552" width="46" height="37.5942" filterUnits="userSpaceOnUse" color-interpolation-filters="sRGB">
<feFlood flood-opacity="0" result="BackgroundImageFix"/>
<feColorMatrix in="SourceAlpha" type="matrix" values="0 0 0 0 0 0 0 0 0 0 0 0 0 0 0 0 0 0 127 0" result="hardAlpha"/>
<feOffset dy="2"/>
<feGaussianBlur stdDeviation="1"/>
<feComposite in2="hardAlpha" operator="out"/>
<feColorMatrix type="matrix" values="0 0 0 0 0 0 0 0 0 0 0 0 0 0 0 0 0 0 0.75 0"/>
<feBlend mode="normal" in2="BackgroundImageFix" result="effect1_dropShadow_36_1329"/>
<feBlend mode="normal" in="SourceGraphic" in2="effect1_dropShadow_36_1329" result="shape"/>
</filter>
<clipPath id="clip0_36_1329">
<rect width="50" height="50" fill="white"/>
</clipPath>
</defs>
</svg>
