<svg width="58" height="85" viewBox="0 0 58 85" fill="none" xmlns="http://www.w3.org/2000/svg">
<g filter="url(#filter0_f_51_1390)">
<path d="M50.2567 80.1867C49.6419 80.1336 49.0558 79.9029 48.5695 79.5229C48.0833 79.1428 47.718 78.6296 47.5179 78.0458C38.2953 51.1551 24.9007 29.3618 5.36368 9.46053C5.06521 9.16326 4.82869 8.80991 4.66781 8.4206C4.50692 8.03129 4.42476 7.61386 4.42629 7.19262C4.42782 6.77138 4.51308 6.35447 4.6768 5.96634C4.84051 5.57821 5.07958 5.22661 5.3802 4.93152C5.68082 4.63643 6.0368 4.40379 6.4279 4.24731C6.819 4.09083 7.23735 4.0136 7.65855 4.01989C8.07975 4.02617 8.49542 4.11591 8.88168 4.284C9.26793 4.45208 9.61705 4.69514 9.90872 4.99907C30.1355 25.6 43.9998 48.1576 53.542 75.9798C53.714 76.4812 53.7581 77.0175 53.6705 77.5402C53.5828 78.0629 53.3661 78.5555 53.04 78.9733C52.7138 79.391 52.2886 79.7209 51.8028 79.9327C51.3169 80.1446 50.7858 80.2319 50.2577 80.1867H50.2567Z" fill="green"/>
</g>
<path d="M52.2567 79.1867C51.6419 79.1336 51.0558 78.9029 50.5695 78.5229C50.0833 78.1428 49.718 77.6296 49.5179 77.0458C40.2953 50.1551 26.9007 28.3618 7.36368 8.46053C7.06521 8.16326 6.82869 7.80991 6.66781 7.4206C6.50692 7.03129 6.42476 6.61386 6.42629 6.19262C6.42782 5.77138 6.51308 5.35447 6.6768 4.96634C6.84051 4.57821 7.07958 4.22661 7.3802 3.93152C7.68082 3.63643 8.0368 3.40379 8.4279 3.24731C8.819 3.09083 9.23735 3.0136 9.65855 3.01989C10.0798 3.02617 10.4954 3.11591 10.8817 3.284C11.2679 3.45208 11.617 3.69514 11.9087 3.99907C32.1355 24.6 45.9998 47.1576 55.542 74.9798C55.714 75.4812 55.7581 76.0175 55.6705 76.5402C55.5828 77.0629 55.3661 77.5555 55.04 77.9733C54.7138 78.391 54.2886 78.7209 53.8028 78.9327C53.3169 79.1446 52.7858 79.2319 52.2577 79.1867H52.2567Z" fill="green"/>
<defs>
<filter id="filter0_f_51_1390" x="0.42627" y="0.0195312" width="57.2881" height="84.1787" filterUnits="userSpaceOnUse" color-interpolation-filters="sRGB">
<feFlood flood-opacity="0" result="BackgroundImageFix"/>
<feBlend mode="normal" in="SourceGraphic" in2="BackgroundImageFix" result="shape"/>
<feGaussianBlur stdDeviation="2" result="effect1_foregroundBlur_51_1390"/>
</filter>
</defs>
</svg>
