<svg width="33" height="32" viewBox="0 0 33 32" fill="none" xmlns="http://www.w3.org/2000/svg">
<rect width="32" height="32" transform="translate(0.400024)" fill="black"/>
<path fill-rule="evenodd" clip-rule="evenodd" d="M9.28001 29.6H23.52L25.2 10.4H7.60001L9.28001 29.6ZM22.8 6.40002V4.80002C22.8 4.1635 22.5472 3.55306 22.0971 3.10297C21.647 2.65288 21.0365 2.40002 20.4 2.40002H12.4C11.7635 2.40002 11.153 2.65288 10.703 3.10297C10.2529 3.55306 10 4.1635 10 4.80002V6.40002H5.20001V8.80002H27.6V6.40002H22.8ZM20.4 6.40002H12.4V5.60002C12.4 5.38785 12.4843 5.18437 12.6343 5.03434C12.7844 4.88431 12.9878 4.80002 13.2 4.80002H19.6C19.8122 4.80002 20.0157 4.88431 20.1657 5.03434C20.3157 5.18437 20.4 5.38785 20.4 5.60002V6.40002Z" fill="white"/>
</svg>
