<svg width="32" height="32" viewBox="0 0 32 32" fill="none" xmlns="http://www.w3.org/2000/svg">
<rect width="32" height="32" transform="translate(0.914246)" fill="black"/>
<path d="M16.9142 29.6C19.6041 29.6 22.2335 28.8023 24.47 27.308C26.7065 25.8136 28.4497 23.6895 29.479 21.2045C30.5084 18.7194 30.7777 15.9849 30.2529 13.3467C29.7282 10.7086 28.4329 8.28532 26.5309 6.38332C24.6289 4.48133 22.2056 3.18605 19.5675 2.66129C16.9293 2.13654 14.1948 2.40586 11.7097 3.43521C9.22467 4.46457 7.10065 6.20771 5.60626 8.44422C4.11187 10.6807 3.31425 13.3102 3.31425 16C3.31425 19.6069 4.7471 23.0661 7.29759 25.6166C9.84809 28.1671 13.3073 29.6 16.9142 29.6V29.6ZM18.2982 24H15.5782L15.5782 13.0832L18.2982 13.0832V24ZM16.8966 7.98557C17.1637 7.99375 17.4224 8.0804 17.6406 8.23472C17.8587 8.38904 18.0265 8.60419 18.1231 8.8533C18.2197 9.10242 18.2407 9.37447 18.1836 9.63548C18.1266 9.8965 17.9939 10.1349 17.8021 10.321C17.6104 10.507 17.3681 10.6325 17.1054 10.6817C16.8428 10.7309 16.5715 10.7016 16.3254 10.5976C16.0793 10.4935 15.8694 10.3193 15.7217 10.0966C15.574 9.87399 15.4952 9.61276 15.495 9.34558C15.5005 8.97963 15.6511 8.63083 15.9136 8.37582C16.1761 8.12081 16.5291 7.98045 16.895 7.98557H16.8966Z" fill="white"/>
</svg>
