<svg width="390" height="85" viewBox="0 0 390 85" fill="none" xmlns="http://www.w3.org/2000/svg">
<path fill-rule="evenodd" clip-rule="evenodd" d="M184.391 61.4207H207.327L210.033 30.4956H181.685L184.391 61.4207ZM206.167 24.0528V21.4757C206.167 20.4505 205.76 19.4673 205.035 18.7423C204.31 18.0174 203.327 17.6101 202.302 17.6101H189.416C188.391 17.6101 187.408 18.0174 186.683 18.7423C185.958 19.4673 185.551 20.4505 185.551 21.4757V24.0528H177.819V27.9185H213.899V24.0528H206.167ZM202.302 24.0528H189.416V22.7643C189.416 22.4225 189.552 22.0948 189.794 21.8532C190.035 21.6115 190.363 21.4757 190.705 21.4757H201.013C201.355 21.4757 201.683 21.6115 201.924 21.8532C202.166 22.0948 202.302 22.4225 202.302 22.7643V24.0528Z" fill="#FF0000"/>
<path d="M76.0838 -73.6257C76.0838 -116.772 89.4192 -155.816 110.957 -184.063C132.495 -212.31 162.214 -229.739 195.004 -229.739C227.794 -229.739 257.513 -212.31 279.051 -184.063C300.589 -155.816 313.924 -116.772 313.924 -73.6256C313.924 -30.4792 300.589 8.56474 279.051 36.8117C257.513 65.0583 227.794 82.4878 195.004 82.4878C162.214 82.4878 132.495 65.0583 110.957 36.8117C89.4192 8.56472 76.0838 -30.4792 76.0838 -73.6257Z" stroke="url(#paint0_linear_465_9163)" stroke-width="0.962419"/>
<defs>
<linearGradient id="paint0_linear_465_9163" x1="195.004" y1="82.969" x2="195.004" y2="-230.22" gradientUnits="userSpaceOnUse">
<stop offset="0.0364583" stop-color="#FF0000"/>
<stop offset="0.151042" stop-color="#FF0000" stop-opacity="0.15"/>
</linearGradient>
</defs>
</svg>
