<svg width="240" height="80" viewBox="0 0 240 80" fill="none" xmlns="http://www.w3.org/2000/svg">
<path fill-rule="evenodd" clip-rule="evenodd" d="M139.457 19.0088L113.557 44.8353L100.285 32.7656L95.5176 38.2165L113.944 55.0881L114.073 54.9583L144.482 23.8107L139.457 19.0088Z" fill="#6AFF52"/>
<path d="M238.916 157.564C238.916 200.71 225.581 239.754 204.043 268.001C182.505 296.248 152.786 313.677 119.996 313.677C87.2064 313.677 57.4869 296.248 35.9493 268.001C14.4113 239.754 1.07597 200.71 1.07596 157.564C1.07596 114.417 14.4113 75.3735 35.9492 47.1265C57.4869 18.8799 87.2063 1.45043 119.996 1.45043C152.786 1.45042 182.505 18.8799 204.043 47.1265C225.581 75.3735 238.916 114.417 238.916 157.564Z" stroke="url(#paint0_linear_465_9163)" stroke-width="0.962419"/>
<defs>
<linearGradient id="paint0_linear_465_9163" x1="119.996" y1="0.969217" x2="119.996" y2="314.158" gradientUnits="userSpaceOnUse">
<stop offset="0.0364583" stop-color="#6AFF52"/>
<stop offset="0.151042" stop-color="#6AFF52" stop-opacity="0.14"/>
</linearGradient>
</defs>
</svg>
