<svg width="208" height="73" viewBox="0 0 208 73" fill="none" xmlns="http://www.w3.org/2000/svg">
<path d="M229.061 165.592C229.061 210.921 215.05 251.926 192.439 281.581C169.828 311.235 138.653 329.503 104.285 329.503C69.9167 329.503 38.7416 311.235 16.1308 281.581C-6.48062 251.926 -20.4908 210.921 -20.4908 165.592C-20.4908 120.264 -6.48062 79.2584 16.1308 49.6036C38.7416 19.9495 69.9167 1.6818 104.285 1.6818C138.653 1.6818 169.828 19.9495 192.439 49.6036C215.05 79.2584 229.061 120.264 229.061 165.592Z" fill="black" fill-opacity="0.65" stroke="url(#paint0_linear_465_9163)" stroke-width="1.71712"/>
<path fill-rule="evenodd" clip-rule="evenodd" d="M128.163 38.8016L80.6747 38.8016L80.6747 44.7478L128.163 44.7478V38.8016Z" fill="white"/>
<path d="M83.5022 41.7806L97.0489 55.4174L92.8786 59.6155L75.1655 41.7767L92.8805 23.9438L97.0508 28.1419L83.5022 41.7806Z" fill="white"/>
<defs>
<linearGradient id="paint0_linear_465_9163" x1="104.285" y1="0.823242" x2="104.285" y2="330.361" gradientUnits="userSpaceOnUse">
<stop offset="0.0364583" stop-color="#666666"/>
<stop offset="0.195833" stop-color="#666666" stop-opacity="0.03"/>
</linearGradient>
</defs>
</svg>
