<svg width="240" height="83" viewBox="0 0 240 83" fill="none" xmlns="http://www.w3.org/2000/svg">
<path fill-rule="evenodd" clip-rule="evenodd" d="M109.391 61.4207H132.327L135.033 30.4956H106.685L109.391 61.4207ZM131.167 24.0528V21.4757C131.167 20.4505 130.76 19.4673 130.035 18.7423C129.31 18.0174 128.327 17.6101 127.302 17.6101H114.416C113.391 17.6101 112.408 18.0174 111.683 18.7423C110.958 19.4673 110.551 20.4505 110.551 21.4757V24.0528H102.819V27.9185H138.899V24.0528H131.167ZM127.302 24.0528H114.416V22.7643C114.416 22.4225 114.552 22.0948 114.794 21.8532C115.035 21.6115 115.363 21.4757 115.705 21.4757H126.013C126.355 21.4757 126.683 21.6115 126.924 21.8532C127.166 22.0948 127.302 22.4225 127.302 22.7643V24.0528Z" fill="#FF0000"/>
<path d="M1.0838 -73.6257C1.0838 -116.772 14.4192 -155.816 35.9571 -184.063C57.4947 -212.31 87.2142 -229.739 120.004 -229.739C152.794 -229.739 182.513 -212.31 204.051 -184.063C225.589 -155.816 238.924 -116.772 238.924 -73.6256C238.924 -30.4792 225.589 8.56474 204.051 36.8117C182.513 65.0583 152.794 82.4878 120.004 82.4878C87.2142 82.4878 57.4947 65.0583 35.9571 36.8117C14.4192 8.56472 1.0838 -30.4792 1.0838 -73.6257Z" stroke="url(#paint0_linear_465_9163)" stroke-width="0.962419"/>
<defs>
<linearGradient id="paint0_linear_465_9163" x1="120.004" y1="82.969" x2="120.004" y2="-230.22" gradientUnits="userSpaceOnUse">
<stop offset="0.0364583" stop-color="#FF0000"/>
<stop offset="0.151042" stop-color="#FF0000" stop-opacity="0.15"/>
</linearGradient>
</defs>
</svg>
