<svg width="60" height="60" viewBox="0 0 60 60" fill="none" xmlns="http://www.w3.org/2000/svg">
<path fill-rule="evenodd" clip-rule="evenodd" d="M56.6257 49.8056L32.4452 7.45949C32.2178 7.01985 31.8733 6.65108 31.4494 6.39364C31.0255 6.13619 30.5387 6 30.0422 6C29.5458 6 29.0589 6.13619 28.635 6.39364C28.2112 6.65108 27.8666 7.01985 27.6392 7.45949L3.45869 49.8056C3.17811 50.2222 3.01986 50.7084 3.00175 51.2097C2.98364 51.711 3.1064 52.2074 3.35619 52.6429C3.60599 53.0784 3.97289 53.4358 4.41557 53.6747C4.85825 53.9137 5.35911 54.0247 5.86172 53.9954H54.2227L55.5744 53.6961C55.8953 53.5246 56.1781 53.2903 56.4059 53.0072C56.6337 52.7242 56.8017 52.3982 56.8999 52.0488C56.9981 51.6994 57.0244 51.3339 56.9773 50.9742C56.9302 50.6144 56.8106 50.2679 56.6257 49.9553V49.8056ZM33.046 48.0101H27.0384V42.0247H33.046V48.0101ZM33.046 37.5357H27.0384V22.5724H33.046V37.5357Z" fill="#E71825"/>
</svg>
