<svg width="60" height="60" viewBox="0 0 60 60" fill="none" xmlns="http://www.w3.org/2000/svg">
<path fill-rule="evenodd" clip-rule="evenodd" d="M30 3C24.6599 3 19.4397 4.58352 14.9996 7.55032C10.5595 10.5171 7.09883 14.7339 5.05526 19.6675C3.0117 24.6012 2.47701 30.03 3.51881 35.2674C4.56061 40.5049 7.13211 45.3159 10.9081 49.0919C14.6841 52.8679 19.4951 55.4394 24.7326 56.4812C29.9701 57.523 35.3989 56.9883 40.3325 54.9447C45.2661 52.9012 49.4829 49.4405 52.4497 45.0004C55.4165 40.5603 57 35.3401 57 30C57 22.8392 54.1554 15.9716 49.0919 10.9081C44.0284 5.84464 37.1609 3 30 3ZM33 46.5H27V40.5H33V46.5ZM34.5 31.5C34.0647 31.6539 33.6873 31.9379 33.419 32.3136C33.1507 32.6892 33.0044 33.1384 33 33.6C33 33.9 33 35.7 33 36H27V33C26.8899 32.0167 27.1305 31.0261 27.6793 30.2029C28.2282 29.3796 29.05 28.7765 30 28.5C30.95 28.2235 31.7719 27.6204 32.3207 26.7971C32.8695 25.9739 33.1101 24.9833 33 24C33 22.5 33 21 30 21C27 21 27 21 27 24H21C20.9104 22.7952 21.0817 21.5852 21.5023 20.4526C21.9229 19.32 22.5829 18.2915 23.4372 17.4372C24.2915 16.5829 25.32 15.9229 26.4526 15.5023C27.5852 15.0817 28.7952 14.9104 30 15C31.1932 14.9581 32.3822 15.1622 33.4931 15.5997C34.604 16.0372 35.613 16.6986 36.4572 17.5428C37.3014 18.387 37.9629 19.396 38.4003 20.5069C38.8378 21.6178 39.0419 22.8068 39 24C39.1287 25.5637 38.7637 27.1285 37.9565 28.4739C37.1492 29.8193 35.9403 30.8777 34.5 31.5Z" fill="white"/>
</svg>
