<svg width="60" height="60" viewBox="0 0 60 60" fill="none" xmlns="http://www.w3.org/2000/svg">
<path fill-rule="evenodd" clip-rule="evenodd" d="M24.4842 6C14.2757 6 6 14.2757 6 24.4842C6 34.6927 14.2757 42.9684 24.4842 42.9684C28.7314 42.9684 32.644 41.536 35.7653 39.1279L50.4612 53.4324L54.1231 49.6704L39.4274 35.366C41.6543 32.3133 42.9684 28.5522 42.9684 24.4842C42.9684 14.2757 34.6927 6 24.4842 6ZM11.25 24.4842C11.25 17.1752 17.1752 11.25 24.4842 11.25C31.7932 11.25 37.7184 17.1752 37.7184 24.4842C37.7184 31.7932 31.7932 37.7184 24.4842 37.7184C17.1752 37.7184 11.25 31.7932 11.25 24.4842Z" fill="white"/>
</svg>
