<svg width="60" height="60" viewBox="0 0 60 60" fill="none" xmlns="http://www.w3.org/2000/svg">
<path d="M10.8462 29.3261H0L13.5462 42.8723L27.0923 29.3261H16.2462C16.2462 26.1111 17.1995 22.9683 18.9857 20.2951C20.7718 17.622 23.3106 15.5385 26.2809 14.3081C29.2512 13.0778 32.5196 12.7559 35.6728 13.3831C38.826 14.0103 41.7225 15.5585 43.9958 17.8319C46.2692 20.1052 47.8174 23.0016 48.4446 26.1549C49.0718 29.3081 48.7499 32.5765 47.5196 35.5468C46.2892 38.5171 44.2057 41.0558 41.5325 42.842C38.8594 44.6282 35.7165 45.5815 32.5015 45.5815V51C36.789 51.0036 40.9812 49.7356 44.5479 47.3563C48.1146 44.9769 50.8954 41.5932 52.5387 37.6332C54.182 33.6731 54.6138 29.3146 53.7796 25.1091C52.9454 20.9036 50.8827 17.0399 47.8522 14.007C44.8218 10.974 40.96 8.90791 36.7552 8.07012C32.5503 7.23233 28.1915 7.66047 24.23 9.30036C20.2686 10.9403 16.8825 13.7182 14.5001 17.2829C12.1178 20.8475 10.8462 25.0387 10.8462 29.3261Z" fill="white"/>
</svg>
