<svg width="60" height="60" viewBox="0 0 60 60" fill="none" xmlns="http://www.w3.org/2000/svg">
<path d="M30 3C22.8392 3 15.9716 5.84463 10.9081 10.9081C5.84464 15.9716 3 22.8392 3 30C3 35.3401 4.58352 40.5603 7.55032 45.0004C10.5171 49.4405 14.7339 52.9012 19.6675 54.9447C24.6012 56.9883 30.03 57.523 35.2674 56.4812C40.5049 55.4394 45.3159 52.8679 49.0919 49.0919C52.8679 45.3159 55.4394 40.5049 56.4812 35.2674C57.523 30.0299 56.9883 24.6012 54.9447 19.6675C52.9012 14.7339 49.4405 10.5171 45.0004 7.55032C40.5603 4.58352 35.3401 3 30 3ZM33 43.5L27 43.5L27 27L33 27L33 43.5ZM33 22.5L27 22.5L27 16.5L33 16.5L33 22.5Z" fill="white"/>
</svg>
