<svg width="105" height="145" viewBox="0 0 105 145" fill="none" xmlns="http://www.w3.org/2000/svg">
<g filter="url(#filter0_d_13482_30854)">
<path fill-rule="evenodd" clip-rule="evenodd" d="M83.2 29.831H57.2844V24.9512H83.2V29.831Z" fill="white"/>
<path d="M59.5859 27.3862L70.6125 16.1952L67.218 12.75L52.8 27.3895L67.2196 42.0241L70.6141 38.5789L59.5859 27.3862Z" fill="white"/>
</g>
<g clip-path="url(#clip0_13482_30854)">
<mask id="path-2-outside-1_13482_30854" maskUnits="userSpaceOnUse" x="13.5879" y="12.8242" width="43" height="65" fill="black">
<rect fill="white" x="13.5879" y="12.8242" width="43" height="65"/>
<path d="M16.8806 17.3538C24.4689 38.1668 35.6462 57.4887 49.9053 74.4428L53.6834 71.2653C39.7957 54.7527 28.9094 35.9338 21.5187 15.6628L16.8806 17.3538Z"/>
</mask>
<path d="M16.8806 17.3538C24.4689 38.1668 35.6462 57.4887 49.9053 74.4428L53.6834 71.2653C39.7957 54.7527 28.9094 35.9338 21.5187 15.6628L16.8806 17.3538Z" fill="white"/>
<path d="M16.8806 17.3538C24.4689 38.1668 35.6462 57.4887 49.9053 74.4428L53.6834 71.2653C39.7957 54.7527 28.9094 35.9338 21.5187 15.6628L16.8806 17.3538Z" stroke="black" stroke-width="4" mask="url(#path-2-outside-1_13482_30854)"/>
</g>
<defs>
<filter id="filter0_d_13482_30854" x="46.5504" y="8" width="42.8993" height="42.8993" filterUnits="userSpaceOnUse" color-interpolation-filters="sRGB">
<feFlood flood-opacity="0" result="BackgroundImageFix"/>
<feColorMatrix in="SourceAlpha" type="matrix" values="0 0 0 0 0 0 0 0 0 0 0 0 0 0 0 0 0 0 127 0" result="hardAlpha"/>
<feOffset dy="2.44964"/>
<feGaussianBlur stdDeviation="1.22482"/>
<feColorMatrix type="matrix" values="0 0 0 0 0 0 0 0 0 0 0 0 0 0 0 0 0 0 0.75 0"/>
<feBlend mode="normal" in2="BackgroundImageFix" result="effect1_dropShadow_13482_30854"/>
<feBlend mode="normal" in="SourceGraphic" in2="effect1_dropShadow_13482_30854" result="shape"/>
</filter>
<clipPath id="clip0_13482_30854">
<rect width="57" height="67" fill="white" transform="translate(0 11.4121)"/>
</clipPath>
</defs>
</svg>
