<svg width="57" height="68" viewBox="0 0 57 68" fill="none" xmlns="http://www.w3.org/2000/svg">
<g clip-path="url(#clip0_18661_33501)">
<mask id="path-1-outside-1_18661_33501" maskUnits="userSpaceOnUse" x="13.5874" y="1.82422" width="43" height="65" fill="black">
<rect fill="white" x="13.5874" y="1.82422" width="43" height="65"/>
<path d="M49.4738 4.89667C35.2748 21.9011 24.1659 41.2625 16.6513 62.1022L21.2953 63.7768C28.6143 43.4798 39.4338 24.6225 53.2631 8.06083L49.4738 4.89667Z"/>
</mask>
<path d="M49.4738 4.89667C35.2748 21.9011 24.1659 41.2625 16.6513 62.1022L21.2953 63.7768C28.6143 43.4798 39.4338 24.6225 53.2631 8.06083L49.4738 4.89667Z" fill="white"/>
<path d="M49.4738 4.89667C35.2748 21.9011 24.1659 41.2625 16.6513 62.1022L21.2953 63.7768C28.6143 43.4798 39.4338 24.6225 53.2631 8.06083L49.4738 4.89667Z" stroke="black" stroke-width="4" mask="url(#path-1-outside-1_18661_33501)"/>
</g>
<defs>
<clipPath id="clip0_18661_33501">
<rect width="57" height="67" fill="white" transform="translate(-0.000488281 0.412109)"/>
</clipPath>
</defs>
</svg>
