<svg width="18" height="75" viewBox="0 0 18 75" fill="none" xmlns="http://www.w3.org/2000/svg">
<g clip-path="url(#clip0_18661_33497)">
<mask id="path-1-outside-1_18661_33497" maskUnits="userSpaceOnUse" x="2.5874" y="1.82422" width="13" height="71" fill="black">
<rect fill="white" x="2.5874" y="1.82422" width="13" height="71"/>
<path d="M8.29105 4.49091C4.44418 26.3075 4.45074 48.6295 8.31039 70.4438L13.1716 69.5837C9.41245 48.3374 9.40607 26.5967 13.1527 5.34816L8.29105 4.49091Z"/>
</mask>
<path d="M8.29105 4.49091C4.44418 26.3075 4.45074 48.6295 8.31039 70.4438L13.1716 69.5837C9.41245 48.3374 9.40607 26.5967 13.1527 5.34816L8.29105 4.49091Z" fill="white"/>
<path d="M8.29105 4.49091C4.44418 26.3075 4.45074 48.6295 8.31039 70.4438L13.1716 69.5837C9.41245 48.3374 9.40607 26.5967 13.1527 5.34816L8.29105 4.49091Z" stroke="black" stroke-width="4" mask="url(#path-1-outside-1_18661_33497)"/>
</g>
<defs>
<clipPath id="clip0_18661_33497">
<rect width="18" height="74" fill="white" transform="translate(-0.000488281 0.412109)"/>
</clipPath>
</defs>
</svg>
