<svg width="40" height="40" viewBox="0 0 40 40" fill="none" xmlns="http://www.w3.org/2000/svg">
<g filter="url(#filter0_d_8420_28702)">
<path fill-rule="evenodd" clip-rule="evenodd" d="M16.8744 6.40002C11.0896 6.40002 6.40002 11.0896 6.40002 16.8744C6.40002 22.6592 11.0896 27.3488 16.8744 27.3488C19.2811 27.3488 21.4983 26.5371 23.267 25.1725L31.5947 33.2784L33.6698 31.1466L25.3422 23.0408C26.6041 21.3109 27.3488 19.1796 27.3488 16.8744C27.3488 11.0896 22.6592 6.40002 16.8744 6.40002ZM9.37502 16.8744C9.37502 12.7326 12.7326 9.37502 16.8744 9.37502C21.0162 9.37502 24.3738 12.7326 24.3738 16.8744C24.3738 21.0162 21.0162 24.3738 16.8744 24.3738C12.7326 24.3738 9.37502 21.0162 9.37502 16.8744Z" fill="white"/>
</g>
<defs>
<filter id="filter0_d_8420_28702" x="4.2286" y="6.40002" width="31.6126" height="31.2213" filterUnits="userSpaceOnUse" color-interpolation-filters="sRGB">
<feFlood flood-opacity="0" result="BackgroundImageFix"/>
<feColorMatrix in="SourceAlpha" type="matrix" values="0 0 0 0 0 0 0 0 0 0 0 0 0 0 0 0 0 0 127 0" result="hardAlpha"/>
<feOffset dy="2.17143"/>
<feGaussianBlur stdDeviation="1.08571"/>
<feColorMatrix type="matrix" values="0 0 0 0 0 0 0 0 0 0 0 0 0 0 0 0 0 0 0.75 0"/>
<feBlend mode="normal" in2="BackgroundImageFix" result="effect1_dropShadow_8420_28702"/>
<feBlend mode="normal" in="SourceGraphic" in2="effect1_dropShadow_8420_28702" result="shape"/>
</filter>
</defs>
</svg>
