<svg width="40" height="40" viewBox="0 0 40 40" fill="none" xmlns="http://www.w3.org/2000/svg">
<g filter="url(#filter0_d_8420_28672)">
<path d="M20 4.69995C15.9421 4.69995 12.0505 6.31191 9.18122 9.18122C6.31191 12.0505 4.69995 15.9421 4.69995 20C4.69995 23.026 5.59728 25.9841 7.27847 28.5002C8.95965 31.0162 11.3492 32.9773 14.1449 34.1353C16.9406 35.2933 20.0169 35.5963 22.9848 35.006C25.9527 34.4156 28.6789 32.9584 30.8187 30.8187C32.9584 28.6789 34.4156 25.9527 35.006 22.9848C35.5963 20.0169 35.2933 16.9406 34.1353 14.1449C32.9773 11.3492 31.0162 8.95965 28.5002 7.27847C25.9841 5.59728 23.026 4.69995 20 4.69995ZM21.7 28.5H18.3V18.3H21.7V28.5ZM21.7 14.9H18.3V11.5H21.7V14.9Z" fill="white"/>
</g>
<defs>
<filter id="filter0_d_8420_28672" x="2.52852" y="4.69995" width="34.9428" height="34.9428" filterUnits="userSpaceOnUse" color-interpolation-filters="sRGB">
<feFlood flood-opacity="0" result="BackgroundImageFix"/>
<feColorMatrix in="SourceAlpha" type="matrix" values="0 0 0 0 0 0 0 0 0 0 0 0 0 0 0 0 0 0 127 0" result="hardAlpha"/>
<feOffset dy="2.17143"/>
<feGaussianBlur stdDeviation="1.08571"/>
<feColorMatrix type="matrix" values="0 0 0 0 0 0 0 0 0 0 0 0 0 0 0 0 0 0 0.75 0"/>
<feBlend mode="normal" in2="BackgroundImageFix" result="effect1_dropShadow_8420_28672"/>
<feBlend mode="normal" in="SourceGraphic" in2="effect1_dropShadow_8420_28672" result="shape"/>
</filter>
</defs>
</svg>
