<svg width="37" height="34" viewBox="0 0 37 34" fill="none" xmlns="http://www.w3.org/2000/svg">
<g filter="url(#filter0_d_8420_28699)">
<path d="M9.14615 16.6182H3L10.6762 24.2943L18.3523 16.6182H12.2062C12.2062 14.7963 12.7464 13.0154 13.7586 11.5006C14.7707 9.9858 16.2093 8.80515 17.8925 8.10796C19.5757 7.41078 21.4278 7.22836 23.2146 7.58378C25.0014 7.93921 26.6427 8.81651 27.931 10.1047C29.2192 11.393 30.0965 13.0343 30.4519 14.8211C30.8074 16.608 30.6249 18.4601 29.9277 20.1432C29.2306 21.8264 28.0499 23.265 26.5351 24.2772C25.0203 25.2893 23.2394 25.8296 21.4175 25.8296V28.9C23.8471 28.9021 26.2227 28.1835 28.2438 26.8352C30.2649 25.487 31.8408 23.5695 32.7719 21.3255C33.7031 19.0815 33.9478 16.6117 33.4751 14.2285C33.0024 11.8454 31.8335 9.656 30.1163 7.9373C28.399 6.21861 26.2106 5.04784 23.8279 4.57309C21.4452 4.09834 18.9752 4.34095 16.7304 5.27023C14.4855 6.1995 12.5668 7.77369 11.2167 9.79366C9.86674 11.8136 9.14615 14.1886 9.14615 16.6182Z" fill="white"/>
</g>
<defs>
<filter id="filter0_d_8420_28699" x="0.828572" y="4.3363" width="35.0527" height="28.9066" filterUnits="userSpaceOnUse" color-interpolation-filters="sRGB">
<feFlood flood-opacity="0" result="BackgroundImageFix"/>
<feColorMatrix in="SourceAlpha" type="matrix" values="0 0 0 0 0 0 0 0 0 0 0 0 0 0 0 0 0 0 127 0" result="hardAlpha"/>
<feOffset dy="2.17143"/>
<feGaussianBlur stdDeviation="1.08571"/>
<feColorMatrix type="matrix" values="0 0 0 0 0 0 0 0 0 0 0 0 0 0 0 0 0 0 0.75 0"/>
<feBlend mode="normal" in2="BackgroundImageFix" result="effect1_dropShadow_8420_28699"/>
<feBlend mode="normal" in="SourceGraphic" in2="effect1_dropShadow_8420_28699" result="shape"/>
</filter>
</defs>
</svg>
