<svg width="40" height="40" viewBox="0 0 40 40" fill="none" xmlns="http://www.w3.org/2000/svg">
<g filter="url(#filter0_d_8420_28676)">
<path fill-rule="evenodd" clip-rule="evenodd" d="M20 4.69995C16.9739 4.69995 14.0158 5.59728 11.4997 7.27847C8.98366 8.95965 7.02262 11.3492 5.8646 14.1449C4.70658 16.9406 4.40359 20.0169 4.99394 22.9848C5.5843 25.9527 7.04148 28.6789 9.18122 30.8187C11.321 32.9584 14.0472 34.4156 17.0151 35.006C19.983 35.5963 23.0593 35.2933 25.855 34.1353C28.6507 32.9773 31.0403 31.0162 32.7214 28.5002C34.4026 25.9841 35.3 23.026 35.3 20C35.3 15.9421 33.688 12.0505 30.8187 9.18122C27.9494 6.31191 24.0578 4.69995 20 4.69995ZM21.7 29.35H18.3V25.95H21.7V29.35ZM22.55 20C22.3033 20.0871 22.0894 20.2481 21.9374 20.461C21.7853 20.6739 21.7024 20.9284 21.7 21.19C21.7 21.36 21.7 22.38 21.7 22.55H18.3V20.85C18.2376 20.2928 18.3739 19.7314 18.6849 19.2649C18.9959 18.7984 19.4616 18.4567 20 18.3C20.5383 18.1432 21.004 17.8015 21.315 17.335C21.626 16.8685 21.7624 16.3071 21.7 15.75C21.7 14.9 21.7 14.05 20 14.05C18.3 14.05 18.3 14.05 18.3 15.75H14.9C14.8492 15.0672 14.9463 14.3815 15.1846 13.7397C15.4229 13.0979 15.7969 12.5151 16.281 12.031C16.7651 11.5469 17.348 11.1729 17.9898 10.9346C18.6316 10.6962 19.3172 10.5992 20 10.65C20.6761 10.6262 21.3499 10.7419 21.9794 10.9898C22.6089 11.2377 23.1806 11.6125 23.659 12.0909C24.1374 12.5693 24.5122 13.141 24.7601 13.7705C25.008 14.4 25.1237 15.0738 25.1 15.75C25.1729 16.6361 24.9661 17.5227 24.5086 18.2852C24.0512 19.0476 23.3661 19.6473 22.55 20Z" fill="white"/>
</g>
<defs>
<filter id="filter0_d_8420_28676" x="2.52852" y="4.69995" width="34.9428" height="34.9428" filterUnits="userSpaceOnUse" color-interpolation-filters="sRGB">
<feFlood flood-opacity="0" result="BackgroundImageFix"/>
<feColorMatrix in="SourceAlpha" type="matrix" values="0 0 0 0 0 0 0 0 0 0 0 0 0 0 0 0 0 0 127 0" result="hardAlpha"/>
<feOffset dy="2.17143"/>
<feGaussianBlur stdDeviation="1.08571"/>
<feColorMatrix type="matrix" values="0 0 0 0 0 0 0 0 0 0 0 0 0 0 0 0 0 0 0.75 0"/>
<feBlend mode="normal" in2="BackgroundImageFix" result="effect1_dropShadow_8420_28676"/>
<feBlend mode="normal" in="SourceGraphic" in2="effect1_dropShadow_8420_28676" result="shape"/>
</filter>
</defs>
</svg>
