<svg width="57" height="68" viewBox="0 0 57 68" fill="none" xmlns="http://www.w3.org/2000/svg">
<g clip-path="url(#clip0_18661_33591)">
<mask id="path-1-outside-1_18661_33591" maskUnits="userSpaceOnUse" x="1.41162" y="2.82422" width="40" height="62" fill="black">
<rect fill="white" x="1.41162" y="2.82422" width="40" height="62"/>
<path d="M40.1189 6.35381C32.5306 27.1668 21.3533 46.4887 7.09418 63.4428L3.31607 60.2653C17.2039 43.7527 28.0901 24.9338 35.4808 4.6628L40.1189 6.35381Z"/>
</mask>
<path d="M40.1189 6.35381C32.5306 27.1668 21.3533 46.4887 7.09418 63.4428L3.31607 60.2653C17.2039 43.7527 28.0901 24.9338 35.4808 4.6628L40.1189 6.35381Z" fill="#D22020"/>
<path d="M40.1189 6.35381C32.5306 27.1668 21.3533 46.4887 7.09418 63.4428L3.31607 60.2653C17.2039 43.7527 28.0901 24.9338 35.4808 4.6628L40.1189 6.35381Z" stroke="black" stroke-width="1.875" mask="url(#path-1-outside-1_18661_33591)"/>
<mask id="path-2-outside-2_18661_33591" maskUnits="userSpaceOnUse" x="0.411621" y="1.82422" width="43" height="65" fill="black">
<rect fill="white" x="0.411621" y="1.82422" width="43" height="65"/>
<path d="M40.1189 6.35381C32.5306 27.1668 21.3533 46.4887 7.09418 63.4428L3.31607 60.2653C17.2039 43.7527 28.0901 24.9338 35.4808 4.6628L40.1189 6.35381Z"/>
</mask>
<path d="M40.1189 6.35381C32.5306 27.1668 21.3533 46.4887 7.09418 63.4428L3.31607 60.2653C17.2039 43.7527 28.0901 24.9338 35.4808 4.6628L40.1189 6.35381Z" fill="#D22020"/>
<path d="M40.1189 6.35381C32.5306 27.1668 21.3533 46.4887 7.09418 63.4428L3.31607 60.2653C17.2039 43.7527 28.0901 24.9338 35.4808 4.6628L40.1189 6.35381Z" stroke="black" stroke-width="4" mask="url(#path-2-outside-2_18661_33591)"/>
</g>
<defs>
<clipPath id="clip0_18661_33591">
<rect width="57" height="67" fill="white" transform="translate(-0.000488281 0.412109)"/>
</clipPath>
</defs>
</svg>
