<svg width="47" height="47" viewBox="0 0 47 47" fill="none" xmlns="http://www.w3.org/2000/svg">
<g clip-path="url(#clip0_12616_67901)">
<g filter="url(#filter0_f_12616_67901)">
<path fill-rule="evenodd" clip-rule="evenodd" d="M12.5726 43.475H33.4876L35.9551 15.275H10.1051L12.5726 43.475ZM32.4301 9.40002V7.05002C32.4301 6.11514 32.0587 5.21854 31.3976 4.55747C30.7366 3.89641 29.84 3.52502 28.9051 3.52502H17.1551C16.2202 3.52502 15.3236 3.89641 14.6625 4.55747C14.0015 5.21854 13.6301 6.11514 13.6301 7.05002V9.40002H6.58008V12.925H39.4801V9.40002H32.4301ZM28.9051 9.40002H17.1551V8.22502C17.1551 7.9134 17.2789 7.61453 17.4992 7.39417C17.7196 7.17382 18.0184 7.05002 18.3301 7.05002H27.7301C28.0417 7.05002 28.3406 7.17382 28.5609 7.39417C28.7813 7.61453 28.9051 7.9134 28.9051 8.22502V9.40002Z" fill="url(#paint0_linear_12616_67901)"/>
</g>
<g filter="url(#filter1_d_12616_67901)">
<path fill-rule="evenodd" clip-rule="evenodd" d="M13.0423 43.475H33.9573L36.4248 15.275H10.5748L13.0423 43.475ZM32.8998 9.40002V7.05002C32.8998 6.11514 32.5284 5.21854 31.8674 4.55747C31.2063 3.89641 30.3097 3.52502 29.3748 3.52502H17.6248C16.6899 3.52502 15.7933 3.89641 15.1323 4.55747C14.4712 5.21854 14.0998 6.11514 14.0998 7.05002V9.40002H7.0498V12.925H39.9498V9.40002H32.8998ZM29.3748 9.40002H17.6248V8.22502C17.6248 7.9134 17.7486 7.61453 17.969 7.39417C18.1893 7.17382 18.4882 7.05002 18.7998 7.05002H28.1998C28.5114 7.05002 28.8103 7.17382 29.0307 7.39417C29.251 7.61453 29.3748 7.9134 29.3748 8.22502V9.40002Z" fill="url(#paint1_linear_12616_67901)"/>
</g>
</g>
<defs>
<filter id="filter0_f_12616_67901" x="2.17383" y="-0.881226" width="41.7129" height="48.7625" filterUnits="userSpaceOnUse" color-interpolation-filters="sRGB">
<feFlood flood-opacity="0" result="BackgroundImageFix"/>
<feBlend mode="normal" in="SourceGraphic" in2="BackgroundImageFix" result="shape"/>
<feGaussianBlur stdDeviation="2.20312" result="effect1_foregroundBlur_12616_67901"/>
</filter>
<filter id="filter1_d_12616_67901" x="4.1123" y="3.52502" width="38.7754" height="45.825" filterUnits="userSpaceOnUse" color-interpolation-filters="sRGB">
<feFlood flood-opacity="0" result="BackgroundImageFix"/>
<feColorMatrix in="SourceAlpha" type="matrix" values="0 0 0 0 0 0 0 0 0 0 0 0 0 0 0 0 0 0 127 0" result="hardAlpha"/>
<feOffset dy="2.9375"/>
<feGaussianBlur stdDeviation="1.46875"/>
<feComposite in2="hardAlpha" operator="out"/>
<feColorMatrix type="matrix" values="0 0 0 0 0 0 0 0 0 0 0 0 0 0 0 0 0 0 0.75 0"/>
<feBlend mode="normal" in2="BackgroundImageFix" result="effect1_dropShadow_12616_67901"/>
<feBlend mode="normal" in="SourceGraphic" in2="effect1_dropShadow_12616_67901" result="shape"/>
</filter>
<linearGradient id="paint0_linear_12616_67901" x1="23.0301" y1="3.52502" x2="23.0301" y2="43.475" gradientUnits="userSpaceOnUse">
<stop offset="0" stop-color="#AAAAAA"/>
<stop offset="1" stop-color="#AAAAAA"/>
</linearGradient>
<linearGradient id="paint1_linear_12616_67901" x1="23.4998" y1="3.52502" x2="23.4998" y2="43.475" gradientUnits="userSpaceOnUse">
<stop offset="0" stop-color="#AAAAAA"/>
<stop offset="1" stop-color="#AAAAAA"/>
</linearGradient>
<clipPath id="clip0_12616_67901">
<rect width="47" height="47" fill="white"/>
</clipPath>
</defs>
</svg>
