<svg width="47" height="47" viewBox="0 0 47 47" fill="none" xmlns="http://www.w3.org/2000/svg">
<g clip-path="url(#clip0_12616_67889)">
<g filter="url(#filter0_d_12616_67889)">
<path d="M21.8576 3.88609C22.5746 2.59992 24.4248 2.59992 25.1418 3.88609L44.7352 39.0349C45.4338 40.2881 44.5278 41.8303 43.0931 41.8303H3.90626C2.47159 41.8303 1.56561 40.2881 2.26416 39.0349L21.8576 3.88609Z" fill="url(#paint0_linear_12616_67889)"/>
</g>
<path d="M25.0467 38.7262H21.9527C21.7321 38.7262 21.5205 38.6386 21.3645 38.4826C21.2086 38.3266 21.121 38.1151 21.121 37.8945V34.8088C21.121 34.5882 21.2086 34.3767 21.3645 34.2207C21.5205 34.0647 21.7321 33.9771 21.9527 33.9771H25.0467C25.2673 33.9771 25.4788 34.0647 25.6348 34.2207C25.7908 34.3767 25.8784 34.5882 25.8784 34.8088V37.8945C25.8784 38.1151 25.7908 38.3266 25.6348 38.4826C25.4788 38.6386 25.2673 38.7262 25.0467 38.7262ZM25.1132 12.2195H21.8862C21.725 12.2194 21.5654 12.2517 21.4168 12.3144C21.2683 12.377 21.1338 12.4689 21.0214 12.5844C20.909 12.6999 20.8208 12.8368 20.7622 12.987C20.7036 13.1372 20.6757 13.2976 20.6801 13.4587L21.096 29.1531C21.1025 29.4686 21.2325 29.769 21.458 29.9898C21.6834 30.2106 21.9865 30.3342 22.3021 30.3342H24.6973C25.0129 30.3342 25.316 30.2106 25.5414 29.9898C25.7669 29.769 25.8968 29.4686 25.9034 29.1531L26.3192 13.4587C26.3237 13.2976 26.2958 13.1372 26.2372 12.987C26.1786 12.8368 26.0904 12.6999 25.978 12.5844C25.8656 12.4689 25.7311 12.377 25.5825 12.3144C25.434 12.2517 25.2744 12.2194 25.1132 12.2195Z" fill="url(#paint1_linear_12616_67889)"/>
</g>
<defs>
<filter id="filter0_d_12616_67889" x="0.143438" y="2.92145" width="46.7121" height="42.6689" filterUnits="userSpaceOnUse" color-interpolation-filters="sRGB">
<feFlood flood-opacity="0" result="BackgroundImageFix"/>
<feColorMatrix in="SourceAlpha" type="matrix" values="0 0 0 0 0 0 0 0 0 0 0 0 0 0 0 0 0 0 127 0" result="hardAlpha"/>
<feOffset dy="1.88"/>
<feGaussianBlur stdDeviation="0.94"/>
<feComposite in2="hardAlpha" operator="out"/>
<feColorMatrix type="matrix" values="0 0 0 0 0 0 0 0 0 0 0 0 0 0 0 0 0 0 0.75 0"/>
<feBlend mode="normal" in2="BackgroundImageFix" result="effect1_dropShadow_12616_67889"/>
<feBlend mode="normal" in="SourceGraphic" in2="effect1_dropShadow_12616_67889" result="shape"/>
</filter>
<linearGradient id="paint0_linear_12616_67889" x1="23.4997" y1="0.940308" x2="23.4997" y2="55.4603" gradientUnits="userSpaceOnUse">
<stop offset="0" stop-color="#AAAAAA"/>
<stop offset="1" stop-color="#AAAAAA"/>
</linearGradient>
<linearGradient id="paint1_linear_12616_67889" x1="23.4997" y1="12.2195" x2="23.4997" y2="38.7262" gradientUnits="userSpaceOnUse">
<stop offset="0" stop-color="white"/>
<stop offset="1" stop-color="#BFBFBF"/>
</linearGradient>
<clipPath id="clip0_12616_67889">
<rect width="47" height="47" fill="white"/>
</clipPath>
</defs>
</svg>
