<svg width="64" height="77" viewBox="0 0 64 77" fill="none" xmlns="http://www.w3.org/2000/svg">
<path d="M29.2312 60.5191C21.4381 55.5305 15.7546 47.847 13.2657 38.9349C10.7767 30.0229 11.6565 20.5064 15.7372 12.2017C17.7456 10.4072 19.9819 8.88537 22.3882 7.67547C34.9858 24.191 44.538 42.8202 50.5963 62.6887C47.8175 64.1206 44.8383 65.1246 41.7597 65.6669C37.3073 64.7205 33.0628 62.9765 29.2312 60.5191Z" fill="url(#paint0_radial_61_2520)"/>
<path d="M29.2312 60.5191C21.4381 55.5305 15.7546 47.847 13.2657 38.9349C10.7767 30.0229 11.6565 20.5064 15.7372 12.2017C17.7456 10.4072 19.9819 8.88537 22.3882 7.67547C34.9858 24.191 44.538 42.8202 50.5963 62.6887C47.8175 64.1206 44.8383 65.1246 41.7597 65.6669C37.3073 64.7205 33.0628 62.9765 29.2312 60.5191Z" fill="url(#paint1_radial_61_2520)"/>
<g filter="url(#filter0_f_61_2520)">
<path d="M19.2925 7.61967C19.0937 7.91896 18.993 8.27269 19.0044 8.63178C19.0157 8.99088 19.1385 9.33754 19.3558 9.62369C32.2044 26.3028 41.8891 45.1944 47.9303 65.3633C48.0638 65.8033 48.3667 66.1722 48.7723 66.389C49.1778 66.6057 49.6529 66.6524 50.0929 66.5189C50.5329 66.3853 50.9019 66.0824 51.1186 65.6769C51.3353 65.2713 51.382 64.7963 51.2485 64.3562C45.0967 43.7826 35.2225 24.5123 22.1163 7.50214C21.9797 7.31809 21.8079 7.16301 21.6109 7.04589C21.4138 6.92878 21.1955 6.85196 20.9686 6.81989C20.7416 6.78783 20.5106 6.80116 20.2888 6.85912C20.0671 6.91707 19.8591 7.01849 19.6768 7.15749C19.5227 7.28795 19.3926 7.44437 19.2925 7.61967Z" fill="url(#paint2_linear_61_2520)"/>
</g>
<path style="mix-blend-mode:overlay" d="M19.2925 7.61967C19.0937 7.91896 18.993 8.27269 19.0044 8.63178C19.0157 8.99088 19.1385 9.33754 19.3558 9.62369C32.2044 26.3028 41.8891 45.1944 47.9303 65.3633C48.0638 65.8033 48.3667 66.1722 48.7723 66.389C49.1778 66.6057 49.6529 66.6524 50.0929 66.5189C50.5329 66.3853 50.9019 66.0824 51.1186 65.6769C51.3353 65.2713 51.382 64.7963 51.2485 64.3562C45.0967 43.7826 35.2225 24.5123 22.1163 7.50214C21.9797 7.31809 21.8079 7.16301 21.6109 7.04589C21.4138 6.92878 21.1955 6.85196 20.9686 6.81989C20.7416 6.78783 20.5106 6.80116 20.2888 6.85912C20.0671 6.91707 19.8591 7.01849 19.6768 7.15749C19.5227 7.28795 19.3926 7.44437 19.2925 7.61967Z" fill="url(#paint3_linear_61_2520)"/>
<g style="mix-blend-mode:overlay">
<path style="mix-blend-mode:overlay" d="M19.2925 7.61967C19.0937 7.91896 18.993 8.27269 19.0044 8.63178C19.0157 8.99088 19.1385 9.33754 19.3558 9.62369C32.2044 26.3028 41.8891 45.1944 47.9303 65.3633C48.0638 65.8033 48.3667 66.1722 48.7723 66.389C49.1778 66.6057 49.6529 66.6524 50.0929 66.5189C50.5329 66.3853 50.9019 66.0824 51.1186 65.6769C51.3353 65.2713 51.382 64.7963 51.2485 64.3562C45.0967 43.7826 35.2225 24.5123 22.1163 7.50214C21.9797 7.31809 21.8079 7.16301 21.6109 7.04589C21.4138 6.92878 21.1955 6.85196 20.9686 6.81989C20.7416 6.78783 20.5106 6.80116 20.2888 6.85912C20.0671 6.91707 19.8591 7.01849 19.6768 7.15749C19.5227 7.28795 19.3926 7.44437 19.2925 7.61967Z" fill="url(#paint4_linear_61_2520)"/>
</g>
<g clip-path="url(#clip0_61_2520)" filter="url(#filter1_d_61_2520)">
<g filter="url(#filter2_d_61_2520)">
<path fill-rule="evenodd" clip-rule="evenodd" d="M30.9375 34.75L18.375 47.277L11.9375 41.4227L9.625 44.0665L18.5625 52.25L18.625 52.1871L33.375 37.0791L30.9375 34.75Z" fill="url(#paint5_linear_61_2520)"/>
</g>
</g>
<defs>
<filter id="filter0_f_61_2520" x="16.4073" y="4.2067" width="37.5121" height="64.9831" filterUnits="userSpaceOnUse" color-interpolation-filters="sRGB">
<feFlood flood-opacity="0" result="BackgroundImageFix"/>
<feBlend mode="normal" in="SourceGraphic" in2="BackgroundImageFix" result="shape"/>
<feGaussianBlur stdDeviation="1.29808" result="effect1_foregroundBlur_61_2520"/>
</filter>
<filter id="filter1_d_61_2520" x="7" y="31" width="29" height="29" filterUnits="userSpaceOnUse" color-interpolation-filters="sRGB">
<feFlood flood-opacity="0" result="BackgroundImageFix"/>
<feColorMatrix in="SourceAlpha" type="matrix" values="0 0 0 0 0 0 0 0 0 0 0 0 0 0 0 0 0 0 127 0" result="hardAlpha"/>
<feOffset dy="2"/>
<feGaussianBlur stdDeviation="1"/>
<feColorMatrix type="matrix" values="0 0 0 0 0 0 0 0 0 0 0 0 0 0 0 0 0 0 0.75 0"/>
<feBlend mode="normal" in2="BackgroundImageFix" result="effect1_dropShadow_61_2520"/>
<feBlend mode="normal" in="SourceGraphic" in2="effect1_dropShadow_61_2520" result="shape"/>
</filter>
<filter id="filter2_d_61_2520" x="7.625" y="34.75" width="27.75" height="21.5" filterUnits="userSpaceOnUse" color-interpolation-filters="sRGB">
<feFlood flood-opacity="0" result="BackgroundImageFix"/>
<feColorMatrix in="SourceAlpha" type="matrix" values="0 0 0 0 0 0 0 0 0 0 0 0 0 0 0 0 0 0 127 0" result="hardAlpha"/>
<feOffset dy="2"/>
<feGaussianBlur stdDeviation="1"/>
<feComposite in2="hardAlpha" operator="out"/>
<feColorMatrix type="matrix" values="0 0 0 0 0 0 0 0 0 0 0 0 0 0 0 0 0 0 0.75 0"/>
<feBlend mode="normal" in2="BackgroundImageFix" result="effect1_dropShadow_61_2520"/>
<feBlend mode="normal" in="SourceGraphic" in2="effect1_dropShadow_61_2520" result="shape"/>
</filter>
<radialGradient id="paint0_radial_61_2520" cx="0" cy="0" r="1" gradientUnits="userSpaceOnUse" gradientTransform="translate(49.5218 28.7979) rotate(-57.3791) scale(37.6615)">
<stop offset="0"/>
<stop offset="0.96" stop-opacity="0"/>
</radialGradient>
<radialGradient id="paint1_radial_61_2520" cx="0" cy="0" r="1" gradientUnits="userSpaceOnUse" gradientTransform="translate(49.5218 28.7979) rotate(-57.3791) scale(37.6615)">
<stop offset="0" stop-color="#00FF57"/>
<stop offset="0.16" stop-color="#00FF57" stop-opacity="0.78"/>
<stop offset="0.38" stop-color="#00FF57" stop-opacity="0.5"/>
<stop offset="0.58" stop-color="#00FF57" stop-opacity="0.29"/>
<stop offset="0.75" stop-color="#00FF57" stop-opacity="0.13"/>
<stop offset="0.88" stop-color="#00FF57" stop-opacity="0.04"/>
<stop offset="0.96" stop-color="#00FF57" stop-opacity="0"/>
</radialGradient>
<linearGradient id="paint2_linear_61_2520" x1="21.0383" y1="6.42307" x2="51.7371" y2="65.7" gradientUnits="userSpaceOnUse">
<stop offset="0" stop-opacity="0"/>
<stop offset="0.21875"/>
<stop offset="0.786458"/>
<stop offset="1" stop-opacity="0"/>
</linearGradient>
<linearGradient id="paint3_linear_61_2520" x1="50.4405" y1="66.3715" x2="21.0375" y2="6.42344" gradientUnits="userSpaceOnUse">
<stop offset="0" stop-color="#099E3C" stop-opacity="0"/>
<stop offset="0.411458" stop-color="#00FF57"/>
<stop offset="0.588542" stop-color="#00FF57"/>
<stop offset="1" stop-color="#099E3C" stop-opacity="0"/>
</linearGradient>
<linearGradient id="paint4_linear_61_2520" x1="50.6704" y1="66.2525" x2="21.0375" y2="6.42344" gradientUnits="userSpaceOnUse">
<stop offset="0.0625" stop-color="#099E3C" stop-opacity="0"/>
<stop offset="0.5" stop-color="#00FF57"/>
<stop offset="0.9375" stop-color="#099E3C" stop-opacity="0"/>
</linearGradient>
<linearGradient id="paint5_linear_61_2520" x1="21.5" y1="34.75" x2="21.5" y2="52.25" gradientUnits="userSpaceOnUse">
<stop offset="0" stop-color="#00FF57"/>
<stop offset="1" stop-color="#007C66"/>
</linearGradient>
<clipPath id="clip0_61_2520">
<rect width="25" height="25" fill="white" transform="translate(9 31)"/>
</clipPath>
</defs>
</svg>
