<svg width="57" height="72" viewBox="0 0 57 72" fill="none" xmlns="http://www.w3.org/2000/svg">
<path d="M25.6591 15.6776C33.6722 20.3045 39.701 27.7201 42.5949 36.509C45.4888 45.2979 45.0451 54.8447 41.3484 63.3273C39.4241 65.2117 37.2598 66.8343 34.9113 68.1529C21.5717 52.2308 11.1777 34.0578 4.21715 14.4871C6.9276 12.9297 9.8577 11.7905 12.9084 11.108C17.3994 11.8498 21.7192 13.3979 25.6591 15.6776Z" fill="url(#paint0_radial_61_2586)"/>
<path d="M25.6591 15.6776C33.6722 20.3045 39.701 27.7201 42.5949 36.509C45.4888 45.2979 45.0451 54.8447 41.3484 63.3273C39.4241 65.2117 37.2598 66.8343 34.9113 68.1529C21.5717 52.2308 11.1777 34.0578 4.21715 14.4871C6.9276 12.9297 9.8577 11.7905 12.9084 11.108C17.3994 11.8498 21.7192 13.3979 25.6591 15.6776Z" fill="url(#paint1_radial_61_2586)"/>
<g filter="url(#filter0_f_61_2586)">
<path d="M38.0068 68.0672C38.1916 67.7591 38.276 67.4011 38.2483 67.0429C38.2205 66.6847 38.082 66.344 37.8519 66.0681C24.254 49.994 13.7156 31.565 6.75846 11.6935C6.60493 11.26 6.28551 10.9053 5.87045 10.7074C5.4554 10.5094 4.97871 10.4845 4.54526 10.638C4.11181 10.7915 3.75709 11.111 3.55915 11.526C3.36121 11.9411 3.33625 12.4177 3.48977 12.8512C10.5759 33.122 21.321 51.9207 35.1913 68.3137C35.3362 68.4913 35.5149 68.6384 35.717 68.7464C35.9192 68.8543 36.1408 68.9211 36.369 68.9427C36.5972 68.9644 36.8274 68.9405 37.0462 68.8725C37.2651 68.8045 37.4683 68.6936 37.644 68.5464C37.7919 68.4091 37.9147 68.2469 38.0068 68.0672Z" fill="url(#paint2_linear_61_2586)"/>
</g>
<path style="mix-blend-mode:overlay" d="M38.0068 68.0672C38.1916 67.7591 38.276 67.4011 38.2483 67.0429C38.2205 66.6847 38.082 66.344 37.8519 66.0681C24.254 49.994 13.7156 31.565 6.75846 11.6935C6.60493 11.26 6.28551 10.9053 5.87045 10.7074C5.4554 10.5094 4.97871 10.4845 4.54526 10.638C4.11181 10.7915 3.75709 11.111 3.55915 11.526C3.36121 11.9411 3.33625 12.4177 3.48977 12.8512C10.5759 33.122 21.321 51.9207 35.1913 68.3137C35.3362 68.4913 35.5149 68.6384 35.717 68.7464C35.9192 68.8543 36.1408 68.9211 36.369 68.9427C36.5972 68.9644 36.8274 68.9405 37.0462 68.8725C37.2651 68.8045 37.4683 68.6936 37.644 68.5464C37.7919 68.4091 37.9147 68.2469 38.0068 68.0672Z" fill="url(#paint3_linear_61_2586)"/>
<g style="mix-blend-mode:overlay">
<path style="mix-blend-mode:overlay" d="M38.0068 68.0672C38.1916 67.7591 38.276 67.4011 38.2483 67.0429C38.2205 66.6847 38.082 66.344 37.8519 66.0681C24.254 49.994 13.7156 31.565 6.75846 11.6935C6.60493 11.26 6.28551 10.9053 5.87045 10.7074C5.4554 10.5094 4.97871 10.4845 4.54526 10.638C4.11181 10.7915 3.75709 11.111 3.55915 11.526C3.36121 11.9411 3.33625 12.4177 3.48977 12.8512C10.5759 33.122 21.321 51.9207 35.1913 68.3137C35.3362 68.4913 35.5149 68.6384 35.717 68.7464C35.9192 68.8543 36.1408 68.9211 36.369 68.9427C36.5972 68.9644 36.8274 68.9405 37.0462 68.8725C37.2651 68.8045 37.4683 68.6936 37.644 68.5464C37.7919 68.4091 37.9147 68.2469 38.0068 68.0672Z" fill="url(#paint4_linear_61_2586)"/>
</g>
<g clip-path="url(#clip0_61_2586)" filter="url(#filter1_d_61_2586)">
<g filter="url(#filter2_d_61_2586)">
<path fill-rule="evenodd" clip-rule="evenodd" d="M27.6875 44.9903H38.8125L40.125 29.9903H26.375L27.6875 44.9903ZM38.25 26.8653V25.6153C38.25 25.118 38.0525 24.6411 37.7008 24.2895C37.3492 23.9378 36.8723 23.7403 36.375 23.7403H30.125C29.6277 23.7403 29.1508 23.9378 28.7992 24.2895C28.4475 24.6411 28.25 25.118 28.25 25.6153V26.8653H24.5V28.7403H42V26.8653H38.25ZM36.375 26.8653H30.125V26.2403C30.125 26.0745 30.1908 25.9156 30.3081 25.7984C30.4253 25.6811 30.5842 25.6153 30.75 25.6153H35.75C35.9158 25.6153 36.0747 25.6811 36.1919 25.7984C36.3092 25.9156 36.375 26.0745 36.375 26.2403V26.8653Z" fill="url(#paint5_linear_61_2586)"/>
</g>
</g>
<defs>
<filter id="filter0_f_61_2586" x="0.793983" y="7.94236" width="40.0556" height="63.6043" filterUnits="userSpaceOnUse" color-interpolation-filters="sRGB">
<feFlood flood-opacity="0" result="BackgroundImageFix"/>
<feBlend mode="normal" in="SourceGraphic" in2="BackgroundImageFix" result="shape"/>
<feGaussianBlur stdDeviation="1.29808" result="effect1_foregroundBlur_61_2586"/>
</filter>
<filter id="filter1_d_61_2586" x="18.75" y="21.8652" width="29" height="29" filterUnits="userSpaceOnUse" color-interpolation-filters="sRGB">
<feFlood flood-opacity="0" result="BackgroundImageFix"/>
<feColorMatrix in="SourceAlpha" type="matrix" values="0 0 0 0 0 0 0 0 0 0 0 0 0 0 0 0 0 0 127 0" result="hardAlpha"/>
<feOffset dy="2"/>
<feGaussianBlur stdDeviation="1"/>
<feColorMatrix type="matrix" values="0 0 0 0 0 0 0 0 0 0 0 0 0 0 0 0 0 0 0.75 0"/>
<feBlend mode="normal" in2="BackgroundImageFix" result="effect1_dropShadow_61_2586"/>
<feBlend mode="normal" in="SourceGraphic" in2="effect1_dropShadow_61_2586" result="shape"/>
</filter>
<filter id="filter2_d_61_2586" x="22.5" y="23.7403" width="21.5" height="25.25" filterUnits="userSpaceOnUse" color-interpolation-filters="sRGB">
<feFlood flood-opacity="0" result="BackgroundImageFix"/>
<feColorMatrix in="SourceAlpha" type="matrix" values="0 0 0 0 0 0 0 0 0 0 0 0 0 0 0 0 0 0 127 0" result="hardAlpha"/>
<feOffset dy="2"/>
<feGaussianBlur stdDeviation="1"/>
<feComposite in2="hardAlpha" operator="out"/>
<feColorMatrix type="matrix" values="0 0 0 0 0 0 0 0 0 0 0 0 0 0 0 0 0 0 0.75 0"/>
<feBlend mode="normal" in2="BackgroundImageFix" result="effect1_dropShadow_61_2586"/>
<feBlend mode="normal" in="SourceGraphic" in2="effect1_dropShadow_61_2586" result="shape"/>
</filter>
<radialGradient id="paint0_radial_61_2586" cx="0" cy="0" r="1" gradientUnits="userSpaceOnUse" gradientTransform="translate(6.84031 48.2933) rotate(120) scale(37.6615)">
<stop offset="0"/>
<stop offset="0.96" stop-opacity="0"/>
</radialGradient>
<radialGradient id="paint1_radial_61_2586" cx="0" cy="0" r="1" gradientUnits="userSpaceOnUse" gradientTransform="translate(6.84031 48.2933) rotate(120) scale(37.6615)">
<stop offset="0" stop-color="#FD004C"/>
<stop offset="0.16" stop-color="#FD004C" stop-opacity="0.78"/>
<stop offset="0.38" stop-color="#FD004C" stop-opacity="0.5"/>
<stop offset="0.58" stop-color="#FD004C" stop-opacity="0.29"/>
<stop offset="0.75" stop-color="#FD004C" stop-opacity="0.13"/>
<stop offset="0.88" stop-color="#FD004C" stop-opacity="0.04"/>
<stop offset="0.96" stop-color="#FD004C" stop-opacity="0"/>
</radialGradient>
<linearGradient id="paint2_linear_61_2586" x1="36.3175" y1="69.3423" x2="2.94023" y2="11.5312" gradientUnits="userSpaceOnUse">
<stop offset="0" stop-opacity="0"/>
<stop offset="0.21875"/>
<stop offset="0.786458"/>
<stop offset="1" stop-opacity="0"/>
</linearGradient>
<linearGradient id="paint3_linear_61_2586" x1="4.20474" y1="10.8011" x2="36.3182" y2="69.3419" gradientUnits="userSpaceOnUse">
<stop offset="0" stop-color="#B10303" stop-opacity="0"/>
<stop offset="0.411458" stop-color="#FD004C"/>
<stop offset="0.588542" stop-color="#FD004C"/>
<stop offset="1" stop-color="#B10303" stop-opacity="0"/>
</linearGradient>
<linearGradient id="paint4_linear_61_2586" x1="3.98052" y1="10.9305" x2="36.3182" y2="69.3419" gradientUnits="userSpaceOnUse">
<stop offset="0.0625" stop-color="#B10303" stop-opacity="0"/>
<stop offset="0.5" stop-color="#FD004C"/>
<stop offset="0.9375" stop-color="#B10303" stop-opacity="0"/>
</linearGradient>
<linearGradient id="paint5_linear_61_2586" x1="33.25" y1="23.7403" x2="33.25" y2="44.9903" gradientUnits="userSpaceOnUse">
<stop offset="0" stop-color="#FD004C"/>
<stop offset="1" stop-color="#AB0000"/>
</linearGradient>
<clipPath id="clip0_61_2586">
<rect width="25" height="25" fill="white" transform="translate(20.75 21.8652)"/>
</clipPath>
</defs>
</svg>
