<svg width="56" height="72" viewBox="0 0 56 72" fill="none" xmlns="http://www.w3.org/2000/svg">
<path d="M29.8899 15.9891C21.9557 20.4795 16.0197 27.7343 13.215 36.3688C10.4102 45.0033 10.933 54.4129 14.6837 62.8018C16.6146 64.6748 18.7821 66.2918 21.1302 67.611V67.611C34.2684 52.0375 44.4565 34.2214 51.216 14.9989V14.9989C48.5057 13.4413 45.5803 12.294 42.5389 11.5956C38.0763 12.2882 33.791 13.7767 29.8899 15.9891V15.9891Z" fill="url(#paint0_radial_0_1)"/>
<path d="M29.8899 15.9891C21.9557 20.4795 16.0197 27.7343 13.215 36.3688C10.4102 45.0033 10.933 54.4129 14.6837 62.8018C16.6146 64.6748 18.7821 66.2918 21.1302 67.611V67.611C34.2684 52.0375 44.4565 34.2214 51.216 14.9989V14.9989C48.5057 13.4413 45.5803 12.294 42.5389 11.5956C38.0763 12.2882 33.791 13.7767 29.8899 15.9891V15.9891Z" fill="url(#paint1_radial_0_1)"/>
<g filter="url(#filter0_f_0_1)">
<path d="M18.0498 67.5002C17.8632 67.1951 17.7762 66.8417 17.8008 66.489C17.8253 66.1363 17.9603 65.8018 18.1869 65.5319C31.5809 49.811 41.9103 31.7438 48.664 12.2249C48.8131 11.7991 49.1279 11.4524 49.5392 11.2609C49.9505 11.0694 50.4247 11.0489 50.8573 11.2038C51.2899 11.3588 51.6456 11.6765 51.8461 12.0871C52.0466 12.4977 52.0755 12.9676 51.9264 13.3933C45.0478 33.3045 34.5159 51.7341 20.8535 67.767C20.7109 67.9408 20.5343 68.0841 20.334 68.1888C20.1338 68.2935 19.9139 68.3574 19.687 68.3768C19.4601 68.3961 19.2309 68.3707 19.0125 68.3018C18.7941 68.2329 18.591 68.1219 18.4149 67.9754C18.2665 67.8388 18.1429 67.678 18.0498 67.5002Z" fill="url(#paint2_linear_0_1)"/>
</g>
<path style="mix-blend-mode:overlay" d="M18.0498 67.5002C17.8632 67.1951 17.7762 66.8417 17.8008 66.489C17.8253 66.1363 17.9603 65.8018 18.1869 65.5319C31.5809 49.811 41.9103 31.7438 48.664 12.2249C48.8131 11.7991 49.1279 11.4524 49.5392 11.2609C49.9505 11.0694 50.4247 11.0489 50.8573 11.2038C51.2899 11.3588 51.6456 11.6765 51.8461 12.0871C52.0466 12.4977 52.0755 12.9676 51.9264 13.3933C45.0478 33.3045 34.5159 51.7341 20.8535 67.767C20.7109 67.9408 20.5343 68.0841 20.334 68.1888C20.1338 68.2935 19.9139 68.3574 19.687 68.3768C19.4601 68.3961 19.2309 68.3707 19.0125 68.3018C18.7941 68.2329 18.591 68.1219 18.4149 67.9754C18.2665 67.8388 18.1429 67.678 18.0498 67.5002Z" fill="url(#paint3_linear_0_1)"/>
<g style="mix-blend-mode:overlay">
<path style="mix-blend-mode:overlay" d="M18.0498 67.5002C17.8632 67.1951 17.7762 66.8417 17.8008 66.489C17.8253 66.1363 17.9603 65.8018 18.1869 65.5319C31.5809 49.811 41.9103 31.7438 48.664 12.2249C48.8131 11.7991 49.1279 11.4524 49.5392 11.2609C49.9505 11.0694 50.4247 11.0489 50.8573 11.2038C51.2899 11.3588 51.6456 11.6765 51.8461 12.0871C52.0466 12.4977 52.0755 12.9676 51.9264 13.3933C45.0478 33.3045 34.5159 51.7341 20.8535 67.767C20.7109 67.9408 20.5343 68.0841 20.334 68.1888C20.1338 68.2935 19.9139 68.3574 19.687 68.3768C19.4601 68.3961 19.2309 68.3707 19.0125 68.3018C18.7941 68.2329 18.591 68.1219 18.4149 67.9754C18.2665 67.8388 18.1429 67.678 18.0498 67.5002Z" fill="url(#paint4_linear_0_1)"/>
</g>
<g filter="url(#filter1_d_0_1)">
<path fill-rule="evenodd" clip-rule="evenodd" d="M10.5095 34.1896H27.6249V37.4124H10.5095V34.1896Z" fill="url(#paint5_linear_0_1)"/>
<path d="M26.1049 35.8042L18.8227 43.1951L21.0645 45.4703L30.5864 35.8021L21.0634 26.137L18.8216 28.4123L26.1049 35.8042Z" fill="url(#paint6_linear_0_1)"/>
</g>
<defs>
<filter id="filter0_f_0_1" x="14.7969" y="8.10083" width="40.2236" height="63.2822" filterUnits="userSpaceOnUse" color-interpolation-filters="sRGB">
<feFlood flood-opacity="0" result="BackgroundImageFix"/>
<feBlend mode="normal" in="SourceGraphic" in2="BackgroundImageFix" result="shape"/>
<feGaussianBlur stdDeviation="1.5" result="effect1_foregroundBlur_0_1"/>
</filter>
<filter id="filter1_d_0_1" x="8.50928" y="26.137" width="24.0771" height="23.3333" filterUnits="userSpaceOnUse" color-interpolation-filters="sRGB">
<feFlood flood-opacity="0" result="BackgroundImageFix"/>
<feColorMatrix in="SourceAlpha" type="matrix" values="0 0 0 0 0 0 0 0 0 0 0 0 0 0 0 0 0 0 127 0" result="hardAlpha"/>
<feOffset dy="2"/>
<feGaussianBlur stdDeviation="1"/>
<feComposite in2="hardAlpha" operator="out"/>
<feColorMatrix type="matrix" values="0 0 0 0 0 0 0 0 0 0 0 0 0 0 0 0 0 0 0.75 0"/>
<feBlend mode="normal" in2="BackgroundImageFix" result="effect1_dropShadow_0_1"/>
<feBlend mode="normal" in="SourceGraphic" in2="effect1_dropShadow_0_1" result="shape"/>
</filter>
<radialGradient id="paint0_radial_0_1" cx="0" cy="0" r="1" gradientUnits="userSpaceOnUse" gradientTransform="translate(48.8937 48.2836) rotate(59.5096) scale(37.4773 37.1014)">
<stop offset="0"/>
<stop offset="0.96" stop-opacity="0"/>
</radialGradient>
<radialGradient id="paint1_radial_0_1" cx="0" cy="0" r="1" gradientUnits="userSpaceOnUse" gradientTransform="translate(48.8937 48.2836) rotate(59.5096) scale(37.4773 37.1014)">
<stop offset="0" stop-color="#0096FF"/>
<stop offset="0.16" stop-color="#0096FF" stop-opacity="0.78"/>
<stop offset="0.38" stop-color="#0096FF" stop-opacity="0.5"/>
<stop offset="0.58" stop-color="#0096FF" stop-opacity="0.29"/>
<stop offset="0.75" stop-color="#0096FF" stop-opacity="0.13"/>
<stop offset="0.88" stop-color="#0096FF" stop-opacity="0.04"/>
<stop offset="0.96" stop-color="#0096FF" stop-opacity="0"/>
</radialGradient>
<linearGradient id="paint2_linear_0_1" x1="19.7416" y1="68.7709" x2="52.462" y2="12.0975" gradientUnits="userSpaceOnUse">
<stop offset="0" stop-opacity="0"/>
<stop offset="0.21875"/>
<stop offset="0.786458"/>
<stop offset="1" stop-opacity="0"/>
</linearGradient>
<linearGradient id="paint3_linear_0_1" x1="51.1975" y1="11.3674" x2="19.6911" y2="68.7431" gradientUnits="userSpaceOnUse">
<stop offset="0" stop-color="#035A97" stop-opacity="0"/>
<stop offset="0.411458" stop-color="#0096FF"/>
<stop offset="0.588542" stop-color="#0096FF"/>
<stop offset="1" stop-color="#035A97" stop-opacity="0"/>
</linearGradient>
<linearGradient id="paint4_linear_0_1" x1="51.4217" y1="11.4968" x2="19.7" y2="68.7478" gradientUnits="userSpaceOnUse">
<stop offset="0.0625" stop-color="#035A97" stop-opacity="0"/>
<stop offset="0.5" stop-color="#0096FF"/>
<stop offset="0.9375" stop-color="#035A97" stop-opacity="0"/>
</linearGradient>
<linearGradient id="paint5_linear_0_1" x1="20.548" y1="45.4703" x2="20.548" y2="26.137" gradientUnits="userSpaceOnUse">
<stop offset="0" stop-color="#0096FF"/>
<stop offset="1" stop-color="#0036BF"/>
</linearGradient>
<linearGradient id="paint6_linear_0_1" x1="20.548" y1="45.4703" x2="20.548" y2="26.137" gradientUnits="userSpaceOnUse">
<stop offset="0" stop-color="#0096FF"/>
<stop offset="1" stop-color="#0036BF"/>
</linearGradient>
</defs>
</svg>
