<svg width="46" height="46" viewBox="0 0 46 46" fill="none" xmlns="http://www.w3.org/2000/svg">
<path fill-rule="evenodd" clip-rule="evenodd" d="M20.8096 5.16553C12.1332 5.16553 5.09961 12.29 5.09961 21.0786C5.09961 29.8671 12.1332 36.9916 20.8096 36.9916C24.4193 36.9916 27.7447 35.7585 30.3975 33.6853L42.8878 46.0001L46.0001 42.7614L33.51 30.4468C35.4027 27.8186 36.5196 24.5807 36.5196 21.0786C36.5196 12.29 29.486 5.16553 20.8096 5.16553ZM9.56166 21.0786C9.56166 14.7862 14.5975 9.68525 20.8096 9.68525C27.0217 9.68525 32.0575 14.7862 32.0575 21.0786C32.0575 27.3709 27.0217 32.4719 20.8096 32.4719C14.5975 32.4719 9.56166 27.3709 9.56166 21.0786Z" fill="#AAAAAA"/>
</svg>
