<svg width="57" height="72" viewBox="0 0 57 72" fill="none" xmlns="http://www.w3.org/2000/svg">
<path d="M25.7909 56.3316C33.8041 51.7046 39.8329 44.289 42.7268 35.5001C45.6206 26.7112 45.1769 17.1644 41.4803 8.68185C39.556 6.79741 37.3916 5.17488 35.0432 3.85622C21.7036 19.7784 11.3095 37.9514 4.34899 57.522C7.05944 59.0795 9.98954 60.2187 13.0402 60.9011C17.5312 60.1594 21.851 58.6113 25.7909 56.3316Z" fill="url(#paint0_radial_76_834)"/>
<path d="M25.7909 56.3316C33.8041 51.7046 39.8329 44.289 42.7268 35.5001C45.6206 26.7112 45.1769 17.1644 41.4803 8.68185C39.556 6.79741 37.3916 5.17488 35.0432 3.85622C21.7036 19.7784 11.3095 37.9514 4.34899 57.522C7.05944 59.0795 9.98954 60.2187 13.0402 60.9011C17.5312 60.1594 21.851 58.6113 25.7909 56.3316Z" fill="url(#paint1_radial_76_834)"/>
<g filter="url(#filter0_f_76_834)">
<path d="M38.1367 3.9415C38.3215 4.24957 38.4059 4.60753 38.3782 4.96573C38.3504 5.32393 38.2119 5.66462 37.9818 5.94053C24.3839 22.0146 13.8455 40.4437 6.88834 60.3152C6.73481 60.7486 6.41539 61.1033 6.00033 61.3013C5.58528 61.4992 5.10859 61.5242 4.67514 61.3707C4.24169 61.2171 3.88697 60.8977 3.68903 60.4827C3.49109 60.0676 3.46613 59.5909 3.61966 59.1575C10.7058 38.8867 21.4508 20.088 35.3212 3.69497C35.4661 3.51736 35.6448 3.3703 35.8469 3.26231C36.0491 3.15433 36.2707 3.08757 36.4989 3.06592C36.727 3.04427 36.9572 3.06815 37.1761 3.13618C37.395 3.20422 37.5981 3.31504 37.7738 3.46223C37.9218 3.5996 38.0446 3.7618 38.1367 3.9415Z" fill="url(#paint2_linear_76_834)"/>
</g>
<path style="mix-blend-mode:overlay" d="M38.1367 3.9415C38.3215 4.24957 38.4059 4.60753 38.3782 4.96573C38.3504 5.32393 38.2119 5.66462 37.9818 5.94053C24.3839 22.0146 13.8455 40.4437 6.88834 60.3152C6.73481 60.7486 6.41539 61.1033 6.00033 61.3013C5.58528 61.4992 5.10859 61.5242 4.67514 61.3707C4.24169 61.2171 3.88697 60.8977 3.68903 60.4827C3.49109 60.0676 3.46613 59.5909 3.61966 59.1575C10.7058 38.8867 21.4508 20.088 35.3212 3.69497C35.4661 3.51736 35.6448 3.3703 35.8469 3.26231C36.0491 3.15433 36.2707 3.08757 36.4989 3.06592C36.727 3.04427 36.9572 3.06815 37.1761 3.13618C37.395 3.20422 37.5981 3.31504 37.7738 3.46223C37.9218 3.5996 38.0446 3.7618 38.1367 3.9415Z" fill="url(#paint3_linear_76_834)"/>
<g style="mix-blend-mode:overlay">
<path style="mix-blend-mode:overlay" d="M38.1367 3.9415C38.3215 4.24957 38.4059 4.60753 38.3782 4.96573C38.3504 5.32393 38.2119 5.66462 37.9818 5.94053C24.3839 22.0146 13.8455 40.4437 6.88834 60.3152C6.73481 60.7486 6.41539 61.1033 6.00033 61.3013C5.58528 61.4992 5.10859 61.5242 4.67514 61.3707C4.24169 61.2171 3.88697 60.8977 3.68903 60.4827C3.49109 60.0676 3.46613 59.5909 3.61966 59.1575C10.7058 38.8867 21.4508 20.088 35.3212 3.69497C35.4661 3.51736 35.6448 3.3703 35.8469 3.26231C36.0491 3.15433 36.2707 3.08757 36.4989 3.06592C36.727 3.04427 36.9572 3.06815 37.1761 3.13618C37.395 3.20422 37.5981 3.31504 37.7738 3.46223C37.9218 3.5996 38.0446 3.7618 38.1367 3.9415Z" fill="url(#paint4_linear_76_834)"/>
</g>
<defs>
<filter id="filter0_f_76_834" x="0.923866" y="0.462074" width="40.0556" height="63.6042" filterUnits="userSpaceOnUse" color-interpolation-filters="sRGB">
<feFlood flood-opacity="0" result="BackgroundImageFix"/>
<feBlend mode="normal" in="SourceGraphic" in2="BackgroundImageFix" result="shape"/>
<feGaussianBlur stdDeviation="1.29808" result="effect1_foregroundBlur_76_834"/>
</filter>
<radialGradient id="paint0_radial_76_834" cx="0" cy="0" r="1" gradientUnits="userSpaceOnUse" gradientTransform="translate(6.97215 23.7159) rotate(-120) scale(37.6615)">
<stop offset="0"/>
<stop offset="0.96" stop-opacity="0"/>
</radialGradient>
<radialGradient id="paint1_radial_76_834" cx="0" cy="0" r="1" gradientUnits="userSpaceOnUse" gradientTransform="translate(6.97215 23.7159) rotate(-120) scale(37.6615)">
<stop offset="0" stop-color="white"/>
<stop offset="0.16" stop-color="white" stop-opacity="0.78"/>
<stop offset="0.38" stop-color="white" stop-opacity="0.5"/>
<stop offset="0.58" stop-color="white" stop-opacity="0.29"/>
<stop offset="0.75" stop-color="white" stop-opacity="0.13"/>
<stop offset="0.88" stop-color="white" stop-opacity="0.04"/>
<stop offset="0.96" stop-color="white" stop-opacity="0"/>
</radialGradient>
<linearGradient id="paint2_linear_76_834" x1="36.4474" y1="2.66633" x2="3.07011" y2="60.4775" gradientUnits="userSpaceOnUse">
<stop offset="0" stop-opacity="0"/>
<stop offset="0.21875"/>
<stop offset="0.786458"/>
<stop offset="1" stop-opacity="0"/>
</linearGradient>
<linearGradient id="paint3_linear_76_834" x1="4.33462" y1="61.2076" x2="36.4481" y2="2.66673" gradientUnits="userSpaceOnUse">
<stop offset="0" stop-color="#B2B2B2" stop-opacity="0"/>
<stop offset="0.411458" stop-color="white"/>
<stop offset="0.588542" stop-color="white"/>
<stop offset="1" stop-color="#B2B2B2" stop-opacity="0"/>
</linearGradient>
<linearGradient id="paint4_linear_76_834" x1="4.1104" y1="61.0781" x2="36.4481" y2="2.66673" gradientUnits="userSpaceOnUse">
<stop offset="0.0625" stop-color="#B2B2B2" stop-opacity="0"/>
<stop offset="0.5" stop-color="white"/>
<stop offset="0.9375" stop-color="#B2B2B2" stop-opacity="0"/>
</linearGradient>
</defs>
</svg>
