<svg width="49" height="49" viewBox="0 0 49 49" fill="none" xmlns="http://www.w3.org/2000/svg">
<g filter="url(#filter0_d_17_1040)">
<path fill-rule="evenodd" clip-rule="evenodd" d="M24.5 0C20.0499 0 15.6998 1.3196 11.9997 3.79193C8.29957 6.26426 5.41569 9.77828 3.71272 13.8896C2.00975 18.001 1.56417 22.525 2.43234 26.8895C3.30051 31.2541 5.44343 35.2632 8.59011 38.4099C11.7368 41.5566 15.7459 43.6995 20.1105 44.5677C24.475 45.4358 28.999 44.9903 33.1104 43.2873C37.2217 41.5843 40.7357 38.7004 43.2081 35.0003C45.6804 31.3002 47 26.9501 47 22.5C47 16.5326 44.6295 10.8097 40.4099 6.5901C36.1903 2.37053 30.4674 0 24.5 0V0ZM27 36.25H22V31.25H27V36.25ZM28.25 23.75C27.8873 23.8782 27.5728 24.1149 27.3492 24.428C27.1256 24.741 27.0037 25.1153 27 25.5C27 25.75 27 27.25 27 27.5H22V25C21.9082 24.1806 22.1087 23.3551 22.5661 22.669C23.0235 21.983 23.7083 21.4805 24.5 21.25C25.2917 21.0195 25.9766 20.517 26.4339 19.8309C26.8913 19.1449 27.0918 18.3194 27 17.5C27 16.25 27 15 24.5 15C22 15 22 15 22 17.5H17C16.9253 16.496 17.0681 15.4876 17.4186 14.5438C17.7691 13.6 18.3191 12.7429 19.031 12.031C19.7429 11.319 20.6 10.7691 21.5438 10.4186C22.4877 10.0681 23.496 9.92531 24.5 10C25.4943 9.96508 26.4852 10.1352 27.4109 10.4997C28.3367 10.8643 29.1775 11.4155 29.881 12.119C30.5845 12.8225 31.1357 13.6633 31.5003 14.5891C31.8648 15.5148 32.0349 16.5057 32 17.5C32.1072 18.8031 31.8031 20.107 31.1304 21.2282C30.4577 22.3494 29.4503 23.2314 28.25 23.75" fill="#AAAAAA"/>
</g>
<defs>
<filter id="filter0_d_17_1040" x="0" y="0" width="49" height="49" filterUnits="userSpaceOnUse" color-interpolation-filters="sRGB">
<feFlood flood-opacity="0" result="BackgroundImageFix"/>
<feColorMatrix in="SourceAlpha" type="matrix" values="0 0 0 0 0 0 0 0 0 0 0 0 0 0 0 0 0 0 127 0" result="hardAlpha"/>
<feOffset dy="2"/>
<feGaussianBlur stdDeviation="1"/>
<feComposite in2="hardAlpha" operator="out"/>
<feColorMatrix type="matrix" values="0 0 0 0 0 0 0 0 0 0 0 0 0 0 0 0 0 0 0.75 0"/>
<feBlend mode="normal" in2="BackgroundImageFix" result="effect1_dropShadow_17_1040"/>
<feBlend mode="normal" in="SourceGraphic" in2="effect1_dropShadow_17_1040" result="shape"/>
</filter>
</defs>
</svg>
