<svg width="53" height="47" viewBox="0 0 53 47" fill="none" xmlns="http://www.w3.org/2000/svg">
<g filter="url(#filter0_d_63_2980)">
<path fill-rule="evenodd" clip-rule="evenodd" d="M49.6743 38.1237L28.6283 1.27018C28.4303 0.887565 28.1304 0.566634 27.7615 0.342579C27.3926 0.118525 26.9688 0 26.5367 0C26.1047 0 25.6809 0.118525 25.312 0.342579C24.943 0.566634 24.6432 0.887565 24.4452 1.27018L3.39923 38.1237C3.15503 38.4862 3.01728 38.9094 3.00152 39.3457C2.98576 39.782 3.09261 40.2139 3.31002 40.593C3.52743 40.972 3.84678 41.283 4.23207 41.491C4.61736 41.699 5.0533 41.7956 5.49075 41.77H47.5827L48.7592 41.5096C49.0385 41.3603 49.2847 41.1564 49.4829 40.9101C49.6812 40.6637 49.8274 40.38 49.9129 40.0759C49.9983 39.7719 50.0212 39.4538 49.9802 39.1407C49.9392 38.8276 49.8352 38.526 49.6743 38.254V38.1237ZM29.1512 36.561H23.9223V31.3521H29.1512V36.561ZM29.1512 27.4453H23.9223V14.4229H29.1512V27.4453Z" fill="url(#paint0_linear_63_2980)"/>
</g>
<defs>
<filter id="filter0_d_63_2980" x="0.761905" y="0" width="51.4762" height="46.2504" filterUnits="userSpaceOnUse" color-interpolation-filters="sRGB">
<feFlood flood-opacity="0" result="BackgroundImageFix"/>
<feColorMatrix in="SourceAlpha" type="matrix" values="0 0 0 0 0 0 0 0 0 0 0 0 0 0 0 0 0 0 127 0" result="hardAlpha"/>
<feOffset dy="2.2381"/>
<feGaussianBlur stdDeviation="1.11905"/>
<feComposite in2="hardAlpha" operator="out"/>
<feColorMatrix type="matrix" values="0 0 0 0 0 0 0 0 0 0 0 0 0 0 0 0 0 0 0.75 0"/>
<feBlend mode="normal" in2="BackgroundImageFix" result="effect1_dropShadow_63_2980"/>
<feBlend mode="normal" in="SourceGraphic" in2="effect1_dropShadow_63_2980" result="shape"/>
</filter>
<linearGradient id="paint0_linear_63_2980" x1="26.5" y1="0" x2="26.5" y2="41.7741" gradientUnits="userSpaceOnUse">
<stop offset="0" stop-color="#FD004C"/>
<stop offset="1" stop-color="#AB0000"/>
</linearGradient>
</defs>
</svg>
