<svg width="50" height="51" viewBox="0 0 50 51" fill="none" xmlns="http://www.w3.org/2000/svg">
<g filter="url(#filter0_d_63_2976)">
<path fill-rule="evenodd" clip-rule="evenodd" d="M13.875 46.25H36.125L38.75 16.25H11.25L13.875 46.25ZM35 10V7.5C35 6.50544 34.6049 5.55161 33.9017 4.84835C33.1984 4.14509 32.2446 3.75 31.25 3.75H18.75C17.7554 3.75 16.8016 4.14509 16.0983 4.84835C15.3951 5.55161 15 6.50544 15 7.5V10H7.5V13.75H42.5V10H35ZM31.25 10H18.75V8.75C18.75 8.41848 18.8817 8.10054 19.1161 7.86612C19.3505 7.6317 19.6685 7.5 20 7.5H30C30.3315 7.5 30.6495 7.6317 30.8839 7.86612C31.1183 8.10054 31.25 8.41848 31.25 8.75V10Z" fill="url(#paint0_linear_63_2976)"/>
</g>
<defs>
<filter id="filter0_d_63_2976" x="5.5" y="3.75" width="39" height="46.5" filterUnits="userSpaceOnUse" color-interpolation-filters="sRGB">
<feFlood flood-opacity="0" result="BackgroundImageFix"/>
<feColorMatrix in="SourceAlpha" type="matrix" values="0 0 0 0 0 0 0 0 0 0 0 0 0 0 0 0 0 0 127 0" result="hardAlpha"/>
<feOffset dy="2"/>
<feGaussianBlur stdDeviation="1"/>
<feComposite in2="hardAlpha" operator="out"/>
<feColorMatrix type="matrix" values="0 0 0 0 0 0 0 0 0 0 0 0 0 0 0 0 0 0 0.75 0"/>
<feBlend mode="normal" in2="BackgroundImageFix" result="effect1_dropShadow_63_2976"/>
<feBlend mode="normal" in="SourceGraphic" in2="effect1_dropShadow_63_2976" result="shape"/>
</filter>
<linearGradient id="paint0_linear_63_2976" x1="25" y1="3.75" x2="25" y2="46.25" gradientUnits="userSpaceOnUse">
<stop offset="0" stop-color="#FD004C"/>
<stop offset="1" stop-color="#AB0000"/>
</linearGradient>
</defs>
</svg>
