<svg width="30" height="73" viewBox="0 0 30 73" fill="none" xmlns="http://www.w3.org/2000/svg">
<path d="M24.0481 55.0544C28.6742 47.0408 30.1875 37.6043 28.2993 28.5459C26.411 19.4876 21.2533 11.4417 13.8106 5.94385C11.2019 5.27402 8.51628 4.95105 5.82313 4.98327C2.23176 25.4421 2.31675 46.3774 6.0741 66.8063C9.20014 66.7999 12.3073 66.3214 15.2904 65.3871C18.8089 62.4992 21.7759 58.9986 24.0481 55.0544Z" fill="url(#paint0_radial_76_2309)"/>
<path d="M24.0481 55.0544C28.6742 47.0408 30.1875 37.6043 28.2993 28.5459C26.411 19.4876 21.2533 11.4417 13.8106 5.94385C11.2019 5.27402 8.51628 4.95105 5.82313 4.98327C2.23176 25.4421 2.31675 46.3774 6.0741 66.8063C9.20014 66.7999 12.3073 66.3214 15.2904 65.3871C18.8089 62.4992 21.7759 58.9986 24.0481 55.0544Z" fill="url(#paint1_radial_76_2309)"/>
<g filter="url(#filter0_f_76_2309)">
<path d="M8.54645 3.50971C8.86058 3.68408 9.11265 3.95188 9.26772 4.27596C9.42278 4.60005 9.47315 4.96436 9.41184 5.31837C5.67278 26.0379 5.76077 47.2671 9.67145 67.9549C9.75522 68.4071 9.65595 68.874 9.39547 69.2529C9.135 69.6319 8.73465 69.8918 8.28251 69.9756C7.83037 70.0593 7.36346 69.9601 6.98451 69.6996C6.60556 69.4391 6.34561 69.0388 6.26184 68.5866C2.26321 47.4886 2.16935 25.8359 5.98491 4.70394C6.02157 4.4777 6.1028 4.26098 6.22389 4.06638C6.34498 3.87178 6.50351 3.70317 6.69029 3.57033C6.87707 3.4375 7.08837 3.34308 7.31193 3.29256C7.53549 3.24205 7.76686 3.23644 7.9926 3.27606C8.18944 3.32104 8.37688 3.40012 8.54645 3.50971Z" fill="url(#paint2_linear_76_2309)"/>
</g>
<path style="mix-blend-mode:overlay" d="M8.54645 3.50971C8.86058 3.68408 9.11265 3.95188 9.26772 4.27596C9.42278 4.60005 9.47315 4.96436 9.41184 5.31837C5.67278 26.0379 5.76077 47.2671 9.67145 67.9549C9.75522 68.4071 9.65595 68.874 9.39547 69.2529C9.135 69.6319 8.73465 69.8918 8.28251 69.9756C7.83037 70.0593 7.36346 69.9601 6.98451 69.6996C6.60556 69.4391 6.34561 69.0388 6.26184 68.5866C2.26321 47.4886 2.16935 25.8359 5.98491 4.70394C6.02157 4.4777 6.1028 4.26098 6.22389 4.06638C6.34498 3.87178 6.50351 3.70317 6.69029 3.57033C6.87707 3.4375 7.08837 3.34308 7.31193 3.29256C7.53549 3.24205 7.76686 3.23644 7.9926 3.27606C8.18944 3.32104 8.37688 3.40012 8.54645 3.50971Z" fill="url(#paint3_linear_76_2309)"/>
<g style="mix-blend-mode:overlay">
<path style="mix-blend-mode:overlay" d="M8.54645 3.50971C8.86058 3.68408 9.11265 3.95188 9.26772 4.27596C9.42278 4.60005 9.47315 4.96436 9.41184 5.31837C5.67278 26.0379 5.76077 47.2671 9.67145 67.9549C9.75522 68.4071 9.65595 68.874 9.39547 69.2529C9.135 69.6319 8.73465 69.8918 8.28251 69.9756C7.83037 70.0593 7.36346 69.9601 6.98451 69.6996C6.60556 69.4391 6.34561 69.0388 6.26184 68.5866C2.26321 47.4886 2.16935 25.8359 5.98491 4.70394C6.02157 4.4777 6.1028 4.26098 6.22389 4.06638C6.34498 3.87178 6.50351 3.70317 6.69029 3.57033C6.87707 3.4375 7.08837 3.34308 7.31193 3.29256C7.53549 3.24205 7.76686 3.23644 7.9926 3.27606C8.18944 3.32104 8.37688 3.40012 8.54645 3.50971Z" fill="url(#paint4_linear_76_2309)"/>
</g>
<defs>
<filter id="filter0_f_76_2309" x="0.595253" y="0.653846" width="11.7016" height="71.9469" filterUnits="userSpaceOnUse" color-interpolation-filters="sRGB">
<feFlood flood-opacity="0" result="BackgroundImageFix"/>
<feBlend mode="normal" in="SourceGraphic" in2="BackgroundImageFix" result="shape"/>
<feGaussianBlur stdDeviation="1.29808" result="effect1_foregroundBlur_76_2309"/>
</filter>
<radialGradient id="paint0_radial_76_2309" cx="0" cy="0" r="1" gradientUnits="userSpaceOnUse" gradientTransform="translate(-8.55728 36.2177) rotate(-150) scale(37.6615)">
<stop offset="0"/>
<stop offset="0.96" stop-opacity="0"/>
</radialGradient>
<radialGradient id="paint1_radial_76_2309" cx="0" cy="0" r="1" gradientUnits="userSpaceOnUse" gradientTransform="translate(-8.55728 36.2177) rotate(-150) scale(37.6615)">
<stop offset="0" stop-color="red"/>
<stop offset="0.16" stop-color="red" stop-opacity="0.78"/>
<stop offset="0.38" stop-color="red" stop-opacity="0.5"/>
<stop offset="0.58" stop-color="red" stop-opacity="0.29"/>
<stop offset="0.75" stop-color="red" stop-opacity="0.13"/>
<stop offset="0.88" stop-color="red" stop-opacity="0.04"/>
<stop offset="0.96" stop-color="red" stop-opacity="0"/>
</radialGradient>
<linearGradient id="paint2_linear_76_2309" x1="6.44594" y1="3.25" x2="6.44594" y2="70.0046" gradientUnits="userSpaceOnUse">
<stop offset="0" stop-opacity="0"/>
<stop offset="0.21875"/>
<stop offset="0.786458"/>
<stop offset="1" stop-opacity="0"/>
</linearGradient>
<linearGradient id="paint3_linear_76_2309" x1="7.90608" y1="70.0046" x2="6.44674" y2="3.25" gradientUnits="userSpaceOnUse">
<stop offset="0" stop-color="#B2B2B2" stop-opacity="0"/>
<stop offset="0.411458" stop-color="red"/>
<stop offset="0.588542" stop-color="red"/>
<stop offset="1" stop-color="#B2B2B2" stop-opacity="0"/>
</linearGradient>
<linearGradient id="paint4_linear_76_2309" x1="7.64717" y1="70.0046" x2="6.44674" y2="3.25" gradientUnits="userSpaceOnUse">
<stop offset="0.0625" stop-color="#B2B2B2" stop-opacity="0"/>
<stop offset="0.5" stop-color="red"/>
<stop offset="0.9375" stop-color="#B2B2B2" stop-opacity="0"/>
</linearGradient>
</defs>
</svg>
