<svg width="43" height="45" viewBox="0 0 43 45" fill="none" xmlns="http://www.w3.org/2000/svg">
<path fill-rule="evenodd" clip-rule="evenodd" d="M7.46071 43H19.5393L20.9643 26.7647H6.03571L7.46071 43ZM18.9286 23.3824V22.0294C18.9286 21.4912 18.7141 20.975 18.3323 20.5944C17.9505 20.2138 17.4327 20 16.8929 20H10.1071C9.56724 20 9.04945 20.2138 8.66768 20.5944C8.2859 20.975 8.07143 21.4912 8.07143 22.0294V23.3824H4V25.4118H23V23.3824H18.9286ZM16.8929 23.3824H10.1071V22.7059C10.1071 22.5265 10.1786 22.3544 10.3059 22.2275C10.4331 22.1007 10.6057 22.0294 10.7857 22.0294H16.2143C16.3942 22.0294 16.5669 22.1007 16.6941 22.2275C16.8213 22.3544 16.8929 22.5265 16.8929 22.7059V23.3824Z" fill="#FF0000"/>
<path d="M16 2.72214C25.9167 14.4001 33.6858 27.6923 38.9573 42L43 40.5569C37.55 25.7932 29.5407 12.0711 19.3279 0L16 2.72214Z" fill="white"/>
</svg>
