<svg width="70" height="70" viewBox="0 0 70 70" fill="none" xmlns="http://www.w3.org/2000/svg">
<path d="M26 4.40728C42.1606 23.3145 54.8213 44.8351 63.4118 68L70 65.6636C61.1185 41.7605 48.0664 19.5437 31.4232 0L26 4.40728Z" fill="white"/>
<path fill-rule="evenodd" clip-rule="evenodd" d="M10.4643 68H29.5357L31.7857 42.5882H8.21429L10.4643 68ZM28.5714 37.2941V35.1765C28.5714 34.334 28.2327 33.5261 27.63 32.9304C27.0272 32.3347 26.2096 32 25.3571 32H14.6429C13.7904 32 12.9728 32.3347 12.37 32.9304C11.7672 33.5261 11.4286 34.334 11.4286 35.1765V37.2941H5V40.4706H35V37.2941H28.5714ZM25.3571 37.2941H14.6429V36.2353C14.6429 35.9545 14.7557 35.6852 14.9567 35.4866C15.1576 35.288 15.4301 35.1765 15.7143 35.1765H24.2857C24.5699 35.1765 24.8424 35.288 25.0433 35.4866C25.2442 35.6852 25.3571 35.9545 25.3571 36.2353V37.2941Z" fill="#FF0000"/>
</svg>
