<svg width="60" height="60" viewBox="0 0 60 60" fill="none" xmlns="http://www.w3.org/2000/svg">
<path d="M14.0475 29.5763H3L16.7977 43.3738L30.5952 29.5763H19.5478C19.5478 26.3015 20.5188 23.1004 22.3381 20.3776C24.1575 17.6548 26.7434 15.5326 29.7688 14.2794C32.7943 13.0262 36.1233 12.6983 39.3352 13.3372C42.5468 13.9761 45.4971 15.553 47.8127 17.8685C50.1282 20.1841 51.7051 23.1343 52.344 26.3461C52.9828 29.5578 52.6549 32.887 51.4018 35.9124C50.1487 38.9379 48.0265 41.5238 45.3037 43.343C42.5808 45.1623 39.3796 46.1334 36.105 46.1334V51.6525C40.472 51.6562 44.7421 50.3647 48.375 47.941C52.0079 45.5176 54.8404 42.071 56.5141 38.0375C58.1879 34.0038 58.6278 29.5645 57.7781 25.2809C56.9285 20.9973 54.8274 17.0619 51.7407 13.9726C48.654 10.8833 44.7204 8.77892 40.4375 7.92558C36.1546 7.07223 31.7149 7.50832 27.68 9.17866C23.6449 10.849 20.1959 13.6786 17.7694 17.3094C15.3428 20.9402 14.0475 25.2092 14.0475 29.5763Z" fill="#AAAAAA"/>
</svg>
