<svg width="35" height="34" viewBox="0 0 35 34" fill="none" xmlns="http://www.w3.org/2000/svg">
<path fill-rule="evenodd" clip-rule="evenodd" d="M14.574 3.3999C8.78915 3.3999 4.09961 8.08945 4.09961 13.8743C4.09961 19.6591 8.78915 24.3487 14.574 24.3487C16.9807 24.3487 19.1978 23.5369 20.9666 22.1723L29.2943 30.2783L31.3693 28.1465L23.0418 20.0407C24.3037 18.3108 25.0484 16.1795 25.0484 13.8743C25.0484 8.08945 20.3588 3.3999 14.574 3.3999ZM7.07461 13.8743C7.07461 9.73249 10.4322 6.3749 14.574 6.3749C18.7158 6.3749 22.0734 9.73249 22.0734 13.8743C22.0734 18.0161 18.7158 21.3737 14.574 21.3737C10.4322 21.3737 7.07461 18.0161 7.07461 13.8743Z" fill="white"/>
</svg>
