<svg width="35" height="34" viewBox="0 0 35 34" fill="none" xmlns="http://www.w3.org/2000/svg">
<path d="M17.6984 1.69995C13.6406 1.69995 9.74898 3.31191 6.87971 6.18122C4.01039 9.0505 2.39844 12.9421 2.39844 17C2.39844 20.026 3.29577 22.9841 4.97695 25.5002C6.65814 28.0163 9.04767 29.9773 11.8434 31.1353C14.6391 32.2933 17.7154 32.5963 20.6833 32.0059C23.6512 31.4156 26.3774 29.9585 28.5172 27.8187C30.6569 25.679 32.1141 22.9528 32.7044 19.9848C33.2948 17.017 32.9918 13.9406 31.8338 11.1449C30.6758 8.34919 28.7148 5.95965 26.1987 4.27847C23.6826 2.59728 20.7245 1.69995 17.6984 1.69995ZM19.3984 24.65H15.9984V15.3H19.3984V24.65ZM19.3984 12.75H15.9984V9.34995H19.3984V12.75Z" fill="white"/>
</svg>
