<svg width="35" height="34" viewBox="0 0 35 34" fill="none" xmlns="http://www.w3.org/2000/svg">
<path fill-rule="evenodd" clip-rule="evenodd" d="M9.73539 31.45H24.8654L26.6504 11.05H7.95039L9.73539 31.45ZM24.1004 6.80005V5.10005C24.1004 4.42375 23.8317 3.77515 23.3535 3.29693C22.8753 2.81871 22.2266 2.55005 21.5504 2.55005H13.0504C12.3741 2.55005 11.7255 2.81871 11.2473 3.29693C10.7691 3.77515 10.5004 4.42375 10.5004 5.10005V6.80005H5.40039V9.35005H29.2004V6.80005H24.1004ZM21.5504 6.80005H13.0504V5.95005C13.0504 5.72461 13.14 5.50841 13.2994 5.34901C13.4587 5.1896 13.675 5.10005 13.9004 5.10005H20.7004C20.9258 5.10005 21.142 5.1896 21.3014 5.34901C21.4608 5.50841 21.5504 5.72461 21.5504 5.95005V6.80005Z" fill="black"/>
</svg>
