<svg width="35" height="34" viewBox="0 0 35 34" fill="none" xmlns="http://www.w3.org/2000/svg">
<path fill-rule="evenodd" clip-rule="evenodd" d="M17.3 1.69995C14.2739 1.69995 11.3158 2.59728 8.79978 4.27847C6.28371 5.95965 4.32267 8.34919 3.16465 11.1449C2.00663 13.9406 1.70364 17.017 2.29399 19.9848C2.88435 22.9528 4.34153 25.679 6.48128 27.8187C8.62102 29.9585 11.3472 31.4156 14.3151 32.0059C17.283 32.5963 20.3593 32.2933 23.1551 31.1353C25.9508 29.9773 28.3403 28.0163 30.0215 25.5002C31.7027 22.9841 32.6 20.026 32.6 17C32.6 12.9421 30.9881 9.0505 28.1187 6.18122C25.2495 3.31191 21.3578 1.69995 17.3 1.69995ZM19 26.35H15.6V22.95H19V26.35ZM19.85 17.85C19.6033 17.9372 19.3895 18.0981 19.2374 18.311C19.0854 18.5238 19.0025 18.7783 19 19.04C19 19.21 19 20.23 19 20.4H15.6V18.7C15.5376 18.1428 15.674 17.5814 15.985 17.1149C16.296 16.6484 16.7617 16.3067 17.3 16.15C17.8383 15.9932 18.304 15.6515 18.615 15.185C18.9261 14.7185 19.0624 14.1571 19 13.6C19 12.75 19 11.9 17.3 11.9C15.6 11.9 15.6 11.9 15.6 13.6H12.2C12.1493 12.9172 12.2463 12.2315 12.4847 11.5898C12.723 10.948 13.0969 10.3651 13.5811 9.88103C14.0652 9.39687 14.648 9.02296 15.2898 8.78462C15.9316 8.54628 16.6173 8.44916 17.3 8.49995C17.9762 8.4762 18.65 8.59192 19.2795 8.83978C19.9089 9.08764 20.4807 9.46249 20.9591 9.94087C21.4375 10.4193 21.8123 10.991 22.0602 11.6206C22.3081 12.25 22.4237 12.9238 22.4 13.6C22.4729 14.4861 22.2661 15.3727 21.8087 16.1352C21.3512 16.8975 20.6662 17.4973 19.85 17.85Z" fill="black"/>
</svg>
