<svg width="35" height="34" viewBox="0 0 35 34" fill="none" xmlns="http://www.w3.org/2000/svg">
<g clip-path="url(#clip0_23460_146970)">
<path d="M6.84537 16.6181H0.699219L8.37537 24.2942L16.0515 16.6181H9.9054C9.9054 14.7962 10.4456 13.0152 11.4578 11.5005C12.4699 9.98568 13.9086 8.80503 15.5917 8.10782C17.2749 7.41063 19.127 7.22821 20.9138 7.58364C22.7006 7.93906 24.342 8.81633 25.6302 10.1046C26.9184 11.3929 27.7957 13.0341 28.1512 14.821C28.5065 16.6078 28.3241 18.4599 27.627 20.1431C26.9298 21.8263 25.7491 23.2649 24.2344 24.277C22.7195 25.2892 20.9386 25.8294 19.1168 25.8294V28.8999C21.5463 28.9019 23.9219 28.1834 25.943 26.8351C27.9642 25.4868 29.54 23.5694 30.4711 21.3254C31.4023 19.0813 31.647 16.6115 31.1744 14.2284C30.7017 11.8452 29.5328 9.65588 27.8155 7.93715C26.0982 6.21846 23.9098 5.04769 21.5271 4.57295C19.1444 4.0982 16.6744 4.34081 14.4296 5.27008C12.1848 6.19936 10.266 7.77355 8.91597 9.79349C7.56596 11.8135 6.84537 14.1885 6.84537 16.6181Z" fill="white"/>
</g>
<defs>
<clipPath id="clip0_23460_146970">
<rect width="34" height="34" fill="white" transform="translate(0.699219)"/>
</clipPath>
</defs>
</svg>
