<?xml version="1.0" encoding="UTF-8" standalone="no"?>
<svg
   width="30"
   height="40"
   viewBox="0 0 30 40"
   fill="none"
   version="1.1"
   id="svg8"
   sodipodi:docname="confirmation_icon__hint_delete.svg"
   inkscape:version="1.2 (dc2aedaf03, 2022-05-15)"
   xmlns:inkscape="http://www.inkscape.org/namespaces/inkscape"
   xmlns:sodipodi="http://sodipodi.sourceforge.net/DTD/sodipodi-0.dtd"
   xmlns="http://www.w3.org/2000/svg"
   xmlns:svg="http://www.w3.org/2000/svg">
  <defs
     id="defs12" />
  <sodipodi:namedview
     id="namedview10"
     pagecolor="#ffffff"
     bordercolor="#000000"
     borderopacity="0.25"
     inkscape:showpageshadow="2"
     inkscape:pageopacity="0.0"
     inkscape:pagecheckerboard="true"
     inkscape:deskcolor="#d1d1d1"
     showgrid="false"
     inkscape:zoom="20.875"
     inkscape:cx="14.730539"
     inkscape:cy="20.023952"
     inkscape:window-width="1920"
     inkscape:window-height="986"
     inkscape:window-x="1386"
     inkscape:window-y="1624"
     inkscape:window-maximized="1"
     inkscape:current-layer="svg8" />
  <path
     d="M15 5L23.5809 14.9748C25.1417 16.7891 26 19.103 26 21.4963V35"
     stroke="#D8D8D8"
     stroke-width="2"
     id="path2" />
  <path
     fill-rule="evenodd"
     clip-rule="evenodd"
     d="m 7.9631737,32.877246 h 8.9000003 l 1.05,-12 H 6.9131737 Z m 8.4500003,-14.5 v -1 c 0,-0.39782 -0.158,-0.77936 -0.4393,-1.06066 -0.2813,-0.281305 -0.66288,-0.43934 -1.0607,-0.43934 H 9.9131737 c -0.39782,0 -0.77936,0.158035 -1.06066,0.43934 -0.2813,0.2813 -0.43934,0.66284 -0.43934,1.06066 v 1 h -3 v 1.5 H 19.413174 v -1.5 z m -1.5,0 H 9.9131737 v -0.5 c 0,-0.13261 0.05268,-0.25979 0.1464503,-0.35355 0.09376,-0.09377 0.22094,-0.14645 0.35355,-0.14645 h 4 c 0.13261,0 0.25979,0.05268 0.35355,0.14645 0.09377,0.09376 0.14645,0.22094 0.14645,0.35355 z"
     fill="#ffffff"
     id="path6" />
</svg>
