<svg width="160" height="144" viewBox="0 0 160 144" fill="none" xmlns="http://www.w3.org/2000/svg">
<g filter="url(#filter0_f_0_1)">
<path fill-rule="evenodd" clip-rule="evenodd" d="M56 57.5872H33.8353V53.4198H56V57.5872Z" fill="#00FF00"/>
<path d="M35.8037 55.4993L45.2343 45.9422L42.3311 43L30 55.5021L42.3325 68L45.2357 65.0578L35.8037 55.4993Z" fill="#00FF00"/>
</g>
<g filter="url(#filter1_d_0_1)">
<path fill-rule="evenodd" clip-rule="evenodd" d="M56 57.5872H33.8353V53.4198H56V57.5872Z" fill="#00FF00"/>
<path d="M35.8037 55.4993L45.2343 45.9422L42.3311 43L30 55.5021L42.3325 68L45.2357 65.0578L35.8037 55.4993Z" fill="#00FF00"/>
</g>
<circle cx="91.3733" cy="75.0312" r="68.5" transform="rotate(60 91.3733 75.0312)" fill="url(#paint0_radial_0_1)"/>
<path opacity="0.61" d="M98.9662 10.7037C85.8361 9.57392 72.6621 12.3062 61.0643 18.5645C49.4665 24.8229 39.9506 34.3342 33.687 45.9291C27.4233 57.524 24.6849 70.697 25.8086 83.8276C26.9324 96.9582 31.8692 109.474 40.012 119.836C70.3307 90.3203 90.9014 52.2412 98.9662 10.7037V10.7037Z" fill="url(#paint1_radial_0_1)"/>
<g filter="url(#filter2_d_0_1)">
<path d="M43.3915 101.297C43.1301 100.738 43.0368 100.115 43.1228 99.5043C43.2088 98.8932 43.4706 98.3202 43.8761 97.8551C62.5529 76.4227 74.7291 53.926 82.1956 27.0558C82.3038 26.6486 82.4916 26.2671 82.7483 25.9331C83.005 25.5992 83.3254 25.3193 83.691 25.11C84.0566 24.9007 84.4603 24.7661 84.8782 24.7138C85.2962 24.6615 85.7203 24.6928 86.1261 24.8056C86.532 24.9184 86.9114 25.1103 87.2425 25.3708C87.5736 25.6313 87.8496 25.9549 88.0548 26.3229C88.26 26.6908 88.3901 27.0956 88.4376 27.5142C88.4852 27.9327 88.4493 28.3566 88.3319 28.7611C80.6043 56.5785 68.0011 79.8642 48.6774 102.039C48.3292 102.439 47.8868 102.745 47.3903 102.931C46.8938 103.116 46.3589 103.175 45.834 103.101C45.3091 103.027 44.8108 102.824 44.3844 102.509C43.958 102.194 43.6169 101.778 43.392 101.298L43.3915 101.297Z" fill="#00FF00"/>
</g>
<defs>
<filter id="filter0_f_0_1" x="27" y="40" width="32" height="31" filterUnits="userSpaceOnUse" color-interpolation-filters="sRGB">
<feFlood flood-opacity="0" result="BackgroundImageFix"/>
<feBlend mode="normal" in="SourceGraphic" in2="BackgroundImageFix" result="shape"/>
<feGaussianBlur stdDeviation="1.5" result="effect1_foregroundBlur_0_1"/>
</filter>
<filter id="filter1_d_0_1" x="26" y="43" width="34" height="33" filterUnits="userSpaceOnUse" color-interpolation-filters="sRGB">
<feFlood flood-opacity="0" result="BackgroundImageFix"/>
<feColorMatrix in="SourceAlpha" type="matrix" values="0 0 0 0 0 0 0 0 0 0 0 0 0 0 0 0 0 0 127 0" result="hardAlpha"/>
<feOffset dy="4"/>
<feGaussianBlur stdDeviation="2"/>
<feComposite in2="hardAlpha" operator="out"/>
<feColorMatrix type="matrix" values="0 0 0 0 0 0 0 0 0 0 0 0 0 0 0 0 0 0 0.25 0"/>
<feBlend mode="normal" in2="BackgroundImageFix" result="effect1_dropShadow_0_1"/>
<feBlend mode="normal" in="SourceGraphic" in2="effect1_dropShadow_0_1" result="shape"/>
</filter>
<filter id="filter2_d_0_1" x="38.0918" y="18.689" width="53.3662" height="86.4429" filterUnits="userSpaceOnUse" color-interpolation-filters="sRGB">
<feFlood flood-opacity="0" result="BackgroundImageFix"/>
<feColorMatrix in="SourceAlpha" type="matrix" values="0 0 0 0 0 0 0 0 0 0 0 0 0 0 0 0 0 0 127 0" result="hardAlpha"/>
<feOffset dx="-1" dy="-2"/>
<feGaussianBlur stdDeviation="2"/>
<feComposite in2="hardAlpha" operator="out"/>
<feColorMatrix type="matrix" values="0 0 0 0 0 0 0 0 0 0 0 0 0 0 0 0 0 0 1 0"/>
<feBlend mode="normal" in2="BackgroundImageFix" result="effect1_dropShadow_0_1"/>
<feBlend mode="normal" in="SourceGraphic" in2="effect1_dropShadow_0_1" result="shape"/>
</filter>
<radialGradient id="paint0_radial_0_1" cx="0" cy="0" r="1" gradientUnits="userSpaceOnUse" gradientTransform="translate(91.3733 75.0312) rotate(90) scale(68.5)">
<stop offset="0" stop-color="#00FF00" stop-opacity="0.6"/>
<stop offset="0.0001" stop-color="#00FF00" stop-opacity="0.6"/>
<stop offset="0.962398" stop-color="#00FF00" stop-opacity="0"/>
</radialGradient>
<radialGradient id="paint1_radial_0_1" cx="0" cy="0" r="1" gradientUnits="userSpaceOnUse" gradientTransform="translate(191.943 634.103) rotate(63.5893) scale(67.4521 67.7123)">
<stop offset="0.1" stop-color="#00FF00"/>
<stop offset="0.176" stop-color="#00FF00" stop-opacity="0.965"/>
<stop offset="0.301" stop-color="#00FF00" stop-opacity="0.871"/>
<stop offset="0.459" stop-color="#00FF00" stop-opacity="0.714"/>
<stop offset="0.643" stop-color="#00FF00" stop-opacity="0.498"/>
<stop offset="0.847" stop-color="#00FF00" stop-opacity="0.224"/>
<stop offset="1" stop-color="#00FF00" stop-opacity="0"/>
</radialGradient>
</defs>
</svg>
