<svg width="50" height="52" viewBox="0 0 50 52" fill="none" xmlns="http://www.w3.org/2000/svg">
<g clip-path="url(#clip0_36_1313)">
<g filter="url(#filter0_f_36_1313)">
<circle cx="24.9996" cy="25.0002" r="22" fill="url(#paint0_linear_36_1313)"/>
</g>
<g filter="url(#filter1_d_36_1313)">
<circle cx="24.9996" cy="25.0002" r="22" fill="url(#paint1_linear_36_1313)"/>
<circle cx="24.9996" cy="25.0002" r="21.3889" stroke="#AAAAAA" stroke-width="1.22222"/>
</g>
<path fill-rule="evenodd" clip-rule="evenodd" d="M27.5352 37.4805C27.5352 38.0328 27.0875 38.4805 26.5352 38.4805H23.7768C23.2245 38.4805 22.7768 38.0328 22.7768 37.4805V34.5317C22.7768 33.9794 23.2245 33.5317 23.7768 33.5317H26.5352C27.0875 33.5317 27.5352 33.9794 27.5352 34.5317V37.4805ZM28.7248 26.1086C28.3796 26.2355 28.0803 26.4698 27.8675 26.7796C27.6547 27.0895 27.5386 27.4599 27.5352 27.8407C27.5352 27.9634 27.5352 28.3906 27.5352 28.8202C27.5352 29.3724 27.0875 29.8202 26.5352 29.8202H23.7768C23.2245 29.8202 22.7768 29.3725 22.7768 28.8202V27.3458C22.6894 26.5348 22.8802 25.7178 23.3155 25.0387C23.7508 24.3597 24.4026 23.8623 25.156 23.6342C25.9094 23.4061 26.5612 22.9087 26.9964 22.2297C27.4317 21.5507 27.6225 20.7337 27.5352 19.9227C27.5352 18.6855 27.5352 17.4483 25.156 17.4483C23.154 17.4483 22.8366 17.4483 22.7863 18.9224C22.7674 19.4743 22.3291 19.9227 21.7768 19.9227H18.9494C18.4248 19.9227 17.9817 19.516 18.012 18.9923C18.0514 18.3117 18.1873 17.6392 18.4167 16.9968C18.7503 16.0627 19.2737 15.2143 19.9512 14.5097C20.6287 13.8051 21.4444 13.2608 22.3426 12.9139C23.2408 12.5669 24.2005 12.4256 25.156 12.4996C26.1022 12.465 27.0452 12.6334 27.9262 12.9942C28.8073 13.355 29.6074 13.9005 30.277 14.5968C30.9465 15.2932 31.4711 16.1253 31.818 17.0416C32.1649 17.9578 32.3268 18.9385 32.2936 19.9227C32.3956 21.2124 32.1062 22.503 31.466 23.6127C30.8258 24.7224 29.8671 25.5953 28.7248 26.1086Z" fill="#AAAAAA"/>
</g>
<defs>
<filter id="filter0_f_36_1313" x="-0.667033" y="-0.666423" width="51.3333" height="51.3333" filterUnits="userSpaceOnUse" color-interpolation-filters="sRGB">
<feFlood flood-opacity="0" result="BackgroundImageFix"/>
<feBlend mode="normal" in="SourceGraphic" in2="BackgroundImageFix" result="shape"/>
<feGaussianBlur stdDeviation="1.83333" result="effect1_foregroundBlur_36_1313"/>
</filter>
<filter id="filter1_d_36_1313" x="0.555189" y="3.00024" width="48.8889" height="48.8889" filterUnits="userSpaceOnUse" color-interpolation-filters="sRGB">
<feFlood flood-opacity="0" result="BackgroundImageFix"/>
<feColorMatrix in="SourceAlpha" type="matrix" values="0 0 0 0 0 0 0 0 0 0 0 0 0 0 0 0 0 0 127 0" result="hardAlpha"/>
<feOffset dy="2.44444"/>
<feGaussianBlur stdDeviation="1.22222"/>
<feComposite in2="hardAlpha" operator="out"/>
<feColorMatrix type="matrix" values="0 0 0 0 0 0 0 0 0 0 0 0 0 0 0 0 0 0 0.75 0"/>
<feBlend mode="normal" in2="BackgroundImageFix" result="effect1_dropShadow_36_1313"/>
<feBlend mode="normal" in="SourceGraphic" in2="effect1_dropShadow_36_1313" result="shape"/>
</filter>
<linearGradient id="paint0_linear_36_1313" x1="24.9996" y1="3.00024" x2="24.9996" y2="47.0002" gradientUnits="userSpaceOnUse">
<stop offset="0" stop-color="#323232"/>
<stop offset="1"/>
</linearGradient>
<linearGradient id="paint1_linear_36_1313" x1="24.9996" y1="3.00024" x2="24.9996" y2="47.0002" gradientUnits="userSpaceOnUse">
<stop offset="0" stop-color="#323232"/>
<stop offset="1"/>
</linearGradient>
<clipPath id="clip0_36_1313">
<rect width="50" height="52" fill="white"/>
</clipPath>
</defs>
</svg>
