<svg width="94" height="87" viewBox="0 0 94 87" fill="none" xmlns="http://www.w3.org/2000/svg">
<g filter="url(#filter0_f_51_1394)">
<path d="M23.5912 80.8388C23.3298 80.2798 23.2365 79.6569 23.3225 79.0458C23.4085 78.4347 23.6703 77.8617 24.0759 77.3966C42.7526 55.9642 54.9288 33.4675 62.3953 6.59726C62.5035 6.19015 62.6913 5.80864 62.948 5.47465C63.2047 5.14067 63.5251 4.8608 63.8907 4.6515C64.2563 4.44221 64.66 4.30759 65.0779 4.25531C65.4959 4.20302 65.92 4.23427 66.3258 4.34706C66.7317 4.45986 67.1112 4.65183 67.4422 4.91229C67.7733 5.17276 68.0494 5.49645 68.2545 5.86436C68.4597 6.23227 68.5898 6.63712 68.6373 7.05567C68.6849 7.47422 68.649 7.89809 68.5316 8.30265C60.804 36.12 48.2008 59.4057 28.8771 81.5805C28.5289 81.9802 28.0865 82.2866 27.59 82.472C27.0935 82.6575 26.5586 82.7161 26.0337 82.6425C25.5088 82.5689 25.0105 82.3656 24.5841 82.0508C24.1577 81.736 23.8166 81.3197 23.5917 80.8397L23.5912 80.8388Z" fill="red"/>
</g>
<path d="M25.5912 80.8388C25.3298 80.2798 25.2365 79.6569 25.3225 79.0458C25.4085 78.4347 25.6703 77.8617 26.0759 77.3966C44.7526 55.9642 56.9288 33.4675 64.3953 6.59726C64.5035 6.19015 64.6913 5.80864 64.948 5.47465C65.2047 5.14067 65.5251 4.8608 65.8907 4.6515C66.2563 4.44221 66.66 4.30759 67.0779 4.25531C67.4959 4.20302 67.92 4.23427 68.3258 4.34706C68.7317 4.45986 69.1112 4.65183 69.4422 4.91229C69.7733 5.17276 70.0494 5.49645 70.2545 5.86436C70.4597 6.23227 70.5898 6.63712 70.6373 7.05567C70.6849 7.47422 70.649 7.89809 70.5316 8.30265C62.804 36.12 50.2008 59.4057 30.8771 81.5805C30.5289 81.9802 30.0865 82.2866 29.59 82.472C29.0935 82.6575 28.5586 82.7161 28.0337 82.6425C27.5088 82.5689 27.0105 82.3656 26.5841 82.0508C26.1577 81.736 25.8166 81.3197 25.5917 80.8397L25.5912 80.8388Z" fill="red"/>
<defs>
<filter id="filter0_f_51_1394" x="19.2915" y="0.230469" width="53.3662" height="86.4429" filterUnits="userSpaceOnUse" color-interpolation-filters="sRGB">
<feFlood flood-opacity="0" result="BackgroundImageFix"/>
<feBlend mode="normal" in="SourceGraphic" in2="BackgroundImageFix" result="shape"/>
<feGaussianBlur stdDeviation="2" result="effect1_foregroundBlur_51_1394"/>
</filter>
</defs>
</svg>
