<svg width="64" height="65" viewBox="0 0 64 65" fill="none" xmlns="http://www.w3.org/2000/svg">
<path fill-rule="evenodd" clip-rule="evenodd" d="M17.7596 59.6998H46.2396L49.5996 21.2998H14.3996L17.7596 59.6998ZM44.7996 13.2998V10.0998C44.7996 8.82676 44.2938 7.60587 43.3937 6.70569C42.4935 5.80552 41.2726 5.2998 39.9996 5.2998H23.9996C22.7266 5.2998 21.5057 5.80552 20.6055 6.70569C19.7054 7.60587 19.1996 8.82676 19.1996 10.0998V13.2998H9.59961V18.0998H54.3996V13.2998H44.7996ZM39.9996 13.2998H23.9996V11.6998C23.9996 11.2755 24.1683 10.8685 24.4682 10.5684C24.7682 10.2684 25.1753 10.0998 25.5996 10.0998H38.3996C38.8239 10.0998 39.231 10.2684 39.531 10.5684C39.831 10.8685 39.9996 11.2755 39.9996 11.6998V13.2998Z" fill="white"/>
</svg>
