<svg width="64" height="64" viewBox="0 0 64 64" fill="none" xmlns="http://www.w3.org/2000/svg">
<path fill-rule="evenodd" clip-rule="evenodd" d="M26.1169 6.3999C15.2278 6.3999 6.40039 15.2273 6.40039 26.1164C6.40039 37.0055 15.2278 45.8329 26.1169 45.8329C30.6471 45.8329 34.8205 44.3049 38.15 41.7362L53.8257 56.9945L57.7316 52.9817L42.0562 37.7237C44.4316 34.4674 45.8333 30.4556 45.8333 26.1164C45.8333 15.2273 37.006 6.3999 26.1169 6.3999ZM12.0004 26.1164C12.0004 18.3201 18.3205 11.9999 26.1169 11.9999C33.9132 11.9999 40.2333 18.3201 40.2333 26.1164C40.2333 33.9127 33.9132 40.2329 26.1169 40.2329C18.3205 40.2329 12.0004 33.9127 12.0004 26.1164Z" fill="black"/>
</svg>
