<svg width="64" height="64" viewBox="0 0 64 64" fill="none" xmlns="http://www.w3.org/2000/svg">
<path d="M11.5692 31.2814H0L14.4492 45.7305L28.8984 31.2814H17.3293C17.3293 27.852 18.3461 24.4997 20.2514 21.6483C22.1566 18.7969 24.8646 16.5745 28.033 15.2621C31.2013 13.9498 34.6875 13.6064 38.051 14.2755C41.4144 14.9445 44.504 16.5958 46.929 19.0208C49.3538 21.4457 51.0051 24.5352 51.6742 27.8987C52.3432 31.2621 51.9998 34.7485 50.6875 37.9168C49.3752 41.0851 47.1528 43.7931 44.3014 45.6982C41.4499 47.6035 38.0976 48.6205 34.6683 48.6205V54.4001C39.2416 54.404 43.7133 53.0515 47.5178 50.5134C51.3222 47.9755 54.2885 44.3662 56.0413 40.1422C57.7941 35.9181 58.2547 31.2691 57.365 26.7832C56.4752 22.2973 54.2749 18.1761 51.0424 14.9409C47.8099 11.7057 43.6906 9.50191 39.2054 8.60827C34.7203 7.71463 30.0709 8.17131 25.8454 9.92053C21.6198 11.6698 18.008 14.6329 15.4668 18.4352C12.9256 22.2376 11.5692 26.7081 11.5692 31.2814Z" fill="white"/>
</svg>
