<svg width="64" height="57" viewBox="0 0 64 57" fill="none" xmlns="http://www.w3.org/2000/svg">
<g clip-path="url(#clip0_409_46351)">
<path fill-rule="evenodd" clip-rule="evenodd" d="M63.5564 51.9179L34.8981 1.72977C34.6284 1.20871 34.2201 0.771655 33.7179 0.466533C33.2155 0.16141 32.6384 0 32.05 0C31.4617 0 30.8846 0.16141 30.3822 0.466533C29.8798 0.771655 29.4715 1.20871 29.202 1.72977L0.543628 51.9179C0.211099 52.4114 0.0235358 52.9877 0.00207361 53.5819C-0.0193885 54.176 0.126103 54.7643 0.422155 55.2805C0.718208 55.7966 1.15306 56.2203 1.67771 56.5035C2.20236 56.7867 2.79598 56.9182 3.39166 56.8834H60.7084L62.3104 56.5287C62.6907 56.3255 63.026 56.0478 63.2958 55.7124C63.5659 55.3767 63.765 54.9904 63.8814 54.5764C63.9977 54.1623 64.029 53.7291 63.9732 53.3028C63.9173 52.8763 63.7755 52.4656 63.5564 52.0951V51.9179ZM35.6101 49.7897H28.49V42.696H35.6101V49.7897ZM35.6101 37.3756H28.49V19.6414H35.6101V37.3756Z" fill="#FF0000"/>
</g>
<defs>
<clipPath id="clip0_409_46351">
<rect width="64" height="56.8889" fill="white"/>
</clipPath>
</defs>
</svg>
