<svg width="64" height="64" viewBox="0 0 64 64" fill="none" xmlns="http://www.w3.org/2000/svg">
<path fill-rule="evenodd" clip-rule="evenodd" d="M17.7596 59.1998H46.2396L49.5996 20.7998H14.3996L17.7596 59.1998ZM44.7996 12.7998V9.5998C44.7996 8.32676 44.2938 7.10587 43.3937 6.20569C42.4935 5.30552 41.2726 4.7998 39.9996 4.7998H23.9996C22.7266 4.7998 21.5057 5.30552 20.6055 6.20569C19.7054 7.10587 19.1996 8.32676 19.1996 9.5998V12.7998H9.59961V17.5998H54.3996V12.7998H44.7996ZM39.9996 12.7998H23.9996V11.1998C23.9996 10.7755 24.1683 10.3685 24.4682 10.0684C24.7682 9.76838 25.1753 9.5998 25.5996 9.5998H38.3996C38.8239 9.5998 39.231 9.76838 39.531 10.0684C39.831 10.3685 39.9996 10.7755 39.9996 11.1998V12.7998Z" fill="white"/>
</svg>
