<svg width="64" height="64" viewBox="0 0 64 64" fill="none" xmlns="http://www.w3.org/2000/svg">
<path fill-rule="evenodd" clip-rule="evenodd" d="M32.0002 3.2002C26.304 3.2002 20.7359 4.88928 15.9998 8.05387C11.2636 11.2185 7.57228 15.7164 5.39248 20.9789C3.21268 26.2415 2.64234 32.0322 3.75359 37.6188C4.86485 43.2055 7.60778 48.3372 11.6355 52.3648C15.6633 56.3927 20.7949 59.1356 26.3816 60.2468C31.9682 61.3581 37.7589 60.7877 43.0215 58.6079C48.284 56.4282 52.782 52.7368 55.9466 48.0007C59.1111 43.2645 60.8002 37.6964 60.8002 32.0002C60.8002 24.362 57.766 17.0365 52.3648 11.6355C46.9639 6.23447 39.6384 3.2002 32.0002 3.2002ZM35.2002 49.6002H28.8002V43.2002H35.2002V49.6002ZM36.8002 33.6002C36.3359 33.7644 35.9333 34.0672 35.6471 34.468C35.361 34.8687 35.2048 35.3477 35.2002 35.8402C35.2002 36.1602 35.2002 38.0802 35.2002 38.4002H28.8002V35.2002C28.6828 34.1514 28.9394 33.0948 29.5248 32.2165C30.1103 31.3384 30.9869 30.6952 32.0002 30.4002C33.0135 30.1052 33.8901 29.462 34.4756 28.5839C35.061 27.7056 35.3176 26.649 35.2002 25.6002C35.2002 24.0002 35.2002 22.4002 32.0002 22.4002C28.8002 22.4002 28.8002 22.4002 28.8002 25.6002H22.4002C22.3047 24.3151 22.4874 23.0244 22.936 21.8164C23.3847 20.6082 24.0885 19.5111 24.9999 18.5999C25.9111 17.6885 27.0082 16.9847 28.2164 16.536C29.4244 16.0874 30.7151 15.9046 32.0002 16.0002C33.273 15.9555 34.5413 16.1733 35.7263 16.6399C36.9111 17.1064 37.9874 17.812 38.8879 18.7125C39.7884 19.613 40.494 20.6893 40.9605 21.8743C41.4272 23.0591 41.6448 24.3274 41.6002 25.6002C41.7375 27.2682 41.3482 28.9372 40.4871 30.3724C39.626 31.8074 38.3365 32.9364 36.8002 33.6002Z" fill="black"/>
</svg>
