<svg width="62" height="54" viewBox="0 0 62 54" fill="none" xmlns="http://www.w3.org/2000/svg">
<g clip-path="url(#clip0_409_46379)">
<path fill-rule="evenodd" clip-rule="evenodd" d="M61.5703 49.2814L33.8076 1.64193C33.5463 1.14733 33.1507 0.732469 32.6642 0.442842C32.1775 0.153214 31.6184 0 31.0484 0C30.4785 0 29.9195 0.153214 29.4328 0.442842C28.9461 0.732469 28.5505 1.14733 28.2894 1.64193L0.52664 49.2814C0.204502 49.7499 0.0228003 50.2969 0.00200881 50.8609C-0.0187826 51.4249 0.122162 51.9833 0.408962 52.4733C0.695764 52.9632 1.11702 53.3653 1.62528 53.6341C2.13354 53.903 2.70861 54.0278 3.28567 53.9948H58.8113L60.3632 53.6581C60.7316 53.4652 61.0564 53.2016 61.3178 52.8832C61.5794 52.5646 61.7723 52.1979 61.8851 51.8049C61.9978 51.4119 62.0281 51.0006 61.974 50.596C61.9199 50.1911 61.7825 49.8013 61.5703 49.4496V49.2814ZM34.4973 47.2613H27.5996V40.5278H34.4973V47.2613ZM34.4973 35.4777H27.5996V18.644H34.4973V35.4777Z" fill="black"/>
</g>
<defs>
<clipPath id="clip0_409_46379">
<rect width="62" height="54" fill="white"/>
</clipPath>
</defs>
</svg>
