<svg width="64" height="64" viewBox="0 0 64 64" fill="none" xmlns="http://www.w3.org/2000/svg">
<path d="M32.0002 3.2002C24.362 3.2002 17.0365 6.23447 11.6355 11.6355C6.23447 17.0365 3.2002 24.362 3.2002 32.0002C3.2002 37.6964 4.88928 43.2645 8.05387 48.0007C11.2185 52.7368 15.7164 56.4282 20.9789 58.6079C26.2415 60.7877 32.0322 61.3581 37.6188 60.2468C43.2055 59.1356 48.3372 56.3927 52.3648 52.3648C56.3927 48.3372 59.1356 43.2055 60.2468 37.6188C61.3581 32.0322 60.7877 26.2415 58.6079 20.9789C56.4282 15.7164 52.7368 11.2185 48.0007 8.05387C43.2645 4.88928 37.6964 3.2002 32.0002 3.2002ZM35.2002 46.4002H28.8002V28.8002H35.2002V46.4002ZM35.2002 24.0002H28.8002V17.6002H35.2002V24.0002Z" fill="black"/>
</svg>
