<svg width="64" height="64" viewBox="0 0 64 64" fill="none" xmlns="http://www.w3.org/2000/svg">
<path d="M24 4.0184C38.6915 21.2573 50.2012 40.8791 58.0108 62L64 59.8698C55.9259 38.0757 44.0603 17.8193 28.9302 0L24 4.0184Z" fill="white"/>
<path fill-rule="evenodd" clip-rule="evenodd" d="M10.4643 62H29.5357L31.7857 36.5882H8.21429L10.4643 62ZM28.5714 31.2941V29.1765C28.5714 28.334 28.2327 27.5261 27.63 26.9304C27.0272 26.3347 26.2096 26 25.3571 26H14.6429C13.7904 26 12.9728 26.3347 12.37 26.9304C11.7672 27.5261 11.4286 28.334 11.4286 29.1765V31.2941H5V34.4706H35V31.2941H28.5714ZM25.3571 31.2941H14.6429V30.2353C14.6429 29.9545 14.7557 29.6852 14.9567 29.4866C15.1576 29.288 15.4301 29.1765 15.7143 29.1765H24.2857C24.5699 29.1765 24.8424 29.288 25.0433 29.4866C25.2442 29.6852 25.3571 29.9545 25.3571 30.2353V31.2941Z" fill="#FF0000"/>
</svg>
