<svg width="60" height="60" viewBox="0 0 60 60" fill="none" xmlns="http://www.w3.org/2000/svg">
<path fill-rule="evenodd" clip-rule="evenodd" d="M58.0169 51.8927L31.8565 6.079C31.6103 5.60336 31.2375 5.2044 30.7791 4.92587C30.3204 4.64734 29.7937 4.5 29.2565 4.5C28.7195 4.5 28.1928 4.64734 27.7341 4.92587C27.2755 5.2044 26.9028 5.60336 26.6567 6.079L0.496246 51.8927C0.1927 52.3432 0.0214845 52.8694 0.00189288 53.4117C-0.0176986 53.9541 0.115112 54.4911 0.38536 54.9623C0.65561 55.4334 1.05256 55.8202 1.53148 56.0787C2.01041 56.3372 2.55229 56.4573 3.09605 56.4255H55.4172L56.8795 56.1017C57.2266 55.9162 57.5327 55.6627 57.779 55.3565C58.0256 55.0501 58.2073 54.6975 58.3136 54.3195C58.4197 53.9416 58.4483 53.5461 58.3973 53.1569C58.3464 52.7676 58.2169 52.3927 58.0169 52.0545V51.8927ZM32.5064 49.9501H26.0068V43.4747H32.5064V49.9501ZM32.5064 38.618H26.0068V22.4295H32.5064V38.618Z" fill="#AAAAAA"/>
</svg>
