<svg width="60" height="60" viewBox="0 0 60 60" fill="none" xmlns="http://www.w3.org/2000/svg">
<path d="M29.7 52.5C34.2094 52.5 38.6176 51.1628 42.367 48.6575C46.1164 46.1522 49.0388 42.5913 50.7644 38.4252C52.4901 34.259 52.9416 29.6747 52.0619 25.2519C51.1822 20.8292 49.0107 16.7666 45.822 13.578C42.6334 10.3893 38.5708 8.21785 34.1481 7.3381C29.7253 6.45836 25.141 6.90988 20.9748 8.63556C16.8087 10.3612 13.2478 13.2836 10.7425 17.033C8.2372 20.7824 6.9 25.1906 6.9 29.7C6.9 35.7469 9.30214 41.5462 13.578 45.822C17.8538 50.0979 23.6531 52.5 29.7 52.5V52.5ZM32.0202 43.1118H27.4602L27.4602 24.8101H32.0202V43.1118ZM29.6705 16.2641C30.1182 16.2778 30.552 16.4231 30.9176 16.6818C31.2833 16.9405 31.5646 17.3012 31.7266 17.7188C31.8885 18.1365 31.9238 18.5925 31.8281 19.0301C31.7324 19.4677 31.51 19.8674 31.1885 20.1793C30.867 20.4913 30.4608 20.7016 30.0205 20.7841C29.5803 20.8665 29.1255 20.8175 28.7129 20.6431C28.3003 20.4686 27.9483 20.1765 27.7007 19.8033C27.4531 19.43 27.321 18.992 27.3207 18.5441C27.3299 17.9306 27.5823 17.3459 28.0224 16.9183C28.4625 16.4908 29.0543 16.2555 29.6678 16.2641H29.6705Z" fill="#AAAAAA"/>
</svg>
