<svg width="60" height="60" viewBox="0 0 60 60" fill="none" xmlns="http://www.w3.org/2000/svg">
<path fill-rule="evenodd" clip-rule="evenodd" d="M30.3 7.5C25.7905 7.5 21.3824 8.83719 17.633 11.3425C13.8836 13.8478 10.9612 17.4087 9.23556 21.5748C7.50988 25.741 7.05836 30.3253 7.93811 34.748C8.81785 39.1708 10.9893 43.2334 14.178 46.422C17.3666 49.6107 21.4292 51.7822 25.852 52.6618C30.2747 53.5417 34.859 53.0901 39.0252 51.3644C43.1914 49.6388 46.7522 46.7165 49.2576 42.967C51.7628 39.2176 53.1 34.8095 53.1 30.3C53.1 24.2531 50.6979 18.4538 46.422 14.178C42.1462 9.90213 36.3469 7.5 30.3 7.5ZM32.8333 44.2333H27.7667V39.1667H32.8333V44.2333ZM34.1 31.5667C33.7324 31.6966 33.4137 31.9364 33.1871 32.2537C32.9606 32.5709 32.837 32.9501 32.8333 33.34C32.8333 33.5933 32.8333 35.1133 32.8333 35.3667H27.7667V32.8333C27.6737 32.003 27.8769 31.1665 28.3403 30.4712C28.8038 29.7761 29.4978 29.2669 30.3 29.0333C31.1022 28.7998 31.7962 28.2906 32.2597 27.5954C32.7231 26.9001 32.9263 26.0636 32.8333 25.2333C32.8333 23.9667 32.8333 22.7 30.3 22.7C27.7667 22.7 27.7667 22.7 27.7667 25.2333H22.7C22.6244 24.2159 22.769 23.1941 23.1242 22.2378C23.4794 21.2813 24.0366 20.4128 24.7581 19.6914C25.4794 18.97 26.348 18.4127 27.3045 18.0575C28.2608 17.7023 29.2826 17.5576 30.3 17.6333C31.3076 17.5979 32.3117 17.7703 33.2498 18.1397C34.1878 18.5091 35.0399 19.0677 35.7527 19.7806C36.4656 20.4935 37.0242 21.3456 37.3936 22.2836C37.7631 23.2216 37.9353 24.2257 37.9 25.2333C38.0087 26.5538 37.7005 27.8751 37.0188 29.0113C36.3371 30.1474 35.3163 31.0411 34.1 31.5667Z" fill="#AAAAAA"/>
</svg>
