<svg width="56" height="62" viewBox="0 0 56 62" fill="none" xmlns="http://www.w3.org/2000/svg">
<g clip-path="url(#clip0_41863_45358)">
<g filter="url(#filter0_d_41863_45358)">
<path d="M49.8062 51.0069C43.5146 35.8177 35.2591 21.5187 25.2506 8.4754" stroke="url(#paint0_linear_41863_45358)" stroke-width="5"/>
</g>
<g clip-path="url(#clip1_41863_45358)">
<g opacity="0.96">
<g filter="url(#filter1_d_41863_45358)">
<path fill-rule="evenodd" clip-rule="evenodd" d="M12.4904 50.4001H23.5094L24.8094 35.7177H11.1904L12.4904 50.4001ZM22.9523 32.6589V31.4354C22.9523 30.9486 22.7566 30.4818 22.4084 30.1376C22.0601 29.7935 21.5877 29.6001 21.0952 29.6001L14.9047 29.6001C14.4121 29.6001 13.9398 29.7935 13.5915 30.1376C13.2432 30.4818 13.0475 30.9486 13.0475 31.4354V32.6589H9.33325V34.4942H26.6666V32.6589H22.9523ZM21.0952 32.6589H14.9047V32.0472C14.9047 31.8849 14.9699 31.7293 15.086 31.6146C15.2021 31.4998 15.3595 31.4354 15.5237 31.4354H20.4761C20.6403 31.4354 20.7977 31.4998 20.9138 31.6146C21.0299 31.7293 21.0952 31.8849 21.0952 32.0472V32.6589Z" fill="url(#paint1_linear_41863_45358)"/>
</g>
</g>
</g>
</g>
<defs>
<filter id="filter0_d_41863_45358" x="17.2541" y="4.37652" width="40.8751" height="57.0364" filterUnits="userSpaceOnUse" color-interpolation-filters="sRGB">
<feFlood flood-opacity="0" result="BackgroundImageFix"/>
<feColorMatrix in="SourceAlpha" type="matrix" values="0 0 0 0 0 0 0 0 0 0 0 0 0 0 0 0 0 0 127 0" result="hardAlpha"/>
<feOffset dy="3.43612"/>
<feGaussianBlur stdDeviation="3.00661"/>
<feComposite in2="hardAlpha" operator="out"/>
<feColorMatrix type="matrix" values="0 0 0 0 0 0 0 0 0 0 0 0 0 0 0 0 0 0 0.8 0"/>
<feBlend mode="normal" in2="BackgroundImageFix" result="effect1_dropShadow_41863_45358"/>
<feBlend mode="normal" in="SourceGraphic" in2="effect1_dropShadow_41863_45358" result="shape"/>
</filter>
<filter id="filter1_d_41863_45358" x="4.43129" y="26.6589" width="27.1372" height="30.604" filterUnits="userSpaceOnUse" color-interpolation-filters="sRGB">
<feFlood flood-opacity="0" result="BackgroundImageFix"/>
<feColorMatrix in="SourceAlpha" type="matrix" values="0 0 0 0 0 0 0 0 0 0 0 0 0 0 0 0 0 0 127 0" result="hardAlpha"/>
<feOffset dy="1.96078"/>
<feGaussianBlur stdDeviation="2.45098"/>
<feComposite in2="hardAlpha" operator="out"/>
<feColorMatrix type="matrix" values="0 0 0 0 0 0 0 0 0 0 0 0 0 0 0 0 0 0 0.8 0"/>
<feBlend mode="normal" in2="BackgroundImageFix" result="effect1_dropShadow_41863_45358"/>
<feBlend mode="normal" in="SourceGraphic" in2="effect1_dropShadow_41863_45358" result="shape"/>
</filter>
<linearGradient id="paint0_linear_41863_45358" x1="22.8931" y1="4.45405" x2="22.8931" y2="47.4056" gradientUnits="userSpaceOnUse">
<stop stop-color="#FC6B6B"/>
<stop offset="1" stop-color="#EB0000"/>
</linearGradient>
<linearGradient id="paint1_linear_41863_45358" x1="17.9999" y1="29.6001" x2="17.9999" y2="50.4001" gradientUnits="userSpaceOnUse">
<stop stop-color="#FC6B6B"/>
<stop offset="1" stop-color="#ED0C0C"/>
</linearGradient>
<clipPath id="clip0_41863_45358">
<rect width="56" height="62" fill="white"/>
</clipPath>
<clipPath id="clip1_41863_45358">
<rect width="34" height="34" fill="white" transform="translate(1 23)"/>
</clipPath>
</defs>
</svg>
