<svg width="35" height="34" viewBox="0 0 35 34" fill="none" xmlns="http://www.w3.org/2000/svg">
<g clip-path="url(#clip0_41772_63621)">
<g filter="url(#filter0_d_41772_63621)">
<circle cx="17.5601" cy="17" r="12.5664" fill="black"/>
<circle cx="17.5601" cy="17" r="12.2173" stroke="url(#paint0_linear_41772_63621)" stroke-width="0.698133"/>
</g>
<path fill-rule="evenodd" clip-rule="evenodd" d="M17.5603 12.4304C18.5067 12.4304 19.2739 11.6632 19.2739 10.7168C19.2739 9.77038 18.5067 9.00317 17.5603 9.00317C16.6139 9.00317 15.8467 9.77038 15.8467 10.7168C15.8467 11.6632 16.6139 12.4304 17.5603 12.4304ZM19.2739 15.2857C19.2739 14.9702 19.0182 14.7145 18.7027 14.7145H16.4179C16.1024 14.7145 15.8467 14.9702 15.8467 15.2857V24.4249C15.8467 24.7403 16.1024 24.9961 16.4179 24.9961H18.7027C19.0182 24.9961 19.2739 24.7403 19.2739 24.4249V15.2857Z" fill="url(#paint1_linear_41772_63621)"/>
</g>
<defs>
<filter id="filter0_d_41772_63621" x="3.59739" y="4.43359" width="27.9253" height="27.9253" filterUnits="userSpaceOnUse" color-interpolation-filters="sRGB">
<feFlood flood-opacity="0" result="BackgroundImageFix"/>
<feColorMatrix in="SourceAlpha" type="matrix" values="0 0 0 0 0 0 0 0 0 0 0 0 0 0 0 0 0 0 127 0" result="hardAlpha"/>
<feOffset dy="1.39627"/>
<feGaussianBlur stdDeviation="0.698133"/>
<feComposite in2="hardAlpha" operator="out"/>
<feColorMatrix type="matrix" values="0 0 0 0 0 0 0 0 0 0 0 0 0 0 0 0 0 0 0.75 0"/>
<feBlend mode="normal" in2="BackgroundImageFix" result="effect1_dropShadow_41772_63621"/>
<feBlend mode="normal" in="SourceGraphic" in2="effect1_dropShadow_41772_63621" result="shape"/>
</filter>
<linearGradient id="paint0_linear_41772_63621" x1="16.8061" y1="4.43359" x2="16.8061" y2="29.1894" gradientUnits="userSpaceOnUse">
<stop stop-color="white"/>
<stop offset="1" stop-color="#C6C6C6"/>
</linearGradient>
<linearGradient id="paint1_linear_41772_63621" x1="17.5603" y1="9.00317" x2="17.5603" y2="24.9961" gradientUnits="userSpaceOnUse">
<stop stop-color="white"/>
<stop offset="1" stop-color="#C6C6C6"/>
</linearGradient>
<clipPath id="clip0_41772_63621">
<rect width="28.56" height="28.56" fill="white" transform="translate(3.28003 2.71997)"/>
</clipPath>
</defs>
</svg>
