<svg width="55" height="55" viewBox="0 0 55 55" fill="none" xmlns="http://www.w3.org/2000/svg">
<g clip-path="url(#clip0_12292_66479)">
<g filter="url(#filter0_f_12292_66479)">
<path fill-rule="evenodd" clip-rule="evenodd" d="M49.2246 11.825L43.5871 6.1875L27.9121 22L12.2371 6.1875L6.59961 11.825L22.4121 27.5L6.59961 43.175L12.2371 48.8125L27.9121 33L43.5871 48.8125L49.2246 43.175L33.4121 27.5L49.2246 11.825Z" fill="#AAAAAA"/>
</g>
<g filter="url(#filter1_d_12292_66479)">
<path fill-rule="evenodd" clip-rule="evenodd" d="M48.8125 11.825L43.175 6.1875L27.5 22L11.825 6.1875L6.1875 11.825L22 27.5L6.1875 43.175L11.825 48.8125L27.5 33L43.175 48.8125L48.8125 43.175L33 27.5L48.8125 11.825Z" fill="#AAAAAA"/>
</g>
</g>
<defs>
<filter id="filter0_f_12292_66479" x="1.44336" y="1.03125" width="52.9375" height="52.9375" filterUnits="userSpaceOnUse" color-interpolation-filters="sRGB">
<feFlood flood-opacity="0" result="BackgroundImageFix"/>
<feBlend mode="normal" in="SourceGraphic" in2="BackgroundImageFix" result="shape"/>
<feGaussianBlur stdDeviation="2.57812" result="effect1_foregroundBlur_12292_66479"/>
</filter>
<filter id="filter1_d_12292_66479" x="2.75" y="6.1875" width="49.5" height="49.5" filterUnits="userSpaceOnUse" color-interpolation-filters="sRGB">
<feFlood flood-opacity="0" result="BackgroundImageFix"/>
<feColorMatrix in="SourceAlpha" type="matrix" values="0 0 0 0 0 0 0 0 0 0 0 0 0 0 0 0 0 0 127 0" result="hardAlpha"/>
<feOffset dy="3.4375"/>
<feGaussianBlur stdDeviation="1.71875"/>
<feComposite in2="hardAlpha" operator="out"/>
<feColorMatrix type="matrix" values="0 0 0 0 0 0 0 0 0 0 0 0 0 0 0 0 0 0 0.75 0"/>
<feBlend mode="normal" in2="BackgroundImageFix" result="effect1_dropShadow_12292_66479"/>
<feBlend mode="normal" in="SourceGraphic" in2="effect1_dropShadow_12292_66479" result="shape"/>
</filter>
<clipPath id="clip0_12292_66479">
<rect width="55" height="55" fill="white"/>
</clipPath>
</defs>
</svg>
