<svg width="55" height="55" viewBox="0 0 55 55" fill="none" xmlns="http://www.w3.org/2000/svg">
<g clip-path="url(#clip0_12292_66494)">
<g filter="url(#filter0_f_12292_66494)">
<path fill-rule="evenodd" clip-rule="evenodd" d="M14.7117 50.875H39.1867L42.0742 17.875H11.8242L14.7117 50.875ZM37.9492 11V8.25C37.9492 7.15598 37.5146 6.10677 36.741 5.33318C35.9674 4.5596 34.9182 4.125 33.8242 4.125H20.0742C18.9802 4.125 17.931 4.5596 17.1574 5.33318C16.3838 6.10677 15.9492 7.15598 15.9492 8.25V11H7.69922V15.125H46.1992V11H37.9492ZM33.8242 11H20.0742V9.625C20.0742 9.26033 20.2191 8.91059 20.4769 8.65273C20.7348 8.39487 21.0845 8.25 21.4492 8.25H32.4492C32.8139 8.25 33.1636 8.39487 33.4215 8.65273C33.6794 8.91059 33.8242 9.26033 33.8242 9.625V11Z" fill="#AAAAAA"/>
</g>
<g filter="url(#filter1_d_12292_66494)">
<path fill-rule="evenodd" clip-rule="evenodd" d="M15.2625 50.875H39.7375L42.625 17.875H12.375L15.2625 50.875ZM38.5 11V8.25C38.5 7.15598 38.0654 6.10677 37.2918 5.33318C36.5182 4.5596 35.469 4.125 34.375 4.125H20.625C19.531 4.125 18.4818 4.5596 17.7082 5.33318C16.9346 6.10677 16.5 7.15598 16.5 8.25V11H8.25V15.125H46.75V11H38.5ZM34.375 11H20.625V9.625C20.625 9.26033 20.7699 8.91059 21.0277 8.65273C21.2856 8.39487 21.6353 8.25 22 8.25H33C33.3647 8.25 33.7144 8.39487 33.9723 8.65273C34.2301 8.91059 34.375 9.26033 34.375 9.625V11Z" fill="#AAAAAA"/>
</g>
</g>
<defs>
<filter id="filter0_f_12292_66494" x="2.54297" y="-1.03125" width="48.8125" height="57.0625" filterUnits="userSpaceOnUse" color-interpolation-filters="sRGB">
<feFlood flood-opacity="0" result="BackgroundImageFix"/>
<feBlend mode="normal" in="SourceGraphic" in2="BackgroundImageFix" result="shape"/>
<feGaussianBlur stdDeviation="2.57812" result="effect1_foregroundBlur_12292_66494"/>
</filter>
<filter id="filter1_d_12292_66494" x="4.8125" y="4.125" width="45.375" height="53.625" filterUnits="userSpaceOnUse" color-interpolation-filters="sRGB">
<feFlood flood-opacity="0" result="BackgroundImageFix"/>
<feColorMatrix in="SourceAlpha" type="matrix" values="0 0 0 0 0 0 0 0 0 0 0 0 0 0 0 0 0 0 127 0" result="hardAlpha"/>
<feOffset dy="3.4375"/>
<feGaussianBlur stdDeviation="1.71875"/>
<feComposite in2="hardAlpha" operator="out"/>
<feColorMatrix type="matrix" values="0 0 0 0 0 0 0 0 0 0 0 0 0 0 0 0 0 0 0.75 0"/>
<feBlend mode="normal" in2="BackgroundImageFix" result="effect1_dropShadow_12292_66494"/>
<feBlend mode="normal" in="SourceGraphic" in2="effect1_dropShadow_12292_66494" result="shape"/>
</filter>
<clipPath id="clip0_12292_66494">
<rect width="55" height="55" fill="white"/>
</clipPath>
</defs>
</svg>
