<svg width="55" height="55" viewBox="0 0 55 55" fill="none" xmlns="http://www.w3.org/2000/svg">
<g clip-path="url(#clip0_12292_66449)">
<g filter="url(#filter0_f_12292_66449)">
<path d="M11.4455 27.723H2.19922L13.7472 39.2711L25.2953 27.723H16.049C16.049 24.9823 16.8617 22.303 18.3844 20.0241C19.9071 17.7453 22.0714 15.9691 24.6035 14.9202C27.1357 13.8714 29.922 13.597 32.6101 14.1317C35.2982 14.6664 37.7674 15.9862 39.7054 17.9242C41.6435 19.8622 42.9633 22.3314 43.498 25.0195C44.0327 27.7077 43.7583 30.494 42.7094 33.0261C41.6606 35.5583 39.8844 37.7225 37.6055 39.2452C35.3266 40.7679 32.6474 41.5807 29.9066 41.5807V46.1999C33.5617 46.203 37.1355 45.122 40.1761 43.0936C43.2167 41.0653 45.5873 38.1807 46.9882 34.8047C48.3891 31.4288 48.7573 27.7132 48.0461 24.128C47.3349 20.5428 45.5764 17.2491 42.993 14.6635C40.4096 12.0779 37.1174 10.3166 33.5328 9.60237C29.9482 8.88816 26.2323 9.25314 22.8552 10.6511C19.4781 12.0492 16.5915 14.4174 14.5605 17.4562C12.5296 20.4951 11.4455 24.068 11.4455 27.723Z" fill="#AAAAAA"/>
</g>
<g filter="url(#filter1_d_12292_66449)">
<path d="M11.4455 27.723H2.19922L13.7472 39.2711L25.2953 27.723H16.049C16.049 24.9823 16.8617 22.303 18.3844 20.0241C19.9071 17.7453 22.0714 15.9691 24.6035 14.9202C27.1357 13.8714 29.922 13.597 32.6101 14.1317C35.2982 14.6664 37.7674 15.9862 39.7054 17.9242C41.6435 19.8622 42.9633 22.3314 43.498 25.0195C44.0327 27.7077 43.7583 30.494 42.7094 33.0261C41.6606 35.5583 39.8844 37.7225 37.6055 39.2452C35.3266 40.7679 32.6474 41.5807 29.9066 41.5807V46.1999C33.5617 46.203 37.1355 45.122 40.1761 43.0936C43.2167 41.0653 45.5873 38.1807 46.9882 34.8047C48.3891 31.4288 48.7573 27.7132 48.0461 24.128C47.3349 20.5428 45.5764 17.2491 42.993 14.6635C40.4096 12.0779 37.1174 10.3166 33.5328 9.60237C29.9482 8.88816 26.2323 9.25314 22.8552 10.6511C19.4781 12.0492 16.5915 14.4174 14.5605 17.4562C12.5296 20.4951 11.4455 24.068 11.4455 27.723Z" fill="#AAAAAA"/>
</g>
</g>
<defs>
<filter id="filter0_f_12292_66449" x="-1.10078" y="5.94615" width="52.7992" height="43.5537" filterUnits="userSpaceOnUse" color-interpolation-filters="sRGB">
<feFlood flood-opacity="0" result="BackgroundImageFix"/>
<feBlend mode="normal" in="SourceGraphic" in2="BackgroundImageFix" result="shape"/>
<feGaussianBlur stdDeviation="1.65" result="effect1_foregroundBlur_12292_66449"/>
</filter>
<filter id="filter1_d_12292_66449" x="-0.000781298" y="9.24615" width="50.5992" height="41.3537" filterUnits="userSpaceOnUse" color-interpolation-filters="sRGB">
<feFlood flood-opacity="0" result="BackgroundImageFix"/>
<feColorMatrix in="SourceAlpha" type="matrix" values="0 0 0 0 0 0 0 0 0 0 0 0 0 0 0 0 0 0 127 0" result="hardAlpha"/>
<feOffset dy="2.2"/>
<feGaussianBlur stdDeviation="1.1"/>
<feComposite in2="hardAlpha" operator="out"/>
<feColorMatrix type="matrix" values="0 0 0 0 0 0 0 0 0 0 0 0 0 0 0 0 0 0 0.75 0"/>
<feBlend mode="normal" in2="BackgroundImageFix" result="effect1_dropShadow_12292_66449"/>
<feBlend mode="normal" in="SourceGraphic" in2="effect1_dropShadow_12292_66449" result="shape"/>
</filter>
<clipPath id="clip0_12292_66449">
<rect width="55" height="55" fill="white"/>
</clipPath>
</defs>
</svg>
