<svg width="55" height="55" viewBox="0 0 55 55" fill="none" xmlns="http://www.w3.org/2000/svg">
<g clip-path="url(#clip0_12292_66581)">
<g filter="url(#filter0_f_12292_66581)">
<circle cx="27.5008" cy="27.5001" r="24.2" fill="url(#paint0_linear_12292_66581)"/>
</g>
<g filter="url(#filter1_d_12292_66581)">
<circle cx="27.5008" cy="27.5001" r="24.2" fill="url(#paint1_linear_12292_66581)"/>
<circle cx="27.5008" cy="27.5001" r="23.5278" stroke="#AAAAAA" stroke-width="1.34444"/>
</g>
<path fill-rule="evenodd" clip-rule="evenodd" d="M30.709 40.7006C30.709 41.3081 30.2165 41.8006 29.609 41.8006H26.3654C25.7579 41.8006 25.2654 41.3081 25.2654 40.7006V37.457C25.2654 36.8495 25.7579 36.357 26.3654 36.357H29.609C30.2165 36.357 30.709 36.8495 30.709 37.457V40.7006ZM32.0699 28.1916C31.675 28.3312 31.3326 28.5889 31.0892 28.9297C30.8457 29.2705 30.713 29.678 30.709 30.0968C30.709 30.2319 30.709 30.7017 30.709 31.1743C30.709 31.7818 30.2165 32.2743 29.609 32.2743H26.3654C25.7579 32.2743 25.2654 31.7818 25.2654 31.1743V29.5525C25.1655 28.6604 25.3838 27.7616 25.8817 27.0147C26.3797 26.2678 27.1253 25.7207 27.9872 25.4698C28.8491 25.2189 29.5948 24.6717 30.0927 23.9248C30.5907 23.1779 30.8089 22.2792 30.709 21.3871C30.709 20.0261 30.709 18.6652 27.9872 18.6652C25.697 18.6652 25.3338 18.6652 25.2763 20.2867C25.2547 20.8938 24.7729 21.3871 24.1654 21.3871H20.843C20.2671 21.3871 19.78 20.9415 19.8144 20.3666C19.8592 19.617 20.0148 18.8761 20.2775 18.1686C20.6591 17.141 21.2579 16.2079 22.0329 15.4328C22.808 14.6577 23.7412 14.0589 24.7687 13.6773C25.7963 13.2957 26.8941 13.1403 27.9872 13.2216C29.0697 13.1836 30.1485 13.3688 31.1564 13.7657C32.1643 14.1626 33.0797 14.7627 33.8456 15.5286C34.6116 16.2946 35.2117 17.21 35.6086 18.2179C36.0055 19.2257 36.1907 20.3045 36.1526 21.3871C36.2694 22.8058 35.9383 24.2254 35.2059 25.4461C34.4735 26.6667 33.3767 27.627 32.0699 28.1916Z" fill="#AAAAAA"/>
</g>
<defs>
<filter id="filter0_f_12292_66581" x="-0.732552" y="-0.733223" width="56.4671" height="56.4667" filterUnits="userSpaceOnUse" color-interpolation-filters="sRGB">
<feFlood flood-opacity="0" result="BackgroundImageFix"/>
<feBlend mode="normal" in="SourceGraphic" in2="BackgroundImageFix" result="shape"/>
<feGaussianBlur stdDeviation="2.01667" result="effect1_foregroundBlur_12292_66581"/>
</filter>
<filter id="filter1_d_12292_66581" x="0.611892" y="3.30011" width="53.7782" height="53.7778" filterUnits="userSpaceOnUse" color-interpolation-filters="sRGB">
<feFlood flood-opacity="0" result="BackgroundImageFix"/>
<feColorMatrix in="SourceAlpha" type="matrix" values="0 0 0 0 0 0 0 0 0 0 0 0 0 0 0 0 0 0 127 0" result="hardAlpha"/>
<feOffset dy="2.68889"/>
<feGaussianBlur stdDeviation="1.34444"/>
<feComposite in2="hardAlpha" operator="out"/>
<feColorMatrix type="matrix" values="0 0 0 0 0 0 0 0 0 0 0 0 0 0 0 0 0 0 0.75 0"/>
<feBlend mode="normal" in2="BackgroundImageFix" result="effect1_dropShadow_12292_66581"/>
<feBlend mode="normal" in="SourceGraphic" in2="effect1_dropShadow_12292_66581" result="shape"/>
</filter>
<linearGradient id="paint0_linear_12292_66581" x1="27.5008" y1="3.30011" x2="27.5008" y2="51.7001" gradientUnits="userSpaceOnUse">
<stop offset="0" stop-color="#323232"/>
<stop offset="1"/>
</linearGradient>
<linearGradient id="paint1_linear_12292_66581" x1="27.5008" y1="3.30011" x2="27.5008" y2="51.7001" gradientUnits="userSpaceOnUse">
<stop offset="0" stop-color="#323232"/>
<stop offset="1"/>
</linearGradient>
<clipPath id="clip0_12292_66581">
<rect width="55" height="55" fill="white"/>
</clipPath>
</defs>
</svg>
