<svg width="55" height="55" viewBox="0 0 55 55" fill="none" xmlns="http://www.w3.org/2000/svg">
<g filter="url(#filter0_f_12292_66419)">
<path fill-rule="evenodd" clip-rule="evenodd" d="M22.4005 5.5C13.0666 5.5 5.5 13.086 5.5 22.4438C5.5 31.8017 13.0666 39.3877 22.4005 39.3877C26.2838 39.3877 29.8612 38.0746 32.715 35.8672L46.1519 48.9797L49.5 45.5312L36.0634 32.4189C38.0995 29.6205 39.301 26.1728 39.301 22.4438C39.301 13.086 31.7344 5.5 22.4005 5.5ZM10.3002 22.4438C10.3002 15.7439 15.7177 10.3125 22.4005 10.3125C29.0833 10.3125 34.5008 15.7439 34.5008 22.4438C34.5008 29.1438 29.0833 34.5752 22.4005 34.5752C15.7177 34.5752 10.3002 29.1438 10.3002 22.4438Z" fill="#AAAAAA"/>
</g>
<g filter="url(#filter1_d_12292_66419)">
<path fill-rule="evenodd" clip-rule="evenodd" d="M22.4005 5.5C13.0666 5.5 5.5 13.086 5.5 22.4438C5.5 31.8017 13.0666 39.3877 22.4005 39.3877C26.2838 39.3877 29.8612 38.0746 32.715 35.8672L46.1519 48.9797L49.5 45.5312L36.0634 32.4189C38.0995 29.6205 39.301 26.1728 39.301 22.4438C39.301 13.086 31.7344 5.5 22.4005 5.5ZM10.3002 22.4438C10.3002 15.7439 15.7177 10.3125 22.4005 10.3125C29.0833 10.3125 34.5008 15.7439 34.5008 22.4438C34.5008 29.1438 29.0833 34.5752 22.4005 34.5752C15.7177 34.5752 10.3002 29.1438 10.3002 22.4438Z" fill="#AAAAAA"/>
</g>
<defs>
<filter id="filter0_f_12292_66419" x="2.2" y="2.2" width="50.6" height="50.0797" filterUnits="userSpaceOnUse" color-interpolation-filters="sRGB">
<feFlood flood-opacity="0" result="BackgroundImageFix"/>
<feBlend mode="normal" in="SourceGraphic" in2="BackgroundImageFix" result="shape"/>
<feGaussianBlur stdDeviation="1.65" result="effect1_foregroundBlur_12292_66419"/>
</filter>
<filter id="filter1_d_12292_66419" x="3.3" y="5.5" width="48.4" height="47.8797" filterUnits="userSpaceOnUse" color-interpolation-filters="sRGB">
<feFlood flood-opacity="0" result="BackgroundImageFix"/>
<feColorMatrix in="SourceAlpha" type="matrix" values="0 0 0 0 0 0 0 0 0 0 0 0 0 0 0 0 0 0 127 0" result="hardAlpha"/>
<feOffset dy="2.2"/>
<feGaussianBlur stdDeviation="1.1"/>
<feComposite in2="hardAlpha" operator="out"/>
<feColorMatrix type="matrix" values="0 0 0 0 0 0 0 0 0 0 0 0 0 0 0 0 0 0 0.75 0"/>
<feBlend mode="normal" in2="BackgroundImageFix" result="effect1_dropShadow_12292_66419"/>
<feBlend mode="normal" in="SourceGraphic" in2="effect1_dropShadow_12292_66419" result="shape"/>
</filter>
</defs>
</svg>
