<svg width="55" height="55" viewBox="0 0 55 55" fill="none" xmlns="http://www.w3.org/2000/svg">
<g clip-path="url(#clip0_12292_66464)">
<g filter="url(#filter0_d_12292_66464)">
<path d="M25.5776 4.54753C26.4166 3.04244 28.5818 3.04244 29.4208 4.54753L52.3493 45.6792C53.1667 47.1456 52.1066 48.9503 50.4277 48.9503H4.57073C2.89186 48.9503 1.83169 47.1456 2.64913 45.6792L25.5776 4.54753Z" fill="#AAAAAA"/>
</g>
<path d="M29.3095 45.3179H25.6889C25.4308 45.3179 25.1832 45.2154 25.0007 45.0328C24.8181 44.8503 24.7156 44.6027 24.7156 44.3446V40.7337C24.7156 40.4756 24.8181 40.228 25.0007 40.0455C25.1832 39.863 25.4308 39.7604 25.6889 39.7604H29.3095C29.5677 39.7604 29.8153 39.863 29.9978 40.0455C30.1803 40.228 30.2828 40.4756 30.2828 40.7337V44.3446C30.2828 44.6027 30.1803 44.8503 29.9978 45.0328C29.8153 45.2154 29.5677 45.3179 29.3095 45.3179ZM29.3873 14.2994H25.6111C25.4224 14.2993 25.2356 14.3371 25.0618 14.4104C24.888 14.4837 24.7306 14.5912 24.5991 14.7264C24.4675 14.8616 24.3643 15.0218 24.2958 15.1975C24.2272 15.3733 24.1946 15.561 24.1998 15.7496L24.6864 34.1153C24.694 34.4846 24.8461 34.8361 25.11 35.0944C25.3738 35.3528 25.7285 35.4975 26.0977 35.4974H28.9007C29.27 35.4975 29.6246 35.3528 29.8885 35.0944C30.1523 34.8361 30.3044 34.4846 30.312 34.1153L30.7987 15.7496C30.8039 15.561 30.7713 15.3733 30.7027 15.1975C30.6341 15.0218 30.5309 14.8616 30.3994 14.7264C30.2678 14.5912 30.1104 14.4837 29.9366 14.4104C29.7628 14.3371 29.576 14.2993 29.3873 14.2994Z" fill="white"/>
</g>
<defs>
<filter id="filter0_d_12292_66464" x="0.167187" y="3.4187" width="54.6637" height="49.9316" filterUnits="userSpaceOnUse" color-interpolation-filters="sRGB">
<feFlood flood-opacity="0" result="BackgroundImageFix"/>
<feColorMatrix in="SourceAlpha" type="matrix" values="0 0 0 0 0 0 0 0 0 0 0 0 0 0 0 0 0 0 127 0" result="hardAlpha"/>
<feOffset dy="2.2"/>
<feGaussianBlur stdDeviation="1.1"/>
<feComposite in2="hardAlpha" operator="out"/>
<feColorMatrix type="matrix" values="0 0 0 0 0 0 0 0 0 0 0 0 0 0 0 0 0 0 0.75 0"/>
<feBlend mode="normal" in2="BackgroundImageFix" result="effect1_dropShadow_12292_66464"/>
<feBlend mode="normal" in="SourceGraphic" in2="effect1_dropShadow_12292_66464" result="shape"/>
</filter>
<clipPath id="clip0_12292_66464">
<rect width="55" height="55" fill="white"/>
</clipPath>
</defs>
</svg>
