<svg width="55" height="55" viewBox="0 0 55 55" fill="none" xmlns="http://www.w3.org/2000/svg">
<g clip-path="url(#clip0_12292_66559)">
<g filter="url(#filter0_f_12292_66559)">
<circle cx="27.5008" cy="27.5001" r="24.2" fill="url(#paint0_linear_12292_66559)"/>
</g>
<g filter="url(#filter1_d_12292_66559)">
<circle cx="27.5008" cy="27.5001" r="24.2" fill="url(#paint1_linear_12292_66559)"/>
<circle cx="27.5008" cy="27.5001" r="23.5278" stroke="#AAAAAA" stroke-width="1.34444"/>
</g>
<path fill-rule="evenodd" clip-rule="evenodd" d="M27.5012 18.7003C29.3237 18.7003 30.8012 17.2229 30.8012 15.4003C30.8012 13.5778 29.3237 12.1003 27.5012 12.1003C25.6786 12.1003 24.2012 13.5778 24.2012 15.4003C24.2012 17.2229 25.6786 18.7003 27.5012 18.7003ZM29.7012 42.8993C30.3087 42.8993 30.8012 42.4068 30.8012 41.7993V24.1993C30.8012 23.5918 30.3087 23.0993 29.7012 23.0993H25.3012C24.6937 23.0993 24.2012 23.5918 24.2012 24.1993V41.7993C24.2012 42.4068 24.6937 42.8993 25.3012 42.8993H29.7012Z" fill="#AAAAAA"/>
</g>
<defs>
<filter id="filter0_f_12292_66559" x="-0.732552" y="-0.733223" width="56.4671" height="56.4667" filterUnits="userSpaceOnUse" color-interpolation-filters="sRGB">
<feFlood flood-opacity="0" result="BackgroundImageFix"/>
<feBlend mode="normal" in="SourceGraphic" in2="BackgroundImageFix" result="shape"/>
<feGaussianBlur stdDeviation="2.01667" result="effect1_foregroundBlur_12292_66559"/>
</filter>
<filter id="filter1_d_12292_66559" x="0.611892" y="3.30011" width="53.7782" height="53.7778" filterUnits="userSpaceOnUse" color-interpolation-filters="sRGB">
<feFlood flood-opacity="0" result="BackgroundImageFix"/>
<feColorMatrix in="SourceAlpha" type="matrix" values="0 0 0 0 0 0 0 0 0 0 0 0 0 0 0 0 0 0 127 0" result="hardAlpha"/>
<feOffset dy="2.68889"/>
<feGaussianBlur stdDeviation="1.34444"/>
<feComposite in2="hardAlpha" operator="out"/>
<feColorMatrix type="matrix" values="0 0 0 0 0 0 0 0 0 0 0 0 0 0 0 0 0 0 0.75 0"/>
<feBlend mode="normal" in2="BackgroundImageFix" result="effect1_dropShadow_12292_66559"/>
<feBlend mode="normal" in="SourceGraphic" in2="effect1_dropShadow_12292_66559" result="shape"/>
</filter>
<linearGradient id="paint0_linear_12292_66559" x1="27.5008" y1="3.30011" x2="27.5008" y2="51.7001" gradientUnits="userSpaceOnUse">
<stop offset="0" stop-color="#323232"/>
<stop offset="1"/>
</linearGradient>
<linearGradient id="paint1_linear_12292_66559" x1="27.5008" y1="3.30011" x2="27.5008" y2="51.7001" gradientUnits="userSpaceOnUse">
<stop offset="0" stop-color="#323232"/>
<stop offset="1"/>
</linearGradient>
<clipPath id="clip0_12292_66559">
<rect width="55" height="55" fill="white"/>
</clipPath>
</defs>
</svg>
