<svg width="35" height="34" viewBox="0 0 35 34" fill="none" xmlns="http://www.w3.org/2000/svg">
<path fill-rule="evenodd" clip-rule="evenodd" d="M9.73515 31.45H24.8651L26.6501 11.05H7.95015L9.73515 31.45ZM24.1001 6.80005V5.10005C24.1001 4.42375 23.8315 3.77515 23.3533 3.29693C22.875 2.81871 22.2264 2.55005 21.5501 2.55005H13.0501C12.3739 2.55005 11.7253 2.81871 11.247 3.29693C10.7688 3.77515 10.5001 4.42375 10.5001 5.10005V6.80005H5.40015V9.35005H29.2001V6.80005H24.1001ZM21.5501 6.80005H13.0501V5.95005C13.0501 5.72461 13.1397 5.50841 13.2991 5.34901C13.4585 5.1896 13.6747 5.10005 13.9001 5.10005H20.7001C20.9256 5.10005 21.1418 5.1896 21.3012 5.34901C21.4606 5.50841 21.5501 5.72461 21.5501 5.95005V6.80005Z" fill="black"/>
</svg>
