<svg width="32" height="28" viewBox="0 0 32 28" fill="none" xmlns="http://www.w3.org/2000/svg">
<g clip-path="url(#clip0_16239_87456)">
<path fill-rule="evenodd" clip-rule="evenodd" d="M31.0879 25.2233L17.3856 1.22707C17.2567 0.977938 17.0614 0.768972 16.8213 0.623086C16.5811 0.477199 16.3052 0.400024 16.0238 0.400024C15.7426 0.400024 15.4667 0.477199 15.2265 0.623086C14.9862 0.768972 14.791 0.977938 14.6621 1.22707L0.959874 25.2233C0.800883 25.4592 0.711204 25.7348 0.700943 26.0189C0.690681 26.3029 0.760244 26.5842 0.901794 26.831C1.04334 27.0778 1.25126 27.2803 1.50211 27.4157C1.75296 27.5511 2.03678 27.614 2.32159 27.5974H29.7262L30.4921 27.4278C30.6739 27.3307 30.8342 27.1979 30.9633 27.0375C31.0924 26.877 31.1876 26.6923 31.2433 26.4943C31.2988 26.2964 31.3138 26.0892 31.2871 25.8854C31.2604 25.6815 31.1926 25.4851 31.0879 25.308V25.2233ZM17.726 24.2057H14.3217V20.814H17.726V24.2057ZM17.726 18.2703H14.3217V9.79108H17.726V18.2703Z" fill="white"/>
</g>
<defs>
<clipPath id="clip0_16239_87456">
<rect width="30.6" height="27.2" fill="white" transform="translate(0.699951 0.400024)"/>
</clipPath>
</defs>
</svg>
