<svg width="35" height="34" viewBox="0 0 35 34" fill="none" xmlns="http://www.w3.org/2000/svg">
<path fill-rule="evenodd" clip-rule="evenodd" d="M14.1743 3.3999C8.38949 3.3999 3.69995 8.08945 3.69995 13.8743C3.69995 19.6591 8.38949 24.3487 14.1743 24.3487C16.581 24.3487 18.7982 23.5369 20.5669 22.1723L28.8946 30.2783L30.9697 28.1465L22.6421 20.0407C23.904 18.3108 24.6487 16.1795 24.6487 13.8743C24.6487 8.08945 19.9592 3.3999 14.1743 3.3999ZM6.67495 13.8743C6.67495 9.73249 10.0325 6.3749 14.1743 6.3749C18.3161 6.3749 21.6737 9.73249 21.6737 13.8743C21.6737 18.0161 18.3161 21.3737 14.1743 21.3737C10.0325 21.3737 6.67495 18.0161 6.67495 13.8743Z" fill="black"/>
</svg>
