<svg width="35" height="34" viewBox="0 0 35 34" fill="none" xmlns="http://www.w3.org/2000/svg">
<g clip-path="url(#clip0_16239_87474)">
<path d="M6.4462 16.6181H0.300049L7.9762 24.2942L15.6523 16.6181H9.50623C9.50623 14.7962 10.0464 13.0152 11.0586 11.5005C12.0708 9.98568 13.5094 8.80503 15.1926 8.10782C16.8757 7.41063 18.7278 7.22821 20.5147 7.58364C22.3014 7.93906 23.9428 8.81633 25.2311 10.1046C26.5192 11.3929 27.3965 13.0341 27.752 14.821C28.1074 16.6078 27.925 18.4599 27.2278 20.1431C26.5306 21.8263 25.35 23.2649 23.8352 24.277C22.3203 25.2892 20.5394 25.8294 18.7176 25.8294V28.8999C21.1471 28.9019 23.5227 28.1834 25.5439 26.8351C27.565 25.4868 29.1408 23.5694 30.072 21.3254C31.0032 19.0813 31.2479 16.6115 30.7752 14.2284C30.3025 11.8452 29.1336 9.65588 27.4163 7.93715C25.6991 6.21846 23.5107 5.04769 21.1279 4.57295C18.7452 4.0982 16.2752 4.34081 14.0304 5.27008C11.7856 6.19936 9.8668 7.77355 8.5168 9.79349C7.16679 11.8135 6.4462 14.1885 6.4462 16.6181Z" fill="black"/>
</g>
<defs>
<clipPath id="clip0_16239_87474">
<rect width="34" height="34" fill="white" transform="translate(0.300049)"/>
</clipPath>
</defs>
</svg>
