<svg width="35" height="34" viewBox="0 0 35 34" fill="none" xmlns="http://www.w3.org/2000/svg">
<path d="M17.6999 1.69995C13.6421 1.69995 9.75045 3.31191 6.88117 6.18122C4.01186 9.0505 2.3999 12.9421 2.3999 17C2.3999 20.026 3.29723 22.9841 4.97842 25.5002C6.6596 28.0163 9.04914 29.9773 11.8448 31.1353C14.6406 32.2933 17.7169 32.5963 20.6848 32.0059C23.6527 31.4156 26.3789 29.9585 28.5186 27.8187C30.6584 25.679 32.1156 22.9528 32.7059 19.9848C33.2963 17.017 32.9933 13.9406 31.8352 11.1449C30.6773 8.34919 28.7162 5.95965 26.2002 4.27847C23.6841 2.59728 20.726 1.69995 17.6999 1.69995ZM19.3999 24.65H15.9999V15.3H19.3999V24.65ZM19.3999 12.75H15.9999V9.34995H19.3999V12.75Z" fill="white"/>
</svg>
