<svg width="35" height="34" viewBox="0 0 35 34" fill="none" xmlns="http://www.w3.org/2000/svg">
<path fill-rule="evenodd" clip-rule="evenodd" d="M17.6999 1.69995C14.6738 1.69995 11.7157 2.59728 9.19968 4.27847C6.68361 5.95965 4.72257 8.34919 3.56456 11.1449C2.40653 13.9406 2.10354 17.017 2.69389 19.9848C3.28425 22.9528 4.74143 25.679 6.88118 27.8187C9.02092 29.9585 11.7471 31.4156 14.715 32.0059C17.6829 32.5963 20.7592 32.2933 23.555 31.1353C26.3507 29.9773 28.7402 28.0163 30.4214 25.5002C32.1026 22.9841 32.9999 20.026 32.9999 17C32.9999 12.9421 31.388 9.0505 28.5186 6.18122C25.6494 3.31191 21.7577 1.69995 17.6999 1.69995ZM19.3999 26.35H15.9999V22.95H19.3999V26.35ZM20.2499 17.85C20.0032 17.9372 19.7894 18.0981 19.6373 18.311C19.4853 18.5238 19.4024 18.7783 19.3999 19.04C19.3999 19.21 19.3999 20.23 19.3999 20.4H15.9999V18.7C15.9375 18.1428 16.0739 17.5814 16.3849 17.1149C16.6959 16.6484 17.1616 16.3067 17.6999 16.15C18.2382 15.9932 18.7039 15.6515 19.0149 15.185C19.326 14.7185 19.4623 14.1571 19.3999 13.6C19.3999 12.75 19.3999 11.9 17.6999 11.9C15.9999 11.9 15.9999 11.9 15.9999 13.6H12.5999C12.5492 12.9172 12.6462 12.2315 12.8846 11.5898C13.1229 10.948 13.4968 10.3651 13.981 9.88103C14.4651 9.39687 15.0479 9.02296 15.6897 8.78462C16.3315 8.54628 17.0172 8.44916 17.6999 8.49995C18.3761 8.4762 19.0499 8.59192 19.6794 8.83978C20.3088 9.08764 20.8806 9.46249 21.359 9.94087C21.8374 10.4193 22.2122 10.991 22.4601 11.6206C22.708 12.25 22.8236 12.9238 22.7999 13.6C22.8728 14.4861 22.666 15.3727 22.2086 16.1352C21.7511 16.8975 21.0661 17.4973 20.2499 17.85Z" fill="white"/>
</svg>
