<svg width="35" height="34" viewBox="0 0 35 34" fill="none" xmlns="http://www.w3.org/2000/svg">
<g clip-path="url(#clip0_16239_87449)">
<path d="M6.84611 16.6182H0.699951L8.37611 24.2943L16.0522 16.6182H9.90613C9.90613 14.7963 10.4463 13.0154 11.4585 11.5006C12.4707 9.9858 13.9093 8.80515 15.5925 8.10794C17.2756 7.41075 19.1277 7.22833 20.9146 7.58376C22.7014 7.93918 24.3427 8.81646 25.631 10.1047C26.9191 11.393 27.7964 13.0342 28.1519 14.8211C28.5073 16.6079 28.3249 18.46 27.6277 20.1432C26.9305 21.8264 25.7499 23.265 24.2351 24.2771C22.7202 25.2893 20.9393 25.8295 19.1175 25.8295V28.9C21.5471 28.902 23.9226 28.1835 25.9438 26.8352C27.9649 25.4869 29.5407 23.5695 30.4719 21.3255C31.4031 19.0814 31.6478 16.6116 31.1751 14.2285C30.7024 11.8453 29.5335 9.656 27.8162 7.93728C26.099 6.21858 23.9106 5.04781 21.5278 4.57307C19.1451 4.09832 16.6751 4.34093 14.4303 5.27021C12.1855 6.19949 10.2667 7.77367 8.9167 9.79362C7.56669 11.8136 6.84611 14.1886 6.84611 16.6182Z" fill="white"/>
</g>
<defs>
<clipPath id="clip0_16239_87449">
<rect width="34" height="34" fill="white" transform="translate(0.699951)"/>
</clipPath>
</defs>
</svg>
