<svg width="35" height="34" viewBox="0 0 35 34" fill="none" xmlns="http://www.w3.org/2000/svg">
<path fill-rule="evenodd" clip-rule="evenodd" d="M10.135 31.45H25.265L27.05 11.05H8.35005L10.135 31.45ZM24.5 6.80005V5.10005C24.5 4.42375 24.2314 3.77515 23.7532 3.29693C23.2749 2.81871 22.6263 2.55005 21.95 2.55005H13.45C12.7738 2.55005 12.1252 2.81871 11.6469 3.29693C11.1687 3.77515 10.9 4.42375 10.9 5.10005V6.80005H5.80005V9.35005H29.6V6.80005H24.5ZM21.95 6.80005H13.45V5.95005C13.45 5.72461 13.5396 5.50841 13.699 5.34901C13.8584 5.1896 14.0746 5.10005 14.3 5.10005H21.1C21.3255 5.10005 21.5417 5.1896 21.7011 5.34901C21.8605 5.50841 21.95 5.72461 21.95 5.95005V6.80005Z" fill="#FF0000"/>
</svg>
