<svg width="32" height="28" viewBox="0 0 32 28" fill="none" xmlns="http://www.w3.org/2000/svg">
<g clip-path="url(#clip0_16239_87481)">
<path fill-rule="evenodd" clip-rule="evenodd" d="M31.0879 25.2231L17.3856 1.22695C17.2567 0.977816 17.0614 0.76885 16.8213 0.622964C16.5811 0.477077 16.3052 0.399902 16.0238 0.399902C15.7426 0.399902 15.4667 0.477077 15.2265 0.622964C14.9862 0.76885 14.791 0.977816 14.6621 1.22695L0.959874 25.2231C0.800883 25.4591 0.711204 25.7347 0.700943 26.0187C0.690681 26.3028 0.760244 26.5841 0.901794 26.8309C1.04334 27.0777 1.25126 27.2802 1.50211 27.4156C1.75296 27.551 2.03678 27.6139 2.32159 27.5973H29.7262L30.4921 27.4277C30.6739 27.3305 30.8342 27.1978 30.9633 27.0374C31.0924 26.8769 31.1876 26.6922 31.2433 26.4942C31.2988 26.2963 31.3138 26.0891 31.2871 25.8853C31.2604 25.6814 31.1926 25.485 31.0879 25.3079V25.2231ZM17.726 24.2056H14.3217V20.8139H17.726V24.2056ZM17.726 18.2701H14.3217V9.79096H17.726V18.2701Z" fill="black"/>
</g>
<defs>
<clipPath id="clip0_16239_87481">
<rect width="30.6" height="27.2" fill="white" transform="translate(0.699951 0.399902)"/>
</clipPath>
</defs>
</svg>
