<svg width="35" height="34" viewBox="0 0 35 34" fill="none" xmlns="http://www.w3.org/2000/svg">
<path fill-rule="evenodd" clip-rule="evenodd" d="M14.5742 3.40002C8.7894 3.40002 4.09985 8.08957 4.09985 13.8744C4.09985 19.6592 8.7894 24.3488 14.5742 24.3488C16.9809 24.3488 19.1981 23.537 20.9668 22.1724L29.2945 30.2784L31.3696 28.1466L23.042 20.0408C24.3039 18.3109 25.0486 16.1796 25.0486 13.8744C25.0486 8.08957 20.3591 3.40002 14.5742 3.40002ZM7.07485 13.8744C7.07485 9.73261 10.4324 6.37502 14.5742 6.37502C18.716 6.37502 22.0736 9.73261 22.0736 13.8744C22.0736 18.0162 18.716 21.3738 14.5742 21.3738C10.4324 21.3738 7.07485 18.0162 7.07485 13.8744Z" fill="white"/>
</svg>
