<svg width="48" height="53" viewBox="0 0 48 53" fill="none" xmlns="http://www.w3.org/2000/svg">
<path d="M17.9786 2.73779C29.8302 15.8678 38.8201 31.3201 44.377 48.1123L40.1404 49.5143C34.7781 33.3098 26.1027 18.3983 14.666 5.72786L17.9786 2.73779Z" fill="#FF0000"/>
<path fill-rule="evenodd" clip-rule="evenodd" d="M8.325 48.75H21.675L23.25 30.75H6.75L8.325 48.75ZM21 27V25.5C21 24.9033 20.7629 24.331 20.341 23.909C19.919 23.4871 19.3467 23.25 18.75 23.25H11.25C10.6533 23.25 10.081 23.4871 9.65901 23.909C9.23705 24.331 9 24.9033 9 25.5V27H4.5V29.25H25.5V27H21ZM18.75 27H11.25V26.25C11.25 26.0511 11.329 25.8603 11.4697 25.7197C11.6103 25.579 11.8011 25.5 12 25.5H18C18.1989 25.5 18.3897 25.579 18.5303 25.7197C18.671 25.8603 18.75 26.0511 18.75 26.25V27Z" fill="#FF0000"/>
</svg>
