<svg width="25" height="25" viewBox="0 0 25 25" fill="none" xmlns="http://www.w3.org/2000/svg">
<path fill-rule="evenodd" clip-rule="evenodd" d="M23.5941 20.7524L13.5189 3.10812C13.4241 2.92494 13.2805 2.77129 13.1039 2.66402C12.9273 2.55675 12.7244 2.5 12.5176 2.5C12.3107 2.5 12.1079 2.55675 11.9313 2.66402C11.7546 2.77129 11.6111 2.92494 11.5163 3.10812L1.44112 20.7524C1.32421 20.9259 1.25827 21.1285 1.25073 21.3374C1.24318 21.5463 1.29433 21.7531 1.39841 21.9345C1.50249 22.116 1.65537 22.2649 1.83982 22.3645C2.02427 22.464 2.23296 22.5103 2.44238 22.4981H22.5928L23.156 22.3734C23.2897 22.3019 23.4076 22.2043 23.5025 22.0863C23.5974 21.9684 23.6674 21.8326 23.7083 21.687C23.7492 21.5414 23.7602 21.3891 23.7405 21.2392C23.7209 21.0893 23.6711 20.9449 23.5941 20.8147V20.7524ZM13.7692 20.6292H11.266V18.1353H13.7692V20.6292ZM13.7692 15.6399H11.266V9.40518H13.7692V15.6399Z" fill="black"/>
</svg>
