<svg width="55" height="49" viewBox="0 0 55 49" fill="none" xmlns="http://www.w3.org/2000/svg">
<mask id="path-1-inside-1_23460_146822" fill="white">
<path d="M0 10C0 4.47715 4.47715 0 10 0H55V49H10C4.47715 49 0 44.5228 0 39V10Z"/>
</mask>
<path d="M0 10C0 4.47715 4.47715 0 10 0H55V49H10C4.47715 49 0 44.5228 0 39V10Z" fill="#FF0000"/>
<path fill-rule="evenodd" clip-rule="evenodd" d="M33.3996 15.8801L30.1196 12.6001L20.9996 21.8001L11.8796 12.6001L8.59961 15.8801L17.7996 25.0001L8.59961 34.1201L11.8796 37.4001L20.9996 28.2001L30.1196 37.4001L33.3996 34.1201L24.1996 25.0001L33.3996 15.8801Z" fill="white"/>
<line x1="48" y1="11" x2="48" y2="39" stroke="white" stroke-width="2"/>
<path d="M-2 10C-2 3.37258 3.37258 -2 10 -2H55V2H10C5.58172 2 2 5.58172 2 10H-2ZM55 51H10C3.37258 51 -2 45.6274 -2 39H2C2 43.4183 5.58172 47 10 47H55V51ZM10 51C3.37258 51 -2 45.6274 -2 39V10C-2 3.37258 3.37258 -2 10 -2V2C5.58172 2 2 5.58172 2 10V39C2 43.4183 5.58172 47 10 47V51ZM55 0V49V0Z" fill="white" mask="url(#path-1-inside-1_23460_146822)"/>
</svg>
