<svg width="35" height="34" viewBox="0 0 35 34" fill="none" xmlns="http://www.w3.org/2000/svg">
<path fill-rule="evenodd" clip-rule="evenodd" d="M17.6984 1.69995C14.6724 1.69995 11.7143 2.59728 9.19822 4.27847C6.68215 5.95965 4.72111 8.34919 3.56309 11.1449C2.40507 13.9406 2.10208 17.017 2.69243 19.9848C3.28279 22.9528 4.73997 25.679 6.87971 27.8187C9.01945 29.9585 11.7456 31.4156 14.7136 32.0059C17.6814 32.5963 20.7578 32.2933 23.5535 31.1353C26.3492 29.9773 28.7387 28.0163 30.42 25.5002C32.1011 22.9841 32.9984 20.026 32.9984 17C32.9984 12.9421 31.3865 9.0505 28.5172 6.18122C25.6479 3.31191 21.7563 1.69995 17.6984 1.69995ZM19.3984 26.35H15.9984V22.95H19.3984V26.35ZM20.2484 17.85C20.0018 17.9372 19.7879 18.0981 19.6358 18.311C19.4839 18.5238 19.4009 18.7783 19.3984 19.04C19.3984 19.21 19.3984 20.23 19.3984 20.4H15.9984V18.7C15.936 18.1428 16.0724 17.5814 16.3834 17.1149C16.6944 16.6484 17.1601 16.3067 17.6984 16.15C18.2367 15.9932 18.7025 15.6515 19.0135 15.185C19.3245 14.7185 19.4608 14.1571 19.3984 13.6C19.3984 12.75 19.3984 11.9 17.6984 11.9C15.9984 11.9 15.9984 11.9 15.9984 13.6H12.5984C12.5477 12.9172 12.6448 12.2315 12.8831 11.5898C13.1214 10.948 13.4954 10.3651 13.9795 9.88103C14.4636 9.39687 15.0464 9.02296 15.6883 8.78462C16.33 8.54628 17.0157 8.44916 17.6984 8.49995C18.3746 8.4762 19.0484 8.59192 19.6779 8.83978C20.3073 9.08764 20.8791 9.46249 21.3575 9.94087C21.8359 10.4193 22.2107 10.991 22.4586 11.6206C22.7066 12.25 22.8222 12.9238 22.7984 13.6C22.8714 14.4861 22.6646 15.3727 22.2071 16.1352C21.7496 16.8975 21.0646 17.4973 20.2484 17.85Z" fill="white"/>
</svg>
