<svg width="35" height="34" viewBox="0 0 35 34" fill="none" xmlns="http://www.w3.org/2000/svg">
<path d="M17.3 1.69995C13.2422 1.69995 9.35054 3.31191 6.48127 6.18122C3.61196 9.0505 2 12.9421 2 17C2 20.026 2.89733 22.9841 4.57852 25.5002C6.2597 28.0163 8.64924 29.9773 11.4449 31.1353C14.2407 32.2933 17.317 32.5963 20.2849 32.0059C23.2528 31.4156 25.979 29.9585 28.1187 27.8187C30.2585 25.679 31.7157 22.9528 32.306 19.9848C32.8964 17.017 32.5934 13.9406 31.4353 11.1449C30.2774 8.34919 28.3163 5.95965 25.8003 4.27847C23.2842 2.59728 20.3261 1.69995 17.3 1.69995ZM19 24.65H15.6V15.3H19V24.65ZM19 12.75H15.6V9.34995H19V12.75Z" fill="black"/>
</svg>
