<svg width="35" height="34" viewBox="0 0 35 34" fill="none" xmlns="http://www.w3.org/2000/svg">
<path fill-rule="evenodd" clip-rule="evenodd" d="M14.1756 3.3999C8.39072 3.3999 3.70117 8.08945 3.70117 13.8743C3.70117 19.6591 8.39072 24.3487 14.1756 24.3487C16.5822 24.3487 18.7994 23.5369 20.5681 22.1723L28.8959 30.2783L30.9709 28.1465L22.6433 20.0407C23.9052 18.3108 24.6499 16.1795 24.6499 13.8743C24.6499 8.08945 19.9604 3.3999 14.1756 3.3999ZM6.67617 13.8743C6.67617 9.73249 10.0338 6.3749 14.1756 6.3749C18.3173 6.3749 21.6749 9.73249 21.6749 13.8743C21.6749 18.0161 18.3173 21.3737 14.1756 21.3737C10.0338 21.3737 6.67617 18.0161 6.67617 13.8743Z" fill="black"/>
</svg>
