<svg width="35" height="34" viewBox="0 0 35 34" fill="none" xmlns="http://www.w3.org/2000/svg">
<g clip-path="url(#clip0_23460_146995)">
<path d="M6.44694 16.6181H0.300781L7.97694 24.2942L15.6531 16.6181H9.50696C9.50696 14.7962 10.0471 13.0152 11.0593 11.5005C12.0715 9.98568 13.5101 8.80503 15.1933 8.10782C16.8765 7.41063 18.7285 7.22821 20.5154 7.58364C22.3022 7.93906 23.9435 8.81633 25.2318 10.1046C26.52 11.3929 27.3973 13.0341 27.7527 14.821C28.1081 16.6078 27.9257 18.4599 27.2285 20.1431C26.5314 21.8263 25.3507 23.2649 23.8359 24.277C22.3211 25.2892 20.5401 25.8294 18.7183 25.8294V28.8999C21.1479 28.9019 23.5235 28.1834 25.5446 26.8351C27.5657 25.4868 29.1415 23.5694 30.0727 21.3254C31.0039 19.0813 31.2486 16.6115 30.7759 14.2284C30.3032 11.8452 29.1343 9.65588 27.4171 7.93715C25.6998 6.21846 23.5114 5.04769 21.1287 4.57295C18.746 4.0982 16.2759 4.34081 14.0312 5.27008C11.7863 6.19936 9.86753 7.77355 8.51753 9.79349C7.16752 11.8135 6.44694 14.1885 6.44694 16.6181Z" fill="black"/>
</g>
<defs>
<clipPath id="clip0_23460_146995">
<rect width="34" height="34" fill="white" transform="translate(0.300781)"/>
</clipPath>
</defs>
</svg>
