<svg width="35" height="34" viewBox="0 0 35 34" fill="none" xmlns="http://www.w3.org/2000/svg">
<path fill-rule="evenodd" clip-rule="evenodd" d="M10.1338 31.45H25.2638L27.0488 11.05H8.34883L10.1338 31.45ZM24.4988 6.80005V5.10005C24.4988 4.42375 24.2301 3.77515 23.7519 3.29693C23.2737 2.81871 22.6251 2.55005 21.9488 2.55005H13.4488C12.7726 2.55005 12.1239 2.81871 11.6457 3.29693C11.1675 3.77515 10.8988 4.42375 10.8988 5.10005V6.80005H5.79883V9.35005H29.5988V6.80005H24.4988ZM21.9488 6.80005H13.4488V5.95005C13.4488 5.72461 13.5384 5.50841 13.6978 5.34901C13.8572 5.1896 14.0734 5.10005 14.2988 5.10005H21.0988C21.3242 5.10005 21.5405 5.1896 21.6999 5.34901C21.8592 5.50841 21.9488 5.72461 21.9488 5.95005V6.80005Z" fill="white"/>
</svg>
