<svg width="32" height="28" viewBox="0 0 32 28" fill="none" xmlns="http://www.w3.org/2000/svg">
<g clip-path="url(#clip0_23460_147002)">
<path fill-rule="evenodd" clip-rule="evenodd" d="M31.0871 25.2231L17.3849 1.22695C17.2559 0.977816 17.0607 0.76885 16.8206 0.622964C16.5804 0.477077 16.3045 0.399902 16.0231 0.399902C15.7418 0.399902 15.4659 0.477077 15.2257 0.622964C14.9855 0.76885 14.7903 0.977816 14.6614 1.22695L0.959141 25.2231C0.80015 25.4591 0.710472 25.7347 0.70021 26.0187C0.689949 26.3028 0.759512 26.5841 0.901061 26.8309C1.04261 27.0777 1.25052 27.2802 1.50137 27.4156C1.75222 27.551 2.03605 27.6139 2.32086 27.5973H29.7254L30.4914 27.4277C30.6732 27.3305 30.8335 27.1978 30.9625 27.0374C31.0916 26.8769 31.1868 26.6922 31.2425 26.4942C31.2981 26.2963 31.3131 26.0891 31.2864 25.8853C31.2597 25.6814 31.1919 25.485 31.0871 25.3079V25.2231ZM17.7253 24.2056H14.321V20.8139H17.7253V24.2056ZM17.7253 18.2701H14.321V9.79096H17.7253V18.2701Z" fill="black"/>
</g>
<defs>
<clipPath id="clip0_23460_147002">
<rect width="30.6" height="27.2" fill="white" transform="translate(0.699219 0.399902)"/>
</clipPath>
</defs>
</svg>
