<svg width="40" height="40" viewBox="0 0 40 40" fill="none" xmlns="http://www.w3.org/2000/svg">
<path fill-rule="evenodd" clip-rule="evenodd" d="M16.3228 4C9.51711 4 4 9.51711 4 16.3228C4 23.1285 9.51711 28.6456 16.3228 28.6456C19.1542 28.6456 21.7626 27.6906 23.8435 26.0852L33.6408 35.6216L36.082 33.1136L26.2849 23.5774C27.7695 21.5422 28.6456 19.0348 28.6456 16.3228C28.6456 9.51711 23.1285 4 16.3228 4ZM7.5 16.3228C7.5 11.4501 11.4501 7.5 16.3228 7.5C21.1955 7.5 25.1456 11.4501 25.1456 16.3228C25.1456 21.1955 21.1955 25.1456 16.3228 25.1456C11.4501 25.1456 7.5 21.1955 7.5 16.3228Z" fill="black"/>
</svg>
