<svg width="40" height="40" viewBox="0 0 40 40" fill="none" xmlns="http://www.w3.org/2000/svg">
<path fill-rule="evenodd" clip-rule="evenodd" d="M11.1 37H28.9L31 13H9L11.1 37ZM28 8V6C28 5.20435 27.6839 4.44129 27.1213 3.87868C26.5587 3.31607 25.7956 3 25 3H15C14.2044 3 13.4413 3.31607 12.8787 3.87868C12.3161 4.44129 12 5.20435 12 6V8H6V11H34V8H28ZM25 8H15V7C15 6.73478 15.1054 6.48043 15.2929 6.29289C15.4804 6.10536 15.7348 6 16 6H24C24.2652 6 24.5196 6.10536 24.7071 6.29289C24.8946 6.48043 25 6.73478 25 7V8Z" fill="black"/>
</svg>
