<svg width="40" height="40" viewBox="0 0 40 40" fill="none" xmlns="http://www.w3.org/2000/svg">
<path fill-rule="evenodd" clip-rule="evenodd" d="M20 2C16.4399 2 12.9598 3.05568 9.99974 5.03355C7.03966 7.01141 4.73255 9.82263 3.37018 13.1117C2.0078 16.4008 1.65134 20.02 2.34587 23.5116C3.04041 27.0033 4.75474 30.2106 7.27209 32.7279C9.78943 35.2453 12.9967 36.9596 16.4884 37.6541C19.98 38.3487 23.5992 37.9922 26.8883 36.6298C30.1774 35.2675 32.9886 32.9604 34.9665 30.0003C36.9443 27.0402 38 23.5601 38 20C38 15.2261 36.1036 10.6477 32.7279 7.27208C29.3523 3.89642 24.7739 2 20 2ZM22 31H18V27H22V31ZM23 21C22.7098 21.1026 22.4582 21.2919 22.2793 21.5424C22.1005 21.7928 22.0029 22.0922 22 22.4C22 22.6 22 23.8 22 24H18V22C17.9266 21.3445 18.087 20.6841 18.4529 20.1352C18.8188 19.5864 19.3667 19.1844 20 19C20.6333 18.8156 21.1812 18.4136 21.5471 17.8648C21.913 17.3159 22.0734 16.6555 22 16C22 15 22 14 20 14C18 14 18 14 18 16H14C13.9403 15.1968 14.0545 14.3901 14.3349 13.6351C14.6153 12.88 15.0552 12.1943 15.6248 11.6248C16.1943 11.0552 16.88 10.6153 17.6351 10.3349C18.3901 10.0545 19.1968 9.94025 20 10C20.7955 9.97206 21.5882 10.1082 22.3288 10.3998C23.0693 10.6914 23.742 11.1324 24.3048 11.6952C24.8676 12.258 25.3086 12.9307 25.6002 13.6713C25.8919 14.4118 26.0279 15.2045 26 16C26.0858 17.0425 25.8425 18.0856 25.3043 18.9826C24.7661 19.8795 23.9602 20.5851 23 21Z" fill="white"/>
</svg>
