<svg width="73" height="89" viewBox="0 0 73 89" fill="none" xmlns="http://www.w3.org/2000/svg">
<path d="M32.7715 69.9051C23.7612 64.1481 17.1862 55.2749 14.3014 44.9789C11.4166 34.683 12.4241 23.6853 17.1314 14.0848C19.4506 12.0093 22.0332 10.2485 24.8126 8.84806C39.3859 27.9204 50.442 49.4382 57.4621 72.3915C54.2524 74.0488 50.8108 75.2119 47.2538 75.8415C42.1078 74.7523 37.2014 72.7411 32.7715 69.9051Z" fill="url(#paint0_radial_61_2445)"/>
<path d="M32.7715 69.9051C23.7612 64.1481 17.1862 55.2749 14.3014 44.9789C11.4166 34.683 12.4241 23.6853 17.1314 14.0848C19.4506 12.0093 22.0332 10.2485 24.8126 8.84806C39.3859 27.9204 50.442 49.4382 57.4621 72.3915C54.2524 74.0488 50.8108 75.2119 47.2538 75.8415C42.1078 74.7523 37.2014 72.7411 32.7715 69.9051Z" fill="url(#paint1_radial_61_2445)"/>
<g filter="url(#filter0_f_61_2445)">
<path d="M21.2356 8.78653C21.0062 9.13258 20.8902 9.54142 20.9037 9.95637C20.9171 10.3713 21.0594 10.7718 21.3107 11.1022C36.1742 30.3634 47.3837 52.1843 54.3843 75.4846C54.539 75.993 54.8893 76.419 55.3582 76.669C55.8271 76.9191 56.3761 76.9726 56.8844 76.8179C57.3927 76.6631 57.8188 76.3128 58.0688 75.8439C58.3189 75.3751 58.3724 74.8261 58.2176 74.3177C51.0889 50.5498 39.66 28.2914 24.4985 8.64797C24.3405 8.43543 24.1418 8.25639 23.9141 8.12125C23.6863 7.98611 23.4339 7.89755 23.1717 7.86072C22.9094 7.82389 22.6424 7.83952 22.3862 7.9067C22.13 7.97389 21.8897 8.09129 21.6793 8.25208C21.5013 8.40299 21.3512 8.58387 21.2356 8.78653Z" fill="url(#paint2_linear_61_2445)"/>
</g>
<path style="mix-blend-mode:overlay" d="M21.2356 8.78653C21.0062 9.13258 20.8902 9.54142 20.9037 9.95637C20.9171 10.3713 21.0594 10.7718 21.3107 11.1022C36.1742 30.3634 47.3837 52.1843 54.3843 75.4846C54.539 75.993 54.8893 76.419 55.3582 76.669C55.8271 76.9191 56.3761 76.9726 56.8844 76.8179C57.3927 76.6631 57.8188 76.3128 58.0688 75.8439C58.3189 75.3751 58.3724 74.8261 58.2176 74.3177C51.0889 50.5498 39.66 28.2914 24.4985 8.64797C24.3405 8.43543 24.1418 8.25639 23.9141 8.12125C23.6863 7.98611 23.4339 7.89755 23.1717 7.86072C22.9094 7.82389 22.6424 7.83952 22.3862 7.9067C22.13 7.97389 21.8897 8.09129 21.6793 8.25208C21.5013 8.40299 21.3512 8.58387 21.2356 8.78653Z" fill="url(#paint3_linear_61_2445)"/>
<g style="mix-blend-mode:overlay">
<path style="mix-blend-mode:overlay" d="M21.2356 8.78653C21.0062 9.13258 20.8902 9.54142 20.9037 9.95637C20.9171 10.3713 21.0594 10.7718 21.3107 11.1022C36.1742 30.3634 47.3837 52.1843 54.3843 75.4846C54.539 75.993 54.8893 76.419 55.3582 76.669C55.8271 76.9191 56.3761 76.9726 56.8844 76.8179C57.3927 76.6631 57.8188 76.3128 58.0688 75.8439C58.3189 75.3751 58.3724 74.8261 58.2176 74.3177C51.0889 50.5498 39.66 28.2914 24.4985 8.64797C24.3405 8.43543 24.1418 8.25639 23.9141 8.12125C23.6863 7.98611 23.4339 7.89755 23.1717 7.86072C22.9094 7.82389 22.6424 7.83952 22.3862 7.9067C22.13 7.97389 21.8897 8.09129 21.6793 8.25208C21.5013 8.40299 21.3512 8.58387 21.2356 8.78653Z" fill="url(#paint4_linear_61_2445)"/>
</g>
<g clip-path="url(#clip0_61_2445)" filter="url(#filter1_d_61_2445)">
<g filter="url(#filter2_d_61_2445)">
<path fill-rule="evenodd" clip-rule="evenodd" d="M33.4471 38.35L18.8746 52.8813L11.4071 46.0903L8.72461 49.1572L19.0921 58.65L19.1646 58.577L36.2746 41.0518L33.4471 38.35Z" fill="url(#paint5_linear_61_2445)"/>
</g>
</g>
<defs>
<filter id="filter0_f_61_2445" x="17.9023" y="4.84131" width="43.4023" height="75.0634" filterUnits="userSpaceOnUse" color-interpolation-filters="sRGB">
<feFlood flood-opacity="0" result="BackgroundImageFix"/>
<feBlend mode="normal" in="SourceGraphic" in2="BackgroundImageFix" result="shape"/>
<feGaussianBlur stdDeviation="1.5" result="effect1_foregroundBlur_61_2445"/>
</filter>
<filter id="filter1_d_61_2445" x="6" y="34" width="33" height="33" filterUnits="userSpaceOnUse" color-interpolation-filters="sRGB">
<feFlood flood-opacity="0" result="BackgroundImageFix"/>
<feColorMatrix in="SourceAlpha" type="matrix" values="0 0 0 0 0 0 0 0 0 0 0 0 0 0 0 0 0 0 127 0" result="hardAlpha"/>
<feOffset dy="2"/>
<feGaussianBlur stdDeviation="1"/>
<feColorMatrix type="matrix" values="0 0 0 0 0 0 0 0 0 0 0 0 0 0 0 0 0 0 0.75 0"/>
<feBlend mode="normal" in2="BackgroundImageFix" result="effect1_dropShadow_61_2445"/>
<feBlend mode="normal" in="SourceGraphic" in2="effect1_dropShadow_61_2445" result="shape"/>
</filter>
<filter id="filter2_d_61_2445" x="6.72461" y="38.35" width="31.5498" height="24.3" filterUnits="userSpaceOnUse" color-interpolation-filters="sRGB">
<feFlood flood-opacity="0" result="BackgroundImageFix"/>
<feColorMatrix in="SourceAlpha" type="matrix" values="0 0 0 0 0 0 0 0 0 0 0 0 0 0 0 0 0 0 127 0" result="hardAlpha"/>
<feOffset dy="2"/>
<feGaussianBlur stdDeviation="1"/>
<feComposite in2="hardAlpha" operator="out"/>
<feColorMatrix type="matrix" values="0 0 0 0 0 0 0 0 0 0 0 0 0 0 0 0 0 0 0.75 0"/>
<feBlend mode="normal" in2="BackgroundImageFix" result="effect1_dropShadow_61_2445"/>
<feBlend mode="normal" in="SourceGraphic" in2="effect1_dropShadow_61_2445" result="shape"/>
</filter>
<radialGradient id="paint0_radial_61_2445" cx="0" cy="0" r="1" gradientUnits="userSpaceOnUse" gradientTransform="translate(56.1875 33.2299) rotate(-57.4273) scale(43.52 43.52)">
<stop offset="0"/>
<stop offset="0.96" stop-opacity="0"/>
</radialGradient>
<radialGradient id="paint1_radial_61_2445" cx="0" cy="0" r="1" gradientUnits="userSpaceOnUse" gradientTransform="translate(56.1875 33.2299) rotate(-57.4273) scale(43.52 43.52)">
<stop offset="0" stop-color="#00FF57"/>
<stop offset="0.16" stop-color="#00FF57" stop-opacity="0.78"/>
<stop offset="0.38" stop-color="#00FF57" stop-opacity="0.5"/>
<stop offset="0.58" stop-color="#00FF57" stop-opacity="0.29"/>
<stop offset="0.75" stop-color="#00FF57" stop-opacity="0.13"/>
<stop offset="0.88" stop-color="#00FF57" stop-opacity="0.04"/>
<stop offset="0.96" stop-color="#00FF57" stop-opacity="0"/>
</radialGradient>
<linearGradient id="paint2_linear_61_2445" x1="23.2518" y1="7.40211" x2="58.7836" y2="75.8701" gradientUnits="userSpaceOnUse">
<stop offset="0" stop-opacity="0"/>
<stop offset="0.21875"/>
<stop offset="0.786458"/>
<stop offset="1" stop-opacity="0"/>
</linearGradient>
<linearGradient id="paint3_linear_61_2445" x1="57.286" y1="76.6473" x2="23.251" y2="7.40254" gradientUnits="userSpaceOnUse">
<stop offset="0" stop-color="#099E3C" stop-opacity="0"/>
<stop offset="0.411458" stop-color="#00FF57"/>
<stop offset="0.588542" stop-color="#00FF57"/>
<stop offset="1" stop-color="#099E3C" stop-opacity="0"/>
</linearGradient>
<linearGradient id="paint4_linear_61_2445" x1="57.5515" y1="76.5095" x2="23.251" y2="7.40253" gradientUnits="userSpaceOnUse">
<stop offset="0.0625" stop-color="#099E3C" stop-opacity="0"/>
<stop offset="0.5" stop-color="#00FF57"/>
<stop offset="0.9375" stop-color="#099E3C" stop-opacity="0"/>
</linearGradient>
<linearGradient id="paint5_linear_61_2445" x1="22.4996" y1="38.35" x2="22.4996" y2="58.65" gradientUnits="userSpaceOnUse">
<stop offset="0" stop-color="#00FF57"/>
<stop offset="1" stop-color="#007C66"/>
</linearGradient>
<clipPath id="clip0_61_2445">
<rect width="29" height="29" fill="white" transform="translate(8 34)"/>
</clipPath>
</defs>
</svg>
