<svg width="65" height="84" viewBox="0 0 65 84" fill="none" xmlns="http://www.w3.org/2000/svg">
<path d="M35.1323 18.6101C25.8727 23.9569 18.9061 32.526 15.562 42.6821C12.218 52.8382 12.7308 63.87 17.0024 73.6721C19.2261 75.8497 21.7271 77.7246 24.4408 79.2484C39.8555 60.8494 51.8664 39.8495 59.9097 17.2345C56.7776 15.4348 53.3917 14.1184 49.8665 13.3298C44.6769 14.1869 39.6851 15.9759 35.1323 18.6101Z" fill="url(#paint0_radial_0_1)"/>
<path d="M35.1323 18.6101C25.8727 23.9569 18.9061 32.526 15.562 42.6821C12.218 52.8382 12.7308 63.87 17.0024 73.6721C19.2261 75.8497 21.7271 77.7246 24.4408 79.2484C39.8555 60.8494 51.8664 39.8495 59.9097 17.2345C56.7776 15.4348 53.3917 14.1184 49.8665 13.3298C44.6769 14.1869 39.6851 15.9759 35.1323 18.6101Z" fill="url(#paint1_radial_0_1)"/>
<g filter="url(#filter0_f_0_1)">
<path d="M20.8643 79.1492C20.6507 78.7933 20.5531 78.3796 20.5852 77.9657C20.6173 77.5518 20.7774 77.1581 21.0433 76.8393C36.7564 58.2647 48.9341 36.969 56.9735 14.0063C57.1509 13.5055 57.52 13.0956 57.9996 12.8668C58.4792 12.6381 59.03 12.6093 59.5309 12.7867C60.0318 12.9641 60.4417 13.3332 60.6704 13.8128C60.8992 14.2924 60.928 14.8433 60.7506 15.3441C52.5622 38.7681 40.1457 60.4911 24.1177 79.4341C23.9503 79.6394 23.7438 79.8093 23.5102 79.9341C23.2766 80.0589 23.0205 80.136 22.7569 80.161C22.4932 80.186 22.2272 80.1584 21.9743 80.0798C21.7213 80.0012 21.4866 79.8732 21.2835 79.7031C21.1126 79.5443 20.9707 79.3569 20.8643 79.1492Z" fill="url(#paint2_linear_0_1)"/>
</g>
<path style="mix-blend-mode:overlay" d="M20.8643 79.1492C20.6507 78.7933 20.5531 78.3796 20.5852 77.9657C20.6173 77.5518 20.7774 77.1581 21.0433 76.8393C36.7564 58.2647 48.9341 36.969 56.9735 14.0063C57.1509 13.5055 57.52 13.0956 57.9996 12.8668C58.4792 12.6381 59.03 12.6093 59.5309 12.7867C60.0318 12.9641 60.4417 13.3332 60.6704 13.8128C60.8992 14.2924 60.928 14.8433 60.7506 15.3441C52.5622 38.7681 40.1457 60.4911 24.1177 79.4341C23.9503 79.6394 23.7438 79.8093 23.5102 79.9341C23.2766 80.0589 23.0205 80.136 22.7569 80.161C22.4932 80.186 22.2272 80.1584 21.9743 80.0798C21.7213 80.0012 21.4866 79.8732 21.2835 79.7031C21.1126 79.5443 20.9707 79.3569 20.8643 79.1492Z" fill="url(#paint3_linear_0_1)"/>
<g style="mix-blend-mode:overlay">
<path style="mix-blend-mode:overlay" d="M20.8643 79.1492C20.6507 78.7933 20.5531 78.3796 20.5852 77.9657C20.6173 77.5518 20.7774 77.1581 21.0433 76.8393C36.7564 58.2647 48.9341 36.969 56.9735 14.0063C57.1509 13.5055 57.52 13.0956 57.9996 12.8668C58.4792 12.6381 59.03 12.6093 59.5309 12.7867C60.0318 12.9641 60.4417 13.3332 60.6704 13.8128C60.8992 14.2924 60.928 14.8433 60.7506 15.3441C52.5622 38.7681 40.1457 60.4911 24.1177 79.4341C23.9503 79.6394 23.7438 79.8093 23.5102 79.9341C23.2766 80.0589 23.0205 80.136 22.7569 80.161C22.4932 80.186 22.2272 80.1584 21.9743 80.0798C21.7213 80.0012 21.4866 79.8732 21.2835 79.7031C21.1126 79.5443 20.9707 79.3569 20.8643 79.1492Z" fill="url(#paint4_linear_0_1)"/>
</g>
<g opacity="0.96" clip-path="url(#clip0_0_1)">
<g filter="url(#filter1_d_0_1)">
<path fill-rule="evenodd" clip-rule="evenodd" d="M10.8996 39.9302H30.6774V43.6543H10.8996V39.9302Z" fill="url(#paint5_linear_0_1)"/>
<path d="M28.9209 41.7959L20.5059 50.3365L23.0965 52.9657L34.0996 41.7935L23.0952 30.625L20.5047 33.2542L28.9209 41.7959Z" fill="url(#paint6_linear_0_1)"/>
</g>
</g>
<defs>
<filter id="filter0_f_0_1" x="17.5791" y="9.67175" width="46.2861" height="73.4982" filterUnits="userSpaceOnUse" color-interpolation-filters="sRGB">
<feFlood flood-opacity="0" result="BackgroundImageFix"/>
<feBlend mode="normal" in="SourceGraphic" in2="BackgroundImageFix" result="shape"/>
<feGaussianBlur stdDeviation="1.5" result="effect1_foregroundBlur_0_1"/>
</filter>
<filter id="filter1_d_0_1" x="8.89941" y="30.625" width="27.2002" height="26.3407" filterUnits="userSpaceOnUse" color-interpolation-filters="sRGB">
<feFlood flood-opacity="0" result="BackgroundImageFix"/>
<feColorMatrix in="SourceAlpha" type="matrix" values="0 0 0 0 0 0 0 0 0 0 0 0 0 0 0 0 0 0 127 0" result="hardAlpha"/>
<feOffset dy="2"/>
<feGaussianBlur stdDeviation="1"/>
<feComposite in2="hardAlpha" operator="out"/>
<feColorMatrix type="matrix" values="0 0 0 0 0 0 0 0 0 0 0 0 0 0 0 0 0 0 0.75 0"/>
<feBlend mode="normal" in2="BackgroundImageFix" result="effect1_dropShadow_0_1"/>
<feBlend mode="normal" in="SourceGraphic" in2="effect1_dropShadow_0_1" result="shape"/>
</filter>
<radialGradient id="paint0_radial_0_1" cx="0" cy="0" r="1" gradientUnits="userSpaceOnUse" gradientTransform="translate(56.8785 56.2995) rotate(60) scale(43.52 43.52)">
<stop offset="0"/>
<stop offset="0.96" stop-opacity="0"/>
</radialGradient>
<radialGradient id="paint1_radial_0_1" cx="0" cy="0" r="1" gradientUnits="userSpaceOnUse" gradientTransform="translate(56.8785 56.2995) rotate(60) scale(43.52 43.52)">
<stop offset="0" stop-color="#0096FF"/>
<stop offset="0.16" stop-color="#0096FF" stop-opacity="0.78"/>
<stop offset="0.38" stop-color="#0096FF" stop-opacity="0.5"/>
<stop offset="0.58" stop-color="#0096FF" stop-opacity="0.29"/>
<stop offset="0.75" stop-color="#0096FF" stop-opacity="0.13"/>
<stop offset="0.88" stop-color="#0096FF" stop-opacity="0.04"/>
<stop offset="0.96" stop-color="#0096FF" stop-opacity="0"/>
</radialGradient>
<linearGradient id="paint2_linear_0_1" x1="22.8163" y1="80.6228" x2="61.3856" y2="13.8187" gradientUnits="userSpaceOnUse">
<stop offset="0" stop-opacity="0"/>
<stop offset="0.21875"/>
<stop offset="0.786458"/>
<stop offset="1" stop-opacity="0"/>
</linearGradient>
<linearGradient id="paint3_linear_0_1" x1="59.9244" y1="12.9751" x2="22.8155" y2="80.6223" gradientUnits="userSpaceOnUse">
<stop offset="0" stop-color="#035A97" stop-opacity="0"/>
<stop offset="0.411458" stop-color="#0096FF"/>
<stop offset="0.588542" stop-color="#0096FF"/>
<stop offset="1" stop-color="#035A97" stop-opacity="0"/>
</linearGradient>
<linearGradient id="paint4_linear_0_1" x1="60.1835" y1="13.1247" x2="22.8155" y2="80.6223" gradientUnits="userSpaceOnUse">
<stop offset="0.0625" stop-color="#035A97" stop-opacity="0"/>
<stop offset="0.5" stop-color="#0096FF"/>
<stop offset="0.9375" stop-color="#035A97" stop-opacity="0"/>
</linearGradient>
<linearGradient id="paint5_linear_0_1" x1="22.4996" y1="52.9657" x2="22.4996" y2="30.625" gradientUnits="userSpaceOnUse">
<stop offset="0" stop-color="#0096FF"/>
<stop offset="1" stop-color="#0036BF"/>
</linearGradient>
<linearGradient id="paint6_linear_0_1" x1="22.4996" y1="52.9657" x2="22.4996" y2="30.625" gradientUnits="userSpaceOnUse">
<stop offset="0" stop-color="#0096FF"/>
<stop offset="1" stop-color="#0036BF"/>
</linearGradient>
<clipPath id="clip0_0_1">
<rect width="29" height="29" fill="white" transform="matrix(-1 0 0 1 37 27)"/>
</clipPath>
</defs>
</svg>
