<svg width="65" height="83" viewBox="0 0 65 83" fill="none" xmlns="http://www.w3.org/2000/svg">
<g clip-path="url(#clip0_61_2571)">
<path d="M29.6489 18.1158C38.9085 23.4626 45.8752 32.0317 49.2192 42.1878C52.5632 52.3438 52.0505 63.3757 47.7788 73.1778C45.5552 75.3553 43.0542 77.2303 40.3404 78.754C24.9257 60.3551 12.9149 39.3552 4.87156 16.7402C8.00364 14.9405 11.3895 13.6241 14.9147 12.8355C20.1044 13.6926 25.0961 15.4815 29.6489 18.1158Z" fill="url(#paint0_radial_61_2571)"/>
<path d="M29.6489 18.1158C38.9085 23.4626 45.8752 32.0317 49.2192 42.1878C52.5632 52.3438 52.0505 63.3757 47.7788 73.1778C45.5552 75.3553 43.0542 77.2303 40.3404 78.754C24.9257 60.3551 12.9149 39.3552 4.87156 16.7402C8.00364 14.9405 11.3895 13.6241 14.9147 12.8355C20.1044 13.6926 25.0961 15.4815 29.6489 18.1158Z" fill="url(#paint1_radial_61_2571)"/>
<g filter="url(#filter0_f_61_2571)">
<path d="M43.917 78.6549C44.1306 78.2989 44.2281 77.8853 44.196 77.4714C44.164 77.0574 44.0039 76.6638 43.738 76.3449C28.0249 57.7704 15.8472 36.4747 7.8078 13.512C7.63039 13.0111 7.26128 12.6012 6.78166 12.3725C6.30204 12.1438 5.7512 12.1149 5.25033 12.2923C4.74945 12.4697 4.33955 12.8389 4.11082 13.3185C3.88209 13.7981 3.85325 14.3489 4.03065 14.8498C12.2191 38.2738 24.6356 59.9968 40.6635 78.9398C40.8309 79.145 41.0374 79.315 41.271 79.4398C41.5047 79.5645 41.7607 79.6417 42.0244 79.6667C42.2881 79.6917 42.5541 79.6641 42.807 79.5855C43.0599 79.5069 43.2947 79.3788 43.4977 79.2087C43.6687 79.05 43.8106 78.8626 43.917 78.6549Z" fill="url(#paint2_linear_61_2571)"/>
</g>
<path style="mix-blend-mode:overlay" d="M43.917 78.6549C44.1306 78.2989 44.2281 77.8853 44.196 77.4714C44.164 77.0574 44.0039 76.6638 43.738 76.3449C28.0249 57.7704 15.8472 36.4747 7.8078 13.512C7.63039 13.0111 7.26128 12.6012 6.78166 12.3725C6.30204 12.1438 5.7512 12.1149 5.25033 12.2923C4.74945 12.4697 4.33955 12.8389 4.11082 13.3185C3.88209 13.7981 3.85325 14.3489 4.03065 14.8498C12.2191 38.2738 24.6356 59.9968 40.6635 78.9398C40.8309 79.145 41.0374 79.315 41.271 79.4398C41.5047 79.5645 41.7607 79.6417 42.0244 79.6667C42.2881 79.6917 42.5541 79.6641 42.807 79.5855C43.0599 79.5069 43.2947 79.3788 43.4977 79.2087C43.6687 79.05 43.8106 78.8626 43.917 78.6549Z" fill="url(#paint3_linear_61_2571)"/>
<g style="mix-blend-mode:overlay">
<path style="mix-blend-mode:overlay" d="M43.917 78.6549C44.1306 78.2989 44.2281 77.8853 44.196 77.4714C44.164 77.0574 44.0039 76.6638 43.738 76.3449C28.0249 57.7704 15.8472 36.4747 7.8078 13.512C7.63039 13.0111 7.26128 12.6012 6.78166 12.3725C6.30204 12.1438 5.7512 12.1149 5.25033 12.2923C4.74945 12.4697 4.33955 12.8389 4.11082 13.3185C3.88209 13.7981 3.85325 14.3489 4.03065 14.8498C12.2191 38.2738 24.6356 59.9968 40.6635 78.9398C40.8309 79.145 41.0374 79.315 41.271 79.4398C41.5047 79.5645 41.7607 79.6417 42.0244 79.6667C42.2881 79.6917 42.5541 79.6641 42.807 79.5855C43.0599 79.5069 43.2947 79.3788 43.4977 79.2087C43.6687 79.05 43.8106 78.8626 43.917 78.6549Z" fill="url(#paint4_linear_61_2571)"/>
</g>
<g clip-path="url(#clip1_61_2571)" filter="url(#filter1_d_61_2571)">
<g filter="url(#filter2_d_61_2571)">
<path fill-rule="evenodd" clip-rule="evenodd" d="M32.0471 51.825H44.9521L46.4746 34.425H30.5246L32.0471 51.825ZM44.2996 30.8V29.35C44.2996 28.7731 44.0705 28.2199 43.6626 27.812C43.2547 27.4041 42.7015 27.175 42.1246 27.175H34.8746C34.2978 27.175 33.7445 27.4041 33.3367 27.812C32.9288 28.2199 32.6996 28.7731 32.6996 29.35V30.8H28.3496V32.975H48.6496V30.8H44.2996ZM42.1246 30.8H34.8746V30.075C34.8746 29.8827 34.951 29.6983 35.087 29.5623C35.2229 29.4264 35.4073 29.35 35.5996 29.35H41.3996C41.5919 29.35 41.7763 29.4264 41.9123 29.5623C42.0482 29.6983 42.1246 29.8827 42.1246 30.075V30.8Z" fill="url(#paint5_linear_61_2571)"/>
</g>
</g>
</g>
<defs>
<filter id="filter0_f_61_2571" x="0.916016" y="9.17737" width="46.2861" height="73.4983" filterUnits="userSpaceOnUse" color-interpolation-filters="sRGB">
<feFlood flood-opacity="0" result="BackgroundImageFix"/>
<feBlend mode="normal" in="SourceGraphic" in2="BackgroundImageFix" result="shape"/>
<feGaussianBlur stdDeviation="1.5" result="effect1_foregroundBlur_61_2571"/>
</filter>
<filter id="filter1_d_61_2571" x="22" y="25" width="33" height="33" filterUnits="userSpaceOnUse" color-interpolation-filters="sRGB">
<feFlood flood-opacity="0" result="BackgroundImageFix"/>
<feColorMatrix in="SourceAlpha" type="matrix" values="0 0 0 0 0 0 0 0 0 0 0 0 0 0 0 0 0 0 127 0" result="hardAlpha"/>
<feOffset dy="2"/>
<feGaussianBlur stdDeviation="1"/>
<feColorMatrix type="matrix" values="0 0 0 0 0 0 0 0 0 0 0 0 0 0 0 0 0 0 0.75 0"/>
<feBlend mode="normal" in2="BackgroundImageFix" result="effect1_dropShadow_61_2571"/>
<feBlend mode="normal" in="SourceGraphic" in2="effect1_dropShadow_61_2571" result="shape"/>
</filter>
<filter id="filter2_d_61_2571" x="26.3496" y="27.175" width="24.2998" height="28.65" filterUnits="userSpaceOnUse" color-interpolation-filters="sRGB">
<feFlood flood-opacity="0" result="BackgroundImageFix"/>
<feColorMatrix in="SourceAlpha" type="matrix" values="0 0 0 0 0 0 0 0 0 0 0 0 0 0 0 0 0 0 127 0" result="hardAlpha"/>
<feOffset dy="2"/>
<feGaussianBlur stdDeviation="1"/>
<feComposite in2="hardAlpha" operator="out"/>
<feColorMatrix type="matrix" values="0 0 0 0 0 0 0 0 0 0 0 0 0 0 0 0 0 0 0.75 0"/>
<feBlend mode="normal" in2="BackgroundImageFix" result="effect1_dropShadow_61_2571"/>
<feBlend mode="normal" in="SourceGraphic" in2="effect1_dropShadow_61_2571" result="shape"/>
</filter>
<radialGradient id="paint0_radial_61_2571" cx="0" cy="0" r="1" gradientUnits="userSpaceOnUse" gradientTransform="translate(7.90277 55.8051) rotate(120) scale(43.52 43.52)">
<stop offset="0"/>
<stop offset="0.96" stop-opacity="0"/>
</radialGradient>
<radialGradient id="paint1_radial_61_2571" cx="0" cy="0" r="1" gradientUnits="userSpaceOnUse" gradientTransform="translate(7.90277 55.8051) rotate(120) scale(43.52 43.52)">
<stop offset="0" stop-color="#FD004C"/>
<stop offset="0.16" stop-color="#FD004C" stop-opacity="0.78"/>
<stop offset="0.38" stop-color="#FD004C" stop-opacity="0.5"/>
<stop offset="0.58" stop-color="#FD004C" stop-opacity="0.29"/>
<stop offset="0.75" stop-color="#FD004C" stop-opacity="0.13"/>
<stop offset="0.88" stop-color="#FD004C" stop-opacity="0.04"/>
<stop offset="0.96" stop-color="#FD004C" stop-opacity="0"/>
</radialGradient>
<linearGradient id="paint2_linear_61_2571" x1="41.965" y1="80.1285" x2="3.39563" y2="13.3244" gradientUnits="userSpaceOnUse">
<stop offset="0" stop-opacity="0"/>
<stop offset="0.21875"/>
<stop offset="0.786458"/>
<stop offset="1" stop-opacity="0"/>
</linearGradient>
<linearGradient id="paint3_linear_61_2571" x1="4.85684" y1="12.4808" x2="41.9658" y2="80.128" gradientUnits="userSpaceOnUse">
<stop offset="0" stop-color="#B10303" stop-opacity="0"/>
<stop offset="0.411458" stop-color="#FD004C"/>
<stop offset="0.588542" stop-color="#FD004C"/>
<stop offset="1" stop-color="#B10303" stop-opacity="0"/>
</linearGradient>
<linearGradient id="paint4_linear_61_2571" x1="4.59774" y1="12.6304" x2="41.9658" y2="80.128" gradientUnits="userSpaceOnUse">
<stop offset="0.0625" stop-color="#B10303" stop-opacity="0"/>
<stop offset="0.5" stop-color="#FD004C"/>
<stop offset="0.9375" stop-color="#B10303" stop-opacity="0"/>
</linearGradient>
<linearGradient id="paint5_linear_61_2571" x1="38.4996" y1="27.175" x2="38.4996" y2="51.825" gradientUnits="userSpaceOnUse">
<stop offset="0" stop-color="#FD004C"/>
<stop offset="1" stop-color="#AB0000"/>
</linearGradient>
<clipPath id="clip0_61_2571">
<rect width="65" height="83" fill="white"/>
</clipPath>
<clipPath id="clip1_61_2571">
<rect width="29" height="29" fill="white" transform="translate(24 25)"/>
</clipPath>
</defs>
</svg>
