<svg width="54" height="54" viewBox="0 0 54 54" fill="none" xmlns="http://www.w3.org/2000/svg">
<g filter="url(#filter0_d_17_1039)">
<path fill-rule="evenodd" clip-rule="evenodd" d="M27 0C22.0555 0 17.222 1.46622 13.1108 4.21326C8.99953 6.96029 5.79521 10.8648 3.90302 15.4329C2.01083 20.0011 1.51575 25.0277 2.48038 29.8772C3.44501 34.7268 5.82603 39.1813 9.32234 42.6777C12.8187 46.174 17.2732 48.555 22.1227 49.5196C26.9723 50.4842 31.9989 49.9892 36.5671 48.097C41.1352 46.2048 45.0397 43.0005 47.7867 38.8892C50.5338 34.778 52 29.9445 52 25C52 18.3696 49.3661 12.0107 44.6777 7.32233C39.9893 2.63392 33.6304 0 27 0ZM29.7778 40.2778H24.2222V34.7222H29.7778V40.2778ZM31.1667 26.3889C30.7636 26.5313 30.4142 26.7943 30.1657 27.1422C29.9173 27.49 29.7818 27.9059 29.7778 28.3333C29.7778 28.6111 29.7778 30.2778 29.7778 30.5555H24.2222V27.7778C24.1203 26.8673 24.343 25.9501 24.8512 25.1878C25.3594 24.4256 26.1204 23.8672 27 23.6111C27.8796 23.355 28.6406 22.7966 29.1488 22.0344C29.657 21.2721 29.8797 20.3549 29.7778 19.4444C29.7778 18.0555 29.7778 16.6667 27 16.6667C24.2222 16.6667 24.2222 16.6667 24.2222 19.4444H18.6667C18.5837 18.3289 18.7423 17.2085 19.1318 16.1598C19.5212 15.1111 20.1323 14.1588 20.9233 13.3677C21.7143 12.5767 22.6667 11.9656 23.7154 11.5762C24.7641 11.1868 25.8844 11.0281 27 11.1111C28.1048 11.0723 29.2058 11.2613 30.2344 11.6664C31.263 12.0714 32.1972 12.6839 32.9789 13.4656C33.7606 14.2473 34.373 15.1815 34.7781 16.2101C35.1831 17.2387 35.3721 18.3396 35.3333 19.4444C35.4525 20.8923 35.1146 22.3412 34.3671 23.5869C33.6196 24.8327 32.5003 25.8127 31.1667 26.3889Z" fill="#AAAAAA"/>
</g>
<defs>
<filter id="filter0_d_17_1039" x="0" y="0" width="54" height="54" filterUnits="userSpaceOnUse" color-interpolation-filters="sRGB">
<feFlood flood-opacity="0" result="BackgroundImageFix"/>
<feColorMatrix in="SourceAlpha" type="matrix" values="0 0 0 0 0 0 0 0 0 0 0 0 0 0 0 0 0 0 127 0" result="hardAlpha"/>
<feOffset dy="2"/>
<feGaussianBlur stdDeviation="1"/>
<feComposite in2="hardAlpha" operator="out"/>
<feColorMatrix type="matrix" values="0 0 0 0 0 0 0 0 0 0 0 0 0 0 0 0 0 0 0.75 0"/>
<feBlend mode="normal" in2="BackgroundImageFix" result="effect1_dropShadow_17_1039"/>
<feBlend mode="normal" in="SourceGraphic" in2="effect1_dropShadow_17_1039" result="shape"/>
</filter>
</defs>
</svg>
