<svg width="65" height="83" viewBox="0 0 65 83" fill="none" xmlns="http://www.w3.org/2000/svg">
<path d="M34.979 17.8756C25.7194 23.2224 18.7527 31.7915 15.4087 41.9476C12.0647 52.1037 12.5774 63.1355 16.8491 72.9376C19.0727 75.1152 21.5738 76.9901 24.2875 78.5139C39.7022 60.1149 51.7131 39.115 59.7564 16.5C56.6243 14.7003 53.2384 13.3839 49.7132 12.5953C44.5236 13.4524 39.5318 15.2414 34.979 17.8756Z" fill="url(#paint0_radial_63_2822)"/>
<path d="M34.979 17.8756C25.7194 23.2224 18.7527 31.7915 15.4087 41.9476C12.0647 52.1037 12.5774 63.1355 16.8491 72.9376C19.0727 75.1152 21.5738 76.9901 24.2875 78.5139C39.7022 60.1149 51.7131 39.115 59.7564 16.5C56.6243 14.7003 53.2384 13.3839 49.7132 12.5953C44.5236 13.4524 39.5318 15.2414 34.979 17.8756Z" fill="url(#paint1_radial_63_2822)"/>
<g filter="url(#filter0_f_63_2822)">
<path d="M20.711 78.4147C20.4974 78.0588 20.3998 77.6451 20.4319 77.2312C20.464 76.8173 20.624 76.4236 20.8899 76.1048C36.603 57.5302 48.7807 36.2345 56.8201 13.2718C56.9975 12.771 57.3667 12.3611 57.8463 12.1323C58.3259 11.9036 58.8767 11.8748 59.3776 12.0522C59.8785 12.2296 60.2884 12.5987 60.5171 13.0783C60.7458 13.5579 60.7747 14.1088 60.5973 14.6096C52.4089 38.0336 39.9924 59.7566 23.9644 78.6996C23.797 78.9049 23.5905 79.0748 23.3569 79.1996C23.1233 79.3244 22.8672 79.4015 22.6035 79.4265C22.3399 79.4515 22.0739 79.424 21.8209 79.3453C21.568 79.2667 21.3332 79.1387 21.1302 78.9686C20.9592 78.8098 20.8173 78.6224 20.711 78.4147Z" fill="url(#paint2_linear_63_2822)"/>
</g>
<path style="mix-blend-mode:overlay" d="M20.711 78.4147C20.4974 78.0588 20.3998 77.6451 20.4319 77.2312C20.464 76.8173 20.624 76.4236 20.8899 76.1048C36.603 57.5302 48.7807 36.2345 56.8201 13.2718C56.9975 12.771 57.3667 12.3611 57.8463 12.1323C58.3259 11.9036 58.8767 11.8748 59.3776 12.0522C59.8785 12.2296 60.2884 12.5987 60.5171 13.0783C60.7458 13.5579 60.7747 14.1088 60.5973 14.6096C52.4089 38.0336 39.9924 59.7566 23.9644 78.6996C23.797 78.9049 23.5905 79.0748 23.3569 79.1996C23.1233 79.3244 22.8672 79.4015 22.6035 79.4265C22.3399 79.4515 22.0739 79.424 21.8209 79.3453C21.568 79.2667 21.3332 79.1387 21.1302 78.9686C20.9592 78.8098 20.8173 78.6224 20.711 78.4147Z" fill="url(#paint3_linear_63_2822)"/>
<g style="mix-blend-mode:overlay">
<path style="mix-blend-mode:overlay" d="M20.711 78.4147C20.4974 78.0588 20.3998 77.6451 20.4319 77.2312C20.464 76.8173 20.624 76.4236 20.8899 76.1048C36.603 57.5302 48.7807 36.2345 56.8201 13.2718C56.9975 12.771 57.3667 12.3611 57.8463 12.1323C58.3259 11.9036 58.8767 11.8748 59.3776 12.0522C59.8785 12.2296 60.2884 12.5987 60.5171 13.0783C60.7458 13.5579 60.7747 14.1088 60.5973 14.6096C52.4089 38.0336 39.9924 59.7566 23.9644 78.6996C23.797 78.9049 23.5905 79.0748 23.3569 79.1996C23.1233 79.3244 22.8672 79.4015 22.6035 79.4265C22.3399 79.4515 22.0739 79.424 21.8209 79.3453C21.568 79.2667 21.3332 79.1387 21.1302 78.9686C20.9592 78.8098 20.8173 78.6224 20.711 78.4147Z" fill="url(#paint4_linear_63_2822)"/>
</g>
<defs>
<filter id="filter0_f_63_2822" x="17.4258" y="8.93719" width="46.2861" height="73.4983" filterUnits="userSpaceOnUse" color-interpolation-filters="sRGB">
<feFlood flood-opacity="0" result="BackgroundImageFix"/>
<feBlend mode="normal" in="SourceGraphic" in2="BackgroundImageFix" result="shape"/>
<feGaussianBlur stdDeviation="1.5" result="effect1_foregroundBlur_63_2822"/>
</filter>
<radialGradient id="paint0_radial_63_2822" cx="0" cy="0" r="1" gradientUnits="userSpaceOnUse" gradientTransform="translate(56.7252 55.565) rotate(60) scale(43.52 43.52)">
<stop offset="0"/>
<stop offset="0.96" stop-opacity="0"/>
</radialGradient>
<radialGradient id="paint1_radial_63_2822" cx="0" cy="0" r="1" gradientUnits="userSpaceOnUse" gradientTransform="translate(56.7252 55.565) rotate(60) scale(43.52 43.52)">
<stop offset="0" stop-color="white"/>
<stop offset="0.16" stop-color="white" stop-opacity="0.78"/>
<stop offset="0.38" stop-color="white" stop-opacity="0.5"/>
<stop offset="0.58" stop-color="white" stop-opacity="0.29"/>
<stop offset="0.75" stop-color="white" stop-opacity="0.13"/>
<stop offset="0.88" stop-color="white" stop-opacity="0.04"/>
<stop offset="0.96" stop-color="white" stop-opacity="0"/>
</radialGradient>
<linearGradient id="paint2_linear_63_2822" x1="22.663" y1="79.8883" x2="61.2323" y2="13.0843" gradientUnits="userSpaceOnUse">
<stop offset="0" stop-opacity="0"/>
<stop offset="0.21875"/>
<stop offset="0.786458"/>
<stop offset="1" stop-opacity="0"/>
</linearGradient>
<linearGradient id="paint3_linear_63_2822" x1="59.7711" y1="12.2406" x2="22.6622" y2="79.8878" gradientUnits="userSpaceOnUse">
<stop offset="0" stop-color="#B2B2B2" stop-opacity="0"/>
<stop offset="0.411458" stop-color="white"/>
<stop offset="0.588542" stop-color="white"/>
<stop offset="1" stop-color="#B2B2B2" stop-opacity="0"/>
</linearGradient>
<linearGradient id="paint4_linear_63_2822" x1="60.0302" y1="12.3902" x2="22.6622" y2="79.8878" gradientUnits="userSpaceOnUse">
<stop offset="0.0625" stop-color="#B2B2B2" stop-opacity="0"/>
<stop offset="0.5" stop-color="white"/>
<stop offset="0.9375" stop-color="#B2B2B2" stop-opacity="0"/>
</linearGradient>
</defs>
</svg>
