<svg width="55" height="55" viewBox="0 0 55 55" fill="none" xmlns="http://www.w3.org/2000/svg">
<g opacity="0.96" clip-path="url(#clip0_63_2972)">
<g filter="url(#filter0_d_63_2972)">
<path fill-rule="evenodd" clip-rule="evenodd" d="M15.2625 50.875H39.7375L42.625 17.875H12.375L15.2625 50.875ZM38.5 11V8.25C38.5 7.15598 38.0654 6.10677 37.2918 5.33318C36.5182 4.5596 35.469 4.125 34.375 4.125H20.625C19.531 4.125 18.4818 4.5596 17.7082 5.33318C16.9346 6.10677 16.5 7.15598 16.5 8.25V11H8.25V15.125H46.75V11H38.5ZM34.375 11H20.625V9.625C20.625 9.26033 20.7699 8.91059 21.0277 8.65273C21.2856 8.39487 21.6353 8.25 22 8.25H33C33.3647 8.25 33.7144 8.39487 33.9723 8.65273C34.2301 8.91059 34.375 9.26033 34.375 9.625V11Z" fill="url(#paint0_linear_63_2972)"/>
</g>
</g>
<defs>
<filter id="filter0_d_63_2972" x="6.25" y="4.125" width="42.5" height="50.75" filterUnits="userSpaceOnUse" color-interpolation-filters="sRGB">
<feFlood flood-opacity="0" result="BackgroundImageFix"/>
<feColorMatrix in="SourceAlpha" type="matrix" values="0 0 0 0 0 0 0 0 0 0 0 0 0 0 0 0 0 0 127 0" result="hardAlpha"/>
<feOffset dy="2"/>
<feGaussianBlur stdDeviation="1"/>
<feComposite in2="hardAlpha" operator="out"/>
<feColorMatrix type="matrix" values="0 0 0 0 0 0 0 0 0 0 0 0 0 0 0 0 0 0 0.75 0"/>
<feBlend mode="normal" in2="BackgroundImageFix" result="effect1_dropShadow_63_2972"/>
<feBlend mode="normal" in="SourceGraphic" in2="effect1_dropShadow_63_2972" result="shape"/>
</filter>
<linearGradient id="paint0_linear_63_2972" x1="27.5" y1="4.125" x2="27.5" y2="50.875" gradientUnits="userSpaceOnUse">
<stop offset="0" stop-color="#FD004C"/>
<stop offset="1" stop-color="#AB0000"/>
</linearGradient>
<clipPath id="clip0_63_2972">
<rect width="55" height="55" fill="white"/>
</clipPath>
</defs>
</svg>
