<svg width="54" height="54" viewBox="0 0 54 54" fill="none" xmlns="http://www.w3.org/2000/svg">
<g filter="url(#filter0_d_17_989)">
<path fill-rule="evenodd" clip-rule="evenodd" d="M48 25C48 36.598 38.598 46 27 46C15.402 46 6 36.598 6 25C6 13.402 15.402 4 27 4C38.598 4 48 13.402 48 25ZM52 25C52 38.8071 40.8071 50 27 50C13.1929 50 2 38.8071 2 25C2 11.1929 13.1929 0 27 0C40.8071 0 52 11.1929 52 25ZM29.7778 11.1111C29.7778 12.6452 28.5341 13.8888 27 13.8888C25.4659 13.8888 24.2222 12.6452 24.2222 11.1111C24.2222 9.57695 25.4659 8.33329 27 8.33329C28.5341 8.33329 29.7778 9.57695 29.7778 11.1111ZM29.7778 18.5185V40.7408H24.2222V18.5185H29.7778Z" fill="#AAAAAA"/>
</g>
<defs>
<filter id="filter0_d_17_989" x="0" y="0" width="54" height="54" filterUnits="userSpaceOnUse" color-interpolation-filters="sRGB">
<feFlood flood-opacity="0" result="BackgroundImageFix"/>
<feColorMatrix in="SourceAlpha" type="matrix" values="0 0 0 0 0 0 0 0 0 0 0 0 0 0 0 0 0 0 127 0" result="hardAlpha"/>
<feOffset dy="2"/>
<feGaussianBlur stdDeviation="1"/>
<feColorMatrix type="matrix" values="0 0 0 0 0 0 0 0 0 0 0 0 0 0 0 0 0 0 0.75 0"/>
<feBlend mode="normal" in2="BackgroundImageFix" result="effect1_dropShadow_17_989"/>
<feBlend mode="normal" in="SourceGraphic" in2="effect1_dropShadow_17_989" result="shape"/>
</filter>
</defs>
</svg>
