<svg width="54" height="54" viewBox="0 0 54 54" fill="none" xmlns="http://www.w3.org/2000/svg">
<g filter="url(#filter0_d_17_1060)">
<path fill-rule="evenodd" clip-rule="evenodd" d="M44.6715 7.81109C39.942 3.11844 33.6561 0.53973 26.9773 0.53973C21.6736 0.53973 16.6268 2.18891 12.411 5.2024L7.15261 0L4.47809 10.075L2 20.045L11.9577 17.4813L22.1118 14.8276L17.8507 10.5997C20.5706 8.93553 23.6984 8.02099 26.9773 8.02099C31.6464 8.02099 36.0284 9.82009 39.3225 13.1034C42.6165 16.3718 44.4297 20.5397 44.4297 25.1724C44.4297 29.8051 42.6165 34.1529 39.3225 37.4213C36.0284 40.6897 31.6313 42.5037 26.9773 42.5037C22.3082 42.5037 17.9263 40.7046 14.6322 37.4213L9.28317 42.7286C14.0127 47.4213 20.2986 50 26.9773 50C33.6561 50 39.942 47.4213 44.6715 42.7286C49.401 38.036 52 31.7991 52 25.1724C52 18.5607 49.401 12.5037 44.6715 7.81109Z" fill="#AAAAAA"/>
</g>
<defs>
<filter id="filter0_d_17_1060" x="0" y="0" width="54" height="54" filterUnits="userSpaceOnUse" color-interpolation-filters="sRGB">
<feFlood flood-opacity="0" result="BackgroundImageFix"/>
<feColorMatrix in="SourceAlpha" type="matrix" values="0 0 0 0 0 0 0 0 0 0 0 0 0 0 0 0 0 0 127 0" result="hardAlpha"/>
<feOffset dy="2"/>
<feGaussianBlur stdDeviation="1"/>
<feComposite in2="hardAlpha" operator="out"/>
<feColorMatrix type="matrix" values="0 0 0 0 0 0 0 0 0 0 0 0 0 0 0 0 0 0 0.75 0"/>
<feBlend mode="normal" in2="BackgroundImageFix" result="effect1_dropShadow_17_1060"/>
<feBlend mode="normal" in="SourceGraphic" in2="effect1_dropShadow_17_1060" result="shape"/>
</filter>
</defs>
</svg>
