<svg width="52" height="54" viewBox="0 0 52 54" fill="none" xmlns="http://www.w3.org/2000/svg">
<g filter="url(#filter0_d_17_1011)">
<path fill-rule="evenodd" clip-rule="evenodd" d="M22.6191 5.6145C13.1882 5.6145 5.54297 13.3585 5.54297 22.9113C5.54297 32.4641 13.1882 40.2081 22.6191 40.2081C26.5427 40.2081 30.1572 38.8677 33.0407 36.6143L46.6171 49.9999L50 46.4795L36.4239 33.0941C38.4811 30.2374 39.6951 26.718 39.6951 22.9113C39.6951 13.3585 32.0499 5.6145 22.6191 5.6145ZM10.393 22.9113C10.393 16.0718 15.8668 10.5272 22.6191 10.5272C29.3713 10.5272 34.8451 16.0718 34.8451 22.9113C34.8451 29.7508 29.3713 35.2953 22.6191 35.2953C15.8668 35.2953 10.393 29.7508 10.393 22.9113Z" fill="#AAAAAA"/>
</g>
<defs>
<filter id="filter0_d_17_1011" x="3.54297" y="5.6145" width="48.457" height="48.3855" filterUnits="userSpaceOnUse" color-interpolation-filters="sRGB">
<feFlood flood-opacity="0" result="BackgroundImageFix"/>
<feColorMatrix in="SourceAlpha" type="matrix" values="0 0 0 0 0 0 0 0 0 0 0 0 0 0 0 0 0 0 127 0" result="hardAlpha"/>
<feOffset dy="2"/>
<feGaussianBlur stdDeviation="1"/>
<feComposite in2="hardAlpha" operator="out"/>
<feColorMatrix type="matrix" values="0 0 0 0 0 0 0 0 0 0 0 0 0 0 0 0 0 0 0.75 0"/>
<feBlend mode="normal" in2="BackgroundImageFix" result="effect1_dropShadow_17_1011"/>
<feBlend mode="normal" in="SourceGraphic" in2="effect1_dropShadow_17_1011" result="shape"/>
</filter>
</defs>
</svg>
