<svg width="33" height="84" viewBox="0 0 33 84" fill="none" xmlns="http://www.w3.org/2000/svg">
<path d="M27.1011 62.8625C32.4468 53.6023 34.1955 42.6979 32.0135 32.2305C29.8315 21.763 23.8715 12.4656 15.2711 6.11253C12.2566 5.33852 9.15319 4.9653 6.04111 5.00253C1.89108 28.6438 1.98928 52.8357 6.33111 76.4425C9.94342 76.4351 13.5339 75.8822 16.9811 74.8025C21.0469 71.4654 24.4754 67.4203 27.1011 62.8625Z" fill="url(#paint0_radial_76_1564)"/>
<path d="M27.1011 62.8625C32.4468 53.6023 34.1955 42.6979 32.0135 32.2305C29.8315 21.763 23.8715 12.4656 15.2711 6.11253C12.2566 5.33852 9.15319 4.9653 6.04111 5.00253C1.89108 28.6438 1.98928 52.8357 6.33111 76.4425C9.94342 76.4351 13.5339 75.8822 16.9811 74.8025C21.0469 71.4654 24.4754 67.4203 27.1011 62.8625Z" fill="url(#paint1_radial_76_1564)"/>
<g filter="url(#filter0_f_76_1564)">
<path d="M9.18805 3.30011C9.55104 3.5016 9.84233 3.81106 10.0215 4.18556C10.2007 4.56006 10.2589 4.98104 10.1881 5.39011C5.86737 29.3327 5.96905 53.8642 10.4881 77.7701C10.5849 78.2926 10.4701 78.8321 10.1691 79.27C9.86815 79.7079 9.40553 80.0083 8.88305 80.1051C8.36058 80.2019 7.82104 80.0872 7.38315 79.7862C6.94525 79.4852 6.64486 79.0226 6.54805 78.5001C1.92742 54.1201 1.81896 29.0993 6.22805 4.68011C6.27041 4.41867 6.36428 4.16825 6.5042 3.94338C6.64413 3.7185 6.82732 3.52366 7.04315 3.37016C7.25898 3.21666 7.50315 3.10756 7.76149 3.04918C8.01983 2.99081 8.28719 2.98433 8.54805 3.03011C8.7755 3.08209 8.9921 3.17347 9.18805 3.30011Z" fill="url(#paint2_linear_76_1564)"/>
</g>
<path style="mix-blend-mode:overlay" d="M9.18805 3.30011C9.55104 3.5016 9.84233 3.81106 10.0215 4.18556C10.2007 4.56006 10.2589 4.98104 10.1881 5.39011C5.86737 29.3327 5.96905 53.8642 10.4881 77.7701C10.5849 78.2926 10.4701 78.8321 10.1691 79.27C9.86815 79.7079 9.40553 80.0083 8.88305 80.1051C8.36058 80.2019 7.82104 80.0872 7.38315 79.7862C6.94525 79.4852 6.64486 79.0226 6.54805 78.5001C1.92742 54.1201 1.81896 29.0993 6.22805 4.68011C6.27041 4.41867 6.36428 4.16825 6.5042 3.94338C6.64413 3.7185 6.82732 3.52366 7.04315 3.37016C7.25898 3.21666 7.50315 3.10756 7.76149 3.04918C8.01983 2.99081 8.28719 2.98433 8.54805 3.03011C8.7755 3.08209 8.9921 3.17347 9.18805 3.30011Z" fill="url(#paint3_linear_76_1564)"/>
<g style="mix-blend-mode:overlay">
<path style="mix-blend-mode:overlay" d="M9.18805 3.30011C9.55104 3.5016 9.84233 3.81106 10.0215 4.18556C10.2007 4.56006 10.2589 4.98104 10.1881 5.39011C5.86737 29.3327 5.96905 53.8642 10.4881 77.7701C10.5849 78.2926 10.4701 78.8321 10.1691 79.27C9.86815 79.7079 9.40553 80.0083 8.88305 80.1051C8.36058 80.2019 7.82104 80.0872 7.38315 79.7862C6.94525 79.4852 6.64486 79.0226 6.54805 78.5001C1.92742 54.1201 1.81896 29.0993 6.22805 4.68011C6.27041 4.41867 6.36428 4.16825 6.5042 3.94338C6.64413 3.7185 6.82732 3.52366 7.04315 3.37016C7.25898 3.21666 7.50315 3.10756 7.76149 3.04918C8.01983 2.99081 8.28719 2.98433 8.54805 3.03011C8.7755 3.08209 8.9921 3.17347 9.18805 3.30011Z" fill="url(#paint4_linear_76_1564)"/>
</g>
<defs>
<filter id="filter0_f_76_1564" x="0" y="0" width="13.5215" height="83.1387" filterUnits="userSpaceOnUse" color-interpolation-filters="sRGB">
<feFlood flood-opacity="0" result="BackgroundImageFix"/>
<feBlend mode="normal" in="SourceGraphic" in2="BackgroundImageFix" result="shape"/>
<feGaussianBlur stdDeviation="1.5" result="effect1_foregroundBlur_76_1564"/>
</filter>
<radialGradient id="paint0_radial_76_1564" cx="0" cy="0" r="1" gradientUnits="userSpaceOnUse" gradientTransform="translate(-10.5763 41.0957) rotate(-150) scale(43.52 43.52)">
<stop offset="0"/>
<stop offset="0.96" stop-opacity="0"/>
</radialGradient>
<radialGradient id="paint1_radial_76_1564" cx="0" cy="0" r="1" gradientUnits="userSpaceOnUse" gradientTransform="translate(-10.5763 41.0957) rotate(-150) scale(43.52 43.52)">
<stop offset="0" stop-color="green"/>
<stop offset="0.16" stop-color="green" stop-opacity="0.78"/>
<stop offset="0.38" stop-color="green" stop-opacity="0.5"/>
<stop offset="0.58" stop-color="green" stop-opacity="0.29"/>
<stop offset="0.75" stop-color="green" stop-opacity="0.13"/>
<stop offset="0.88" stop-color="green" stop-opacity="0.04"/>
<stop offset="0.96" stop-color="green" stop-opacity="0"/>
</radialGradient>
<linearGradient id="paint2_linear_76_1564" x1="6.76079" y1="3" x2="6.76079" y2="80.1386" gradientUnits="userSpaceOnUse">
<stop offset="0" stop-opacity="0"/>
<stop offset="0.21875"/>
<stop offset="0.786458"/>
<stop offset="1" stop-opacity="0"/>
</linearGradient>
<linearGradient id="paint3_linear_76_1564" x1="8.44807" y1="80.1387" x2="6.76172" y2="3" gradientUnits="userSpaceOnUse">
<stop offset="0" stop-color="#B2B2B2" stop-opacity="0"/>
<stop offset="0.411458" stop-color="green"/>
<stop offset="0.588542" stop-color="green"/>
<stop offset="1" stop-color="#B2B2B2" stop-opacity="0"/>
</linearGradient>
<linearGradient id="paint4_linear_76_1564" x1="8.14889" y1="80.1387" x2="6.76172" y2="3" gradientUnits="userSpaceOnUse">
<stop offset="0.0625" stop-color="#B2B2B2" stop-opacity="0"/>
<stop offset="0.5" stop-color="green"/>
<stop offset="0.9375" stop-color="#B2B2B2" stop-opacity="0"/>
</linearGradient>
</defs>
</svg>
