<svg width="18" height="22" viewBox="0 0 18 22" fill="none" xmlns="http://www.w3.org/2000/svg">
<path fill-rule="evenodd" clip-rule="evenodd" d="M3.66001 21.2H14.34L15.6 6.79999H2.40001L3.66001 21.2ZM13.8 3.79999V2.59999C13.8 2.1226 13.6104 1.66476 13.2728 1.3272C12.9352 0.98963 12.4774 0.799988 12 0.799988H6.00001C5.52262 0.799988 5.06478 0.98963 4.72721 1.3272C4.38965 1.66476 4.20001 2.1226 4.20001 2.59999V3.79999H0.600006V5.59999H17.4V3.79999H13.8ZM12 3.79999H6.00001V3.19999C6.00001 3.04086 6.06322 2.88825 6.17574 2.77572C6.28826 2.6632 6.44088 2.59999 6.60001 2.59999H11.4C11.5591 2.59999 11.7117 2.6632 11.8243 2.77572C11.9368 2.88825 12 3.04086 12 3.19999V3.79999Z" fill="#FF0000"/>
</svg>
