<svg width="79" height="81" viewBox="0 0 79 81" fill="none" xmlns="http://www.w3.org/2000/svg">
<g clip-path="url(#clip0_12668_34794)">
<path d="M36.4344 0.310547C55.3969 21.3186 69.7808 46.0423 78.6717 72.9098L59.3046 79.3187C51.3028 55.138 38.3572 32.8866 21.291 13.9794L36.4344 0.310547Z" fill="url(#paint0_radial_12668_34794)"/>
<g filter="url(#filter0_d_12668_34794)">
<path d="M36.435 0.310547C55.3974 21.3186 69.7813 46.0423 78.6723 72.9098L71.8938 75.1529C63.314 49.2258 49.4335 25.3674 31.1348 5.09465L36.435 0.310547Z" fill="#E23F3F"/>
</g>
<g filter="url(#filter1_d_12668_34794)">
<path fill-rule="evenodd" clip-rule="evenodd" d="M21.9098 68.4545H38.0916L40.0007 46.6363H20.0007L21.9098 68.4545ZM37.2734 42.0909V40.2727C37.2734 39.5494 36.9861 38.8557 36.4746 38.3442C35.9632 37.8327 35.2695 37.5454 34.5462 37.5454H25.4553C24.7319 37.5454 24.0382 37.8327 23.5268 38.3442C23.0153 38.8557 22.728 39.5494 22.728 40.2727V42.0909H17.2734V44.8181H42.728V42.0909H37.2734ZM34.5462 42.0909H25.4553V41.1818C25.4553 40.9407 25.551 40.7094 25.7215 40.5389C25.892 40.3685 26.1232 40.2727 26.3643 40.2727H33.6371C33.8782 40.2727 34.1094 40.3685 34.2799 40.5389C34.4504 40.7094 34.5462 40.9407 34.5462 41.1818V42.0909Z" fill="#E23F3F"/>
</g>
</g>
<defs>
<filter id="filter0_d_12668_34794" x="29.1348" y="0.310547" width="51.5371" height="78.8423" filterUnits="userSpaceOnUse" color-interpolation-filters="sRGB">
<feFlood flood-opacity="0" result="BackgroundImageFix"/>
<feColorMatrix in="SourceAlpha" type="matrix" values="0 0 0 0 0 0 0 0 0 0 0 0 0 0 0 0 0 0 127 0" result="hardAlpha"/>
<feOffset dy="2"/>
<feGaussianBlur stdDeviation="1"/>
<feColorMatrix type="matrix" values="0 0 0 0 0 0 0 0 0 0 0 0 0 0 0 0 0 0 1 0"/>
<feBlend mode="normal" in2="BackgroundImageFix" result="effect1_dropShadow_12668_34794"/>
<feBlend mode="normal" in="SourceGraphic" in2="effect1_dropShadow_12668_34794" result="shape"/>
</filter>
<filter id="filter1_d_12668_34794" x="14.2734" y="34.5454" width="31.4551" height="36.9092" filterUnits="userSpaceOnUse" color-interpolation-filters="sRGB">
<feFlood flood-opacity="0" result="BackgroundImageFix"/>
<feColorMatrix in="SourceAlpha" type="matrix" values="0 0 0 0 0 0 0 0 0 0 0 0 0 0 0 0 0 0 127 0" result="hardAlpha"/>
<feOffset/>
<feGaussianBlur stdDeviation="1.5"/>
<feColorMatrix type="matrix" values="0 0 0 0 0 0 0 0 0 0 0 0 0 0 0 0 0 0 1 0"/>
<feBlend mode="normal" in2="BackgroundImageFix" result="effect1_dropShadow_12668_34794"/>
<feBlend mode="normal" in="SourceGraphic" in2="effect1_dropShadow_12668_34794" result="shape"/>
</filter>
<radialGradient id="paint0_radial_12668_34794" cx="0" cy="0" r="1" gradientUnits="userSpaceOnUse" gradientTransform="translate(-114.999 136.999) rotate(-30) scale(204 204)">
<stop offset="0.900635" stop-color="#E23F3F" stop-opacity="0"/>
<stop offset="1" stop-color="#E23F3F" stop-opacity="0.4"/>
</radialGradient>
<clipPath id="clip0_12668_34794">
<rect width="79" height="81" fill="white"/>
</clipPath>
</defs>
</svg>
