<svg width="40" height="40" viewBox="0 0 40 40" fill="none" xmlns="http://www.w3.org/2000/svg">
<g filter="url(#filter0_d_12618_22022)">
<path fill-rule="evenodd" clip-rule="evenodd" d="M16.6901 5.6001C10.565 5.6001 5.59961 10.5655 5.59961 16.6906C5.59961 22.8157 10.565 27.7811 16.6901 27.7811C19.2384 27.7811 21.586 26.9217 23.4588 25.4768L32.2763 34.0596L34.4735 31.8023L25.656 23.2197C26.9922 21.3881 27.7807 19.1314 27.7807 16.6906C27.7807 10.5655 22.8153 5.6001 16.6901 5.6001ZM8.74961 16.6906C8.74961 12.3052 12.3047 8.7501 16.6901 8.7501C21.0756 8.7501 24.6307 12.3052 24.6307 16.6906C24.6307 21.076 21.0756 24.6311 16.6901 24.6311C12.3047 24.6311 8.74961 21.076 8.74961 16.6906Z" fill="white"/>
</g>
<defs>
<filter id="filter0_d_12618_22022" x="2.59961" y="2.6001" width="34.873" height="34.4595" filterUnits="userSpaceOnUse" color-interpolation-filters="sRGB">
<feFlood flood-opacity="0" result="BackgroundImageFix"/>
<feColorMatrix in="SourceAlpha" type="matrix" values="0 0 0 0 0 0 0 0 0 0 0 0 0 0 0 0 0 0 127 0" result="hardAlpha"/>
<feOffset/>
<feGaussianBlur stdDeviation="1.5"/>
<feColorMatrix type="matrix" values="0 0 0 0 0 0 0 0 0 0 0 0 0 0 0 0 0 0 1 0"/>
<feBlend mode="normal" in2="BackgroundImageFix" result="effect1_dropShadow_12618_22022"/>
<feBlend mode="normal" in="SourceGraphic" in2="effect1_dropShadow_12618_22022" result="shape"/>
</filter>
</defs>
</svg>
