<svg width="50" height="50" viewBox="0 0 50 50" fill="none" xmlns="http://www.w3.org/2000/svg">
<g filter="url(#filter0_d_47_1370)">
<path fill-rule="evenodd" clip-rule="evenodd" d="M13.7951 45.3372C13.8403 45.8537 14.2728 46.25 14.7913 46.25H35.2087C35.7272 46.25 36.1597 45.8537 36.2049 45.3372L38.6549 17.3372C38.706 16.7527 38.2454 16.25 37.6587 16.25H12.3413C11.7546 16.25 11.294 16.7527 11.3451 17.3372L13.7951 45.3372ZM36 10C35.4477 10 35 9.55228 35 9V7.5C35 6.50544 34.6049 5.55161 33.9017 4.84835C33.1984 4.14509 32.2446 3.75 31.25 3.75H18.75C17.7554 3.75 16.8016 4.14509 16.0983 4.84835C15.3951 5.55161 15 6.50544 15 7.5V9C15 9.55228 14.5523 10 14 10H8.5C7.94772 10 7.5 10.4477 7.5 11V12.75C7.5 13.3023 7.94772 13.75 8.5 13.75H41.5C42.0523 13.75 42.5 13.3023 42.5 12.75V11C42.5 10.4477 42.0523 10 41.5 10H36ZM31.25 9C31.25 9.55228 30.8023 10 30.25 10H19.75C19.1977 10 18.75 9.55228 18.75 9V8.75C18.75 8.41848 18.8817 8.10054 19.1161 7.86612C19.3505 7.6317 19.6685 7.5 20 7.5H30C30.3315 7.5 30.6495 7.6317 30.8839 7.86612C31.1183 8.10054 31.25 8.41848 31.25 8.75V9Z" fill="#FF0000"/>
</g>
<defs>
<filter id="filter0_d_47_1370" x="4.5" y="0.75" width="41" height="48.5" filterUnits="userSpaceOnUse" color-interpolation-filters="sRGB">
<feFlood flood-opacity="0" result="BackgroundImageFix"/>
<feColorMatrix in="SourceAlpha" type="matrix" values="0 0 0 0 0 0 0 0 0 0 0 0 0 0 0 0 0 0 127 0" result="hardAlpha"/>
<feOffset/>
<feGaussianBlur stdDeviation="1.5"/>
<feComposite in2="hardAlpha" operator="out"/>
<feColorMatrix type="matrix" values="0 0 0 0 0 0 0 0 0 0 0 0 0 0 0 0 0 0 0.6 0"/>
<feBlend mode="normal" in2="BackgroundImageFix" result="effect1_dropShadow_47_1370"/>
<feBlend mode="normal" in="SourceGraphic" in2="effect1_dropShadow_47_1370" result="shape"/>
</filter>
</defs>
</svg>
