<svg width="50" height="50" viewBox="0 0 50 50" fill="none" xmlns="http://www.w3.org/2000/svg">
<g clip-path="url(#clip0_48_1310)">
<path fill-rule="evenodd" clip-rule="evenodd" d="M25 2.5C20.5499 2.5 16.1998 3.8196 12.4997 6.29193C8.79957 8.76427 5.91569 12.2783 4.21272 16.3896C2.50975 20.501 2.06417 25.025 2.93234 29.3895C3.80051 33.7541 5.94343 37.7632 9.09011 40.9099C12.2368 44.0566 16.2459 46.1995 20.6105 47.0677C24.9751 47.9358 29.499 47.4903 33.6104 45.7873C37.7217 44.0843 41.2357 41.2004 43.7081 37.5003C46.1804 33.8002 47.5 29.4501 47.5 25C47.5 19.0326 45.1295 13.3097 40.9099 9.0901C36.6903 4.87053 30.9674 2.5 25 2.5V2.5ZM27.5 38.75H22.5V33.75H27.5V38.75ZM28.75 26.25C28.3873 26.3782 28.0728 26.6149 27.8492 26.928C27.6256 27.241 27.5037 27.6153 27.5 28C27.5 28.25 27.5 29.75 27.5 30H22.5V27.5C22.4083 26.6806 22.6087 25.8551 23.0661 25.1691C23.5235 24.483 24.2083 23.9805 25 23.75C25.7917 23.5195 26.4766 23.017 26.9339 22.3309C27.3913 21.6449 27.5918 20.8194 27.5 20C27.5 18.75 27.5 17.5 25 17.5C22.5 17.5 22.5 17.5 22.5 20H17.5C17.4253 18.996 17.5681 17.9876 17.9186 17.0438C18.2691 16.1 18.8191 15.2429 19.531 14.531C20.2429 13.819 21.1 13.2691 22.0438 12.9186C22.9877 12.5681 23.996 12.4253 25 12.5C25.9943 12.4651 26.9852 12.6352 27.9109 12.9997C28.8367 13.3643 29.6775 13.9155 30.381 14.619C31.0845 15.3225 31.6357 16.1633 32.0003 17.0891C32.3648 18.0148 32.5349 19.0057 32.5 20C32.6073 21.3031 32.3031 22.607 31.6304 23.7282C30.9577 24.8494 29.9503 25.7314 28.75 26.25" fill="#AAAAAA"/>
</g>
<defs>
<clipPath id="clip0_48_1310">
<rect width="50" height="50" fill="white"/>
</clipPath>
</defs>
</svg>
