<svg width="278" height="92" viewBox="0 0 278 92" fill="none" xmlns="http://www.w3.org/2000/svg">
<path fill-rule="evenodd" clip-rule="evenodd" d="M161.65 21L131.5 51.0647L116.05 37.0144L110.5 43.3597L131.95 63L132.1 62.8489L167.5 26.5899L161.65 21Z" fill="#6AFF52"/>
<path d="M277.431 182.292C277.431 232.519 261.907 277.97 236.835 310.853C211.763 343.734 177.166 364.024 138.995 364.024C100.825 364.024 66.2283 343.735 41.1563 310.853C16.084 277.97 0.560218 232.519 0.560209 182.292C0.5602 132.065 16.0839 86.6142 41.1563 53.7318C66.2283 20.8499 100.825 0.560159 138.995 0.560153C177.166 0.560146 211.763 20.8499 236.835 53.7318C261.907 86.6141 277.431 132.065 277.431 182.292Z" stroke="url(#paint0_linear_465_9163)" stroke-width="1.12035"/>
<defs>
<linearGradient id="paint0_linear_465_9163" x1="138.995" y1="-2.43027e-05" x2="138.995" y2="364.584" gradientUnits="userSpaceOnUse">
<stop offset="0.0364583" stop-color="#6AFF52"/>
<stop offset="0.151042" stop-color="#6AFF52" stop-opacity="0.14"/>
</linearGradient>
</defs>
</svg>
