<svg width="278" height="97" viewBox="0 0 278 97" fill="none" xmlns="http://www.w3.org/2000/svg">
<path fill-rule="evenodd" clip-rule="evenodd" d="M126.65 71.5H153.35L156.5 35.5H123.5L126.65 71.5ZM152 28V25C152 23.8065 151.526 22.6619 150.682 21.818C149.838 20.9741 148.693 20.5 147.5 20.5H132.5C131.307 20.5 130.162 20.9741 129.318 21.818C128.474 22.6619 128 23.8065 128 25V28H119V32.5H161V28H152ZM147.5 28H132.5V26.5C132.5 26.1022 132.658 25.7206 132.939 25.4393C133.221 25.158 133.602 25 134 25H146C146.398 25 146.779 25.158 147.061 25.4393C147.342 25.7206 147.5 26.1022 147.5 26.5V28Z" fill="#FF0000"/>
<path d="M0.569352 -85.7078C0.569356 -135.935 16.0931 -181.386 41.1655 -214.268C66.2375 -247.15 100.834 -267.44 139.005 -267.44C177.175 -267.44 211.772 -247.15 236.844 -214.268C261.916 -181.386 277.44 -135.935 277.44 -85.7077C277.44 -35.4808 261.916 9.9703 236.844 42.8527C211.772 75.7346 177.175 96.0243 139.005 96.0243C100.834 96.0243 66.2374 75.7345 41.1654 42.8526C16.0931 9.97028 0.569347 -35.4808 0.569352 -85.7078Z" stroke="url(#paint0_linear_465_9163)" stroke-width="1.12035"/>
<defs>
<linearGradient id="paint0_linear_465_9163" x1="139.005" y1="96.5845" x2="139.005" y2="-268" gradientUnits="userSpaceOnUse">
<stop offset="0.0364583" stop-color="#FF0000"/>
<stop offset="0.151042" stop-color="#FF0000" stop-opacity="0.15"/>
</linearGradient>
</defs>
</svg>
