<svg width="70" height="70" viewBox="0 0 70 70" fill="none" xmlns="http://www.w3.org/2000/svg">
<path d="M12.6538 34.2138H0L15.8038 50.0177L31.6077 34.2138H18.9538C18.9538 30.463 20.0661 26.7964 22.15 23.6777C24.2338 20.5589 27.1957 18.1282 30.661 16.6928C34.1264 15.2574 37.9395 14.8819 41.6183 15.6136C45.297 16.3454 48.6762 18.1516 51.3285 20.8038C53.9807 23.4561 55.7869 26.8352 56.5187 30.514C57.2504 34.1928 56.8749 38.0059 55.4395 41.4713C54.0041 44.9366 51.5734 47.8985 48.4546 49.9823C45.3359 52.0662 41.6693 53.1785 37.9185 53.1785V59.5C42.9205 59.5043 47.8114 58.0249 51.9726 55.249C56.1337 52.4731 59.378 48.5254 61.2952 43.9054C63.2123 39.2853 63.7162 34.2004 62.7429 29.294C61.7697 24.3875 59.3631 19.8799 55.8276 16.3414C52.2922 12.803 47.7866 10.3926 42.881 9.41513C37.9754 8.43771 32.8901 8.9372 28.2684 10.8504C23.6467 12.7636 19.6963 16.0046 16.9168 20.1634C14.1374 24.3221 12.6538 29.2118 12.6538 34.2138Z" fill="white"/>
</svg>
