<svg width="70" height="70" viewBox="0 0 70 70" fill="none" xmlns="http://www.w3.org/2000/svg">
<path d="M35 3.5C26.6457 3.5 18.6335 6.81874 12.7261 12.7261C6.81874 18.6335 3.5 26.6457 3.5 35C3.5 41.2301 5.34744 47.3203 8.80871 52.5005C12.27 57.6806 17.1896 61.7181 22.9455 64.1022C28.7013 66.4864 35.0349 67.1102 41.1453 65.8947C47.2558 64.6793 52.8685 61.6792 57.2739 57.2739C61.6792 52.8685 64.6793 47.2558 65.8947 41.1453C67.1102 35.0349 66.4864 28.7013 64.1022 22.9455C61.7181 17.1896 57.6806 12.27 52.5005 8.80871C47.3203 5.34744 41.2301 3.5 35 3.5ZM38.5 50.75L31.5 50.75L31.5 31.5L38.5 31.5L38.5 50.75ZM38.5 26.25L31.5 26.25L31.5 19.25L38.5 19.25L38.5 26.25Z" fill="white"/>
</svg>
