<svg width="70" height="70" viewBox="0 0 70 70" fill="none" xmlns="http://www.w3.org/2000/svg">
<path fill-rule="evenodd" clip-rule="evenodd" d="M66.0634 58.1066L37.8528 8.70274C37.5875 8.18982 37.1855 7.7596 36.691 7.45924C36.1964 7.15889 35.6284 7 35.0493 7C34.4701 7 33.9021 7.15889 33.4076 7.45924C32.913 7.7596 32.5111 8.18982 32.2457 8.70274L4.03514 58.1066C3.7078 58.5925 3.52317 59.1599 3.50204 59.7447C3.48091 60.3295 3.62413 60.9086 3.91556 61.4167C4.20699 61.9248 4.63504 62.3418 5.1515 62.6205C5.66795 62.8993 6.25229 63.0289 6.83867 62.9946H63.2598L64.8368 62.6455C65.2112 62.4454 65.5412 62.172 65.8069 61.8418C66.0726 61.5115 66.2686 61.1312 66.3832 60.7236C66.4977 60.316 66.5285 59.8896 66.4735 59.4699C66.4185 59.0502 66.279 58.6458 66.0634 58.2812V58.1066ZM38.5537 56.0117H31.5448V49.0289H38.5537V56.0117ZM38.5537 43.7917H31.5448V26.3345H38.5537V43.7917Z" fill="red"/>
</svg>
