<svg width="70" height="70" viewBox="0 0 70 70" fill="none" xmlns="http://www.w3.org/2000/svg">
<path fill-rule="evenodd" clip-rule="evenodd" d="M19.425 64.75H50.575L54.25 22.75H15.75L19.425 64.75ZM49 14V10.5C49 9.10761 48.4469 7.77226 47.4623 6.78769C46.4777 5.80312 45.1424 5.25 43.75 5.25H26.25C24.8576 5.25 23.5223 5.80312 22.5377 6.78769C21.5531 7.77226 21 9.10761 21 10.5V14H10.5V19.25H59.5V14H49ZM43.75 14H26.25V12.25C26.25 11.7859 26.4344 11.3408 26.7626 11.0126C27.0908 10.6844 27.5359 10.5 28 10.5H42C42.4641 10.5 42.9093 10.6844 43.2374 11.0126C43.5656 11.3408 43.75 11.7859 43.75 12.25V14Z" fill="#E71825"/>
</svg>
