<svg width="70" height="70" viewBox="0 0 70 70" fill="none" xmlns="http://www.w3.org/2000/svg">
<path fill-rule="evenodd" clip-rule="evenodd" d="M28.5649 7C16.6549 7 7 16.6549 7 28.5649C7 40.4749 16.6549 50.1298 28.5649 50.1298C33.5199 50.1298 38.0846 48.4586 41.7261 45.6492L58.8714 62.3378L63.1436 57.9488L45.9986 41.2604C48.5967 37.6988 50.1298 33.3109 50.1298 28.5649C50.1298 16.6549 40.4749 7 28.5649 7ZM13.125 28.5649C13.125 20.0377 20.0377 13.125 28.5649 13.125C37.0921 13.125 44.0048 20.0377 44.0048 28.5649C44.0048 37.0921 37.0921 44.0048 28.5649 44.0048C20.0377 44.0048 13.125 37.0921 13.125 28.5649Z" fill="white"/>
</svg>
