<svg width="70" height="70" viewBox="0 0 70 70" fill="none" xmlns="http://www.w3.org/2000/svg">
<path fill-rule="evenodd" clip-rule="evenodd" d="M35 3.5C28.7699 3.5 22.6797 5.34744 17.4996 8.80871C12.3194 12.27 8.28197 17.1896 5.89781 22.9455C3.51365 28.7013 2.88984 35.0349 4.10528 41.1453C5.32071 47.2557 8.3208 52.8685 12.7262 57.2739C17.1315 61.6792 22.7443 64.6793 28.8547 65.8947C34.9651 67.1102 41.2987 66.4864 47.0545 64.1022C52.8104 61.7181 57.73 57.6806 61.1913 52.5005C64.6526 47.3203 66.5 41.2301 66.5 35C66.5 26.6457 63.1813 18.6335 57.2739 12.7261C51.3665 6.81874 43.3543 3.5 35 3.5ZM38.5 54.25H31.5V47.25H38.5V54.25ZM40.25 36.75C39.7422 36.9295 39.3019 37.2609 38.9888 37.6992C38.6758 38.1374 38.5051 38.6614 38.5 39.2C38.5 39.55 38.5 41.65 38.5 42H31.5V38.5C31.3716 37.3528 31.6522 36.1971 32.2925 35.2367C32.9328 34.2762 33.8917 33.5726 35 33.25C36.1083 32.9274 37.0672 32.2238 37.7075 31.2633C38.3478 30.3029 38.6285 29.1472 38.5 28C38.5 26.25 38.5 24.5 35 24.5C31.5 24.5 31.5 24.5 31.5 28H24.5C24.3955 26.5944 24.5953 25.1827 25.086 23.8613C25.5767 22.54 26.3467 21.34 27.3434 20.3434C28.3401 19.3467 29.54 18.5767 30.8614 18.086C32.1827 17.5953 33.5944 17.3954 35 17.5C36.3921 17.4511 37.7793 17.6893 39.0753 18.1996C40.3714 18.71 41.5485 19.4817 42.5334 20.4666C43.5183 21.4515 44.29 22.6287 44.8004 23.9247C45.3108 25.2207 45.5489 26.608 45.5 28C45.6502 29.8244 45.2244 31.6499 44.2826 33.2195C43.3408 34.7892 41.9304 36.024 40.25 36.75Z" fill="white"/>
</svg>
