<svg width="40" height="40" viewBox="0 0 40 40" fill="none" xmlns="http://www.w3.org/2000/svg">
<path d="M20 2C15.2261 2 10.6477 3.89642 7.27208 7.27208C3.89642 10.6477 2 15.2261 2 20C2 23.5601 3.05568 27.0402 5.03355 30.0003C7.01141 32.9604 9.82263 35.2675 13.1117 36.6298C16.4008 37.9922 20.02 38.3487 23.5116 37.6541C27.0033 36.9596 30.2106 35.2453 32.7279 32.7279C35.2453 30.2106 36.9596 27.0033 37.6541 23.5116C38.3487 20.02 37.9922 16.4008 36.6298 13.1117C35.2675 9.82263 32.9604 7.01141 30.0003 5.03355C27.0402 3.05568 23.5601 2 20 2ZM22 29H18V18H22V29ZM22 15H18V11H22V15Z" fill="white"/>
</svg>
