<!-- svg width="20" height="20" viewBox="0 0 20 20" fill="none" xmlns="http://www.w3.org/2000/svg">
<rect width="20" height="20" fill="black"/>
<path fill-rule="evenodd" clip-rule="evenodd" d="M5.55 18.5H14.45L15.5 6.5H4.5L5.55 18.5ZM14 4V3C14 2.60218 13.842 2.22064 13.5607 1.93934C13.2794 1.65804 12.8978 1.5 12.5 1.5H7.5C7.10218 1.5 6.72064 1.65804 6.43934 1.93934C6.15804 2.22064 6 2.60218 6 3V4H3V5.5H17V4H14ZM12.5 4H7.5V3.5C7.5 3.36739 7.55268 3.24021 7.64645 3.14645C7.74021 3.05268 7.86739 3 8 3H12C12.1326 3 12.2598 3.05268 12.3536 3.14645C12.4473 3.24021 12.5 3.36739 12.5 3.5V4Z" fill="white"/>
</svg -->

<svg width="40" height="40" viewBox="0 0 40 40" fill="none" xmlns="http://www.w3.org/2000/svg">
<rect width="40" height="40" fill="black"/>
<path fill-rule="evenodd" clip-rule="evenodd" d="M11.1 37H28.9L31 13H9L11.1 37ZM28 8V6C28 5.20435 27.6839 4.44129 27.1213 3.87868C26.5587 3.31607 25.7956 3 25 3H15C14.2044 3 13.4413 3.31607 12.8787 3.87868C12.3161 4.44129 12 5.20435 12 6V8H6V11H34V8H28ZM25 8H15V7C15 6.73478 15.1054 6.48043 15.2929 6.29289C15.4804 6.10536 15.7348 6 16 6H24C24.2652 6 24.5196 6.10536 24.7071 6.29289C24.8946 6.48043 25 6.73478 25 7V8Z" fill="white"/>
</svg>
