<!-- svg width="37" height="29" viewBox="0 0 37 29" fill="none" xmlns="http://www.w3.org/2000/svg">
<path d="M7.23077 14.5508H0L9.03077 23.5815L18.0615 14.5508L10.8308 14.5508C10.8308 12.4074 11.4663 10.3122 12.6571 8.53009C13.8479 6.74797 15.5404 5.35897 17.5206 4.53875C19.5008 3.71853 21.6797 3.50392 23.7819 3.92207C25.884 4.34021 27.815 5.37233 29.3306 6.8879C30.8461 8.40347 31.8782 10.3344 32.2964 12.4366C32.7145 14.5387 32.4999 16.7177 31.6797 18.6979C30.8595 20.6781 29.4705 22.3706 27.6884 23.5613C25.9062 24.7521 23.811 25.3877 21.6677 25.3877V29C24.526 29.0024 27.3208 28.1571 29.6986 26.5708C32.0764 24.9846 33.9303 22.7288 35.0258 20.0888C36.1213 17.4487 36.4092 14.5431 35.8531 11.7394C35.297 8.93572 33.9218 6.35997 31.9015 4.33797C29.8812 2.31598 27.3066 0.938602 24.5034 0.380077C21.7002 -0.178448 18.7943 0.106976 16.1534 1.20024C13.5124 2.29351 11.255 4.14549 9.66676 6.52192C8.07852 8.89835 7.23077 11.6925 7.23077 14.5508Z" fill="#AAAAAA"/>
</svg -->

<svg width="40" height="40" viewBox="0 0 40 40" fill="none" xmlns="http://www.w3.org/2000/svg">
<rect width="40" height="40" fill="white"/>
<path d="M7.23077 19.5508H0L9.03077 28.5815L18.0615 19.5508H10.8308C10.8308 17.4074 11.4663 15.3122 12.6571 13.5301C13.8479 11.748 15.5404 10.359 17.5206 9.53875C19.5008 8.71853 21.6797 8.50392 23.7819 8.92207C25.884 9.34021 27.815 10.3723 29.3306 11.8879C30.8461 13.4035 31.8782 15.3344 32.2964 17.4366C32.7145 19.5387 32.4999 21.7177 31.6797 23.6979C30.8595 25.6781 29.4705 27.3706 27.6884 28.5613C25.9062 29.7521 23.811 30.3877 21.6677 30.3877V34C24.526 34.0024 27.3208 33.1571 29.6986 31.5708C32.0764 29.9846 33.9303 27.7288 35.0258 25.0888C36.1213 22.4487 36.4092 19.5431 35.8531 16.7394C35.297 13.9357 33.9218 11.36 31.9015 9.33797C29.8812 7.31598 27.3066 5.9386 24.5034 5.38008C21.7002 4.82155 18.7943 5.10698 16.1534 6.20024C13.5124 7.29351 11.255 9.14549 9.66676 11.5219C8.07852 13.8984 7.23077 16.6925 7.23077 19.5508Z" fill="black"/>
</svg>

