<!-- svg width="20" height="20" viewBox="0 0 20 20" fill="none" xmlns="http://www.w3.org/2000/svg">
<rect width="20" height="20" fill="black"/>
<path fill-rule="evenodd" clip-rule="evenodd" d="M12.0385 12.8571H8V1H12.0385V12.8571ZM12.0385 19H8V14.7143H12.0385V19Z" fill="white"/>
</svg -->

<svg width="40" height="40" viewBox="0 0 40 40" fill="none" xmlns="http://www.w3.org/2000/svg">
<rect width="40" height="40" fill="white"/>
<path fill-rule="evenodd" clip-rule="evenodd" d="M37.7505 33.2038L21.6302 4.97299C21.4785 4.6799 21.2488 4.43406 20.9663 4.26242C20.6837 4.09079 20.3591 4 20.0281 4C19.6972 4 19.3726 4.09079 19.09 4.26242C18.8074 4.43406 18.5777 4.6799 18.4261 4.97299L2.30579 33.2038C2.11874 33.4814 2.01324 33.8056 2.00117 34.1398C1.98909 34.474 2.07093 34.8049 2.23746 35.0953C2.40399 35.3856 2.64859 35.6239 2.94371 35.7832C3.23883 35.9425 3.57274 36.0165 3.90781 35.9969H36.1485L37.0496 35.7974C37.2635 35.6831 37.4521 35.5269 37.6039 35.3382C37.7558 35.1494 37.8678 34.9321 37.9333 34.6992C37.9987 34.4663 38.0163 34.2226 37.9849 33.9828C37.9535 33.7429 37.8737 33.5119 37.7505 33.3035V33.2038ZM22.0307 32.0067H18.0256V28.0165H22.0307V32.0067ZM22.0307 25.0238H18.0256V15.0483H22.0307V25.0238Z" fill="black"/>
</svg>
