<svg width="51" height="57" viewBox="0 0 51 57" fill="none" xmlns="http://www.w3.org/2000/svg">
<path d="M20.4953 3.05066L19.8253 2.30834L19.0829 2.97838L15.5096 6.20373L14.7673 6.87378L15.4374 7.6161C27.6811 21.1806 36.9686 37.1443 42.7093 54.4922L43.0235 55.4416L43.9728 55.1274L48.5428 53.6151L49.4921 53.301L49.178 52.3516C43.1403 34.1063 33.3724 17.3169 20.4953 3.05066Z" fill="#FF0000" stroke="black" stroke-width="2"/>
<path fill-rule="evenodd" clip-rule="evenodd" d="M8.325 52.75H21.675L23.25 34.75H6.75L8.325 52.75ZM21 31V29.5C21 28.9033 20.7629 28.331 20.341 27.909C19.919 27.4871 19.3467 27.25 18.75 27.25H11.25C10.6533 27.25 10.081 27.4871 9.65901 27.909C9.23705 28.331 9 28.9033 9 29.5V31H4.5V33.25H25.5V31H21ZM18.75 31H11.25V30.25C11.25 30.0511 11.329 29.8603 11.4697 29.7197C11.6103 29.579 11.8011 29.5 12 29.5H18C18.1989 29.5 18.3897 29.579 18.5303 29.7197C18.671 29.8603 18.75 30.0511 18.75 30.25V31Z" fill="#FF0000"/>
</svg>
