<svg width="25" height="25" viewBox="0 0 25 25" fill="none" xmlns="http://www.w3.org/2000/svg">
<g clip-path="url(#clip0_12618_22035)">
<path fill-rule="evenodd" clip-rule="evenodd" d="M6.9375 23.125H18.0625L19.375 8.125H5.625L6.9375 23.125ZM17.5 5V3.75C17.5 3.25272 17.3025 2.77581 16.9508 2.42417C16.5992 2.07254 16.1223 1.875 15.625 1.875H9.375C8.87772 1.875 8.4008 2.07254 8.04917 2.42417C7.69754 2.77581 7.5 3.25272 7.5 3.75V5H3.75V6.875H21.25V5H17.5ZM15.625 5H9.375V4.375C9.375 4.20924 9.44085 4.05027 9.55806 3.93306C9.67527 3.81585 9.83424 3.75 10 3.75H15C15.1658 3.75 15.3247 3.81585 15.4419 3.93306C15.5592 4.05027 15.625 4.20924 15.625 4.375V5Z" fill="#FF0000"/>
</g>
<defs>
<clipPath id="clip0_12618_22035">
<rect width="25" height="25" fill="white"/>
</clipPath>
</defs>
</svg>
