<svg width="25" height="25" viewBox="0 0 25 25" fill="none" xmlns="http://www.w3.org/2000/svg">
<g clip-path="url(#clip0_13206_17098)">
<path fill-rule="evenodd" clip-rule="evenodd" d="M12.5 1.25C10.275 1.25 8.09989 1.9098 6.24984 3.14597C4.39979 4.38213 2.95785 6.13914 2.10636 8.19481C1.25487 10.2505 1.03209 12.5125 1.46617 14.6948C1.90025 16.8771 2.97171 18.8816 4.54505 20.4549C6.11839 22.0283 8.12295 23.0998 10.3052 23.5338C12.4875 23.9679 14.7495 23.7451 16.8052 22.8936C18.8609 22.0422 20.6179 20.6002 21.854 18.7502C23.0902 16.9001 23.75 14.725 23.75 12.5C23.75 9.51631 22.5647 6.65483 20.455 4.54505C18.3452 2.43526 15.4837 1.25 12.5 1.25ZM13.75 19.375H11.25V16.875H13.75V19.375ZM14.375 12.5C14.1936 12.5641 14.0364 12.6825 13.9246 12.839C13.8128 12.9955 13.7518 13.1826 13.75 13.375C13.75 13.5 13.75 14.25 13.75 14.375H11.25V13.125C11.2041 12.7153 11.3044 12.3026 11.533 11.9595C11.7617 11.6165 12.1042 11.3652 12.5 11.25C12.8958 11.1348 13.2383 10.8835 13.467 10.5405C13.6956 10.1974 13.7959 9.7847 13.75 9.375C13.75 8.75 13.75 8.125 12.5 8.125C11.25 8.125 11.25 8.125 11.25 9.375H8.75C8.71266 8.87298 8.78405 8.36882 8.95929 7.89691C9.13454 7.425 9.40953 6.99644 9.76549 6.64048C10.1214 6.28452 10.55 6.00954 11.0219 5.83429C11.4938 5.65904 11.998 5.58766 12.5 5.625C12.9972 5.60754 13.4926 5.69259 13.9555 5.87487C14.4183 6.05715 14.8387 6.33274 15.1905 6.6845C15.5423 7.03627 15.8179 7.45667 16.0001 7.91954C16.1824 8.38241 16.2675 8.87784 16.25 9.375C16.3036 10.0266 16.1516 10.6785 15.8152 11.2391C15.4788 11.7997 14.9751 12.2407 14.375 12.5Z" fill="black"/>
</g>
<defs>
<clipPath id="clip0_13206_17098">
<rect width="25" height="25" fill="white"/>
</clipPath>
</defs>
</svg>
