<svg width="25" height="25" viewBox="0 0 25 25" fill="none" xmlns="http://www.w3.org/2000/svg">
<g clip-path="url(#clip0_12618_22020)">
<path d="M4.51923 12.2192H0L5.64423 17.8635L11.2885 12.2192H6.76923C6.76923 10.8796 7.16646 9.57013 7.9107 8.45631C8.65493 7.34248 9.71274 6.47436 10.9504 5.96172C12.188 5.44908 13.5498 5.31495 14.8637 5.57629C16.1775 5.83764 17.3844 6.48271 18.3316 7.42994C19.2788 8.37717 19.9239 9.58402 20.1852 10.8979C20.4466 12.2117 20.3125 13.5736 19.7998 14.8112C19.2872 16.0488 18.4191 17.1066 17.3052 17.8508C16.1914 18.5951 14.8819 18.9923 13.5423 18.9923V21.25C15.3287 21.2515 17.0755 20.7232 18.5616 19.7318C20.0477 18.7404 21.2064 17.3305 21.8911 15.6805C22.5758 14.0305 22.7558 12.2144 22.4082 10.4621C22.0606 8.70983 21.2011 7.09998 19.9384 5.83624C18.6758 4.57249 17.0667 3.71163 15.3146 3.36255C13.5626 3.01347 11.7465 3.19186 10.0959 3.87515C8.44525 4.55844 7.03438 5.71593 6.04173 7.2012C5.04907 8.68647 4.51923 10.4328 4.51923 12.2192Z" fill="white"/>
</g>
<defs>
<clipPath id="clip0_12618_22020">
<rect width="25" height="25" fill="white"/>
</clipPath>
</defs>
</svg>
