<svg width="39" height="38" viewBox="0 0 39 38" fill="none" xmlns="http://www.w3.org/2000/svg">
<path fill-rule="evenodd" clip-rule="evenodd" d="M10.945 35.15H27.855L29.85 12.35H8.95001L10.945 35.15ZM27 7.59998V5.69998C27 4.94411 26.6997 4.2192 26.1653 3.68472C25.6308 3.15024 24.9059 2.84998 24.15 2.84998H14.65C13.8941 2.84998 13.1692 3.15024 12.6348 3.68472C12.1003 4.2192 11.8 4.94411 11.8 5.69998V7.59998H6.10001V10.45H32.7V7.59998H27ZM24.15 7.59998H14.65V6.64998C14.65 6.39802 14.7501 6.15638 14.9283 5.97822C15.1064 5.80006 15.3481 5.69998 15.6 5.69998H23.2C23.452 5.69998 23.6936 5.80006 23.8718 5.97822C24.0499 6.15638 24.15 6.39802 24.15 6.64998V7.59998Z" fill="white"/>
</svg>
