<!-- svg width="36" height="36" viewBox="0 0 36 36" fill="none" xmlns="http://www.w3.org/2000/svg">
<path fill-rule="evenodd" clip-rule="evenodd" d="M18 0C14.4399 0 10.9598 1.05568 7.99974 3.03355C5.03966 5.01141 2.73255 7.82263 1.37018 11.1117C0.00779903 14.4008 -0.348661 18.02 0.345873 21.5116C1.04041 25.0033 2.75474 28.2106 5.27209 30.7279C7.78943 33.2453 10.9967 34.9596 14.4884 35.6541C17.98 36.3487 21.5992 35.9922 24.8883 34.6298C28.1774 33.2675 30.9886 30.9604 32.9665 28.0003C34.9443 25.0402 36 21.5601 36 18C36 13.2261 34.1036 8.64773 30.7279 5.27208C27.3523 1.89642 22.7739 0 18 0ZM20 29H16V25H20V29ZM21 19C20.7098 19.1026 20.4582 19.2919 20.2793 19.5424C20.1005 19.7928 20.0029 20.0922 20 20.4C20 20.6 20 21.8 20 22H16V20C15.9266 19.3445 16.087 18.6841 16.4529 18.1352C16.8188 17.5864 17.3667 17.1844 18 17C18.6333 16.8156 19.1812 16.4136 19.5471 15.8648C19.913 15.3159 20.0734 14.6555 20 14C20 13 20 12 18 12C16 12 16 12 16 14H12C11.9403 13.1968 12.0545 12.3901 12.3349 11.6351C12.6153 10.88 13.0552 10.1943 13.6248 9.62477C14.1943 9.05524 14.88 8.61526 15.6351 8.33487C16.3901 8.05447 17.1968 7.94025 18 8C18.7955 7.97206 19.5882 8.10815 20.3288 8.39979C21.0693 8.69143 21.742 9.13239 22.3048 9.69521C22.8676 10.258 23.3086 10.9307 23.6002 11.6713C23.8919 12.4118 24.0279 13.2045 24 14C24.0858 15.0425 23.8425 16.0856 23.3043 16.9826C22.7661 17.8795 21.9602 18.5851 21 19Z" fill="#AAAAAA"/>
</svg -->

<svg width="40" height="40" viewBox="0 0 40 40" fill="none" xmlns="http://www.w3.org/2000/svg">
<rect width="40" height="40" fill="black"/>
<path fill-rule="evenodd" clip-rule="evenodd" d="M20 2C16.4399 2 12.9598 3.05568 9.99974 5.03355C7.03966 7.01141 4.73255 9.82263 3.37018 13.1117C2.0078 16.4008 1.65134 20.02 2.34587 23.5116C3.04041 27.0033 4.75474 30.2106 7.27209 32.7279C9.78943 35.2453 12.9967 36.9596 16.4884 37.6541C19.98 38.3487 23.5992 37.9922 26.8883 36.6298C30.1774 35.2675 32.9886 32.9604 34.9665 30.0003C36.9443 27.0402 38 23.5601 38 20C38 15.2261 36.1036 10.6477 32.7279 7.27208C29.3523 3.89642 24.7739 2 20 2ZM22 31H18V27H22V31ZM23 21C22.7098 21.1026 22.4582 21.2919 22.2793 21.5424C22.1005 21.7928 22.0029 22.0922 22 22.4C22 22.6 22 23.8 22 24H18V22C17.9266 21.3445 18.087 20.6841 18.4529 20.1352C18.8188 19.5864 19.3667 19.1844 20 19C20.6333 18.8156 21.1812 18.4136 21.5471 17.8648C21.913 17.3159 22.0734 16.6555 22 16C22 15 22 14 20 14C18 14 18 14 18 16H14C13.9403 15.1968 14.0545 14.3901 14.3349 13.6351C14.6153 12.88 15.0552 12.1943 15.6248 11.6248C16.1943 11.0552 16.88 10.6153 17.6351 10.3349C18.3901 10.0545 19.1968 9.94025 20 10C20.7955 9.97206 21.5882 10.1082 22.3288 10.3998C23.0693 10.6914 23.742 11.1324 24.3048 11.6952C24.8676 12.258 25.3086 12.9307 25.6002 13.6713C25.8919 14.4118 26.0279 15.2045 26 16C26.0858 17.0425 25.8425 18.0856 25.3043 18.9826C24.7661 19.8795 23.9602 20.5851 23 21Z" fill="white"/>
</svg>

