<svg width="38" height="37" viewBox="0 0 38 37" fill="none" xmlns="http://www.w3.org/2000/svg">
<path d="M18.8665 0.758789C26.6055 10.7648 32.7808 21.8875 37.1815 33.7469L34.4061 34.7768C30.1097 23.1982 24.0806 12.3389 16.5249 2.56989L18.8665 0.758789Z" fill="white"/>
<path fill-rule="evenodd" clip-rule="evenodd" d="M3.66001 36.6928H14.34L15.6 22.2928H2.40001L3.66001 36.6928ZM13.8 19.2928V18.0928C13.8 17.6155 13.6104 17.1576 13.2728 16.8201C12.9352 16.4825 12.4774 16.2928 12 16.2928H6.00001C5.52262 16.2928 5.06478 16.4825 4.72721 16.8201C4.38965 17.1576 4.20001 17.6155 4.20001 18.0928V19.2928H0.600006V21.0928H17.4V19.2928H13.8ZM12 19.2928H6.00001V18.6928C6.00001 18.5337 6.06322 18.3811 6.17574 18.2686C6.28826 18.1561 6.44088 18.0928 6.60001 18.0928H11.4C11.5591 18.0928 11.7117 18.1561 11.8243 18.2686C11.9368 18.3811 12 18.5337 12 18.6928V19.2928Z" fill="#FF0000"/>
</svg>
