<svg width="27" height="38" viewBox="0 0 27 38" fill="none" xmlns="http://www.w3.org/2000/svg">
<path fill-rule="evenodd" clip-rule="evenodd" d="M19.6841 36.6265L19.3262 35.6927L19.1472 35.2257C15.1581 24.8226 9.62909 15.0871 2.71375 6.28984L2.40485 5.89688L1.78662 5.1105L2.57318 4.49251L5.71814 2.02151L6.50415 1.40393L7.12201 2.18973L7.43103 2.58272C14.7192 11.8542 20.546 22.1142 24.7497 33.0778L24.9291 33.5432L25.2894 34.478L24.3539 34.8366L20.6179 36.2686L19.6841 36.6265Z" fill="green"/>
<path fill-rule="evenodd" clip-rule="evenodd" d="M20.26 35.3348L23.996 33.9028L23.816 33.4358C19.641 22.5468 13.844 12.3588 6.64502 3.20081L6.336 2.8078L3.19104 5.27881L3.5 5.6718C10.452 14.5158 16.049 24.3528 20.081 34.8678L20.26 35.3348ZM19.1083 37.9181L18.2135 35.5836C14.2604 25.2743 8.78094 15.6262 1.92761 6.90779L0.382324 4.94214L6.67242 0L8.21722 1.96458C15.5674 11.315 21.4439 21.6625 25.6835 32.7198L26.5829 35.0532L19.1083 37.9181Z" fill="green"/>
</svg>
