<svg width="28" height="38" viewBox="0 0 28 38" fill="none" xmlns="http://www.w3.org/2000/svg">
<path fill-rule="evenodd" clip-rule="evenodd" d="M1.90457 32.6325L2.53426 31.8557L2.84919 31.4672C9.86404 22.811 15.5307 13.155 19.6917 2.76747L19.8776 2.30348L20.2495 1.37489L21.178 1.74708L24.8904 3.23519L25.8182 3.60711L25.4466 4.53509L25.2608 4.9992C20.8756 15.9467 14.9036 26.1228 7.51061 35.2452L7.19729 35.6332L6.56785 36.4126L5.78957 35.7818L2.6814 33.2623L1.90457 32.6325Z" fill="white"/>
<path fill-rule="evenodd" clip-rule="evenodd" d="M3.31114 32.4855L6.41931 35.005L6.73374 34.6156C14.0764 25.5554 20.0009 15.4411 24.3325 4.62757L24.5184 4.16345L20.8059 2.67534L20.6201 3.1394C16.4369 13.582 10.7163 23.3477 3.62608 32.097L3.31114 32.4855ZM0.498093 32.7798L2.0724 30.8376C9.02402 22.2594 14.6397 12.6901 18.7635 2.39567L19.6931 0.0745848L27.1182 3.0509L26.1892 5.37103C21.7666 16.4117 15.7437 26.6746 8.28755 35.8748L6.71648 37.8205L0.498093 32.7798Z" fill="black"/>
</svg>
