<svg width="27" height="38" viewBox="0 0 27 38" fill="none" xmlns="http://www.w3.org/2000/svg">
<path fill-rule="evenodd" clip-rule="evenodd" d="M7.3158 1.3735L7.67371 2.30725L7.85273 2.77426C11.8418 13.1774 17.3708 22.9129 24.2861 31.7102L24.595 32.1031L25.2133 32.8895L24.4267 33.5075L21.2817 35.9785L20.4957 36.5961L19.8779 35.8103L19.5688 35.4173C12.2806 26.1458 6.45386 15.8858 2.25019 4.92218L2.0708 4.45682L1.71051 3.52199L2.646 3.1634L6.38202 1.7314L7.3158 1.3735Z" fill="green"/>
<path fill-rule="evenodd" clip-rule="evenodd" d="M6.73987 2.66519L3.00385 4.0972L3.18384 4.56419C7.35889 15.4532 13.1559 25.6412 20.3549 34.7992L20.6639 35.1922L23.8088 32.7212L23.4999 32.3282C16.5479 23.4842 10.9509 13.6472 6.91889 3.1322L6.73987 2.66519ZM7.89154 0.0818767L8.78638 2.41636C12.7395 12.7257 18.2189 22.3738 25.0723 31.0922L26.6176 33.0579L20.3275 38L18.7827 36.0354C11.4324 26.685 5.55597 16.3375 1.31641 5.28021L0.416996 2.94682L7.89154 0.0818767Z" fill="green"/>
</svg>
