<svg width="37" height="29" viewBox="0 0 37 29" fill="none" xmlns="http://www.w3.org/2000/svg">
<path d="M7.23077 14.5508H0L9.03077 23.5815L18.0615 14.5508L10.8308 14.5508C10.8308 12.4074 11.4663 10.3122 12.6571 8.53009C13.8479 6.74797 15.5404 5.35897 17.5206 4.53875C19.5008 3.71853 21.6797 3.50392 23.7819 3.92207C25.884 4.34021 27.815 5.37233 29.3306 6.8879C30.8461 8.40347 31.8782 10.3344 32.2964 12.4366C32.7145 14.5387 32.4999 16.7177 31.6797 18.6979C30.8595 20.6781 29.4705 22.3706 27.6884 23.5613C25.9062 24.7521 23.811 25.3877 21.6677 25.3877V29C24.526 29.0024 27.3208 28.1571 29.6986 26.5708C32.0764 24.9846 33.9303 22.7288 35.0258 20.0888C36.1213 17.4487 36.4092 14.5431 35.8531 11.7394C35.297 8.93572 33.9218 6.35997 31.9015 4.33797C29.8812 2.31598 27.3066 0.938602 24.5034 0.380077C21.7002 -0.178448 18.7943 0.106976 16.1534 1.20024C13.5124 2.29351 11.255 4.14549 9.66676 6.52192C8.07852 8.89835 7.23077 11.6925 7.23077 14.5508Z" fill="#000000"/>
</svg>
