<svg width="11" height="41" viewBox="0 0 11 41" fill="none" xmlns="http://www.w3.org/2000/svg">
<path fill-rule="evenodd" clip-rule="evenodd" d="M8.99383 2.22049L8.83692 3.20809L8.75845 3.70204C7.01152 14.706 6.93203 25.9016 8.52224 36.978L8.59328 37.4727L8.73549 38.4629L7.74531 38.6048L3.7862 39.1722L2.7967 39.3141L2.65452 38.3246L2.58339 37.8298C0.90735 26.1564 0.991215 14.3575 2.83255 2.76092L2.90988 2.26821L3.06527 1.27848L4.05472 1.43569L8.00621 2.06354L8.99383 2.22049Z" fill="green"/>
<path fill-rule="evenodd" clip-rule="evenodd" d="M7.84919 3.05114L3.8977 2.42328L3.82008 2.9177C1.99127 14.4354 1.91761 26.157 3.57311 37.6875L3.64423 38.1824L7.60335 37.6149L7.53228 37.1201C5.93365 25.9849 6.00502 14.6673 7.77072 3.54509L7.84919 3.05114ZM10.1382 1.38976L9.74593 3.8589C8.01475 14.7636 7.93606 25.8588 9.512 36.8359L9.86743 39.3108L1.94898 40.4458L1.59343 37.972C-0.0968333 26.1992 -0.0122553 14.2998 1.84483 2.60408L2.23261 0.133597L10.1382 1.38976Z" fill="green"/>
</svg>
