<svg width="33" height="32" viewBox="0 0 33 32" fill="none" xmlns="http://www.w3.org/2000/svg">
<path fill-rule="evenodd" clip-rule="evenodd" d="M12.3228 0C5.51711 0 0 5.51711 0 12.3228C0 19.1285 5.51711 24.6456 12.3228 24.6456C15.1542 24.6456 17.7626 23.6906 19.8435 22.0852L29.6408 31.6216L32.082 29.1136L22.2849 19.5774C23.7695 17.5422 24.6456 15.0348 24.6456 12.3228C24.6456 5.51711 19.1285 0 12.3228 0ZM3.5 12.3228C3.5 7.4501 7.4501 3.5 12.3228 3.5C17.1955 3.5 21.1456 7.4501 21.1456 12.3228C21.1456 17.1955 17.1955 21.1456 12.3228 21.1456C7.4501 21.1456 3.5 17.1955 3.5 12.3228Z" fill="#000000"/>
</svg>
