<svg width="28" height="38" viewBox="0 0 28 38" fill="none" xmlns="http://www.w3.org/2000/svg">
<path fill-rule="evenodd" clip-rule="evenodd" d="M26.0953 5.36746L25.4656 6.14429L25.1507 6.53283C18.1358 15.189 12.4692 24.845 8.30817 35.2325L8.1223 35.6965L7.75039 36.6251L6.82191 36.2529L3.10949 34.7648L2.18164 34.3929L2.55323 33.4649L2.73906 33.0008C7.12427 22.0533 13.0963 11.8772 20.4893 2.75485L20.8026 2.36682L21.432 1.58738L22.2103 2.21824L25.3185 4.73773L26.0953 5.36746Z" fill="white"/>
<path fill-rule="evenodd" clip-rule="evenodd" d="M24.6886 5.5145L21.5804 2.99502L21.266 3.38439C13.9234 12.4446 7.99881 22.5589 3.66724 33.3724L3.4814 33.8366L7.19384 35.3247L7.3797 34.8606C11.5628 24.418 17.2834 14.6523 24.3737 5.90304L24.6886 5.5145ZM27.5017 5.22023L25.9274 7.16242C18.9757 15.7406 13.36 25.3099 9.23629 35.6043L8.30663 37.9254L0.881562 34.9491L1.81054 32.629C6.23313 21.5883 12.2561 11.3254 19.7122 2.12516L21.2833 0.179548L27.5017 5.22023Z" fill="black"/>
</svg>
