<svg width="36" height="32" viewBox="0 0 36 32" fill="none" xmlns="http://www.w3.org/2000/svg">
<path fill-rule="evenodd" clip-rule="evenodd" d="M35.7505 29.2038L19.6302 0.972993C19.4785 0.679898 19.2488 0.434056 18.9663 0.262425C18.6837 0.0907933 18.3591 0 18.0281 0C17.6972 0 17.3726 0.0907933 17.09 0.262425C16.8074 0.434056 16.5777 0.679898 16.4261 0.972993L0.305791 29.2038C0.118743 29.4814 0.0132389 29.8056 0.00116641 30.1398C-0.010906 30.474 0.0709327 30.8049 0.237462 31.0953C0.403992 31.3856 0.648594 31.6239 0.943713 31.7832C1.23883 31.9425 1.57274 32.0165 1.90781 31.9969H34.1485L35.0496 31.7974C35.2635 31.6831 35.4521 31.5269 35.6039 31.3382C35.7558 31.1494 35.8678 30.9321 35.9333 30.6992C35.9987 30.4663 36.0163 30.2226 35.9849 29.9828C35.9535 29.7429 35.8737 29.5119 35.7505 29.3035V29.2038ZM20.0307 28.0067H16.0256V24.0165H20.0307V28.0067ZM20.0307 21.0238H16.0256V11.0483H20.0307V21.0238Z" fill="#AAAAAA"/>
</svg>
