<svg width="36" height="36" viewBox="0 0 36 36" fill="none" xmlns="http://www.w3.org/2000/svg">
<path fill-rule="evenodd" clip-rule="evenodd" d="M18 0C14.4399 0 10.9598 1.05568 7.99974 3.03355C5.03966 5.01141 2.73255 7.82263 1.37018 11.1117C0.00779903 14.4008 -0.348661 18.02 0.345873 21.5116C1.04041 25.0033 2.75474 28.2106 5.27209 30.7279C7.78943 33.2453 10.9967 34.9596 14.4884 35.6541C17.98 36.3487 21.5992 35.9922 24.8883 34.6298C28.1774 33.2675 30.9886 30.9604 32.9665 28.0003C34.9443 25.0402 36 21.5601 36 18C36 13.2261 34.1036 8.64773 30.7279 5.27208C27.3523 1.89642 22.7739 0 18 0ZM20 29H16V25H20V29ZM21 19C20.7098 19.1026 20.4582 19.2919 20.2793 19.5424C20.1005 19.7928 20.0029 20.0922 20 20.4C20 20.6 20 21.8 20 22H16V20C15.9266 19.3445 16.087 18.6841 16.4529 18.1352C16.8188 17.5864 17.3667 17.1844 18 17C18.6333 16.8156 19.1812 16.4136 19.5471 15.8648C19.913 15.3159 20.0734 14.6555 20 14C20 13 20 12 18 12C16 12 16 12 16 14H12C11.9403 13.1968 12.0545 12.3901 12.3349 11.6351C12.6153 10.88 13.0552 10.1943 13.6248 9.62477C14.1943 9.05524 14.88 8.61526 15.6351 8.33487C16.3901 8.05447 17.1968 7.94025 18 8C18.7955 7.97206 19.5882 8.10815 20.3288 8.39979C21.0693 8.69143 21.742 9.13239 22.3048 9.69521C22.8676 10.258 23.3086 10.9307 23.6002 11.6713C23.8919 12.4118 24.0279 13.2045 24 14C24.0858 15.0425 23.8425 16.0856 23.3043 16.9826C22.7661 17.8795 21.9602 18.5851 21 19Z" fill="#000000"/>
</svg>
