<svg width="79" height="81" viewBox="0 0 79 81" fill="none" xmlns="http://www.w3.org/2000/svg">
<g clip-path="url(#clip0_12668_34790)">
<path d="M42.5655 78.6898C23.603 57.6818 9.21907 32.9581 0.328125 6.09058L19.6953 -0.318359C27.6971 23.8624 40.6427 46.1137 57.7089 65.0209L42.5655 78.6898Z" fill="url(#paint0_radial_12668_34790)"/>
<g filter="url(#filter0_d_12668_34790)">
<path d="M42.5655 78.689C23.603 57.681 9.21907 32.9573 0.328125 6.08981L7.10662 3.84668C15.6864 29.7738 29.5669 53.6322 47.8656 73.9049L42.5655 78.689Z" fill="white"/>
</g>
<g filter="url(#filter1_d_12668_34790)">
<path d="M41.7278 33.1821L33.546 25.0003L41.7278 16.8185L41.7278 22.273L64.4551 22.273L64.4551 27.7276L41.7278 27.7276L41.7278 33.1821Z" fill="white"/>
</g>
</g>
<defs>
<filter id="filter0_d_12668_34790" x="-1.67188" y="3.84668" width="51.5371" height="78.8423" filterUnits="userSpaceOnUse" color-interpolation-filters="sRGB">
<feFlood flood-opacity="0" result="BackgroundImageFix"/>
<feColorMatrix in="SourceAlpha" type="matrix" values="0 0 0 0 0 0 0 0 0 0 0 0 0 0 0 0 0 0 127 0" result="hardAlpha"/>
<feOffset dy="2"/>
<feGaussianBlur stdDeviation="1"/>
<feColorMatrix type="matrix" values="0 0 0 0 0 0 0 0 0 0 0 0 0 0 0 0 0 0 1 0"/>
<feBlend mode="normal" in2="BackgroundImageFix" result="effect1_dropShadow_12668_34790"/>
<feBlend mode="normal" in="SourceGraphic" in2="effect1_dropShadow_12668_34790" result="shape"/>
</filter>
<filter id="filter1_d_12668_34790" x="30.5469" y="13.8184" width="36.9082" height="22.3638" filterUnits="userSpaceOnUse" color-interpolation-filters="sRGB">
<feFlood flood-opacity="0" result="BackgroundImageFix"/>
<feColorMatrix in="SourceAlpha" type="matrix" values="0 0 0 0 0 0 0 0 0 0 0 0 0 0 0 0 0 0 127 0" result="hardAlpha"/>
<feOffset/>
<feGaussianBlur stdDeviation="1.5"/>
<feColorMatrix type="matrix" values="0 0 0 0 0 0 0 0 0 0 0 0 0 0 0 0 0 0 1 0"/>
<feBlend mode="normal" in2="BackgroundImageFix" result="effect1_dropShadow_12668_34790"/>
<feBlend mode="normal" in="SourceGraphic" in2="effect1_dropShadow_12668_34790" result="shape"/>
</filter>
<radialGradient id="paint0_radial_12668_34790" cx="0" cy="0" r="1" gradientUnits="userSpaceOnUse" gradientTransform="translate(193.999 -57.9993) rotate(150) scale(204 204)">
<stop offset="0.900635" stop-color="white" stop-opacity="0"/>
<stop offset="1" stop-color="white" stop-opacity="0.4"/>
</radialGradient>
<clipPath id="clip0_12668_34790">
<rect width="79" height="81" fill="white"/>
</clipPath>
</defs>
</svg>
