<svg width="79" height="81" viewBox="0 0 79 81" fill="none" xmlns="http://www.w3.org/2000/svg">
<g clip-path="url(#clip0_12668_34776)">
<path d="M36.4344 0.310547C55.3969 21.3186 69.7808 46.0423 78.6717 72.9098L59.3046 79.3187C51.3028 55.138 38.3572 32.8866 21.291 13.9794L36.4344 0.310547Z" fill="url(#paint0_radial_12668_34776)"/>
<g filter="url(#filter0_d_12668_34776)">
<path d="M36.435 0.310547C55.3974 21.3186 69.7813 46.0423 78.6723 72.9098L71.8938 75.1529C63.314 49.2258 49.4335 25.3674 31.1348 5.09465L36.435 0.310547Z" fill="#6EC64F"/>
</g>
<g clip-path="url(#clip1_12668_34776)">
<g filter="url(#filter1_d_12668_34776)">
<path fill-rule="evenodd" clip-rule="evenodd" d="M43.7266 40.2729L25.4538 58.494L16.0902 49.9786L12.7266 53.8243L25.7266 65.7275L25.8175 65.6359L47.272 43.6608L43.7266 40.2729Z" fill="#6EC64F"/>
</g>
</g>
</g>
<defs>
<filter id="filter0_d_12668_34776" x="29.1348" y="0.310547" width="51.5371" height="78.8423" filterUnits="userSpaceOnUse" color-interpolation-filters="sRGB">
<feFlood flood-opacity="0" result="BackgroundImageFix"/>
<feColorMatrix in="SourceAlpha" type="matrix" values="0 0 0 0 0 0 0 0 0 0 0 0 0 0 0 0 0 0 127 0" result="hardAlpha"/>
<feOffset dy="2"/>
<feGaussianBlur stdDeviation="1"/>
<feColorMatrix type="matrix" values="0 0 0 0 0 0 0 0 0 0 0 0 0 0 0 0 0 0 1 0"/>
<feBlend mode="normal" in2="BackgroundImageFix" result="effect1_dropShadow_12668_34776"/>
<feBlend mode="normal" in="SourceGraphic" in2="effect1_dropShadow_12668_34776" result="shape"/>
</filter>
<filter id="filter1_d_12668_34776" x="9.72656" y="37.2729" width="40.5449" height="31.4546" filterUnits="userSpaceOnUse" color-interpolation-filters="sRGB">
<feFlood flood-opacity="0" result="BackgroundImageFix"/>
<feColorMatrix in="SourceAlpha" type="matrix" values="0 0 0 0 0 0 0 0 0 0 0 0 0 0 0 0 0 0 127 0" result="hardAlpha"/>
<feOffset/>
<feGaussianBlur stdDeviation="1.5"/>
<feColorMatrix type="matrix" values="0 0 0 0 0 0 0 0 0 0 0 0 0 0 0 0 0 0 1 0"/>
<feBlend mode="normal" in2="BackgroundImageFix" result="effect1_dropShadow_12668_34776"/>
<feBlend mode="normal" in="SourceGraphic" in2="effect1_dropShadow_12668_34776" result="shape"/>
</filter>
<radialGradient id="paint0_radial_12668_34776" cx="0" cy="0" r="1" gradientUnits="userSpaceOnUse" gradientTransform="translate(-114.999 136.999) rotate(-30) scale(204 204)">
<stop offset="0.900635" stop-color="#6EC64F" stop-opacity="0"/>
<stop offset="1" stop-color="#6EC64F" stop-opacity="0.4"/>
</radialGradient>
<clipPath id="clip0_12668_34776">
<rect width="79" height="81" fill="white"/>
</clipPath>
<clipPath id="clip1_12668_34776">
<rect width="40" height="40" fill="white" transform="translate(10 33)"/>
</clipPath>
</defs>
</svg>
