<svg width="40" height="40" viewBox="0 0 40 40" fill="none" xmlns="http://www.w3.org/2000/svg">
<g filter="url(#filter0_d_12618_22013)">
<path d="M20.0008 35.2998C23.0268 35.2998 25.9849 34.4025 28.501 32.7213C31.0171 31.0401 32.9781 28.6506 34.1361 25.8549C35.2942 23.0592 35.5971 19.9828 35.0068 17.0149C34.4164 14.047 32.9593 11.3208 30.8195 9.18107C28.6798 7.04133 25.9536 5.58414 22.9857 4.99379C20.0177 4.40343 16.9414 4.70643 14.1457 5.86445C11.35 7.02247 8.96048 8.98351 7.27929 11.4996C5.5981 14.0157 4.70078 16.9738 4.70078 19.9998C4.70078 24.0576 6.31273 27.9492 9.18204 30.8185C12.0513 33.6878 15.943 35.2998 20.0008 35.2998V35.2998ZM21.5578 28.9998H18.4978L18.4978 16.7184L21.5578 16.7184V28.9998ZM19.981 10.9836C20.2814 10.9928 20.5725 11.0903 20.8179 11.2639C21.0632 11.4375 21.252 11.6795 21.3607 11.9598C21.4694 12.2401 21.4931 12.5461 21.4289 12.8398C21.3646 13.1334 21.2154 13.4016 20.9996 13.6109C20.7839 13.8203 20.5113 13.9614 20.2159 14.0167C19.9204 14.0721 19.6152 14.0392 19.3384 13.9221C19.0615 13.8051 18.8253 13.6091 18.6591 13.3586C18.493 13.1081 18.4043 12.8142 18.4042 12.5136C18.4103 12.1019 18.5797 11.7095 18.875 11.4226C19.1703 11.1357 19.5675 10.9778 19.9792 10.9836H19.981Z" fill="white"/>
</g>
<defs>
<filter id="filter0_d_12618_22013" x="1.70117" y="1.69971" width="36.5996" height="36.6001" filterUnits="userSpaceOnUse" color-interpolation-filters="sRGB">
<feFlood flood-opacity="0" result="BackgroundImageFix"/>
<feColorMatrix in="SourceAlpha" type="matrix" values="0 0 0 0 0 0 0 0 0 0 0 0 0 0 0 0 0 0 127 0" result="hardAlpha"/>
<feOffset/>
<feGaussianBlur stdDeviation="1.5"/>
<feColorMatrix type="matrix" values="0 0 0 0 0 0 0 0 0 0 0 0 0 0 0 0 0 0 1 0"/>
<feBlend mode="normal" in2="BackgroundImageFix" result="effect1_dropShadow_12618_22013"/>
<feBlend mode="normal" in="SourceGraphic" in2="effect1_dropShadow_12618_22013" result="shape"/>
</filter>
</defs>
</svg>
