<svg width="40" height="40" viewBox="0 0 40 40" fill="none" xmlns="http://www.w3.org/2000/svg">
<g clip-path="url(#clip0_12618_22028)">
<g filter="url(#filter0_d_12618_22028)">
<path fill-rule="evenodd" clip-rule="evenodd" d="M20.0008 3.7998C16.7967 3.7998 13.6646 4.74992 11.0006 6.53C8.33647 8.31008 6.26008 10.8402 5.03394 13.8003C3.8078 16.7605 3.48699 20.0178 4.11207 23.1603C4.73715 26.3028 6.28005 29.1893 8.54566 31.4549C10.8113 33.7205 13.6978 35.2635 16.8403 35.8885C19.9828 36.5136 23.2401 36.1928 26.2003 34.9667C29.1604 33.7405 31.6905 31.6641 33.4706 29C35.2507 26.336 36.2008 23.2039 36.2008 19.9998C36.2008 15.7033 34.494 11.5828 31.4559 8.54468C28.4178 5.50659 24.2973 3.7998 20.0008 3.7998ZM21.8008 29.8998H18.2008V26.2998H21.8008V29.8998ZM22.7008 19.9998C22.4396 20.0921 22.2132 20.2625 22.0522 20.4879C21.8912 20.7134 21.8034 20.9828 21.8008 21.2598C21.8008 21.4398 21.8008 22.5198 21.8008 22.6998H18.2008V20.8998C18.1347 20.3098 18.2791 19.7155 18.6084 19.2215C18.9377 18.7276 19.4308 18.3657 20.0008 18.1998C20.5708 18.0339 21.0639 17.672 21.3932 17.1781C21.7225 16.6841 21.8669 16.0898 21.8008 15.4998C21.8008 14.5998 21.8008 13.6998 20.0008 13.6998C18.2008 13.6998 18.2008 13.6998 18.2008 15.4998H14.6008C14.547 14.7769 14.6498 14.0509 14.9022 13.3714C15.1545 12.6918 15.5505 12.0747 16.0631 11.5621C16.5757 11.0495 17.1928 10.6535 17.8723 10.4012C18.5519 10.1488 19.2779 10.046 20.0008 10.0998C20.7167 10.0747 21.4301 10.1971 22.0967 10.4596C22.7632 10.7221 23.3686 11.119 23.8751 11.6255C24.3816 12.132 24.7785 12.7374 25.041 13.4039C25.3035 14.0705 25.4259 14.7839 25.4008 15.4998C25.478 16.438 25.259 17.3769 24.7747 18.1841C24.2903 18.9914 23.565 19.6264 22.7008 19.9998Z" fill="white"/>
</g>
</g>
<defs>
<filter id="filter0_d_12618_22028" x="0.800781" y="0.799805" width="38.4004" height="38.3999" filterUnits="userSpaceOnUse" color-interpolation-filters="sRGB">
<feFlood flood-opacity="0" result="BackgroundImageFix"/>
<feColorMatrix in="SourceAlpha" type="matrix" values="0 0 0 0 0 0 0 0 0 0 0 0 0 0 0 0 0 0 127 0" result="hardAlpha"/>
<feOffset/>
<feGaussianBlur stdDeviation="1.5"/>
<feColorMatrix type="matrix" values="0 0 0 0 0 0 0 0 0 0 0 0 0 0 0 0 0 0 1 0"/>
<feBlend mode="normal" in2="BackgroundImageFix" result="effect1_dropShadow_12618_22028"/>
<feBlend mode="normal" in="SourceGraphic" in2="effect1_dropShadow_12618_22028" result="shape"/>
</filter>
<clipPath id="clip0_12618_22028">
<rect width="40" height="40" fill="white"/>
</clipPath>
</defs>
</svg>
