<svg width="32" height="28" viewBox="0 0 32 28" fill="none" xmlns="http://www.w3.org/2000/svg">
<g clip-path="url(#clip0_2190_1535)">
<path d="M31.5383 26.3827C27.9857 17.0276 23.0381 8.26388 16.8633 0.38916L15.3008 1.61439C21.3519 9.33148 26.2005 17.9198 29.682 27.0876L31.5383 26.3827Z" fill="#FF0000"/>
<path fill-rule="evenodd" clip-rule="evenodd" d="M7.4399 27.8H14.5599L15.3999 18.2H6.5999L7.4399 27.8ZM14.1999 16.2V15.4C14.1999 15.0817 14.0735 14.7765 13.8484 14.5514C13.6234 14.3264 13.3182 14.2 12.9999 14.2H8.9999C8.68164 14.2 8.37642 14.3264 8.15137 14.5514C7.92633 14.7765 7.7999 15.0817 7.7999 15.4V16.2H5.3999V17.4H16.5999V16.2H14.1999ZM12.9999 16.2H8.9999V15.8C8.9999 15.6939 9.04205 15.5921 9.11706 15.5171C9.19207 15.4421 9.29382 15.4 9.3999 15.4H12.5999C12.706 15.4 12.8077 15.4421 12.8827 15.5171C12.9578 15.5921 12.9999 15.6939 12.9999 15.8V16.2Z" fill="#FF0000"/>
</g>
<defs>
<clipPath id="clip0_2190_1535">
<rect width="32" height="28" fill="white"/>
</clipPath>
</defs>
</svg>
