<svg width="23" height="31" viewBox="0 0 23 31" fill="none" xmlns="http://www.w3.org/2000/svg">
<path fill-rule="evenodd" clip-rule="evenodd" d="M20.7762 4.29408L20.2724 4.91555L20.0205 5.22638C14.4086 12.1513 9.87531 19.8761 6.54649 28.1861L6.39779 28.5573L6.10026 29.3002L5.35748 29.0024L2.38754 27.812L1.64526 27.5144L1.94254 26.772L2.0912 26.4008C5.59937 17.6428 10.377 9.50188 16.2914 2.204L16.542 1.89357L17.0456 1.27002L17.6682 1.77471L20.1548 3.7903L20.7762 4.29408Z" fill="red"/>
<path fill-rule="evenodd" clip-rule="evenodd" d="M19.6506 4.41152L17.1641 2.39593L16.9125 2.70743C11.0385 9.9556 6.29878 18.047 2.83352 26.6978L2.68485 27.0692L5.6548 28.2597L5.80349 27.8884C9.14997 19.5343 13.7265 11.7218 19.3987 4.72235L19.6506 4.41152ZM21.9011 4.1761L20.6417 5.72985C15.0803 12.5924 10.5877 20.2478 7.28876 28.4834L6.54503 30.3402L0.60498 27.9592L1.34816 26.1031C4.88623 17.2706 9.70461 9.06024 15.6695 1.70004L16.9264 0.143555L21.9011 4.1761Z" fill="red"/>
</svg>
