<svg width="28" height="28" viewBox="0 0 28 28" fill="none" xmlns="http://www.w3.org/2000/svg">
<g clip-path="url(#clip0_1945_1553)">
<path fill-rule="evenodd" clip-rule="evenodd" d="M14 0C11.231 0 8.52429 0.821085 6.22202 2.35943C3.91974 3.89776 2.12532 6.08427 1.0657 8.64243C0.00606591 11.2006 -0.271181 14.0156 0.269012 16.7312C0.809208 19.447 2.14258 21.9416 4.10051 23.8995C6.05845 25.8575 8.55299 27.1908 11.2688 27.731C13.9844 28.2712 16.7994 27.9939 19.3576 26.9343C21.9158 25.8747 24.1022 24.0803 25.6406 21.778C27.1789 19.4757 28 16.769 28 14C28 10.287 26.525 6.72601 23.8995 4.10051C21.274 1.47499 17.713 0 14 0ZM15.5556 22.5556H12.4444V19.4444H15.5556V22.5556ZM16.3333 14.7778C16.1076 14.8576 15.9119 15.0048 15.7728 15.1996C15.6337 15.3944 15.5578 15.6273 15.5556 15.8667C15.5556 16.0222 15.5556 16.9556 15.5556 17.1111H12.4444V15.5556C12.3874 15.0457 12.5121 14.5321 12.7967 14.1052C13.0813 13.6783 13.5074 13.3656 14 13.2222C14.4926 13.0788 14.9187 12.7661 15.2033 12.3393C15.4879 11.9124 15.6126 11.3987 15.5556 10.8889C15.5556 10.1111 15.5556 9.33333 14 9.33333C12.4444 9.33333 12.4444 9.33333 12.4444 10.8889H9.33333C9.2869 10.2642 9.37572 9.63675 9.59381 9.04952C9.8119 8.46222 10.154 7.9289 10.5971 7.48593C11.04 7.04297 11.5733 6.70076 12.1606 6.48268C12.7479 6.26459 13.3753 6.17575 14 6.22222C14.6187 6.20049 15.2353 6.30634 15.8113 6.53317C16.3872 6.76 16.9104 7.10297 17.3482 7.54072C17.7859 7.97845 18.1289 8.50166 18.3557 9.07768C18.5826 9.65362 18.6884 10.2702 18.6667 10.8889C18.7334 11.6997 18.5442 12.511 18.1256 13.2087C17.707 13.9063 17.0802 14.4551 16.3333 14.7778Z" fill="#AAAAAA"/>
</g>
<defs>
<clipPath id="clip0_1945_1553">
<rect width="28" height="28" fill="white"/>
</clipPath>
</defs>
</svg>
