<svg width="27" height="27" viewBox="0 0 27 27" fill="none" xmlns="http://www.w3.org/2000/svg">
<g clip-path="url(#clip0_1945_1538)">
<path fill-rule="evenodd" clip-rule="evenodd" d="M6.3798 27.1H20.6198L22.2998 7.90002H4.6998L6.3798 27.1ZM19.8998 3.90002V2.30002C19.8998 1.6635 19.6469 1.05306 19.1968 0.602968C18.7468 0.152881 18.1363 -0.0999756 17.4998 -0.0999756H9.4998C8.86328 -0.0999756 8.25284 0.152881 7.80275 0.602968C7.35266 1.05306 7.0998 1.6635 7.0998 2.30002V3.90002H2.2998V6.30002H24.6998V3.90002H19.8998ZM17.4998 3.90002H9.4998V3.10002C9.4998 2.88785 9.58409 2.68437 9.73412 2.53434C9.88415 2.38431 10.0876 2.30002 10.2998 2.30002H16.6998C16.912 2.30002 17.1155 2.38431 17.2655 2.53434C17.4155 2.68437 17.4998 2.88785 17.4998 3.10002V3.90002Z" fill="#FF0000"/>
</g>
<defs>
<clipPath id="clip0_1945_1538">
<rect width="27" height="27" fill="white"/>
</clipPath>
</defs>
</svg>
