<svg width="30" height="30" viewBox="0 0 30 30" fill="none" xmlns="http://www.w3.org/2000/svg">
<path d="M6.33296 15H0.54834L7.77296 22.2245L14.9975 15H9.21298C9.21298 13.2852 9.72138 11.6091 10.674 10.1834C11.6267 8.7577 12.9807 7.6465 14.5648 6.99033C16.149 6.33415 17.8921 6.16246 19.5739 6.49698C21.2555 6.83149 22.8003 7.65719 24.0128 8.86965C25.2252 10.0821 26.0509 11.6268 26.3855 13.3086C26.7199 14.9903 26.5483 16.7335 25.8921 18.3176C25.2359 19.9018 24.1247 21.2558 22.6991 22.2084C21.2733 23.161 19.5971 23.6695 17.8825 23.6695V26.5593C20.1691 26.5612 22.405 25.885 24.3072 24.616C26.2095 23.347 27.6926 21.5424 28.569 19.4304C29.4454 17.3183 29.6757 14.9938 29.2308 12.7508C28.7859 10.5079 27.6858 8.4473 26.0695 6.8297C24.4533 5.21211 22.3936 4.11021 20.1511 3.66339C17.9085 3.21657 15.5838 3.44491 13.4711 4.31952C11.3583 5.19413 9.55234 6.67572 8.28175 8.57686C7.01116 10.478 6.33296 12.7133 6.33296 15Z" fill="#AAAAAA"/>
</svg>
