<svg width="29" height="29" viewBox="0 0 29 29" fill="none" xmlns="http://www.w3.org/2000/svg">
<path fill-rule="evenodd" clip-rule="evenodd" d="M28.7005 25.063L15.8043 2.47835C15.6829 2.24387 15.4991 2.0472 15.2731 1.90989C15.0471 1.77259 14.7874 1.69995 14.5226 1.69995C14.2579 1.69995 13.9982 1.77259 13.7721 1.90989C13.546 2.0472 13.3623 2.24387 13.241 2.47835L0.34473 25.063C0.195092 25.2851 0.110689 25.5444 0.101031 25.8118C0.0913729 26.0792 0.156844 26.3439 0.290067 26.5762C0.423291 26.8084 0.618973 26.9991 0.855068 27.1265C1.09116 27.254 1.35829 27.3132 1.62635 27.2975H27.4189L28.1398 27.1379C28.3109 27.0464 28.4618 26.9215 28.5832 26.7705C28.7047 26.6195 28.7943 26.4456 28.8467 26.2593C28.8991 26.073 28.9131 25.878 28.888 25.6862C28.8629 25.4943 28.7991 25.3095 28.7005 25.1428V25.063ZM16.1247 24.1053H12.9206V20.9132H16.1247V24.1053ZM16.1247 18.519H12.9206V10.5386H16.1247V18.519Z" fill="#FF0000"/>
</svg>
