<svg width="23" height="31" viewBox="0 0 23 31" fill="none" xmlns="http://www.w3.org/2000/svg">
<path fill-rule="evenodd" clip-rule="evenodd" d="M2.42358 26.1059L2.92734 25.4845L3.17928 25.1737C8.79116 18.2487 13.3245 10.5239 16.6533 2.21392L16.802 1.84273L17.0995 1.09985L17.8423 1.39761L20.8122 2.58809L21.5545 2.88563L21.2572 3.62801L21.1086 3.9993C17.6004 12.7573 12.8228 20.8982 6.90842 28.1961L6.65776 28.5065L6.15421 29.13L5.53158 28.6254L3.04505 26.6098L2.42358 26.1059Z" fill="green"/>
<path fill-rule="evenodd" clip-rule="evenodd" d="M3.54878 25.9883L6.03531 28.0039L6.28686 27.6924C12.161 20.4442 16.9006 12.3528 20.3659 3.70196L20.5146 3.33066L17.5446 2.14017L17.3959 2.51142C14.0494 10.8655 9.4729 18.6781 3.80073 25.6775L3.54878 25.9883ZM1.29834 26.2237L2.55779 24.67C8.11908 17.8074 12.6116 10.152 15.9107 1.91644L16.6543 0.0595703L22.5944 2.44062L21.8512 4.29673C18.3131 13.1293 13.4948 21.3396 7.5299 28.6997L6.27305 30.2563L1.29834 26.2237Z" fill="green"/>
</svg>
