<svg width="9" height="33" viewBox="0 0 9 33" fill="none" xmlns="http://www.w3.org/2000/svg">
<path fill-rule="evenodd" clip-rule="evenodd" d="M7.89486 1.77631L7.76933 2.56639L7.70655 2.96155C6.30901 11.7647 6.24542 20.7212 7.51759 29.5823L7.57442 29.9781L7.68819 30.7702L6.89604 30.8838L3.72876 31.3377L2.93716 31.4512L2.82341 30.6596L2.76651 30.2638C1.42568 20.925 1.49277 11.4859 2.96584 2.20866L3.0277 1.81449L3.15201 1.02271L3.94357 1.14847L7.10476 1.65075L7.89486 1.77631Z" fill="red"/>
<path fill-rule="evenodd" clip-rule="evenodd" d="M6.97943 2.44097L3.81824 1.93868L3.75614 2.33422C2.29309 11.5484 2.23416 20.9257 3.55856 30.1501L3.61546 30.546L6.78276 30.092L6.7259 29.6961C5.447 20.788 5.50409 11.7339 6.91665 2.83613L6.97943 2.44097ZM8.81064 1.11186L8.49682 3.08718C7.11188 11.8109 7.04892 20.6871 8.30968 29.4688L8.59402 31.4487L2.25926 32.3567L1.97482 30.3777C0.62261 20.9594 0.690272 11.4399 2.17594 2.08332L2.48616 0.106934L8.81064 1.11186Z" fill="red"/>
</svg>
