<svg width="27" height="27" viewBox="0 0 27 27" fill="none" xmlns="http://www.w3.org/2000/svg">
<g clip-path="url(#clip0_1945_1560)">
<path fill-rule="evenodd" clip-rule="evenodd" d="M10.5255 0.851318C5.08092 0.851318 0.667236 5.26501 0.667236 10.7096C0.667236 16.1541 5.08092 20.5678 10.5255 20.5678C12.7906 20.5678 14.8773 19.8038 16.542 18.5195L24.3799 26.1486L26.3328 24.1422L18.4952 16.5132C19.6828 14.8851 20.3837 12.8792 20.3837 10.7096C20.3837 5.26501 15.97 0.851318 10.5255 0.851318ZM3.46724 10.7096C3.46724 6.8114 6.62732 3.65132 10.5255 3.65132C14.4236 3.65132 17.5837 6.8114 17.5837 10.7096C17.5837 14.6077 14.4236 17.7678 10.5255 17.7678C6.62732 17.7678 3.46724 14.6077 3.46724 10.7096Z" fill="#AAAAAA"/>
</g>
<defs>
<clipPath id="clip0_1945_1560">
<rect width="27" height="27" fill="white"/>
</clipPath>
</defs>
</svg>
