<svg width="50" height="50" viewBox="0 0 50 50" fill="none" xmlns="http://www.w3.org/2000/svg">
<path fill-rule="evenodd" clip-rule="evenodd" d="M20.4035 5C11.8964 5 5 11.8964 5 20.4035C5 28.9106 11.8964 35.807 20.4035 35.807C23.9428 35.807 27.2033 34.6133 29.8044 32.6066L42.051 44.527L45.1026 41.392L32.8562 29.4717C34.7119 26.9277 35.807 23.7935 35.807 20.4035C35.807 11.8964 28.9106 5 20.4035 5ZM9.375 20.4035C9.375 14.3126 14.3126 9.375 20.4035 9.375C26.4944 9.375 31.432 14.3126 31.432 20.4035C31.432 26.4944 26.4944 31.432 20.4035 31.432C14.3126 31.432 9.375 26.4944 9.375 20.4035Z" fill="#AAAAAA"/>
</svg>
