<svg width="50" height="50" viewBox="0 0 50 50" fill="none" xmlns="http://www.w3.org/2000/svg">
<path fill-rule="evenodd" clip-rule="evenodd" d="M47.1881 41.5047L27.0377 6.21624C26.8482 5.84987 26.5611 5.54257 26.2078 5.32803C25.8546 5.11349 25.4489 5 25.0352 5C24.6215 5 24.2158 5.11349 23.8625 5.32803C23.5093 5.54257 23.2222 5.84987 23.0327 6.21624L2.88224 41.5047C2.64843 41.8518 2.51655 42.257 2.50146 42.6748C2.48637 43.0925 2.58867 43.5061 2.79683 43.8691C3.00499 44.232 3.31074 44.5298 3.67964 44.729C4.04854 44.9281 4.46592 45.0206 4.88477 44.9961H45.1856L46.312 44.7468C46.5794 44.6039 46.8151 44.4086 47.0049 44.1727C47.1947 43.9368 47.3347 43.6651 47.4166 43.374C47.4984 43.0829 47.5203 42.7783 47.4811 42.4785C47.4418 42.1787 47.3422 41.8899 47.1881 41.6294V41.5047ZM27.5383 40.0084H22.532V35.0206H27.5383V40.0084ZM27.5383 31.2798H22.532V18.8104H27.5383V31.2798Z" fill="#FF0000"/>
</svg>
