<svg width="33" height="29" viewBox="0 0 33 29" fill="none" xmlns="http://www.w3.org/2000/svg">
<g clip-path="url(#clip0_2190_1523)">
<path d="M32.785 27.586C29.0616 17.7812 23.8761 8.59609 17.4045 0.342773L15.7668 1.62691C22.1089 9.71501 27.1906 18.7162 30.8395 28.3248L32.785 27.586Z" fill="#FF0000"/>
<path fill-rule="evenodd" clip-rule="evenodd" d="M8.4399 28.8H15.5599L16.3999 19.2H7.5999L8.4399 28.8ZM15.1999 17.2V16.4C15.1999 16.0817 15.0735 15.7765 14.8484 15.5514C14.6234 15.3264 14.3182 15.2 13.9999 15.2H9.9999C9.68164 15.2 9.37642 15.3264 9.15137 15.5514C8.92633 15.7765 8.7999 16.0817 8.7999 16.4V17.2H6.3999V18.4H17.5999V17.2H15.1999ZM13.9999 17.2H9.9999V16.8C9.9999 16.6939 10.042 16.5921 10.1171 16.5171C10.1921 16.4421 10.2938 16.4 10.3999 16.4H13.5999C13.706 16.4 13.8077 16.4421 13.8827 16.5171C13.9578 16.5921 13.9999 16.6939 13.9999 16.8V17.2Z" fill="#FF0000"/>
</g>
<defs>
<clipPath id="clip0_2190_1523">
<rect width="33" height="29" fill="white"/>
</clipPath>
</defs>
</svg>
