<svg width="28" height="28" viewBox="0 0 28 28" fill="none" xmlns="http://www.w3.org/2000/svg">
<g clip-path="url(#clip0_1947_1622)">
<path fill-rule="evenodd" clip-rule="evenodd" d="M6.53787 28.2539H21.4625L23.2233 8.13083H4.7771L6.53787 28.2539ZM20.7079 3.93852V2.2616C20.7079 1.59448 20.4428 0.954682 19.9711 0.482955C19.4994 0.0112291 18.8596 -0.253784 18.1925 -0.253784H9.80787C9.14075 -0.253784 8.50095 0.0112291 8.02923 0.482955C7.5575 0.954682 7.29249 1.59448 7.29249 2.2616V3.93852H2.26172V6.45391H25.7386V3.93852H20.7079ZM18.1925 3.93852H9.80787V3.10006C9.80787 2.87768 9.89621 2.66442 10.0534 2.50718C10.2107 2.34994 10.424 2.2616 10.6463 2.2616H17.354C17.5764 2.2616 17.7897 2.34994 17.9469 2.50718C18.1041 2.66442 18.1925 2.87768 18.1925 3.10006V3.93852Z" fill="black"/>
</g>
<defs>
<clipPath id="clip0_1947_1622">
<rect width="28" height="28" fill="white"/>
</clipPath>
</defs>
</svg>
