<svg width="31" height="31" viewBox="0 0 31 31" fill="none" xmlns="http://www.w3.org/2000/svg">
<path fill-rule="evenodd" clip-rule="evenodd" d="M30.3831 26.5708L16.8669 2.90041C16.7397 2.65466 16.5471 2.44853 16.3102 2.30463C16.0733 2.16072 15.8011 2.08459 15.5236 2.08459C15.2461 2.08459 14.974 2.16072 14.737 2.30463C14.5001 2.44853 14.3075 2.65466 14.1804 2.90041L0.664109 26.5708C0.507276 26.8036 0.418815 27.0754 0.408693 27.3556C0.398571 27.6359 0.467189 27.9133 0.606818 28.1568C0.746447 28.4002 0.951536 28.6 1.19898 28.7336C1.44643 28.8671 1.7264 28.9292 2.00734 28.9128H29.0399L29.7955 28.7455C29.9748 28.6496 30.1329 28.5187 30.2602 28.3605C30.3876 28.2022 30.4815 28.02 30.5364 27.8247C30.5912 27.6294 30.606 27.4251 30.5797 27.224C30.5533 27.0229 30.4864 26.8292 30.3831 26.6544V26.5708ZM17.2027 25.5671H13.8446V22.2215H17.2027V25.5671ZM17.2027 19.7122H13.8446V11.3482H17.2027V19.7122Z" fill="#AAAAAA"/>
</svg>
