<svg width="32" height="32" viewBox="0 0 32 32" fill="none" xmlns="http://www.w3.org/2000/svg">
<path d="M6.91624 16H0.853516L8.42547 23.5719L15.9974 16H9.93473C9.93473 14.2029 10.4676 12.4461 11.466 10.9519C12.4644 9.45767 13.8835 8.29305 15.5439 7.60532C17.2042 6.9176 19.0311 6.73766 20.7937 7.08826C22.5563 7.43886 24.1753 8.30425 25.4461 9.57499C26.7168 10.8457 27.5822 12.4648 27.9328 14.2274C28.2834 15.9899 28.1034 17.8169 27.4157 19.4772C26.728 21.1375 25.5634 22.5566 24.0692 23.555C22.5749 24.5534 20.8181 25.0864 19.021 25.0864V28.1151C21.4176 28.1171 23.761 27.4084 25.7547 26.0783C27.7483 24.7484 29.3028 22.857 30.2213 20.6434C31.1398 18.4298 31.3812 15.9936 30.915 13.6428C30.4487 11.292 29.2956 9.13235 27.6017 7.43698C25.9078 5.74162 23.7491 4.58674 21.3987 4.11844C19.0483 3.65014 16.6118 3.88945 14.3975 4.80611C12.1831 5.72278 10.2904 7.27559 8.95872 9.26813C7.62704 11.2607 6.91624 13.6035 6.91624 16Z" fill="#AAAAAA"/>
</svg>
