<svg width="51" height="57" viewBox="0 0 51 57" fill="none" xmlns="http://www.w3.org/2000/svg">
<path d="M30.5048 53.9492L31.1748 54.6915L31.9172 54.0214L35.4904 50.7961L36.2328 50.126L35.5627 49.3837C23.319 35.8192 14.0315 19.8555 8.29079 2.50761L7.97663 1.55824L7.02726 1.87241L2.45732 3.38468L1.50795 3.69885L1.82212 4.64822C7.85981 22.8935 17.6277 39.6829 30.5048 53.9492Z" fill="#FF0000" stroke="black" stroke-width="2"/>
<path fill-rule="evenodd" clip-rule="evenodd" d="M47.625 8.45L44.55 5.375L36 14L27.45 5.375L24.375 8.45L33 17L24.375 25.55L27.45 28.625L36 20L44.55 28.625L47.625 25.55L39 17L47.625 8.45Z" fill="#FF0000"/>
</svg>
