<svg width="25" height="25" viewBox="0 0 25 25" fill="none" xmlns="http://www.w3.org/2000/svg">
<g clip-path="url(#clip0_13206_17094)">
<path fill-rule="evenodd" clip-rule="evenodd" d="M10.2017 2.5C5.94819 2.5 2.5 5.94819 2.5 10.2017C2.5 14.4553 5.94819 17.9035 10.2017 17.9035C11.9714 17.9035 13.6017 17.3067 14.9022 16.3033L21.0255 22.2635L22.5513 20.696L16.4281 14.7359C17.3559 13.4639 17.9035 11.8967 17.9035 10.2017C17.9035 5.94819 14.4553 2.5 10.2017 2.5ZM4.6875 10.2017C4.6875 7.15631 7.15631 4.6875 10.2017 4.6875C13.2472 4.6875 15.716 7.15631 15.716 10.2017C15.716 13.2472 13.2472 15.716 10.2017 15.716C7.15631 15.716 4.6875 13.2472 4.6875 10.2017Z" fill="black"/>
</g>
<defs>
<clipPath id="clip0_13206_17094">
<rect width="25" height="25" fill="white"/>
</clipPath>
</defs>
</svg>
