<svg width="25" height="25" viewBox="0 0 25 25" fill="none" xmlns="http://www.w3.org/2000/svg">
<g clip-path="url(#clip0_13206_17088)">
<path d="M12.5 23.125C14.6014 23.125 16.6557 22.5019 18.4029 21.3344C20.1502 20.1669 21.512 18.5075 22.3162 16.566C23.1204 14.6245 23.3308 12.4882 22.9208 10.4272C22.5109 8.36612 21.4989 6.47293 20.013 4.98699C18.5271 3.50106 16.6339 2.48913 14.5728 2.07916C12.5118 1.66919 10.3754 1.8796 8.43398 2.68378C6.49252 3.48796 4.83312 4.8498 3.66563 6.59707C2.49814 8.34434 1.875 10.3986 1.875 12.5C1.875 15.3179 2.99441 18.0204 4.98699 20.013C6.97956 22.0056 9.68207 23.125 12.5 23.125V23.125ZM13.5812 18.75H11.4562L11.4562 10.2213H13.5812L13.5812 18.75ZM12.4862 6.23875C12.6949 6.24514 12.897 6.31284 13.0674 6.4334C13.2378 6.55396 13.3689 6.72204 13.4444 6.91667C13.5199 7.11129 13.5363 7.32382 13.4917 7.52774C13.4471 7.73166 13.3435 7.91793 13.1936 8.06329C13.0438 8.20865 12.8545 8.30666 12.6494 8.34509C12.4442 8.38352 12.2323 8.36067 12.04 8.27938C11.8477 8.1981 11.6837 8.06198 11.5683 7.88803C11.4529 7.71407 11.3913 7.50999 11.3912 7.30125C11.3955 7.01536 11.5131 6.74286 11.7182 6.54363C11.9233 6.3444 12.1991 6.23474 12.485 6.23875H12.4862Z" fill="black"/>
</g>
<defs>
<clipPath id="clip0_13206_17088">
<rect width="25" height="25" fill="white"/>
</clipPath>
</defs>
</svg>
