<svg width="60" height="60" viewBox="0 0 60 60" fill="none" xmlns="http://www.w3.org/2000/svg">
<path d="M22 3.75915C35.9569 19.8859 46.8911 38.2417 54.3102 58L60 56.0072C52.3296 35.6192 41.0573 16.6696 26.6837 0L22 3.75915Z" fill="white"/>
<path fill-rule="evenodd" clip-rule="evenodd" d="M10.4643 58H29.5357L31.7857 32.5882H8.21429L10.4643 58ZM28.5714 27.2941V25.1765C28.5714 24.334 28.2327 23.5261 27.63 22.9304C27.0272 22.3347 26.2096 22 25.3571 22H14.6429C13.7904 22 12.9728 22.3347 12.37 22.9304C11.7672 23.5261 11.4286 24.334 11.4286 25.1765V27.2941H5V30.4706H35V27.2941H28.5714ZM25.3571 27.2941H14.6429V26.2353C14.6429 25.9545 14.7557 25.6852 14.9567 25.4866C15.1576 25.288 15.4301 25.1765 15.7143 25.1765H24.2857C24.5699 25.1765 24.8424 25.288 25.0433 25.4866C25.2442 25.6852 25.3571 25.9545 25.3571 26.2353V27.2941Z" fill="#FF0000"/>
</svg>
