<svg width="60" height="60" viewBox="0 0 60 60" fill="none" xmlns="http://www.w3.org/2000/svg">
<path fill-rule="evenodd" clip-rule="evenodd" d="M15.6964 57H44.3036L47.6786 18.8824H12.3214L15.6964 57ZM42.8571 10.9412V7.76471C42.8571 6.50103 42.3491 5.28911 41.4449 4.39555C40.5408 3.502 39.3144 3 38.0357 3H21.9643C20.6856 3 19.4592 3.502 18.555 4.39555C17.6508 5.28911 17.1429 6.50103 17.1429 7.76471V10.9412H7.5V15.7059H52.5V10.9412H42.8571ZM38.0357 10.9412H21.9643V9.35294C21.9643 8.93171 22.1336 8.52774 22.435 8.22988C22.7364 7.93204 23.1452 7.76471 23.5714 7.76471H36.4286C36.8548 7.76471 37.2636 7.93204 37.565 8.22988C37.8663 8.52774 38.0357 8.93171 38.0357 9.35294V10.9412Z" fill="#AAAAAA"/>
</svg>
