<svg width="38" height="38" viewBox="0 0 38 38" fill="none" xmlns="http://www.w3.org/2000/svg">
<rect width="38" height="38" fill="white"/>
<path d="M19 35.15C22.1942 35.15 25.3166 34.2028 27.9725 32.4283C30.6283 30.6537 32.6983 28.1314 33.9207 25.1804C35.143 22.2293 35.4629 18.9821 34.8397 15.8493C34.2165 12.7165 32.6784 9.83887 30.4198 7.58025C28.1612 5.32163 25.2835 3.78349 22.1507 3.16034C19.0179 2.53719 15.7707 2.85702 12.8197 4.07937C9.86865 5.30173 7.34637 7.37171 5.57178 10.0276C3.7972 12.6834 2.85002 15.8059 2.85002 19C2.85002 23.2833 4.55153 27.3911 7.58024 30.4198C10.609 33.4485 14.7168 35.15 19 35.15V35.15ZM20.6435 28.5H17.4135L17.4135 15.5363H20.6435V28.5ZM18.9791 9.48293C19.2963 9.49263 19.6035 9.59553 19.8625 9.77879C20.1215 9.96204 20.3208 10.2175 20.4355 10.5134C20.5502 10.8092 20.5752 11.1322 20.5074 11.4422C20.4397 11.7521 20.2821 12.0353 20.0544 12.2562C19.8267 12.4772 19.5389 12.6261 19.2271 12.6846C18.9152 12.743 18.593 12.7082 18.3008 12.5847C18.0086 12.4611 17.7592 12.2542 17.5838 11.9898C17.4085 11.7254 17.3149 11.4152 17.3147 11.0979C17.3212 10.6634 17.5 10.2492 17.8117 9.94634C18.1234 9.64351 18.5427 9.47683 18.9772 9.48293H18.9791Z" fill="black"/>
</svg>
