<!-- svg width="33" height="32" viewBox="0 0 33 32" fill="none" xmlns="http://www.w3.org/2000/svg">
<path fill-rule="evenodd" clip-rule="evenodd" d="M12.3228 0C5.51711 0 0 5.51711 0 12.3228C0 19.1285 5.51711 24.6456 12.3228 24.6456C15.1542 24.6456 17.7626 23.6906 19.8435 22.0852L29.6408 31.6216L32.082 29.1136L22.2849 19.5774C23.7695 17.5422 24.6456 15.0348 24.6456 12.3228C24.6456 5.51711 19.1285 0 12.3228 0ZM3.5 12.3228C3.5 7.4501 7.4501 3.5 12.3228 3.5C17.1955 3.5 21.1456 7.4501 21.1456 12.3228C21.1456 17.1955 17.1955 21.1456 12.3228 21.1456C7.4501 21.1456 3.5 17.1955 3.5 12.3228Z" fill="#AAAAAA"/>
</svg -->

<svg width="40" height="40" viewBox="0 0 40 40" fill="none" xmlns="http://www.w3.org/2000/svg">
<rect width="40" height="40" fill="white"/>
<path fill-rule="evenodd" clip-rule="evenodd" d="M16.3228 4C9.51711 4 4 9.51711 4 16.3228C4 23.1285 9.51711 28.6456 16.3228 28.6456C19.1542 28.6456 21.7626 27.6906 23.8435 26.0852L33.6408 35.6216L36.082 33.1136L26.2849 23.5774C27.7695 21.5422 28.6456 19.0348 28.6456 16.3228C28.6456 9.51711 23.1285 4 16.3228 4ZM7.5 16.3228C7.5 11.4501 11.4501 7.5 16.3228 7.5C21.1955 7.5 25.1456 11.4501 25.1456 16.3228C25.1456 21.1955 21.1955 25.1456 16.3228 25.1456C11.4501 25.1456 7.5 21.1955 7.5 16.3228Z" fill="black"/>
</svg>
