<svg width="47" height="47" viewBox="0 0 47 47" fill="none" xmlns="http://www.w3.org/2000/svg">
<g clip-path="url(#clip0_12616_67916)">
<g filter="url(#filter0_f_12616_67916)">
<circle cx="23.5003" cy="23.5001" r="20.68" fill="url(#paint0_linear_12616_67916)"/>
</g>
<g filter="url(#filter1_d_12616_67916)">
<circle cx="23.5003" cy="23.5001" r="20.68" fill="url(#paint1_linear_12616_67916)"/>
<circle cx="23.5003" cy="23.5001" r="20.1056" stroke="#AAAAAA" stroke-width="1.14889"/>
</g>
<path fill-rule="evenodd" clip-rule="evenodd" d="M23.5016 15.9803C25.0591 15.9803 26.3216 14.7178 26.3216 13.1603C26.3216 11.6029 25.0591 10.3403 23.5016 10.3403C21.9442 10.3403 20.6816 11.6029 20.6816 13.1603C20.6816 14.7178 21.9442 15.9803 23.5016 15.9803ZM25.3816 36.6595C25.9008 36.6595 26.3216 36.2386 26.3216 35.7195V20.6795C26.3216 20.1603 25.9008 19.7395 25.3816 19.7395H21.6216C21.1025 19.7395 20.6816 20.1603 20.6816 20.6795V35.7195C20.6816 36.2386 21.1025 36.6595 21.6216 36.6595H25.3816Z" fill="#AAAAAA"/>
</g>
<defs>
<filter id="filter0_f_12616_67916" x="-0.626354" y="-0.626598" width="48.2537" height="48.2533" filterUnits="userSpaceOnUse" color-interpolation-filters="sRGB">
<feFlood flood-opacity="0" result="BackgroundImageFix"/>
<feBlend mode="normal" in="SourceGraphic" in2="BackgroundImageFix" result="shape"/>
<feGaussianBlur stdDeviation="1.72333" result="effect1_foregroundBlur_12616_67916"/>
</filter>
<filter id="filter1_d_12616_67916" x="0.522535" y="2.82007" width="45.9559" height="45.9555" filterUnits="userSpaceOnUse" color-interpolation-filters="sRGB">
<feFlood flood-opacity="0" result="BackgroundImageFix"/>
<feColorMatrix in="SourceAlpha" type="matrix" values="0 0 0 0 0 0 0 0 0 0 0 0 0 0 0 0 0 0 127 0" result="hardAlpha"/>
<feOffset dy="2.29778"/>
<feGaussianBlur stdDeviation="1.14889"/>
<feComposite in2="hardAlpha" operator="out"/>
<feColorMatrix type="matrix" values="0 0 0 0 0 0 0 0 0 0 0 0 0 0 0 0 0 0 0.75 0"/>
<feBlend mode="normal" in2="BackgroundImageFix" result="effect1_dropShadow_12616_67916"/>
<feBlend mode="normal" in="SourceGraphic" in2="effect1_dropShadow_12616_67916" result="shape"/>
</filter>
<linearGradient id="paint0_linear_12616_67916" x1="23.5003" y1="2.82007" x2="23.5003" y2="44.1801" gradientUnits="userSpaceOnUse">
<stop offset="0" stop-color="#323232"/>
<stop offset="1"/>
</linearGradient>
<linearGradient id="paint1_linear_12616_67916" x1="23.5003" y1="2.82007" x2="23.5003" y2="44.1801" gradientUnits="userSpaceOnUse">
<stop offset="0" stop-color="#323232"/>
<stop offset="1"/>
</linearGradient>
<clipPath id="clip0_12616_67916">
<rect width="47" height="47" fill="white"/>
</clipPath>
</defs>
</svg>
