<svg width="47" height="47" viewBox="0 0 47 47" fill="none" xmlns="http://www.w3.org/2000/svg">
<g clip-path="url(#clip0_12616_67895)">
<g filter="url(#filter0_f_12616_67895)">
<path fill-rule="evenodd" clip-rule="evenodd" d="M42.0646 10.105L37.2471 5.28748L23.8521 18.8L10.4571 5.28748L5.63965 10.105L19.1521 23.5L5.63965 36.895L10.4571 41.7125L23.8521 28.2L37.2471 41.7125L42.0646 36.895L28.5521 23.5L42.0646 10.105Z" fill="#AAAAAA"/>
</g>
<g filter="url(#filter1_d_12616_67895)">
<path fill-rule="evenodd" clip-rule="evenodd" d="M41.7131 10.105L36.8956 5.28748L23.5006 18.8L10.1056 5.28748L5.28809 10.105L18.8006 23.5L5.28809 36.895L10.1056 41.7125L23.5006 28.2L36.8956 41.7125L41.7131 36.895L28.2006 23.5L41.7131 10.105Z" fill="#999393"/>
</g>
</g>
<defs>
<filter id="filter0_f_12616_67895" x="1.2334" y="0.881226" width="45.2373" height="45.2375" filterUnits="userSpaceOnUse" color-interpolation-filters="sRGB">
<feFlood flood-opacity="0" result="BackgroundImageFix"/>
<feBlend mode="normal" in="SourceGraphic" in2="BackgroundImageFix" result="shape"/>
<feGaussianBlur stdDeviation="2.20312" result="effect1_foregroundBlur_12616_67895"/>
</filter>
<filter id="filter1_d_12616_67895" x="2.35059" y="5.28748" width="42.2998" height="42.3" filterUnits="userSpaceOnUse" color-interpolation-filters="sRGB">
<feFlood flood-opacity="0" result="BackgroundImageFix"/>
<feColorMatrix in="SourceAlpha" type="matrix" values="0 0 0 0 0 0 0 0 0 0 0 0 0 0 0 0 0 0 127 0" result="hardAlpha"/>
<feOffset dy="2.9375"/>
<feGaussianBlur stdDeviation="1.46875"/>
<feComposite in2="hardAlpha" operator="out"/>
<feColorMatrix type="matrix" values="0 0 0 0 0 0 0 0 0 0 0 0 0 0 0 0 0 0 0.75 0"/>
<feBlend mode="normal" in2="BackgroundImageFix" result="effect1_dropShadow_12616_67895"/>
<feBlend mode="normal" in="SourceGraphic" in2="effect1_dropShadow_12616_67895" result="shape"/>
</filter>
<clipPath id="clip0_12616_67895">
<rect width="47" height="47" fill="white"/>
</clipPath>
</defs>
</svg>
