<svg width="47" height="47" viewBox="0 0 47 47" fill="none" xmlns="http://www.w3.org/2000/svg">
<g clip-path="url(#clip0_12616_67883)">
<g filter="url(#filter0_f_12616_67883)">
<path d="M9.78126 23.6906H1.87988L11.7482 33.5589L21.6165 23.6906H13.7151C13.7151 21.3485 14.4097 19.059 15.7109 17.1116C17.0121 15.1641 18.8616 13.6463 21.0254 12.75C23.1892 11.8538 25.5703 11.6192 27.8674 12.0762C30.1645 12.5331 32.2745 13.6609 33.9307 15.3171C35.5868 16.9732 36.7146 19.0832 37.1716 21.3803C37.6285 23.6775 37.394 26.0585 36.4977 28.2223C35.6014 30.3862 34.0836 32.2356 32.1362 33.5369C30.1888 34.8381 27.8992 35.5326 25.5571 35.5326V39.4799C28.6805 39.4826 31.7345 38.5588 34.3328 36.8255C36.9312 35.0921 38.957 32.6271 40.1541 29.7422C41.3512 26.8574 41.6658 23.6822 41.0581 20.6185C40.4504 17.5548 38.9477 14.7402 36.74 12.5306C34.5324 10.3211 31.7191 8.816 28.6559 8.20568C25.5927 7.59535 22.4173 7.90725 19.5314 9.1019C16.6455 10.2966 14.1787 12.3203 12.4432 14.9171C10.7076 17.514 9.78126 20.5672 9.78126 23.6906V23.6906Z" fill="url(#paint0_linear_12616_67883)"/>
</g>
<g filter="url(#filter1_d_12616_67883)">
<path d="M9.78126 23.6906H1.87988L11.7482 33.5589L21.6165 23.6906H13.7151C13.7151 21.3485 14.4097 19.059 15.7109 17.1116C17.0121 15.1641 18.8616 13.6463 21.0254 12.75C23.1892 11.8538 25.5703 11.6192 27.8674 12.0762C30.1645 12.5331 32.2745 13.6609 33.9307 15.3171C35.5868 16.9732 36.7146 19.0832 37.1716 21.3803C37.6285 23.6775 37.394 26.0585 36.4977 28.2223C35.6014 30.3862 34.0836 32.2356 32.1362 33.5369C30.1888 34.8381 27.8992 35.5326 25.5571 35.5326V39.4799C28.6805 39.4826 31.7345 38.5588 34.3328 36.8255C36.9312 35.0921 38.957 32.6271 40.1541 29.7422C41.3512 26.8574 41.6658 23.6822 41.0581 20.6185C40.4504 17.5548 38.9477 14.7402 36.74 12.5306C34.5324 10.3211 31.7191 8.816 28.6559 8.20568C25.5927 7.59535 22.4173 7.90725 19.5314 9.1019C16.6455 10.2966 14.1787 12.3203 12.4432 14.9171C10.7076 17.514 9.78126 20.5672 9.78126 23.6906V23.6906Z" fill="#AAAAAA"/>
</g>
</g>
<defs>
<filter id="filter0_f_12616_67883" x="-0.940117" y="5.08131" width="45.1205" height="37.2186" filterUnits="userSpaceOnUse" color-interpolation-filters="sRGB">
<feFlood flood-opacity="0" result="BackgroundImageFix"/>
<feBlend mode="normal" in="SourceGraphic" in2="BackgroundImageFix" result="shape"/>
<feGaussianBlur stdDeviation="1.41" result="effect1_foregroundBlur_12616_67883"/>
</filter>
<filter id="filter1_d_12616_67883" x="-0.000117183" y="7.90131" width="43.2405" height="35.3386" filterUnits="userSpaceOnUse" color-interpolation-filters="sRGB">
<feFlood flood-opacity="0" result="BackgroundImageFix"/>
<feColorMatrix in="SourceAlpha" type="matrix" values="0 0 0 0 0 0 0 0 0 0 0 0 0 0 0 0 0 0 127 0" result="hardAlpha"/>
<feOffset dy="1.88"/>
<feGaussianBlur stdDeviation="0.94"/>
<feComposite in2="hardAlpha" operator="out"/>
<feColorMatrix type="matrix" values="0 0 0 0 0 0 0 0 0 0 0 0 0 0 0 0 0 0 0.75 0"/>
<feBlend mode="normal" in2="BackgroundImageFix" result="effect1_dropShadow_12616_67883"/>
<feBlend mode="normal" in="SourceGraphic" in2="effect1_dropShadow_12616_67883" result="shape"/>
</filter>
<linearGradient id="paint0_linear_12616_67883" x1="1.87988" y1="23.6906" x2="41.3599" y2="23.6906" gradientUnits="userSpaceOnUse">
<stop offset="0" stop-color="white"/>
<stop offset="1" stop-color="#BFBFBF"/>
</linearGradient>
<clipPath id="clip0_12616_67883">
<rect width="47" height="47" fill="white"/>
</clipPath>
</defs>
</svg>
