<svg width="32" height="32" viewBox="0 0 32 32" fill="none" xmlns="http://www.w3.org/2000/svg">
<rect width="32" height="32" fill="white"/>
<path fill-rule="evenodd" clip-rule="evenodd" d="M30.2004 26.563L17.3041 3.97835C17.1828 3.74387 16.9991 3.5472 16.773 3.40989C16.5469 3.27259 16.2873 3.19995 16.0225 3.19995C15.7578 3.19995 15.4981 3.27259 15.272 3.40989C15.046 3.5472 14.8622 3.74387 14.7409 3.97835L1.84464 26.563C1.695 26.7851 1.6106 27.0445 1.60094 27.3118C1.59128 27.5792 1.65675 27.8439 1.78998 28.0762C1.9232 28.3084 2.11888 28.499 2.35498 28.6265C2.59107 28.7539 2.8582 28.8132 3.12626 28.7975H28.9188L29.6397 28.6379C29.8108 28.5464 29.9617 28.4215 30.0832 28.2705C30.2046 28.1195 30.2942 27.9456 30.3466 27.7593C30.399 27.573 30.413 27.378 30.3879 27.1862C30.3628 26.9943 30.299 26.8095 30.2004 26.6428V26.563ZM17.6245 25.6053H14.4205V22.4131H17.6245V25.6053ZM17.6245 20.019H14.4205V12.0386H17.6245V20.019Z" fill="black"/>
</svg>
