<svg width="38" height="38" viewBox="0 0 38 38" fill="none" xmlns="http://www.w3.org/2000/svg">
<path d="M15 2.33327C23.4476 12.343 30.0657 23.7363 34.5562 36L38 34.7631C33.3574 22.1085 26.5347 10.3467 17.8349 0L15 2.33327Z" fill="white"/>
<path fill-rule="evenodd" clip-rule="evenodd" d="M6.46071 37H18.5393L19.9643 20.7647H5.03571L6.46071 37ZM17.9286 17.3824V16.0294C17.9286 15.4912 17.7141 14.975 17.3323 14.5944C16.9505 14.2138 16.4327 14 15.8929 14H9.10714C8.56724 14 8.04945 14.2138 7.66768 14.5944C7.2859 14.975 7.07143 15.4912 7.07143 16.0294V17.3824H3V19.4118H22V17.3824H17.9286ZM15.8929 17.3824H9.10714V16.7059C9.10714 16.5265 9.17864 16.3544 9.30589 16.2275C9.43315 16.1007 9.60574 16.0294 9.78571 16.0294H15.2143C15.3942 16.0294 15.5669 16.1007 15.6941 16.2275C15.8213 16.3544 15.8929 16.5265 15.8929 16.7059V17.3824Z" fill="#FF0000"/>
</svg>
