<svg width="110" height="160" viewBox="0 0 110 160" fill="none" xmlns="http://www.w3.org/2000/svg">
<g filter="url(#filter0_d_18661_34182)">
<g filter="url(#filter1_d_18661_34182)">
<path fill-rule="evenodd" clip-rule="evenodd" d="M81 37.98H53.7203V32.8434H81V37.98Z" fill="white"/>
<path d="M56.143 35.4066L67.7499 23.6265L64.1767 20L49 35.41L64.1784 50.8148L67.7516 47.1883L56.143 35.4066Z" fill="white"/>
</g>
</g>
<g clip-path="url(#clip0_18661_34182)">
<mask id="path-2-outside-1_18661_34182" maskUnits="userSpaceOnUse" x="15.2275" y="16.7734" width="45" height="69" fill="black">
<rect fill="white" x="15.2275" y="16.7734" width="45" height="69"/>
<path d="M18.0064 21.2717C26.1006 43.4722 38.0231 64.0823 53.2328 82.1666L57.2628 78.7772C42.4492 61.1638 30.8371 41.0903 22.9537 19.4679L18.0064 21.2717Z"/>
</mask>
<path d="M18.0064 21.2717C26.1006 43.4722 38.0231 64.0823 53.2328 82.1666L57.2628 78.7772C42.4492 61.1638 30.8371 41.0903 22.9537 19.4679L18.0064 21.2717Z" fill="white"/>
<path d="M18.0064 21.2717C26.1006 43.4722 38.0231 64.0823 53.2328 82.1666L57.2628 78.7772C42.4492 61.1638 30.8371 41.0903 22.9537 19.4679L18.0064 21.2717Z" stroke="black" stroke-width="4" mask="url(#path-2-outside-1_18661_34182)"/>
</g>
<defs>
<filter id="filter0_d_18661_34182" x="43.6637" y="15" width="42.6725" height="42.6725" filterUnits="userSpaceOnUse" color-interpolation-filters="sRGB">
<feFlood flood-opacity="0" result="BackgroundImageFix"/>
<feColorMatrix in="SourceAlpha" type="matrix" values="0 0 0 0 0 0 0 0 0 0 0 0 0 0 0 0 0 0 127 0" result="hardAlpha"/>
<feOffset dy="1.33626"/>
<feGaussianBlur stdDeviation="0.668132"/>
<feColorMatrix type="matrix" values="0 0 0 0 0 0 0 0 0 0 0 0 0 0 0 0 0 0 0.75 0"/>
<feBlend mode="normal" in2="BackgroundImageFix" result="effect1_dropShadow_18661_34182"/>
<feBlend mode="normal" in="SourceGraphic" in2="effect1_dropShadow_18661_34182" result="shape"/>
</filter>
<filter id="filter1_d_18661_34182" x="47.6637" y="20" width="34.6725" height="33.4873" filterUnits="userSpaceOnUse" color-interpolation-filters="sRGB">
<feFlood flood-opacity="0" result="BackgroundImageFix"/>
<feColorMatrix in="SourceAlpha" type="matrix" values="0 0 0 0 0 0 0 0 0 0 0 0 0 0 0 0 0 0 127 0" result="hardAlpha"/>
<feOffset dy="1.33626"/>
<feGaussianBlur stdDeviation="0.668132"/>
<feColorMatrix type="matrix" values="0 0 0 0 0 0 0 0 0 0 0 0 0 0 0 0 0 0 0.75 0"/>
<feBlend mode="normal" in2="BackgroundImageFix" result="effect1_dropShadow_18661_34182"/>
<feBlend mode="normal" in="SourceGraphic" in2="effect1_dropShadow_18661_34182" result="shape"/>
</filter>
<clipPath id="clip0_18661_34182">
<rect width="62" height="73" fill="white" transform="translate(0 14)"/>
</clipPath>
</defs>
</svg>
