<svg width="62" height="73" viewBox="0 0 62 73" fill="none" xmlns="http://www.w3.org/2000/svg">
<g clip-path="url(#clip0_18661_34262)">
<mask id="path-1-outside-1_18661_34262" maskUnits="userSpaceOnUse" x="15.2275" y="2.77344" width="45" height="69" fill="black">
<rect fill="white" x="15.2275" y="2.77344" width="45" height="69"/>
<path d="M18.0064 7.27167C26.1006 29.4722 38.0231 50.0823 53.2328 68.1666L57.2628 64.7772C42.4492 47.1638 30.8371 27.0903 22.9537 5.46793L18.0064 7.27167Z"/>
</mask>
<path d="M18.0064 7.27167C26.1006 29.4722 38.0231 50.0823 53.2328 68.1666L57.2628 64.7772C42.4492 47.1638 30.8371 27.0903 22.9537 5.46793L18.0064 7.27167Z" fill="white"/>
<path d="M18.0064 7.27167C26.1006 29.4722 38.0231 50.0823 53.2328 68.1666L57.2628 64.7772C42.4492 47.1638 30.8371 27.0903 22.9537 5.46793L18.0064 7.27167Z" stroke="black" stroke-width="4" mask="url(#path-1-outside-1_18661_34262)"/>
</g>
<defs>
<clipPath id="clip0_18661_34262">
<rect width="62" height="73" fill="white"/>
</clipPath>
</defs>
</svg>
