<svg width="40" height="40" viewBox="0 0 40 40" fill="none" xmlns="http://www.w3.org/2000/svg">
<g filter="url(#filter0_d_11172_2568)">
<path fill-rule="evenodd" clip-rule="evenodd" d="M12.4351 34.4501H27.5651L29.3501 14.05H10.6501L12.4351 34.4501ZM26.8001 9.80005V8.10005C26.8001 7.42375 26.5314 6.77514 26.0532 6.29693C25.575 5.81871 24.9264 5.55005 24.2501 5.55005H15.7501C15.0738 5.55005 14.4252 5.81871 13.947 6.29693C13.4688 6.77514 13.2001 7.42375 13.2001 8.10005V9.80005H8.1001V12.35H31.9001V9.80005H26.8001ZM24.2501 9.80005H15.7501V8.95005C15.7501 8.72461 15.8397 8.50841 15.9991 8.34901C16.1585 8.1896 16.3747 8.10005 16.6001 8.10005H23.4001C23.6255 8.10005 23.8417 8.1896 24.0011 8.34901C24.1605 8.50841 24.2501 8.72461 24.2501 8.95005V9.80005Z" fill="white"/>
</g>
<defs>
<filter id="filter0_d_11172_2568" x="5.92867" y="5.55005" width="28.1427" height="33.2429" filterUnits="userSpaceOnUse" color-interpolation-filters="sRGB">
<feFlood flood-opacity="0" result="BackgroundImageFix"/>
<feColorMatrix in="SourceAlpha" type="matrix" values="0 0 0 0 0 0 0 0 0 0 0 0 0 0 0 0 0 0 127 0" result="hardAlpha"/>
<feOffset dy="2.17143"/>
<feGaussianBlur stdDeviation="1.08571"/>
<feColorMatrix type="matrix" values="0 0 0 0 0 0 0 0 0 0 0 0 0 0 0 0 0 0 0.75 0"/>
<feBlend mode="normal" in2="BackgroundImageFix" result="effect1_dropShadow_11172_2568"/>
<feBlend mode="normal" in="SourceGraphic" in2="effect1_dropShadow_11172_2568" result="shape"/>
</filter>
</defs>
</svg>
