<svg width="40" height="40" viewBox="0 0 40 40" fill="none" xmlns="http://www.w3.org/2000/svg">
<g filter="url(#filter0_d_11172_2552)">
<path fill-rule="evenodd" clip-rule="evenodd" d="M20.0002 4.69995C16.9741 4.69995 14.016 5.59728 11.5 7.27847C8.98391 8.95965 7.02287 11.3492 5.86485 14.1449C4.70682 16.9406 4.40383 20.0169 4.99419 22.9848C5.58454 25.9527 7.04172 28.6789 9.18147 30.8187C11.3212 32.9584 14.0474 34.4156 17.0153 35.006C19.9832 35.5963 23.0595 35.2933 25.8553 34.1353C28.651 32.9773 31.0405 31.0162 32.7217 28.5002C34.4029 25.9841 35.3002 23.026 35.3002 20C35.3002 15.9421 33.6882 12.0505 30.8189 9.18122C27.9496 6.31191 24.058 4.69995 20.0002 4.69995ZM21.7002 29.35H18.3002V25.95H21.7002V29.35ZM22.5502 20C22.3036 20.0871 22.0897 20.2481 21.9376 20.461C21.7856 20.6739 21.7027 20.9284 21.7002 21.19C21.7002 21.36 21.7002 22.38 21.7002 22.55H18.3002V20.85C18.2378 20.2928 18.3741 19.7314 18.6851 19.2649C18.9961 18.7984 19.4619 18.4567 20.0002 18.3C20.5385 18.1432 21.0043 17.8015 21.3153 17.335C21.6263 16.8685 21.7626 16.3071 21.7002 15.75C21.7002 14.9 21.7002 14.05 20.0002 14.05C18.3002 14.05 18.3002 14.05 18.3002 15.75H14.9002C14.8494 15.0672 14.9465 14.3815 15.1848 13.7397C15.4232 13.0979 15.7972 12.5151 16.2813 12.031C16.7654 11.5469 17.3482 11.1729 17.99 10.9346C18.6318 10.6962 19.3175 10.5992 20.0002 10.65C20.6763 10.6262 21.3501 10.7419 21.9796 10.9898C22.6091 11.2377 23.1809 11.6125 23.6593 12.0909C24.1377 12.5693 24.5125 13.141 24.7604 13.7705C25.0083 14.4 25.1239 15.0738 25.1002 15.75C25.1731 16.6361 24.9663 17.5227 24.5089 18.2852C24.0514 19.0476 23.3664 19.6473 22.5502 20Z" fill="white"/>
</g>
<defs>
<filter id="filter0_d_11172_2552" x="2.52877" y="4.69995" width="34.943" height="34.9428" filterUnits="userSpaceOnUse" color-interpolation-filters="sRGB">
<feFlood flood-opacity="0" result="BackgroundImageFix"/>
<feColorMatrix in="SourceAlpha" type="matrix" values="0 0 0 0 0 0 0 0 0 0 0 0 0 0 0 0 0 0 127 0" result="hardAlpha"/>
<feOffset dy="2.17143"/>
<feGaussianBlur stdDeviation="1.08571"/>
<feColorMatrix type="matrix" values="0 0 0 0 0 0 0 0 0 0 0 0 0 0 0 0 0 0 0.75 0"/>
<feBlend mode="normal" in2="BackgroundImageFix" result="effect1_dropShadow_11172_2552"/>
<feBlend mode="normal" in="SourceGraphic" in2="effect1_dropShadow_11172_2552" result="shape"/>
</filter>
</defs>
</svg>
