<svg width="40" height="40" viewBox="0 0 40 40" fill="none" xmlns="http://www.w3.org/2000/svg">
<g filter="url(#filter0_d_11172_2562)">
<path d="M9.14615 19.6182H3L10.6762 27.2943L18.3523 19.6182H12.2062C12.2062 17.7963 12.7464 16.0154 13.7586 14.5006C14.7707 12.9858 16.2093 11.8052 17.8925 11.108C19.5757 10.4108 21.4278 10.2284 23.2146 10.5838C25.0014 10.9392 26.6427 11.8165 27.931 13.1047C29.2192 14.393 30.0965 16.0343 30.4519 17.8211C30.8074 19.608 30.6249 21.4601 29.9277 23.1432C29.2306 24.8264 28.0499 26.265 26.5351 27.2772C25.0203 28.2893 23.2394 28.8296 21.4175 28.8296V31.9C23.8471 31.9021 26.2227 31.1835 28.2438 29.8352C30.2649 28.487 31.8408 26.5695 32.7719 24.3255C33.7031 22.0815 33.9478 19.6117 33.4751 17.2285C33.0024 14.8454 31.8335 12.656 30.1163 10.9373C28.399 9.21861 26.2106 8.04784 23.8279 7.57309C21.4452 7.09834 18.9752 7.34095 16.7304 8.27023C14.4855 9.1995 12.5668 10.7737 11.2167 12.7937C9.86674 14.8136 9.14615 17.1886 9.14615 19.6182Z" fill="white"/>
</g>
<defs>
<filter id="filter0_d_11172_2562" x="0.828572" y="7.3363" width="35.0528" height="28.9066" filterUnits="userSpaceOnUse" color-interpolation-filters="sRGB">
<feFlood flood-opacity="0" result="BackgroundImageFix"/>
<feColorMatrix in="SourceAlpha" type="matrix" values="0 0 0 0 0 0 0 0 0 0 0 0 0 0 0 0 0 0 127 0" result="hardAlpha"/>
<feOffset dy="2.17143"/>
<feGaussianBlur stdDeviation="1.08571"/>
<feColorMatrix type="matrix" values="0 0 0 0 0 0 0 0 0 0 0 0 0 0 0 0 0 0 0.75 0"/>
<feBlend mode="normal" in2="BackgroundImageFix" result="effect1_dropShadow_11172_2562"/>
<feBlend mode="normal" in="SourceGraphic" in2="effect1_dropShadow_11172_2562" result="shape"/>
</filter>
</defs>
</svg>
