<svg width="62" height="73" viewBox="0 0 62 73" fill="none" xmlns="http://www.w3.org/2000/svg">
<g clip-path="url(#clip0_18661_34273)">
<mask id="path-1-outside-1_18661_34273" maskUnits="userSpaceOnUse" x="2.77246" y="3.77344" width="43" height="66" fill="black">
<rect fill="white" x="2.77246" y="3.77344" width="43" height="66"/>
<path d="M43.9936 7.27167C35.8994 29.4722 23.9769 50.0823 8.76721 68.1666L4.73721 64.7772C19.5508 47.1638 31.1629 27.0903 39.0463 5.46793L43.9936 7.27167Z"/>
</mask>
<path d="M43.9936 7.27167C35.8994 29.4722 23.9769 50.0823 8.76721 68.1666L4.73721 64.7772C19.5508 47.1638 31.1629 27.0903 39.0463 5.46793L43.9936 7.27167Z" fill="#6EC64F"/>
<path d="M43.9936 7.27167C35.8994 29.4722 23.9769 50.0823 8.76721 68.1666L4.73721 64.7772C19.5508 47.1638 31.1629 27.0903 39.0463 5.46793L43.9936 7.27167Z" stroke="black" stroke-width="2" mask="url(#path-1-outside-1_18661_34273)"/>
<mask id="path-2-outside-2_18661_34273" maskUnits="userSpaceOnUse" x="1.77246" y="2.77344" width="45" height="69" fill="black">
<rect fill="white" x="1.77246" y="2.77344" width="45" height="69"/>
<path d="M43.9936 7.27167C35.8994 29.4722 23.9769 50.0823 8.76721 68.1666L4.73721 64.7772C19.5508 47.1638 31.1629 27.0903 39.0463 5.46793L43.9936 7.27167Z"/>
</mask>
<path d="M43.9936 7.27167C35.8994 29.4722 23.9769 50.0823 8.76721 68.1666L4.73721 64.7772C19.5508 47.1638 31.1629 27.0903 39.0463 5.46793L43.9936 7.27167Z" fill="#6EC64F"/>
<path d="M43.9936 7.27167C35.8994 29.4722 23.9769 50.0823 8.76721 68.1666L4.73721 64.7772C19.5508 47.1638 31.1629 27.0903 39.0463 5.46793L43.9936 7.27167Z" stroke="black" stroke-width="4" mask="url(#path-2-outside-2_18661_34273)"/>
</g>
<defs>
<clipPath id="clip0_18661_34273">
<rect width="62" height="73" fill="white"/>
</clipPath>
</defs>
</svg>
