<svg width="40" height="40" viewBox="0 0 40 40" fill="none" xmlns="http://www.w3.org/2000/svg">
<g filter="url(#filter0_d_11172_2550)">
<path d="M20.0002 4.69995C15.9424 4.69995 12.0508 6.31191 9.18146 9.18122C6.31216 12.0505 4.7002 15.9421 4.7002 20C4.7002 23.026 5.59752 25.9841 7.27871 28.5002C8.9599 31.0162 11.3494 32.9773 14.1451 34.1353C16.9408 35.2933 20.0172 35.5963 22.9851 35.006C25.953 34.4156 28.6792 32.9584 30.8189 30.8187C32.9587 28.6789 34.4159 25.9527 35.0062 22.9848C35.5966 20.0169 35.2936 16.9406 34.1356 14.1449C32.9775 11.3492 31.0165 8.95965 28.5004 7.27847C25.9844 5.59728 23.0263 4.69995 20.0002 4.69995ZM21.7002 28.5H18.3002V18.3H21.7002V28.5ZM21.7002 14.9H18.3002V11.5H21.7002V14.9Z" fill="white"/>
</g>
<defs>
<filter id="filter0_d_11172_2550" x="2.52877" y="4.69995" width="34.943" height="34.9428" filterUnits="userSpaceOnUse" color-interpolation-filters="sRGB">
<feFlood flood-opacity="0" result="BackgroundImageFix"/>
<feColorMatrix in="SourceAlpha" type="matrix" values="0 0 0 0 0 0 0 0 0 0 0 0 0 0 0 0 0 0 127 0" result="hardAlpha"/>
<feOffset dy="2.17143"/>
<feGaussianBlur stdDeviation="1.08571"/>
<feColorMatrix type="matrix" values="0 0 0 0 0 0 0 0 0 0 0 0 0 0 0 0 0 0 0.75 0"/>
<feBlend mode="normal" in2="BackgroundImageFix" result="effect1_dropShadow_11172_2550"/>
<feBlend mode="normal" in="SourceGraphic" in2="effect1_dropShadow_11172_2550" result="shape"/>
</filter>
</defs>
</svg>
