<svg width="50" height="50" viewBox="0 0 50 50" fill="none" xmlns="http://www.w3.org/2000/svg">
<g clip-path="url(#clip0_36_1351)">
<g filter="url(#filter0_d_36_1351)">
<path d="M23.2533 4.13405C24.0161 2.76578 25.9844 2.76579 26.7472 4.13405L47.5912 41.5264C48.3344 42.8595 47.3706 44.5002 45.8443 44.5002H4.15617C2.62993 44.5002 1.66613 42.8595 2.40926 41.5264L23.2533 4.13405Z" fill="#FF0000"/>
</g>
<path d="M26.6461 41.1982H23.3546C23.12 41.1982 22.8949 41.1049 22.7289 40.939C22.563 40.7731 22.4698 40.548 22.4698 40.3134V37.0307C22.4698 36.7961 22.563 36.571 22.7289 36.4051C22.8949 36.2391 23.12 36.1459 23.3546 36.1459H26.6461C26.8808 36.1459 27.1059 36.2391 27.2718 36.4051C27.4377 36.571 27.5309 36.7961 27.5309 37.0307V40.3134C27.5309 40.548 27.4377 40.7731 27.2718 40.939C27.1059 41.1049 26.8808 41.1982 26.6461 41.1982ZM26.7168 12.9995H23.2839C23.1124 12.9994 22.9426 13.0338 22.7846 13.1004C22.6266 13.1671 22.4835 13.2648 22.3639 13.3877C22.2443 13.5106 22.1505 13.6563 22.0881 13.816C22.0258 13.9758 21.9961 14.1464 22.0009 14.3179L22.4433 31.014C22.4502 31.3497 22.5885 31.6692 22.8283 31.9041C23.0682 32.139 23.3906 32.2705 23.7263 32.2705H26.2744C26.6102 32.2705 26.9326 32.139 27.1724 31.9041C27.4123 31.6692 27.5505 31.3497 27.5575 31.014L27.9999 14.3179C28.0046 14.1464 27.975 13.9758 27.9126 13.816C27.8503 13.6563 27.7565 13.5106 27.6369 13.3877C27.5173 13.2648 27.3742 13.1671 27.2162 13.1004C27.0582 13.0338 26.8883 12.9994 26.7168 12.9995Z" fill="url(#paint0_linear_36_1351)"/>
</g>
<defs>
<filter id="filter0_d_36_1351" x="0.15332" y="3.10791" width="49.6938" height="45.3923" filterUnits="userSpaceOnUse" color-interpolation-filters="sRGB">
<feFlood flood-opacity="0" result="BackgroundImageFix"/>
<feColorMatrix in="SourceAlpha" type="matrix" values="0 0 0 0 0 0 0 0 0 0 0 0 0 0 0 0 0 0 127 0" result="hardAlpha"/>
<feOffset dy="2"/>
<feGaussianBlur stdDeviation="1"/>
<feComposite in2="hardAlpha" operator="out"/>
<feColorMatrix type="matrix" values="0 0 0 0 0 0 0 0 0 0 0 0 0 0 0 0 0 0 0.75 0"/>
<feBlend mode="normal" in2="BackgroundImageFix" result="effect1_dropShadow_36_1351"/>
<feBlend mode="normal" in="SourceGraphic" in2="effect1_dropShadow_36_1351" result="shape"/>
</filter>
<linearGradient id="paint0_linear_36_1351" x1="25.0004" y1="12.9995" x2="25.0004" y2="41.1982" gradientUnits="userSpaceOnUse">
<stop offset="0" stop-color="white"/>
<stop offset="1" stop-color="#BFBFBF"/>
</linearGradient>
<clipPath id="clip0_36_1351">
<rect width="50" height="50" fill="white"/>
</clipPath>
</defs>
</svg>
