<svg width="50" height="50" viewBox="0 0 50 50" fill="none" xmlns="http://www.w3.org/2000/svg">
<g clip-path="url(#clip0_36_1348)">
<g filter="url(#filter0_f_36_1348)">
<path fill-rule="evenodd" clip-rule="evenodd" d="M13.3749 46.25H35.6249L38.2499 16.25H10.7499L13.3749 46.25ZM34.4999 10V7.5C34.4999 6.50544 34.1048 5.55161 33.4015 4.84835C32.6983 4.14509 31.7444 3.75 30.7499 3.75H18.2499C17.2553 3.75 16.3015 4.14509 15.5982 4.84835C14.895 5.55161 14.4999 6.50544 14.4999 7.5V10H6.99988V13.75H41.9999V10H34.4999ZM30.7499 10H18.2499V8.75C18.2499 8.41848 18.3816 8.10054 18.616 7.86612C18.8504 7.6317 19.1684 7.5 19.4999 7.5H29.4999C29.8314 7.5 30.1493 7.6317 30.3838 7.86612C30.6182 8.10054 30.7499 8.41848 30.7499 8.75V10Z" fill="#FF0000"/>
</g>
<g filter="url(#filter1_d_36_1348)">
<path fill-rule="evenodd" clip-rule="evenodd" d="M13.8751 46.25H36.1251L38.7501 16.25H11.2501L13.8751 46.25ZM35.0001 10V7.5C35.0001 6.50544 34.605 5.55161 33.9018 4.84835C33.1985 4.14509 32.2447 3.75 31.2501 3.75H18.7501C17.7556 3.75 16.8017 4.14509 16.0985 4.84835C15.3952 5.55161 15.0001 6.50544 15.0001 7.5V10H7.50012V13.75H42.5001V10H35.0001ZM31.2501 10H18.7501V8.75C18.7501 8.41848 18.8818 8.10054 19.1162 7.86612C19.3507 7.6317 19.6686 7.5 20.0001 7.5H30.0001C30.3316 7.5 30.6496 7.6317 30.884 7.86612C31.1184 8.10054 31.2501 8.41848 31.2501 8.75V10Z" fill="#FF0000"/>
</g>
</g>
<defs>
<filter id="filter0_f_36_1348" x="2.31238" y="-0.9375" width="44.375" height="51.875" filterUnits="userSpaceOnUse" color-interpolation-filters="sRGB">
<feFlood flood-opacity="0" result="BackgroundImageFix"/>
<feBlend mode="normal" in="SourceGraphic" in2="BackgroundImageFix" result="shape"/>
<feGaussianBlur stdDeviation="2.34375" result="effect1_foregroundBlur_36_1348"/>
</filter>
<filter id="filter1_d_36_1348" x="4.37512" y="3.75" width="41.25" height="48.75" filterUnits="userSpaceOnUse" color-interpolation-filters="sRGB">
<feFlood flood-opacity="0" result="BackgroundImageFix"/>
<feColorMatrix in="SourceAlpha" type="matrix" values="0 0 0 0 0 0 0 0 0 0 0 0 0 0 0 0 0 0 127 0" result="hardAlpha"/>
<feOffset dy="3.125"/>
<feGaussianBlur stdDeviation="1.5625"/>
<feComposite in2="hardAlpha" operator="out"/>
<feColorMatrix type="matrix" values="0 0 0 0 0 0 0 0 0 0 0 0 0 0 0 0 0 0 0.75 0"/>
<feBlend mode="normal" in2="BackgroundImageFix" result="effect1_dropShadow_36_1348"/>
<feBlend mode="normal" in="SourceGraphic" in2="effect1_dropShadow_36_1348" result="shape"/>
</filter>
<clipPath id="clip0_36_1348">
<rect width="50" height="50" fill="white"/>
</clipPath>
</defs>
</svg>
