<svg width="47" height="47" viewBox="0 0 47 47" fill="none" xmlns="http://www.w3.org/2000/svg">
<g clip-path="url(#clip0_40_1290)">
<g filter="url(#filter0_d_40_1290)">
<path d="M21.858 3.88597C22.5749 2.5998 24.4252 2.5998 25.1422 3.88596L44.7356 39.0348C45.4341 40.2879 44.5282 41.8302 43.0935 41.8302H3.90663C2.47196 41.8302 1.56598 40.2879 2.26452 39.0348L21.858 3.88597Z" fill="url(#paint0_linear_40_1290)"/>
</g>
<path d="M25.047 38.7265H21.9531C21.7325 38.7265 21.5209 38.6388 21.3649 38.4829C21.2089 38.3269 21.1213 38.1153 21.1213 37.8947V34.8091C21.1213 34.5885 21.2089 34.3769 21.3649 34.221C21.5209 34.065 21.7325 33.9773 21.9531 33.9773H25.047C25.2676 33.9773 25.4792 34.065 25.6352 34.221C25.7912 34.3769 25.8788 34.5885 25.8788 34.8091V37.8947C25.8788 38.1153 25.7912 38.3269 25.6352 38.4829C25.4792 38.6388 25.2676 38.7265 25.047 38.7265ZM25.1135 12.2197H21.8866C21.7254 12.2197 21.5657 12.2519 21.4172 12.3146C21.2687 12.3773 21.1342 12.4691 21.0217 12.5846C20.9093 12.7002 20.8212 12.8371 20.7625 12.9873C20.7039 13.1374 20.6761 13.2978 20.6805 13.459L21.0964 29.1534C21.1029 29.4689 21.2329 29.7693 21.4583 29.9901C21.6838 30.2109 21.9869 30.3345 22.3024 30.3344H24.6977C25.0133 30.3345 25.3163 30.2109 25.5418 29.9901C25.7673 29.7693 25.8972 29.4689 25.9037 29.1534L26.3196 13.459C26.324 13.2978 26.2962 13.1374 26.2376 12.9873C26.1789 12.8371 26.0908 12.7002 25.9784 12.5846C25.8659 12.4691 25.7314 12.3773 25.5829 12.3146C25.4344 12.2519 25.2748 12.2197 25.1135 12.2197Z" fill="url(#paint1_linear_40_1290)"/>
</g>
<defs>
<filter id="filter0_d_40_1290" x="0.143926" y="2.92139" width="46.7123" height="42.6687" filterUnits="userSpaceOnUse" color-interpolation-filters="sRGB">
<feFlood flood-opacity="0" result="BackgroundImageFix"/>
<feColorMatrix in="SourceAlpha" type="matrix" values="0 0 0 0 0 0 0 0 0 0 0 0 0 0 0 0 0 0 127 0" result="hardAlpha"/>
<feOffset dy="1.88"/>
<feGaussianBlur stdDeviation="0.94"/>
<feComposite in2="hardAlpha" operator="out"/>
<feColorMatrix type="matrix" values="0 0 0 0 0 0 0 0 0 0 0 0 0 0 0 0 0 0 0.75 0"/>
<feBlend mode="normal" in2="BackgroundImageFix" result="effect1_dropShadow_40_1290"/>
<feBlend mode="normal" in="SourceGraphic" in2="effect1_dropShadow_40_1290" result="shape"/>
</filter>
<linearGradient id="paint0_linear_40_1290" x1="23.5001" y1="0.940186" x2="23.5001" y2="55.4602" gradientUnits="userSpaceOnUse">
<stop offset="0" stop-color="#FD0000"/>
<stop offset="1" stop-color="#AB0000"/>
</linearGradient>
<linearGradient id="paint1_linear_40_1290" x1="23.5001" y1="12.2197" x2="23.5001" y2="38.7265" gradientUnits="userSpaceOnUse">
<stop offset="0" stop-color="white"/>
<stop offset="1" stop-color="#BFBFBF"/>
</linearGradient>
<clipPath id="clip0_40_1290">
<rect width="47" height="47" fill="white"/>
</clipPath>
</defs>
</svg>
