<svg width="47" height="47" viewBox="0 0 47 47" fill="none" xmlns="http://www.w3.org/2000/svg">
<g clip-path="url(#clip0_40_1254)">
<g filter="url(#filter0_f_40_1254)">
<circle cx="23.4999" cy="23.4998" r="20.68" fill="url(#paint0_linear_40_1254)"/>
</g>
<g filter="url(#filter1_d_40_1254)">
<circle cx="23.4999" cy="23.4998" r="20.68" fill="url(#paint1_linear_40_1254)"/>
<circle cx="23.4999" cy="23.4998" r="20.1056" stroke="#AAAAAA" stroke-width="1.14889"/>
</g>
<path fill-rule="evenodd" clip-rule="evenodd" d="M26.2416 34.7803C26.2416 35.2994 25.8208 35.7203 25.3016 35.7203H22.5298C22.0107 35.7203 21.5898 35.2994 21.5898 34.7803V32.0085C21.5898 31.4893 22.0107 31.0685 22.5298 31.0685H25.3016C25.8208 31.0685 26.2416 31.4893 26.2416 32.0085V34.7803ZM27.4046 24.0907C27.0671 24.21 26.7745 24.4302 26.5665 24.7215C26.3584 25.0127 26.245 25.3609 26.2416 25.7189C26.2416 25.8342 26.2416 26.2358 26.2416 26.6396C26.2416 27.1587 25.8208 27.5796 25.3016 27.5796H22.5298C22.0107 27.5796 21.5898 27.1587 21.5898 26.6396V25.2537C21.5044 24.4913 21.691 23.7233 22.1165 23.0851C22.542 22.4468 23.1792 21.9792 23.9157 21.7648C24.6523 21.5504 25.2894 21.0828 25.715 20.4446C26.1405 19.8063 26.327 19.0383 26.2416 18.2759C26.2416 17.113 26.2416 15.95 23.9157 15.95C21.9586 15.95 21.6483 15.95 21.5991 17.3357C21.5807 17.8545 21.169 18.2759 20.6498 18.2759H17.8107C17.3186 18.2759 16.9023 17.8952 16.9317 17.4039C16.97 16.7633 17.1029 16.1302 17.3274 15.5256C17.6535 14.6475 18.1652 13.8501 18.8275 13.1878C19.4899 12.5254 20.2873 12.0137 21.1654 11.6877C22.0435 11.3616 22.9816 11.2287 23.9157 11.2982C24.8408 11.2657 25.7627 11.424 26.6239 11.7632C27.4852 12.1023 28.2675 12.6151 28.922 13.2697C29.5765 13.9242 30.0893 14.7065 30.4285 15.5677C30.7677 16.429 30.9259 17.3509 30.8934 18.2759C30.9932 19.4883 30.7103 20.7015 30.0844 21.7446C29.4585 22.7877 28.5213 23.6082 27.4046 24.0907Z" fill="#AAAAAA"/>
</g>
<defs>
<filter id="filter0_f_40_1254" x="-0.62672" y="-0.626842" width="48.2533" height="48.2534" filterUnits="userSpaceOnUse" color-interpolation-filters="sRGB">
<feFlood flood-opacity="0" result="BackgroundImageFix"/>
<feBlend mode="normal" in="SourceGraphic" in2="BackgroundImageFix" result="shape"/>
<feGaussianBlur stdDeviation="1.72333" result="effect1_foregroundBlur_40_1254"/>
</filter>
<filter id="filter1_d_40_1254" x="0.522169" y="2.81982" width="45.9555" height="45.9557" filterUnits="userSpaceOnUse" color-interpolation-filters="sRGB">
<feFlood flood-opacity="0" result="BackgroundImageFix"/>
<feColorMatrix in="SourceAlpha" type="matrix" values="0 0 0 0 0 0 0 0 0 0 0 0 0 0 0 0 0 0 127 0" result="hardAlpha"/>
<feOffset dy="2.29778"/>
<feGaussianBlur stdDeviation="1.14889"/>
<feComposite in2="hardAlpha" operator="out"/>
<feColorMatrix type="matrix" values="0 0 0 0 0 0 0 0 0 0 0 0 0 0 0 0 0 0 0.75 0"/>
<feBlend mode="normal" in2="BackgroundImageFix" result="effect1_dropShadow_40_1254"/>
<feBlend mode="normal" in="SourceGraphic" in2="effect1_dropShadow_40_1254" result="shape"/>
</filter>
<linearGradient id="paint0_linear_40_1254" x1="23.4999" y1="2.81982" x2="23.4999" y2="44.1798" gradientUnits="userSpaceOnUse">
<stop offset="0" stop-color="#323232"/>
<stop offset="1"/>
</linearGradient>
<linearGradient id="paint1_linear_40_1254" x1="23.4999" y1="2.81982" x2="23.4999" y2="44.1798" gradientUnits="userSpaceOnUse">
<stop offset="0" stop-color="#323232"/>
<stop offset="1"/>
</linearGradient>
<clipPath id="clip0_40_1254">
<rect width="47" height="47" fill="white"/>
</clipPath>
</defs>
</svg>
