<svg width="47" height="47" viewBox="0 0 47 47" fill="none" xmlns="http://www.w3.org/2000/svg">
<g clip-path="url(#clip0_40_1251)">
<g filter="url(#filter0_f_40_1251)">
<path fill-rule="evenodd" clip-rule="evenodd" d="M42.065 10.1051L37.2475 5.2876L23.8525 18.8001L10.4575 5.2876L5.64001 10.1051L19.1525 23.5001L5.64001 36.8951L10.4575 41.7126L23.8525 28.2001L37.2475 41.7126L42.065 36.8951L28.5525 23.5001L42.065 10.1051Z" fill="#AAAAAA"/>
</g>
<g filter="url(#filter1_d_40_1251)">
<path fill-rule="evenodd" clip-rule="evenodd" d="M41.7125 10.1051L36.895 5.2876L23.5 18.8001L10.105 5.2876L5.28748 10.1051L18.8 23.5001L5.28748 36.8951L10.105 41.7126L23.5 28.2001L36.895 41.7126L41.7125 36.8951L28.2 23.5001L41.7125 10.1051Z" fill="#AAAAAA"/>
</g>
</g>
<defs>
<filter id="filter0_f_40_1251" x="1.23376" y="0.881348" width="45.2375" height="45.2375" filterUnits="userSpaceOnUse" color-interpolation-filters="sRGB">
<feFlood flood-opacity="0" result="BackgroundImageFix"/>
<feBlend mode="normal" in="SourceGraphic" in2="BackgroundImageFix" result="shape"/>
<feGaussianBlur stdDeviation="2.20312" result="effect1_foregroundBlur_40_1251"/>
</filter>
<filter id="filter1_d_40_1251" x="2.34998" y="5.2876" width="42.3" height="42.3" filterUnits="userSpaceOnUse" color-interpolation-filters="sRGB">
<feFlood flood-opacity="0" result="BackgroundImageFix"/>
<feColorMatrix in="SourceAlpha" type="matrix" values="0 0 0 0 0 0 0 0 0 0 0 0 0 0 0 0 0 0 127 0" result="hardAlpha"/>
<feOffset dy="2.9375"/>
<feGaussianBlur stdDeviation="1.46875"/>
<feComposite in2="hardAlpha" operator="out"/>
<feColorMatrix type="matrix" values="0 0 0 0 0 0 0 0 0 0 0 0 0 0 0 0 0 0 0.75 0"/>
<feBlend mode="normal" in2="BackgroundImageFix" result="effect1_dropShadow_40_1251"/>
<feBlend mode="normal" in="SourceGraphic" in2="effect1_dropShadow_40_1251" result="shape"/>
</filter>
<clipPath id="clip0_40_1251">
<rect width="47" height="47" fill="white"/>
</clipPath>
</defs>
</svg>
