<svg width="81" height="77" viewBox="0 0 81 77" fill="none" xmlns="http://www.w3.org/2000/svg">
<g filter="url(#filter0_f_51_1364)">
<path d="M20.4156 70.9303C20.1894 70.4465 20.1086 69.9075 20.1831 69.3786C20.2575 68.8498 20.484 68.3539 20.835 67.9514C36.9975 49.4041 47.5347 29.9359 53.9961 6.68279C54.0897 6.33048 54.2522 6.00033 54.4744 5.7113C54.6965 5.42228 54.9738 5.18008 55.2902 4.99896C55.6065 4.81784 55.9559 4.70135 56.3176 4.6561C56.6793 4.61085 57.0463 4.63789 57.3975 4.73551C57.7487 4.83312 58.0771 4.99924 58.3636 5.22464C58.6501 5.45005 58.889 5.73016 59.0665 6.04855C59.2441 6.36693 59.3567 6.71728 59.3978 7.07949C59.439 7.4417 59.4079 7.80851 59.3063 8.15861C52.619 32.2313 41.7123 52.3824 24.9899 71.5721C24.6886 71.918 24.3058 72.1831 23.8761 72.3436C23.4464 72.5041 22.9835 72.5548 22.5293 72.4912C22.0751 72.4275 21.6439 72.2515 21.2749 71.9791C20.9059 71.7067 20.6106 71.3464 20.416 70.931L20.4156 70.9303Z" fill="red"/>
</g>
<path d="M22.4156 70.9303C22.1894 70.4465 22.1086 69.9075 22.1831 69.3786C22.2575 68.8498 22.484 68.3539 22.835 67.9514C38.9975 49.4041 49.5347 29.9359 55.9961 6.68279C56.0897 6.33048 56.2522 6.00033 56.4744 5.7113C56.6965 5.42228 56.9738 5.18008 57.2902 4.99896C57.6065 4.81784 57.9559 4.70135 58.3176 4.6561C58.6793 4.61085 59.0463 4.63789 59.3975 4.73551C59.7487 4.83312 60.0771 4.99924 60.3636 5.22464C60.6501 5.45005 60.889 5.73016 61.0665 6.04855C61.2441 6.36693 61.3567 6.71728 61.3978 7.07949C61.439 7.4417 61.4079 7.80851 61.3063 8.15861C54.619 32.2313 43.7123 52.3824 26.9899 71.5721C26.6886 71.918 26.3058 72.1831 25.8761 72.3436C25.4464 72.5041 24.9835 72.5548 24.5293 72.4912C24.0751 72.4275 23.6439 72.2515 23.2749 71.9791C22.9059 71.7067 22.6106 71.3464 22.416 70.931L22.4156 70.9303Z" fill="red"/>
<defs>
<filter id="filter0_f_51_1364" x="16.1562" y="0.634766" width="47.2593" height="75.8833" filterUnits="userSpaceOnUse" color-interpolation-filters="sRGB">
<feFlood flood-opacity="0" result="BackgroundImageFix"/>
<feBlend mode="normal" in="SourceGraphic" in2="BackgroundImageFix" result="shape"/>
<feGaussianBlur stdDeviation="2" result="effect1_foregroundBlur_51_1364"/>
</filter>
</defs>
</svg>
