<svg width="52" height="74" viewBox="0 0 52 74" fill="none" xmlns="http://www.w3.org/2000/svg">
<g filter="url(#filter0_f_51_1360)">
<path d="M44.161 69.9139C43.6289 69.8679 43.1217 69.6683 42.7009 69.3394C42.2801 69.0105 41.964 68.5664 41.7909 68.0612C33.8097 44.7904 22.2183 25.9308 5.31122 8.70855C5.05293 8.4513 4.84825 8.14552 4.70902 7.80862C4.56979 7.47172 4.49869 7.11048 4.50002 6.74594C4.50134 6.38141 4.57513 6.02062 4.7168 5.68474C4.85848 5.34886 5.06537 5.04458 5.32552 4.78922C5.58567 4.53386 5.89372 4.33253 6.23218 4.19712C6.57063 4.0617 6.93267 3.99487 7.29717 4.00031C7.66167 4.00575 8.02138 4.08341 8.35564 4.22887C8.6899 4.37432 8.99202 4.58466 9.24443 4.84767C26.7483 22.6754 38.7464 42.1964 47.004 66.2733C47.1528 66.7072 47.191 67.1713 47.1152 67.6237C47.0393 68.076 46.8518 68.5022 46.5696 68.8638C46.2873 69.2253 45.9193 69.5108 45.4989 69.6941C45.0784 69.8775 44.6188 69.953 44.1618 69.9139H44.161Z" fill="black"/>
</g>
<path d="M45.661 67.9139C45.1289 67.8679 44.6217 67.6683 44.2009 67.3394C43.7801 67.0105 43.464 66.5664 43.2909 66.0612C35.3097 42.7904 23.7183 23.9308 6.81122 6.70855C6.55293 6.4513 6.34825 6.14552 6.20902 5.80862C6.06979 5.47172 5.99869 5.11048 6.00002 4.74594C6.00134 4.38141 6.07513 4.02062 6.2168 3.68474C6.35848 3.34886 6.56537 3.04458 6.82552 2.78922C7.08567 2.53386 7.39372 2.33253 7.73218 2.19712C8.07063 2.0617 8.43267 1.99487 8.79717 2.00031C9.16167 2.00575 9.52138 2.08341 9.85564 2.22887C10.1899 2.37432 10.492 2.58466 10.7444 2.84767C28.2483 20.6754 40.2464 40.1964 48.504 64.2733C48.6528 64.7072 48.691 65.1713 48.6152 65.6237C48.5393 66.076 48.3518 66.5022 48.0696 66.8638C47.7873 67.2253 47.4193 67.5108 46.9989 67.6941C46.5784 67.8775 46.1188 67.953 45.6618 67.9139H45.661Z" fill="white"/>
<defs>
<filter id="filter0_f_51_1360" x="0.5" y="0" width="50.6531" height="73.9238" filterUnits="userSpaceOnUse" color-interpolation-filters="sRGB">
<feFlood flood-opacity="0" result="BackgroundImageFix"/>
<feBlend mode="normal" in="SourceGraphic" in2="BackgroundImageFix" result="shape"/>
<feGaussianBlur stdDeviation="2" result="effect1_foregroundBlur_51_1360"/>
</filter>
</defs>
</svg>
