<svg width="58" height="58" viewBox="0 0 58 58" fill="none" xmlns="http://www.w3.org/2000/svg">
<g filter="url(#filter0_d_6_90)">
<path fill-rule="evenodd" clip-rule="evenodd" d="M52 27C52 39.7025 41.7025 50 29 50C16.2975 50 6 39.7025 6 27C6 14.2975 16.2975 4 29 4C41.7025 4 52 14.2975 52 27ZM56 27C56 41.9117 43.9117 54 29 54C14.0883 54 2 41.9117 2 27C2 12.0883 14.0883 0 29 0C43.9117 0 56 12.0883 56 27ZM32 12C32 13.6569 30.6569 15 29 15C27.3431 15 26 13.6569 26 12C26 10.3431 27.3431 9 29 9C30.6569 9 32 10.3431 32 12ZM32 20V44H26V20H32Z" fill="#AAAAAA"/>
</g>
<defs>
<filter id="filter0_d_6_90" x="0" y="0" width="58" height="58" filterUnits="userSpaceOnUse" color-interpolation-filters="sRGB">
<feFlood flood-opacity="0" result="BackgroundImageFix"/>
<feColorMatrix in="SourceAlpha" type="matrix" values="0 0 0 0 0 0 0 0 0 0 0 0 0 0 0 0 0 0 127 0" result="hardAlpha"/>
<feOffset dy="2"/>
<feGaussianBlur stdDeviation="1"/>
<feColorMatrix type="matrix" values="0 0 0 0 0 0 0 0 0 0 0 0 0 0 0 0 0 0 0.75 0"/>
<feBlend mode="normal" in2="BackgroundImageFix" result="effect1_dropShadow_6_90"/>
<feBlend mode="normal" in="SourceGraphic" in2="effect1_dropShadow_6_90" result="shape"/>
</filter>
</defs>
</svg>
