<svg width="58" height="58" viewBox="0 0 58 58" fill="none" xmlns="http://www.w3.org/2000/svg">
<g filter="url(#filter0_d_6_85)">
<path fill-rule="evenodd" clip-rule="evenodd" d="M29 0C23.6599 0 18.4397 1.58352 13.9996 4.55032C9.55949 7.51712 6.09883 11.7339 4.05526 16.6675C2.0117 21.6012 1.47701 27.03 2.51881 32.2674C3.56061 37.5049 6.13211 42.3159 9.90813 46.0919C13.6841 49.8679 18.4951 52.4394 23.7326 53.4812C28.9701 54.523 34.3989 53.9883 39.3325 51.9447C44.2661 49.9012 48.4829 46.4405 51.4497 42.0004C54.4165 37.5603 56 32.3401 56 27C56 19.8392 53.1554 12.9716 48.0919 7.90812C43.0284 2.84464 36.1609 0 29 0ZM32 43.5H26V37.5H32V43.5ZM33.5 28.5C33.0647 28.6539 32.6873 28.9379 32.419 29.3136C32.1507 29.6892 32.0044 30.1384 32 30.6C32 30.9 32 32.7 32 33H26V30C25.8899 29.0167 26.1305 28.0261 26.6793 27.2029C27.2282 26.3796 28.05 25.7765 29 25.5C29.95 25.2235 30.7719 24.6204 31.3207 23.7971C31.8695 22.9739 32.1101 21.9833 32 21C32 19.5 32 18 29 18C26 18 26 18 26 21H20C19.9104 19.7952 20.0817 18.5852 20.5023 17.4526C20.9229 16.32 21.5829 15.2915 22.4372 14.4372C23.2915 13.5829 24.32 12.9229 25.4526 12.5023C26.5852 12.0817 27.7952 11.9104 29 12C30.1932 11.9581 31.3822 12.1622 32.4931 12.5997C33.604 13.0372 34.613 13.6986 35.4572 14.5428C36.3014 15.387 36.9629 16.396 37.4003 17.5069C37.8378 18.6178 38.0419 19.8068 38 21C38.1287 22.5637 37.7637 24.1285 36.9565 25.4739C36.1492 26.8193 34.9403 27.8777 33.5 28.5Z" fill="#AAAAAA"/>
</g>
<defs>
<filter id="filter0_d_6_85" x="0" y="0" width="58" height="58" filterUnits="userSpaceOnUse" color-interpolation-filters="sRGB">
<feFlood flood-opacity="0" result="BackgroundImageFix"/>
<feColorMatrix in="SourceAlpha" type="matrix" values="0 0 0 0 0 0 0 0 0 0 0 0 0 0 0 0 0 0 127 0" result="hardAlpha"/>
<feOffset dy="2"/>
<feGaussianBlur stdDeviation="1"/>
<feComposite in2="hardAlpha" operator="out"/>
<feColorMatrix type="matrix" values="0 0 0 0 0 0 0 0 0 0 0 0 0 0 0 0 0 0 0.75 0"/>
<feBlend mode="normal" in2="BackgroundImageFix" result="effect1_dropShadow_6_85"/>
<feBlend mode="normal" in="SourceGraphic" in2="effect1_dropShadow_6_85" result="shape"/>
</filter>
</defs>
</svg>
