<svg width="60" height="60" viewBox="0 0 60 60" fill="none" xmlns="http://www.w3.org/2000/svg">
<g opacity="0.96" clip-path="url(#clip0_7_113)">
<g filter="url(#filter0_d_7_113)">
<path fill-rule="evenodd" clip-rule="evenodd" d="M16.65 55.5H43.35L46.5 19.5H13.5L16.65 55.5ZM42 12V9C42 7.80653 41.5259 6.66193 40.682 5.81802C39.8381 4.97411 38.6935 4.5 37.5 4.5H22.5C21.3065 4.5 20.1619 4.97411 19.318 5.81802C18.4741 6.66193 18 7.80653 18 9V12H9V16.5H51V12H42ZM37.5 12H22.5V10.5C22.5 10.1022 22.658 9.72064 22.9393 9.43934C23.2206 9.15804 23.6022 9 24 9H36C36.3978 9 36.7794 9.15804 37.0607 9.43934C37.342 9.72064 37.5 10.1022 37.5 10.5V12Z" fill="url(#paint0_linear_7_113)"/>
</g>
</g>
<defs>
<filter id="filter0_d_7_113" x="7" y="4.5" width="46" height="55" filterUnits="userSpaceOnUse" color-interpolation-filters="sRGB">
<feFlood flood-opacity="0" result="BackgroundImageFix"/>
<feColorMatrix in="SourceAlpha" type="matrix" values="0 0 0 0 0 0 0 0 0 0 0 0 0 0 0 0 0 0 127 0" result="hardAlpha"/>
<feOffset dy="2"/>
<feGaussianBlur stdDeviation="1"/>
<feComposite in2="hardAlpha" operator="out"/>
<feColorMatrix type="matrix" values="0 0 0 0 0 0 0 0 0 0 0 0 0 0 0 0 0 0 0.75 0"/>
<feBlend mode="normal" in2="BackgroundImageFix" result="effect1_dropShadow_7_113"/>
<feBlend mode="normal" in="SourceGraphic" in2="effect1_dropShadow_7_113" result="shape"/>
</filter>
<linearGradient id="paint0_linear_7_113" x1="30" y1="4.5" x2="30" y2="55.5" gradientUnits="userSpaceOnUse">
<stop offset="0" stop-color="#FD004C"/>
<stop offset="1" stop-color="#AB0000"/>
</linearGradient>
<clipPath id="clip0_7_113">
<rect width="60" height="60" fill="white"/>
</clipPath>
</defs>
</svg>
