<svg width="58" height="58" viewBox="0 0 58 58" fill="none" xmlns="http://www.w3.org/2000/svg">
<g filter="url(#filter0_d_17_1047)">
<path fill-rule="evenodd" clip-rule="evenodd" d="M48.0852 8.43598C42.9773 3.36792 36.1886 0.582908 28.9755 0.582908C23.2475 0.582908 17.7969 2.36402 13.2439 5.61859L7.56482 0L4.67634 10.881L2 21.6486L12.7543 18.8798L23.7208 16.0138L19.1188 11.4477C22.0562 9.65037 25.4343 8.66267 28.9755 8.66267C34.0181 8.66267 38.7507 10.6057 42.3082 14.1517C45.8658 17.6816 47.8241 22.1829 47.8241 27.1862C47.8241 32.1895 45.8658 36.8852 42.3082 40.415C38.7507 43.9448 34.0018 45.904 28.9755 45.904C23.9329 45.904 19.2004 43.961 15.6428 40.415L9.86582 46.1469C14.9737 51.215 21.7625 54 28.9755 54C36.1886 54 42.9773 51.215 48.0852 46.1469C53.1931 41.0789 56 34.343 56 27.1862C56 20.0456 53.1931 13.504 48.0852 8.43598Z" fill="#AAAAAA"/>
</g>
<defs>
<filter id="filter0_d_17_1047" x="0" y="0" width="58" height="58" filterUnits="userSpaceOnUse" color-interpolation-filters="sRGB">
<feFlood flood-opacity="0" result="BackgroundImageFix"/>
<feColorMatrix in="SourceAlpha" type="matrix" values="0 0 0 0 0 0 0 0 0 0 0 0 0 0 0 0 0 0 127 0" result="hardAlpha"/>
<feOffset dy="2"/>
<feGaussianBlur stdDeviation="1"/>
<feComposite in2="hardAlpha" operator="out"/>
<feColorMatrix type="matrix" values="0 0 0 0 0 0 0 0 0 0 0 0 0 0 0 0 0 0 0.75 0"/>
<feBlend mode="normal" in2="BackgroundImageFix" result="effect1_dropShadow_17_1047"/>
<feBlend mode="normal" in="SourceGraphic" in2="effect1_dropShadow_17_1047" result="shape"/>
</filter>
</defs>
</svg>
