<svg width="10" height="36" viewBox="0 0 10 36" fill="none" xmlns="http://www.w3.org/2000/svg">
<path fill-rule="evenodd" clip-rule="evenodd" d="M7.85617 2.58407L7.72461 3.43648L7.65881 3.86282C6.19408 13.3606 6.12743 23.0237 7.46076 32.584L7.52032 33.011L7.63956 33.8657L6.80933 33.9882L3.48977 34.4779L2.66011 34.6004L2.5409 33.7463L2.48126 33.3192C1.07597 23.2437 1.14628 13.0598 2.69017 3.05052L2.75501 2.62525L2.8853 1.771L3.71492 1.90669L7.02809 2.4486L7.85617 2.58407Z" fill="black"/>
<path fill-rule="evenodd" clip-rule="evenodd" d="M6.89636 3.30115L3.58319 2.75923L3.51811 3.18598C1.98472 13.1272 1.92296 23.2443 3.31103 33.1966L3.37066 33.6237L6.69023 33.1339L6.63064 32.7068C5.29025 23.0958 5.3501 13.3273 6.83057 3.72749L6.89636 3.30115ZM8.81561 1.86718L8.4867 3.99835C7.03518 13.4104 6.9692 22.9869 8.29056 32.4615L8.58858 34.5977L1.94926 35.5773L1.65115 33.4421C0.233926 23.2807 0.304841 13.0101 1.86194 2.91529L2.18707 0.782959L8.81561 1.86718Z" fill="white"/>
</svg>
