<svg width="25" height="32" viewBox="0 0 25 32" fill="none" xmlns="http://www.w3.org/2000/svg">
<g clip-path="url(#clip0_1981_1504)">
<path fill-rule="evenodd" clip-rule="evenodd" d="M22.372 4.17751L21.844 4.82885L21.58 5.15462C15.6982 12.4125 10.947 20.5087 7.45815 29.2182L7.3023 29.6072L6.99047 30.3858L6.21198 30.0737L3.09926 28.826L2.32129 28.5142L2.63285 27.7361L2.78866 27.347C6.46549 18.1679 11.4728 9.63567 17.6716 1.98693L17.9342 1.66159L18.462 1.00806L19.1145 1.53701L21.7207 3.6495L22.372 4.17751Z" fill="black"/>
<path fill-rule="evenodd" clip-rule="evenodd" d="M21.1927 4.30079L18.5866 2.1883L18.323 2.51477C12.1665 10.1114 7.19898 18.5919 3.56713 27.6586L3.41131 28.0478L6.52405 29.2955L6.67988 28.9064C10.1873 20.1506 14.9838 11.9625 20.9287 4.62656L21.1927 4.30079ZM23.5514 4.05405L22.2314 5.6825C16.4027 12.875 11.6941 20.8985 8.23656 29.5299L7.45708 31.4761L1.23145 28.9806L2.01036 27.0352C5.71853 17.778 10.7686 9.173 17.0202 1.45896L18.3375 -0.172363L23.5514 4.05405Z" fill="white"/>
</g>
<defs>
<clipPath id="clip0_1981_1504">
<rect width="24" height="32" fill="white" transform="translate(0.177002)"/>
</clipPath>
</defs>
</svg>
