<svg width="31" height="31" viewBox="0 0 31 31" fill="none" xmlns="http://www.w3.org/2000/svg">
<g clip-path="url(#clip0_1947_1616)">
<path d="M15.5 0C11.3891 0 7.44666 1.63303 4.53985 4.53985C1.63303 7.44665 0 11.3891 0 15.5C0 18.5656 0.909058 21.5624 2.61222 24.1114C4.31538 26.6603 6.73616 28.647 9.56841 29.8201C12.4007 30.9933 15.5172 31.3003 18.5239 30.7021C21.5306 30.1041 24.2925 28.6279 26.4601 26.4601C28.6279 24.2925 30.1041 21.5306 30.7021 18.5239C31.3003 15.5172 30.9933 12.4007 29.8201 9.56841C28.647 6.73615 26.6603 4.31538 24.1114 2.61222C21.5624 0.909058 18.5656 0 15.5 0ZM17.2222 23.25H13.7778V13.7778H17.2222V23.25ZM17.2222 11.1944H13.7778V7.75H17.2222V11.1944Z" fill="#AAAAAA"/>
</g>
<defs>
<clipPath id="clip0_1947_1616">
<rect width="31" height="31" fill="white"/>
</clipPath>
</defs>
</svg>
