<svg width="23" height="32" viewBox="0 0 23 32" fill="none" xmlns="http://www.w3.org/2000/svg">
<g clip-path="url(#clip0_1981_1512)">
<path fill-rule="evenodd" clip-rule="evenodd" d="M1.4353 27.3611L1.96327 26.7098L2.22733 26.3841C8.10901 19.1262 12.8603 11.03 16.3491 2.32046L16.505 1.93142L16.8168 1.15283L17.5953 1.4649L20.708 2.71262L21.486 3.02446L21.1744 3.80254L21.0186 4.19168C17.3418 13.3707 12.3345 21.903 6.13575 29.5518L5.87304 29.8771L5.34528 30.5306L4.69273 30.0017L2.08664 27.8892L1.4353 27.3611Z" fill="black"/>
<path fill-rule="evenodd" clip-rule="evenodd" d="M2.61449 27.2378L5.22057 29.3503L5.48421 29.0238C11.6407 21.4272 16.6082 12.9467 20.2401 3.88L20.396 3.49085L17.2832 2.24313L17.1274 2.63223C13.6199 11.3879 8.82343 19.5761 2.87856 26.9121L2.61449 27.2378ZM0.255859 27.4846L1.57586 25.8561C7.40452 18.6636 12.1131 10.6401 15.5707 2.00864L16.3501 0.0625L22.5758 2.55802L21.7969 4.50336C18.0887 13.7605 13.0387 22.3656 6.78702 30.0796L5.46974 31.711L0.255859 27.4846Z" fill="white"/>
</g>
<defs>
<clipPath id="clip0_1981_1512">
<rect width="23" height="32" fill="white"/>
</clipPath>
</defs>
</svg>
