<svg width="31" height="31" viewBox="0 0 31 31" fill="none" xmlns="http://www.w3.org/2000/svg">
<g clip-path="url(#clip0_1947_1637)">
<path fill-rule="evenodd" clip-rule="evenodd" d="M15.5 0C12.4344 0 9.43761 0.909058 6.88867 2.61222C4.33971 4.31538 2.35303 6.73615 1.17988 9.56841C0.00671583 12.4007 -0.300236 15.5172 0.297835 18.5239C0.895909 21.5306 2.37214 24.2925 4.53986 26.4601C6.70756 28.6279 9.46938 30.1041 12.4761 30.7021C15.4828 31.3003 18.5993 30.9933 21.4316 29.8201C24.2639 28.647 26.6846 26.6603 28.3878 24.1114C30.0909 21.5624 31 18.5656 31 15.5C31 11.3891 29.367 7.44665 26.4601 4.53985C23.5534 1.63303 19.6109 0 15.5 0ZM17.2222 24.9722H13.7778V21.5278H17.2222V24.9722ZM18.0833 16.3611C17.8334 16.4495 17.6168 16.6125 17.4627 16.8282C17.3088 17.0438 17.2247 17.3016 17.2222 17.5667C17.2222 17.7389 17.2222 18.7722 17.2222 18.9444H13.7778V17.2222C13.7146 16.6578 13.8527 16.0891 14.1678 15.6164C14.4829 15.1438 14.9547 14.7977 15.5 14.6389C16.0453 14.4801 16.5171 14.1339 16.8322 13.6614C17.1473 13.1887 17.2854 12.62 17.2222 12.0556C17.2222 11.1944 17.2222 10.3333 15.5 10.3333C13.7778 10.3333 13.7778 10.3333 13.7778 12.0556H10.3333C10.2819 11.3639 10.3803 10.6693 10.6217 10.0191C10.8632 9.36889 11.242 8.77842 11.7325 8.28799C12.2229 7.79757 12.8133 7.41869 13.4636 7.17725C14.1137 6.93579 14.8084 6.83744 15.5 6.88889C16.185 6.86483 16.8676 6.98202 17.5054 7.23315C18.143 7.48429 18.7223 7.864 19.2069 8.34865C19.6915 8.83328 20.0713 9.41255 20.3224 10.0503C20.5736 10.6879 20.6907 11.3705 20.6667 12.0556C20.7405 12.9533 20.531 13.8515 20.0676 14.6239C19.6041 15.3962 18.9102 16.0038 18.0833 16.3611Z" fill="black"/>
</g>
<defs>
<clipPath id="clip0_1947_1637">
<rect width="31" height="31" fill="white"/>
</clipPath>
</defs>
</svg>
