<svg width="28" height="28" viewBox="0 0 28 28" fill="none" xmlns="http://www.w3.org/2000/svg">
<g clip-path="url(#clip0_1947_1644)">
<path fill-rule="evenodd" clip-rule="evenodd" d="M10.8825 0.743286C5.17618 0.743286 0.550293 5.36917 0.550293 11.0755C0.550293 16.7818 5.17618 21.4077 10.8825 21.4077C13.2565 21.4077 15.4436 20.6069 17.1883 19.2609L25.403 27.2568L27.4498 25.1539L19.2353 17.1582C20.4801 15.4517 21.2147 13.3494 21.2147 11.0755C21.2147 5.36917 16.5888 0.743286 10.8825 0.743286ZM3.48491 11.0755C3.48491 6.98991 6.79691 3.6779 10.8825 3.6779C14.9681 3.6779 18.2801 6.98991 18.2801 11.0755C18.2801 15.161 14.9681 18.473 10.8825 18.473C6.79691 18.473 3.48491 15.161 3.48491 11.0755Z" fill="#AAAAAA"/>
</g>
<defs>
<clipPath id="clip0_1947_1644">
<rect width="28" height="28" fill="white"/>
</clipPath>
</defs>
</svg>
