<svg width="60" height="60" viewBox="0 0 60 60" fill="none" xmlns="http://www.w3.org/2000/svg">
<path fill-rule="evenodd" clip-rule="evenodd" d="M24.2025 3C12.4927 3 3 12.6309 3 24.5112C3 36.3915 12.4927 46.0224 24.2025 46.0224C29.0742 46.0224 33.5622 44.3553 37.1425 41.5529L53.9997 58.2L58.2 53.8219L41.3432 37.1751C43.8976 33.6224 45.405 29.2454 45.405 24.5112C45.405 12.6309 35.9123 3 24.2025 3ZM9.02207 24.5112C9.02207 16.0052 15.8186 9.10975 24.2025 9.10975C32.5864 9.10975 39.3829 16.0052 39.3829 24.5112C39.3829 33.0172 32.5864 39.9127 24.2025 39.9127C15.8186 39.9127 9.02207 33.0172 9.02207 24.5112Z" fill="#AAAAAA"/>
</svg>
